<?xml version="1.0" encoding="UTF-8"?> <svg xmlns="http://www.w3.org/2000/svg" xmlns:xlink="http://www.w3.org/1999/xlink" viewBox="0 0 540.12 363.47"> <defs> <linearGradient id="Безымянный_градиент_12" x1="-78.19" y1="988.28" x2="-77.19" y2="988.28" gradientTransform="matrix(0, -192.27, -192.27, 0, 190331.9, -14719.98)" gradientUnits="userSpaceOnUse"> <stop offset="0" stop-color="#4d4d4d"></stop> <stop offset="1" stop-color="#fff"></stop> </linearGradient> <linearGradient id="Безымянный_градиент_12-2" x1="-78.8" y1="988.29" x2="-77.8" y2="988.29" gradientTransform="matrix(0, -236.82, -236.82, 0, 234456.82, -18297.84)" xlink:href="#Безымянный_градиент_12"></linearGradient> <clipPath id="clip-path"> <rect x="221.55" y="135.08" width="314.75" height="157.87" style="fill:none"></rect> </clipPath> <clipPath id="clip-path-2"> <rect x="211.14" y="121.14" width="215.9" height="192.27" style="fill:none"></rect> </clipPath> <clipPath id="clip-path-3"> <polygon points="211.14 252.65 311.21 121.14 427.04 122.76 310.93 313.41 213.95 309.92 211.14 252.65" style="fill:none"></polygon> </clipPath> <mask id="mask" x="211.14" y="121.14" width="215.9" height="192.27" maskUnits="userSpaceOnUse"> <rect x="211.14" y="121.14" width="215.9" height="192.27" style="fill:url(#Безымянный_градиент_12)"></rect> </mask> <linearGradient id="Безымянный_градиент_11" x1="-78.19" y1="988.28" x2="-77.19" y2="988.28" gradientTransform="matrix(0, -192.27, -192.27, 0, 190331.9, -14719.98)" gradientUnits="userSpaceOnUse"> <stop offset="0" stop-color="#fff"></stop> <stop offset="1" stop-color="#fff"></stop> </linearGradient> <clipPath id="clip-path-4"> <rect x="337.39" y="126.65" width="138.62" height="236.82" style="fill:none"></rect> </clipPath> <clipPath id="clip-path-5"> <polygon points="337.39 312.53 434 129.41 476.01 126.65 392.52 363.08 351.27 363.47 337.39 312.53" style="fill:none"></polygon> </clipPath> <mask id="mask-2" x="337.39" y="126.65" width="138.62" height="236.82" maskUnits="userSpaceOnUse"> <rect x="337.39" y="126.65" width="138.62" height="236.82" style="fill:url(#Безымянный_градиент_12-2)"></rect> </mask> <linearGradient id="Безымянный_градиент_11-2" x1="-78.8" y1="988.29" x2="-77.8" y2="988.29" gradientTransform="matrix(0, -236.82, -236.82, 0, 234456.82, -18297.84)" xlink:href="#Безымянный_градиент_11"></linearGradient> </defs> <title>Ресурс 2солнечные панели</title> <g style="isolation:isolate"> <g id="Слой_2" data-name="Слой 2"> <g id="Слой_1-2" data-name="Слой 1"> <path d="M67.45,102.43l3.17-18.27c-.19-.13-.38-.27-.56-.42a56.79,56.79,0,0,1-4.75-3.83,28,28,0,0,1-2.68-3.34c-1.94-2.55-4-5-5.77-7.65-2-2.87-3.77-5.89-5.69-8.81-1.48-2.26-3.1-4.43-4.56-6.69a43.56,43.56,0,0,1-2.54-4.52,2.26,2.26,0,0,1,0-1.64,7.26,7.26,0,0,1,1.14-1.45c1.29-1.58,2.56-3.18,3.85-4.77a1.23,1.23,0,0,0,0-1.75c-.65-.78-1.24-1.62-1.85-2.45a17.17,17.17,0,0,0-5.71-4.65A1.82,1.82,0,0,1,40.4,30c.2-1.21.41-2.43.62-3.65.72-4.22-.59-8-2.81-11.47a20.54,20.54,0,0,0-7.74-6.83C25.89,5.57,21.22,3.28,16.58.93A11.31,11.31,0,0,0,14.32.11a1.18,1.18,0,0,0-.87.42c-.71.76-1.3,1.65-2,2.38-1.41,1.37-1.6,2.64-.19,4a55.08,55.08,0,0,0,4.78,4c3,2.3,5.58,4.82,6.45,8.71.61,2.7.92,5.22-.81,7.74a5.23,5.23,0,0,1-6.41,1.8c-2.12-.78-3.1-2.59-4-4.41-1.56-3-2.14-6.32-2.76-9.61a26.34,26.34,0,0,0-1.32-4.24,1.47,1.47,0,0,0-2-.87l-3.74,1.1A1.48,1.48,0,0,0,.11,12.87c.07,1.2.13,2.41.22,3.61A50.67,50.67,0,0,0,.82,22,56.83,56.83,0,0,0,4.05,33a23.32,23.32,0,0,0,3.37,6.08A10.35,10.35,0,0,0,12.94,43c1.09.25,2.2.42,3.28.71,1.8.47,3.58,1,5.36,1.53a1.21,1.21,0,0,1,.65.85,4.67,4.67,0,0,1-1.16,3.3,2.29,2.29,0,0,0-.37,1.78c.37,1.2,1.05,2.3,1.54,3.47.64,1.51,1.11,3.11,1.85,4.56a35.85,35.85,0,0,0,2.85,4.56c.65.88,1.27.85,2,0,1.1-1.18,2.12-2.43,3.13-3.67s1.86-1.71,3-1.06a4.55,4.55,0,0,1,1.41,1.54c2.69,4.21,5.39,8.42,8,12.71,1.72,2.83,3.29,5.75,4.87,8.66,1.48,2.72,2.88,5.48,4.69,8.92,1.73,1.87,3.89,4.33,6.2,6.66a21.36,21.36,0,0,0,3.54,2.7c1.19.8,2.49,1.46,3.72,2.22"></path> <path d="M67.45,102.43l3.17-18.27c-.19-.13-.38-.27-.56-.42a56.79,56.79,0,0,1-4.75-3.83,28,28,0,0,1-2.68-3.34c-1.94-2.55-4-5-5.77-7.65-2-2.87-3.77-5.89-5.69-8.81-1.48-2.26-3.1-4.43-4.56-6.69a43.56,43.56,0,0,1-2.54-4.52,2.26,2.26,0,0,1,0-1.64,7.26,7.26,0,0,1,1.14-1.45c1.29-1.58,2.56-3.18,3.85-4.77a1.23,1.23,0,0,0,0-1.75c-.65-.78-1.24-1.62-1.85-2.45a17.17,17.17,0,0,0-5.71-4.65A1.82,1.82,0,0,1,40.4,30c.2-1.21.41-2.43.62-3.65.72-4.22-.59-8-2.81-11.47a20.54,20.54,0,0,0-7.74-6.83C25.89,5.57,21.22,3.28,16.58.93A11.31,11.31,0,0,0,14.32.11a1.18,1.18,0,0,0-.87.42c-.71.76-1.3,1.65-2,2.38-1.41,1.37-1.6,2.64-.19,4a55.08,55.08,0,0,0,4.78,4c3,2.3,5.58,4.82,6.45,8.71.61,2.7.92,5.22-.81,7.74a5.23,5.23,0,0,1-6.41,1.8c-2.12-.78-3.1-2.59-4-4.41-1.56-3-2.14-6.32-2.76-9.61a26.34,26.34,0,0,0-1.32-4.24,1.47,1.47,0,0,0-2-.87l-3.74,1.1A1.48,1.48,0,0,0,.11,12.87c.07,1.2.13,2.41.22,3.61A50.67,50.67,0,0,0,.82,22,56.83,56.83,0,0,0,4.05,33a23.32,23.32,0,0,0,3.37,6.08A10.35,10.35,0,0,0,12.94,43c1.09.25,2.2.42,3.28.71,1.8.47,3.58,1,5.36,1.53a1.21,1.21,0,0,1,.65.85,4.67,4.67,0,0,1-1.16,3.3,2.29,2.29,0,0,0-.37,1.78c.37,1.2,1.05,2.3,1.54,3.47.64,1.51,1.11,3.11,1.85,4.56a35.85,35.85,0,0,0,2.85,4.56c.65.88,1.27.85,2,0,1.1-1.18,2.12-2.43,3.13-3.67s1.86-1.71,3-1.06a4.55,4.55,0,0,1,1.41,1.54c2.69,4.21,5.39,8.42,8,12.71,1.72,2.83,3.29,5.75,4.87,8.66,1.48,2.72,2.88,5.48,4.69,8.92,1.73,1.87,3.89,4.33,6.2,6.66a21.36,21.36,0,0,0,3.54,2.7C64.92,101,66.22,101.67,67.45,102.43Z" style="fill:none;stroke:#030506;stroke-linecap:round;stroke-linejoin:round;stroke-width:0.2029999941587448px"></path> <path d="M195,96.19l0-.22-.84-6.87h0c-.05-.45-.11-.91-.16-1.35-1-9.49-1.6-19-2.4-28.55-.11-1.38-.27-2.75-.4-4.14a30.75,30.75,0,0,0,9.64-5.88A15.27,15.27,0,0,0,205.59,40c.78-5.08-2-10.93-5.69-12.75a81,81,0,0,0-8.54-3.7A122.89,122.89,0,0,0,177,19a108.18,108.18,0,0,0-14.36-1.81,64.06,64.06,0,0,0-9.19-.08,72.69,72.69,0,0,0-9.49,1.23,6.08,6.08,0,0,0-2.75,2.1,1.37,1.37,0,0,0-.37,1c-1,0-2,0-3.07.06l-.51,0a20.87,20.87,0,0,0-7-4.7,73.59,73.59,0,0,0-12.42-3.5c-2.34-.48-4.68-.88-7-1.26a85.92,85.92,0,0,0-12.29-1.38c-.11,0-5.42-.09-7.7.13-1.14.11-2.27.27-3.39.49s-2.18.62-3.27.92l-.34.1a26.14,26.14,0,0,0-13.37,8.9,21.71,21.71,0,0,0-3.41,6c-1.69,4.37-.46,8.26,1.84,11.47a19.67,19.67,0,0,0,7,5.93,183.43,183.43,0,0,1-3.49,29.86c-1,4.6-1.85,9.24-2.67,13.87l-1.09,6.16c0,.25-.1.51-.14.76L65,113.4c-.28,1.4-.56,2.79-.87,4.18-1.74,8.18-3.56,16.34-5.54,24.46-1.58,6.47-3.44,12.89-5.2,19.32-1.87,6.8-4,13.54-5.56,20.41-1.73,7.6-3.16,15.29-4.34,23-.69,4.54,3.32,10,6.89,10.86a80.38,80.38,0,0,1,10.17,3.3,3.3,3.3,0,0,1,1.42,2.51,44.81,44.81,0,0,1-.46,5.63c-.51,5.81-.94,11.65-1.51,17.45-.44,4.35-1.39,5-5.46,4-5.89-1.38-11,1.45-12.72,7.43-1.23,4.21-2,8.56-3,12.85a72,72,0,0,0-.64,28.2,25.33,25.33,0,0,0,2.62,7.79c2,3.74,7.56,3.65,10,.19,2.19-3.11,4.48-6.16,6.87-9.1.56-.7,1.71-.88,2.59-1.29.32.73.66,1.47.94,2.22a15.19,15.19,0,0,1,.55,1.81c.6,2.39,1.82,4.18,4.37,4.55,2.83.41,4.9-.54,6.72-3,4.29-5.89,5.77-12.76,6.67-19.69a140.15,140.15,0,0,0,1.13-21.28c-.09-4.14-1.19-8.5-6.21-10-2-.58-2.89-2.31-2.59-4.47.91-6.56,1.78-13.14,2.83-19.67.47-2.92,2.6-4.81,4.74-4.52A43.89,43.89,0,0,1,87,221.92a54.5,54.5,0,0,0,16.37,2.27c12.73.17,25.45.28,38.19.44,2.13,0,4.28.35,6.42.27,3.46-.13,6.92-.54,10.39-.74,1.61-.09,3.22.1,4.84.08,3.27,0,6.57-.33,9.83-.09,1.53.11,3.65.57,3.77,2.79.22,3.79.27,7.6.13,11.37-.12,3-.73,3.34-3.61,3.22a25,25,0,0,0-4.82,0c-5.57.9-8.19,5.27-9.17,10.13-1.17,5.83-1.34,11.89-1.63,17.86a54.05,54.05,0,0,0,.66,9c.86,7,1.3,14.55,4.51,20.95a9,9,0,0,0,12.81,4.67,17.53,17.53,0,0,0,6.66-5.09c.82-1,3.46-3.76,4-1.1s2.47,4.17,4.56,5.62c2.85,2,5.79,1.55,8.54.23,4.5-2.17,6.46-6.66,7.27-11.18,1.29-7.22,1.73-14.6,2.25-19.44.45-10.61-.23-18.61-2.68-26.37-.95-3-2.07-6.29-5.56-6.92-1.88-.35-4,.36-6,.82-2.39.58-3.4,0-3.44-2.51-.07-5.06,0-10.12.08-15.19a5,5,0,0,1,3.71-5.09c3.95-1.29,7.87-2.7,11.76-4.15,2.65-1,3.16-2.34,2.52-5.12a59,59,0,0,1-1.37-7.69c-1.34-12.72-2.46-25.47-3.9-38.18-1-8.44-2.39-16.84-3.54-25.28-.91-6.63-1.74-13.27-2.61-19.9-.82-9.24-2.07-14.91-2.88-21.38"></path> <path d="M195,96.19l0-.22-.84-6.87h0c-.05-.45-.11-.91-.16-1.35-1-9.49-1.6-19-2.4-28.55-.11-1.38-.27-2.75-.4-4.14a30.75,30.75,0,0,0,9.64-5.88A15.27,15.27,0,0,0,205.59,40c.78-5.08-2-10.93-5.69-12.75a81,81,0,0,0-8.54-3.7A122.89,122.89,0,0,0,177,19a108.18,108.18,0,0,0-14.36-1.81,64.06,64.06,0,0,0-9.19-.08,72.69,72.69,0,0,0-9.49,1.23,6.08,6.08,0,0,0-2.75,2.1,1.37,1.37,0,0,0-.37,1c-1,0-2,0-3.07.06l-.51,0a20.87,20.87,0,0,0-7-4.7,73.59,73.59,0,0,0-12.42-3.5c-2.34-.48-4.68-.88-7-1.26a85.92,85.92,0,0,0-12.29-1.38c-.11,0-5.42-.09-7.7.13-1.14.11-2.27.27-3.39.49s-2.18.62-3.27.92l-.34.1a26.14,26.14,0,0,0-13.37,8.9,21.71,21.71,0,0,0-3.41,6c-1.69,4.37-.46,8.26,1.84,11.47a19.67,19.67,0,0,0,7,5.93,183.43,183.43,0,0,1-3.49,29.86c-1,4.6-1.85,9.24-2.67,13.87l-1.09,6.16c0,.25-.1.51-.14.76L65,113.4c-.28,1.4-.56,2.79-.87,4.18-1.74,8.18-3.56,16.34-5.54,24.46-1.58,6.47-3.44,12.89-5.2,19.32-1.87,6.8-4,13.54-5.56,20.41-1.73,7.6-3.16,15.29-4.34,23-.69,4.54,3.32,10,6.89,10.86a80.38,80.38,0,0,1,10.17,3.3,3.3,3.3,0,0,1,1.42,2.51,44.81,44.81,0,0,1-.46,5.63c-.51,5.81-.94,11.65-1.51,17.45-.44,4.35-1.39,5-5.46,4-5.89-1.38-11,1.45-12.72,7.43-1.23,4.21-2,8.56-3,12.85a72,72,0,0,0-.64,28.2,25.33,25.33,0,0,0,2.62,7.79c2,3.74,7.56,3.65,10,.19,2.19-3.11,4.48-6.16,6.87-9.1.56-.7,1.71-.88,2.59-1.29.32.73.66,1.47.94,2.22a15.19,15.19,0,0,1,.55,1.81c.6,2.39,1.82,4.18,4.37,4.55,2.83.41,4.9-.54,6.72-3,4.29-5.89,5.77-12.76,6.67-19.69a140.15,140.15,0,0,0,1.13-21.28c-.09-4.14-1.19-8.5-6.21-10-2-.58-2.89-2.31-2.59-4.47.91-6.56,1.78-13.14,2.83-19.67.47-2.92,2.6-4.81,4.74-4.52A43.89,43.89,0,0,1,87,221.92a54.5,54.5,0,0,0,16.37,2.27c12.73.17,25.45.28,38.19.44,2.13,0,4.28.35,6.42.27,3.46-.13,6.92-.54,10.39-.74,1.61-.09,3.22.1,4.84.08,3.27,0,6.57-.33,9.83-.09,1.53.11,3.65.57,3.77,2.79.22,3.79.27,7.6.13,11.37-.12,3-.73,3.34-3.61,3.22a25,25,0,0,0-4.82,0c-5.57.9-8.19,5.27-9.17,10.13-1.17,5.83-1.34,11.89-1.63,17.86a54.05,54.05,0,0,0,.66,9c.86,7,1.3,14.55,4.51,20.95a9,9,0,0,0,12.81,4.67,17.53,17.53,0,0,0,6.66-5.09c.82-1,3.46-3.76,4-1.1s2.47,4.17,4.56,5.62c2.85,2,5.79,1.55,8.54.23,4.5-2.17,6.46-6.66,7.27-11.18,1.29-7.22,1.73-14.6,2.25-19.44.45-10.61-.23-18.61-2.68-26.37-.95-3-2.07-6.29-5.56-6.92-1.88-.35-4,.36-6,.82-2.39.58-3.4,0-3.44-2.51-.07-5.06,0-10.12.08-15.19a5,5,0,0,1,3.71-5.09c3.95-1.29,7.87-2.7,11.76-4.15,2.65-1,3.16-2.34,2.52-5.12a59,59,0,0,1-1.37-7.69c-1.34-12.72-2.46-25.47-3.9-38.18-1-8.44-2.39-16.84-3.54-25.28-.91-6.63-1.74-13.27-2.61-19.9C197.07,108.33,195.82,102.66,195,96.19Z" style="fill:none;stroke:#030506;stroke-linecap:round;stroke-linejoin:round;stroke-width:0.2029999941587448px"></path> <path d="M86.8,126.13a1,1,0,0,1-.19-.22,1,1,0,0,1-.13-.2,1.18,1.18,0,0,1-.1-.19,3.24,3.24,0,0,1-.19-.62,56.41,56.41,0,0,1-.89-5.61c-.16-1.56-.18-3.15-.2-4.72a4.56,4.56,0,0,1,.29-1.21c.91-.34,1.58-.66,2.3-.85l.53-.13.2,0,.28,0a2.78,2.78,0,0,1,.39,0h.68a1.9,1.9,0,0,1,.36.09l.14.05a.91.91,0,0,1,.16.11l0,0a.48.48,0,0,1,.11.09l.06.06a1.24,1.24,0,0,1,.17.23s0,0,0,.06a.51.51,0,0,1,.07.15.9.9,0,0,1,.1.22s0,.13,0,.19a.86.86,0,0,1,.06.23,7.85,7.85,0,0,1,.17,1.36c.14,2.44.22,4.88.26,7.32,0,2.85-.35,3.38-2.66,4-.14,0-.26.06-.38.07a1.45,1.45,0,0,1-.35,0,1.24,1.24,0,0,1-.43,0,.83.83,0,0,1-.22,0,1.51,1.51,0,0,1-.73-.4" style="fill:#fff"></path> <path d="M86.8,126.13a1,1,0,0,1-.19-.22,1,1,0,0,1-.13-.2,1.18,1.18,0,0,1-.1-.19,3.24,3.24,0,0,1-.19-.62,56.41,56.41,0,0,1-.89-5.61c-.16-1.56-.18-3.15-.2-4.72a4.56,4.56,0,0,1,.29-1.21c.91-.34,1.58-.66,2.3-.85l.53-.13.2,0,.28,0a2.78,2.78,0,0,1,.39,0h.68a1.9,1.9,0,0,1,.36.09l.14.05a.91.91,0,0,1,.16.11l0,0a.48.48,0,0,1,.11.09l.06.06a1.24,1.24,0,0,1,.17.23s0,0,0,.06a.51.51,0,0,1,.07.15.9.9,0,0,1,.1.22s0,.13,0,.19a.86.86,0,0,1,.06.23,7.85,7.85,0,0,1,.17,1.36c.14,2.44.22,4.88.26,7.32,0,2.85-.35,3.38-2.66,4-.14,0-.26.06-.38.07a1.45,1.45,0,0,1-.35,0,1.24,1.24,0,0,1-.43,0,.83.83,0,0,1-.22,0A1.51,1.51,0,0,1,86.8,126.13Z" style="fill:none;stroke:#030506;stroke-linecap:round;stroke-linejoin:round;stroke-width:0.2029999941587448px"></path> <path d="M60.05,168.24c.07-.36.15-.74.22-1.11.63-3.06,1.47-6.09,2.13-9.17,2.16-10.07,4.2-20.15,6.41-30.21,1.57-7.13,3.33-14.21,5-21.32.35-1.49.63-3,1-4.48.11-.49.23-1,.34-1.46l1.34-5.7c.63-2.69,1.25-5.36,1.89-8A3,3,0,0,1,82,84.12c2.54.23,5.1.41,7.65.57.31,3.12.61,6.24.92,9.36.13,1.34.13,2.72.39,4,.36,1.91.8,2.12,2.79,1.88.31,0,.62,0,.93,0,5.34.08,10.69.22,16,.23,1.41,0,2.81,0,4.22,0-1.1,1.63-.66,3.24,1.22,5.22a15.14,15.14,0,0,1,1.67,6.89c-.08,1.61-.25,3.24-.44,4.86A3.35,3.35,0,0,1,116,119c-1,.72-2.21,1.13-3.18,1.85a3.44,3.44,0,0,0-.36.28A4,4,0,0,0,111,124a4,4,0,0,0,2.14,2.41c2.12,1,2.93,1.77,3.06,3.52v0c0,.59,0,1.18,0,1.77v.09c-.06,1-.11,2.07-.13,3.1,0,0,0,0,0,0s0,0,0,0h0c0,.91,0,1.84,0,2.75,0,3.75-1,5.29-4.52,6.65a5.56,5.56,0,0,0-.69.35,2.47,2.47,0,0,0-1.32,2.63c.15,1.44,1,2.07,2.41,2.32,3.12.52,3.81,1.53,3.74,4.71-.07,2.27-.16,4.55-.14,6.83,0,.86,0,1.73.07,2.6,0,1-.13,1.55-.51,1.78a1.85,1.85,0,0,1-1.32.1h0l-.51-.09a6.38,6.38,0,0,0-3.16.18l0,0c-1.11.4-1.92,1.28-1.24,2.69s2,3.47,3.47,3.07c2.91-.79,3.62.3,3.75,2.57,0,0-.12,2.8-.42,4.69-.44,2.76-2.47,4-4.94,4.52-2.25.47-4.54.66-6.82,1-3.64-.15-4-.66-3-4.13l0-.07c.3-1,.52-2.14-.09-2.87a1.78,1.78,0,0,0-.71-.51,5.77,5.77,0,0,0-3.63-.13,2.3,2.3,0,0,0-1.65,1.56h0c0,.13-.07.27-.1.41a4.1,4.1,0,0,0,0,1.11c.39,3.4-.9,4.57-4.45,4.25-5.35-.48-10.69-1-16-1.48-2-.18-3.95-.18-5.88-.54s-2.73-1.8-2.45-3.81c.1-.65.12-1.32.16-2h0c0-.17,0-.34,0-.53a4.46,4.46,0,0,0-.06-1.06v0a2.61,2.61,0,0,0-2.7-2.1c-2.9-.22-3.75-1.13-3.18-4.1" style="fill:#fff"></path> <path d="M60.05,168.24c.07-.36.15-.74.22-1.11.63-3.06,1.47-6.09,2.13-9.17,2.16-10.07,4.2-20.15,6.41-30.21,1.57-7.13,3.33-14.21,5-21.32.35-1.49.63-3,1-4.48.11-.49.23-1,.34-1.46l1.34-5.7c.63-2.69,1.25-5.36,1.89-8A3,3,0,0,1,82,84.12c2.54.23,5.1.41,7.65.57.31,3.12.61,6.24.92,9.36.13,1.34.13,2.72.39,4,.36,1.91.8,2.12,2.79,1.88.31,0,.62,0,.93,0,5.34.08,10.69.22,16,.23,1.41,0,2.81,0,4.22,0-1.1,1.63-.66,3.24,1.22,5.22a15.14,15.14,0,0,1,1.67,6.89c-.08,1.61-.25,3.24-.44,4.86A3.35,3.35,0,0,1,116,119c-1,.72-2.21,1.13-3.18,1.85a3.44,3.44,0,0,0-.36.28A4,4,0,0,0,111,124a4,4,0,0,0,2.14,2.41c2.12,1,2.93,1.77,3.06,3.52v0c0,.59,0,1.18,0,1.77v.09c-.06,1-.11,2.07-.13,3.1,0,0,0,0,0,0s0,0,0,0h0c0,.91,0,1.84,0,2.75,0,3.75-1,5.29-4.52,6.65a5.56,5.56,0,0,0-.69.35,2.47,2.47,0,0,0-1.32,2.63c.15,1.44,1,2.07,2.41,2.32,3.12.52,3.81,1.53,3.74,4.71-.07,2.27-.16,4.55-.14,6.83,0,.86,0,1.73.07,2.6,0,1-.13,1.55-.51,1.78a1.85,1.85,0,0,1-1.32.1h0l-.51-.09a6.38,6.38,0,0,0-3.16.18l0,0c-1.11.4-1.92,1.28-1.24,2.69s2,3.47,3.47,3.07c2.91-.79,3.62.3,3.75,2.57,0,0-.12,2.8-.42,4.69-.44,2.76-2.47,4-4.94,4.52-2.25.47-4.54.66-6.82,1-3.64-.15-4-.66-3-4.13l0-.07c.3-1,.52-2.14-.09-2.87a1.78,1.78,0,0,0-.71-.51,5.77,5.77,0,0,0-3.63-.13,2.3,2.3,0,0,0-1.65,1.56h0c0,.13-.07.27-.1.41a4.1,4.1,0,0,0,0,1.11c.39,3.4-.9,4.57-4.45,4.25-5.35-.48-10.69-1-16-1.48-2-.18-3.95-.18-5.88-.54s-2.73-1.8-2.45-3.81c.1-.65.12-1.32.16-2h0c0-.17,0-.34,0-.53a4.46,4.46,0,0,0-.06-1.06v0a2.61,2.61,0,0,0-2.7-2.1C60.33,172.12,59.48,171.21,60.05,168.24Z" style="fill:none;stroke:#030506;stroke-linecap:round;stroke-linejoin:round;stroke-width:0.2029999941587448px"></path> <path d="M93.52,97.51c-.89-1-5.3-32.67-4.38-32.54,28.54,3.8,89.84-2.32,90.73-1.36s-.2,5.54.45,13,3.1,16.77,1.22,17.62-87.13,4.27-88,3.31" style="fill:#fff"></path> <path d="M93.52,97.51c-.89-1-5.3-32.67-4.38-32.54,28.54,3.8,89.84-2.32,90.73-1.36s-.2,5.54.45,13,3.1,16.77,1.22,17.62S94.41,98.47,93.52,97.51Z" style="fill:none;stroke:#030506;stroke-linecap:round;stroke-linejoin:round;stroke-width:0.2029999941587448px"></path> <path d="M121.5,102.06a1.75,1.75,0,0,1-2,1.79c-1.19-.06-2.12-.51-2.07-1.88a1.54,1.54,0,0,1,1.71-1.64c1.72,0,2.37.7,2.35,1.73" style="fill:#fff"></path> <path d="M121.5,102.06a1.75,1.75,0,0,1-2,1.79c-1.19-.06-2.12-.51-2.07-1.88a1.54,1.54,0,0,1,1.71-1.64C120.87,100.29,121.52,101,121.5,102.06Z" style="fill:none;stroke:#030506;stroke-linecap:round;stroke-linejoin:round;stroke-width:0.2029999941587448px"></path> <path d="M189.17,117.07a13.65,13.65,0,0,1-3.78,2.5c-7,3.47-14.48,5.45-22,7a67.39,67.39,0,0,1-12.65.88,8.23,8.23,0,0,0-.86,0c-2.31,0-4.27,1.1-4.8,3.13a4.08,4.08,0,0,0-.15,1.08c-.1,6.08.1,12.18,0,18.26-.45,10.1-1.18,20.18-1.48,30.28a2.68,2.68,0,0,0,0,.4c-.05,1.19-.09,2.39-.13,3.59-.27,9.48-.06,19-.15,28.46,0,.2,0,.39,0,.59,0,3.87-.32,4.25-4.18,4.57s-8,.35-11.95.36c-5.47,0-11,.15-16.41-.19-18.17-1.12-36.48-5.28-54.46-8.09-1.44-.23-3-.54-3.88-1.7s-.74-2.76-.53-4.21c.58-4.22,1.34-8.44,2.24-12.61.47-2.11,1.12-4.43,3-5.56,1.66-1,3.76-.75,5.68-.47,17.45,2.57,34.75,2.87,52.31,3.5.54,0,1.07.14,1.61.19,4.64.37,5.88-1,5.28-5.28,0-.2-.06-.41-.08-.62a86.12,86.12,0,0,1-.94-11.47c-.42-11.61-.53-23.22,0-34.82.12-2.62.27-5.23.46-7.85q.58-8.25,1.27-16.49l.58-6.8c.15-1.82.32-3.66.49-5.48Q154.22,99,184.8,96c-2.66-9.09-2.28-19.27-3-28.67-.1-1.37.4-5-.63-6.06-1.23-1.31-6.1,0-7.69.17-28.17,3.38-56.67,2.79-85,2.09-.55,0-1.23,0-1.46.55a1.48,1.48,0,0,0,0,.81l2.31,15.4a17.19,17.19,0,0,1-5.36-.26,5.71,5.71,0,0,1-4-3.29,8.47,8.47,0,0,1-.18-3.85q1.4-12.81,2.78-25.63a109.54,109.54,0,0,0,48.77-.11,23.42,23.42,0,0,0,8-3.07,9.36,9.36,0,0,0,4.32-6.92V37c1.09-6.69-4.05-13.06-4.05-13.06l2.89-.43a36.93,36.93,0,0,1,3.08,4.91c.59,1.1,1.18,2.31,1.71,3.48A14.6,14.6,0,0,1,142.5,50a7.71,7.71,0,0,1-.77.49c-.88.54-2,1.26-1.83,2.3.13.78.95,1.23,1.68,1.53,4.63,1.87,9.7,2.3,14.67,2.71,9.74.82,19.61,1.63,29.26.06q1.76,16.26,3.5,32.53l.63,5.69.63,5.66c.18,1.73.36,3.47.52,5.2.11,1.11.24,2.42.28,3.79.06,2.64-.26,5.44-1.9,7.12" style="fill:#fff"></path> <path d="M189.17,117.07a13.65,13.65,0,0,1-3.78,2.5c-7,3.47-14.48,5.45-22,7a67.39,67.39,0,0,1-12.65.88,8.23,8.23,0,0,0-.86,0c-2.31,0-4.27,1.1-4.8,3.13a4.08,4.08,0,0,0-.15,1.08c-.1,6.08.1,12.18,0,18.26-.45,10.1-1.18,20.18-1.48,30.28a2.68,2.68,0,0,0,0,.4c-.05,1.19-.09,2.39-.13,3.59-.27,9.48-.06,19-.15,28.46,0,.2,0,.39,0,.59,0,3.87-.32,4.25-4.18,4.57s-8,.35-11.95.36c-5.47,0-11,.15-16.41-.19-18.17-1.12-36.48-5.28-54.46-8.09-1.44-.23-3-.54-3.88-1.7s-.74-2.76-.53-4.21c.58-4.22,1.34-8.44,2.24-12.61.47-2.11,1.12-4.43,3-5.56,1.66-1,3.76-.75,5.68-.47,17.45,2.57,34.75,2.87,52.31,3.5.54,0,1.07.14,1.61.19,4.64.37,5.88-1,5.28-5.28,0-.2-.06-.41-.08-.62a86.12,86.12,0,0,1-.94-11.47c-.42-11.61-.53-23.22,0-34.82.12-2.62.27-5.23.46-7.85q.58-8.25,1.27-16.49l.58-6.8c.15-1.82.32-3.66.49-5.48Q154.22,99,184.8,96c-2.66-9.09-2.28-19.27-3-28.67-.1-1.37.4-5-.63-6.06-1.23-1.31-6.1,0-7.69.17-28.17,3.38-56.67,2.79-85,2.09-.55,0-1.23,0-1.46.55a1.48,1.48,0,0,0,0,.81l2.31,15.4a17.19,17.19,0,0,1-5.36-.26,5.71,5.71,0,0,1-4-3.29,8.47,8.47,0,0,1-.18-3.85q1.4-12.81,2.78-25.63a109.54,109.54,0,0,0,48.77-.11,23.42,23.42,0,0,0,8-3.07,9.36,9.36,0,0,0,4.32-6.92V37c1.09-6.69-4.05-13.06-4.05-13.06l2.89-.43a36.93,36.93,0,0,1,3.08,4.91c.59,1.1,1.18,2.31,1.71,3.48A14.6,14.6,0,0,1,142.5,50a7.71,7.71,0,0,1-.77.49c-.88.54-2,1.26-1.83,2.3.13.78.95,1.23,1.68,1.53,4.63,1.87,9.7,2.3,14.67,2.71,9.74.82,19.61,1.63,29.26.06q1.76,16.26,3.5,32.53l.63,5.69.63,5.66c.18,1.73.36,3.47.52,5.2.11,1.11.24,2.42.28,3.79C191.13,112.59,190.81,115.39,189.17,117.07Z" style="fill:none;stroke:#030506;stroke-linecap:round;stroke-linejoin:round;stroke-width:0.2029999941587448px"></path> <path d="M38.49,28.74c-.38,1.14-.87,2.26-1.24,3.4a9.38,9.38,0,0,1-2.65,3.65c-1.9,1.94-3.89,3.79-5.84,5.69-.5.49-1,1-1.52,1.47-.73.72-1.53.75-2.72.14a11.58,11.58,0,0,0-2.29-.93c-2.37-.56-4.77-1-7.13-1.54a16.47,16.47,0,0,1-4.42-1.27,9.45,9.45,0,0,1-3.87-3.61,32.78,32.78,0,0,1-4.07-9.55,31.6,31.6,0,0,1-1-6.12,38.59,38.59,0,0,1,.29-5.46,2.13,2.13,0,0,1,1.47-1.77A1.77,1.77,0,0,1,6.13,14c.68,2,1.37,4,2,6a33.29,33.29,0,0,0,4.12,8.4,11.7,11.7,0,0,0,2.27,2.88c3.8,3,8.64,1.41,10.15-3.31a16.87,16.87,0,0,0,.2-8.63c-.46-2.26-2.06-4.06-3.67-5.7s-3.1-3-4.66-4.5c-.49-.46-1-.91-1.52-1.33a2.07,2.07,0,0,1-.82-2.59,2.12,2.12,0,0,1,2.58-1.13,23.74,23.74,0,0,1,3.53,1.39c3.93,2,7.87,4,11.72,6.11a20.69,20.69,0,0,1,6,5.09c1.32,1.65,1.32,3.63,1.34,5.58a42.49,42.49,0,0,1-.23,4.37,9.27,9.27,0,0,1-.58,2.15" style="fill:#fff"></path> <path d="M38.49,28.74c-.38,1.14-.87,2.26-1.24,3.4a9.38,9.38,0,0,1-2.65,3.65c-1.9,1.94-3.89,3.79-5.84,5.69-.5.49-1,1-1.52,1.47-.73.72-1.53.75-2.72.14a11.58,11.58,0,0,0-2.29-.93c-2.37-.56-4.77-1-7.13-1.54a16.47,16.47,0,0,1-4.42-1.27,9.45,9.45,0,0,1-3.87-3.61,32.78,32.78,0,0,1-4.07-9.55,31.6,31.6,0,0,1-1-6.12,38.59,38.59,0,0,1,.29-5.46,2.13,2.13,0,0,1,1.47-1.77A1.77,1.77,0,0,1,6.13,14c.68,2,1.37,4,2,6a33.29,33.29,0,0,0,4.12,8.4,11.7,11.7,0,0,0,2.27,2.88c3.8,3,8.64,1.41,10.15-3.31a16.87,16.87,0,0,0,.2-8.63c-.46-2.26-2.06-4.06-3.67-5.7s-3.1-3-4.66-4.5c-.49-.46-1-.91-1.52-1.33a2.07,2.07,0,0,1-.82-2.59,2.12,2.12,0,0,1,2.58-1.13,23.74,23.74,0,0,1,3.53,1.39c3.93,2,7.87,4,11.72,6.11a20.69,20.69,0,0,1,6,5.09c1.32,1.65,1.32,3.63,1.34,5.58a42.49,42.49,0,0,1-.23,4.37A9.27,9.27,0,0,1,38.49,28.74Z" style="fill:none;stroke:#030506;stroke-linecap:round;stroke-linejoin:round;stroke-width:0.2029999941587448px"></path> <path d="M45.37,40.8Q44,42.94,42.41,45c-1.46,1.83-2.95,3.65-4.51,5.4s-3,3.08-4.49,4.66q-1.59,1.74-3,3.6c-.79,1-2.17,1.48-3,.74a4.31,4.31,0,0,1-1.14-1.86c-.65-2.1-1.22-4.22-1.73-6.36a2.52,2.52,0,0,1,.88-2.64c2.63-2.3,5.13-4.75,7.75-7.08,1.51-1.33,3.13-2.53,4.69-3.8l0,0,1.56-1c2.15-1.47,2.38-1.18,4.7.34.25.18.45.44.68.63,1.29,1.06,1.48,1.8.58,3.2" style="fill:#fff"></path> <path d="M45.37,40.8Q44,42.94,42.41,45c-1.46,1.83-2.95,3.65-4.51,5.4s-3,3.08-4.49,4.66q-1.59,1.74-3,3.6c-.79,1-2.17,1.48-3,.74a4.31,4.31,0,0,1-1.14-1.86c-.65-2.1-1.22-4.22-1.73-6.36a2.52,2.52,0,0,1,.88-2.64c2.63-2.3,5.13-4.75,7.75-7.08,1.51-1.33,3.13-2.53,4.69-3.8l0,0,1.56-1c2.15-1.47,2.38-1.18,4.7.34.25.18.45.44.68.63C46.08,38.66,46.27,39.4,45.37,40.8Z" style="fill:none;stroke:#030506;stroke-linecap:round;stroke-linejoin:round;stroke-width:0.2029999941587448px"></path> <path d="M45.18,55.54a15,15,0,0,1-3.55,4.37c-2.06,1.35-3.3,1-4-.8a18.94,18.94,0,0,0-.91-2.23,1.25,1.25,0,0,1,.21-1.67c1.26-1.33,2.52-2.65,3.85-3.9,1.09-1,1.68-.94,2.64.21A14.11,14.11,0,0,1,45.09,54a2,2,0,0,1,.09,1.57" style="fill:#fff"></path> <path d="M45.18,55.54a15,15,0,0,1-3.55,4.37c-2.06,1.35-3.3,1-4-.8a18.94,18.94,0,0,0-.91-2.23,1.25,1.25,0,0,1,.21-1.67c1.26-1.33,2.52-2.65,3.85-3.9,1.09-1,1.68-.94,2.64.21A14.11,14.11,0,0,1,45.09,54,2,2,0,0,1,45.18,55.54Z" style="fill:none;stroke:#030506;stroke-linecap:round;stroke-linejoin:round;stroke-width:0.2029999941587448px"></path> <path d="M49.42,65.32a39.55,39.55,0,0,1-2.6,3.46c-1.11,1.28-2.48,1.51-3.39-.12-.19-.35-.44-.68-.66-1l-.11,0c-.45-1-.92-2-1.3-3a1.33,1.33,0,0,1,.54-1.54c1.44-1.26,2.83-2.59,4.24-3.89a1.76,1.76,0,0,1,2.81.14,9.59,9.59,0,0,1,1.38,2.4c.54,1.35-.21,2.49-.91,3.55" style="fill:#fff"></path> <path d="M49.42,65.32a39.55,39.55,0,0,1-2.6,3.46c-1.11,1.28-2.48,1.51-3.39-.12-.19-.35-.44-.68-.66-1l-.11,0c-.45-1-.92-2-1.3-3a1.33,1.33,0,0,1,.54-1.54c1.44-1.26,2.83-2.59,4.24-3.89a1.76,1.76,0,0,1,2.81.14,9.59,9.59,0,0,1,1.38,2.4C50.87,63.12,50.12,64.26,49.42,65.32Z" style="fill:none;stroke:#030506;stroke-linecap:round;stroke-linejoin:round;stroke-width:0.2029999941587448px"></path> <path d="M54.35,74.1c-.92.94-1.69,2-2.55,3.06-.31.36-.66.7-1,1-1.75-.59-3.77-3.19-3.76-4.9a2.41,2.41,0,0,1,.5-1.36c1.09-1.47,2.25-2.89,3.38-4.31a5.38,5.38,0,0,1,.77-.81,1.3,1.3,0,0,1,2.1.17c.75,1.06,1.35,2.22,2,3.33.58.94-.58,2.86-1.51,3.78" style="fill:#fff"></path> <path d="M54.35,74.1c-.92.94-1.69,2-2.55,3.06-.31.36-.66.7-1,1-1.75-.59-3.77-3.19-3.76-4.9a2.41,2.41,0,0,1,.5-1.36c1.09-1.47,2.25-2.89,3.38-4.31a5.38,5.38,0,0,1,.77-.81,1.3,1.3,0,0,1,2.1.17c.75,1.06,1.35,2.22,2,3.33C56.44,71.26,55.28,73.18,54.35,74.1Z" style="fill:none;stroke:#030506;stroke-linecap:round;stroke-linejoin:round;stroke-width:0.2029999941587448px"></path> <path d="M60.12,79c-.76,1.23-1.33,2.58-2.09,3.8s-1.64,2.39-2.52,3.55A1.18,1.18,0,0,1,53.56,86C53,84.81,52,83.77,52.19,82.31a3.57,3.57,0,0,1,.59-1.56q1.76-2.31,3.63-4.52c1.4-1.63,2.51-1.5,3.73.45.79.66.53,1.43,0,2.33" style="fill:#fff"></path> <path d="M60.12,79c-.76,1.23-1.33,2.58-2.09,3.8s-1.64,2.39-2.52,3.55A1.18,1.18,0,0,1,53.56,86C53,84.81,52,83.77,52.19,82.31a3.57,3.57,0,0,1,.59-1.56q1.76-2.31,3.63-4.52c1.4-1.63,2.51-1.5,3.73.45C60.93,77.34,60.67,78.11,60.12,79Z" style="fill:none;stroke:#030506;stroke-linecap:round;stroke-linejoin:round;stroke-width:0.2029999941587448px"></path> <path d="M64.39,88.69c-.72,1.7-1.63,3.32-2.44,5a1.68,1.68,0,0,1-2.55.63c-.71-.6-1.31-1.32-1.86-1.88a3.26,3.26,0,0,1,.13-3.78c1.12-1.67,2.1-3.45,3.21-5.14a4.66,4.66,0,0,1,1.63-1.77c1.78-.79,3.94,1.13,3.77,3.09-.13,1.58-1.32,2.54-1.89,3.86" style="fill:#fff"></path> <path d="M64.39,88.69c-.72,1.7-1.63,3.32-2.44,5a1.68,1.68,0,0,1-2.55.63c-.71-.6-1.31-1.32-1.86-1.88a3.26,3.26,0,0,1,.13-3.78c1.12-1.67,2.1-3.45,3.21-5.14a4.66,4.66,0,0,1,1.63-1.77c1.78-.79,3.94,1.13,3.77,3.09C66.15,86.41,65,87.37,64.39,88.69Z" style="fill:none;stroke:#030506;stroke-linecap:round;stroke-linejoin:round;stroke-width:0.2029999941587448px"></path> <path d="M58.66,270.56l-.36,4.51a70.32,70.32,0,0,1-1.92,13.26,23.68,23.68,0,0,1-6.6,11.48,6,6,0,0,1-3.3,1.74c-1.93.17-3.18-1.58-3.65-3.25-3-10.67-1-23.26,1.07-33.88a20.4,20.4,0,0,1,2-6.35,7,7,0,0,1,5.21-3.75c2.54-.21,6.22,1.33,7.51,3.57.93,1.61.81,3.59.66,5.44-.19,2.41-.39,4.82-.58,7.23" style="fill:#fff"></path> <path d="M58.66,270.56l-.36,4.51a70.32,70.32,0,0,1-1.92,13.26,23.68,23.68,0,0,1-6.6,11.48,6,6,0,0,1-3.3,1.74c-1.93.17-3.18-1.58-3.65-3.25-3-10.67-1-23.26,1.07-33.88a20.4,20.4,0,0,1,2-6.35,7,7,0,0,1,5.21-3.75c2.54-.21,6.22,1.33,7.51,3.57.93,1.61.81,3.59.66,5.44C59.05,265.74,58.85,268.15,58.66,270.56Z" style="fill:none;stroke:#030506;stroke-linecap:round;stroke-linejoin:round;stroke-width:0.2029999941587448px"></path> <path d="M74.28,285.14a74.85,74.85,0,0,1-3.49,9.61c-.49,1-1.16,2.16-2.29,2.39a2.73,2.73,0,0,1-2.35-.87,7.41,7.41,0,0,1-1.78-3.85c-1.72-8.17.8-16.75,1.51-24.9.09-1,.64-14,1.21-14.13,14.66-2.54,11.23,18.32,7.19,31.75" style="fill:#fff"></path> <path d="M74.28,285.14a74.85,74.85,0,0,1-3.49,9.61c-.49,1-1.16,2.16-2.29,2.39a2.73,2.73,0,0,1-2.35-.87,7.41,7.41,0,0,1-1.78-3.85c-1.72-8.17.8-16.75,1.51-24.9.09-1,.64-14,1.21-14.13C81.75,250.85,78.32,271.71,74.28,285.14Z" style="fill:none;stroke:#030506;stroke-linecap:round;stroke-linejoin:round;stroke-width:0.2029999941587448px"></path> <path d="M181.48,280.74a0,0,0,0,1,0,.05,0,0,0,0,1,0,0,0,0,0,0,1,0,0,0,0,0,0,1,0,0h0s0,0,0,0h0a22.65,22.65,0,0,1-.8,4.53c-.21.74-.42,1.47-.67,2.2a.64.64,0,0,1,0,.07,17.85,17.85,0,0,1-.92,3.05c-.07.18-.16.39-.26.61-.89,2.05-2.81,5.87-5.08,7.86s-5.16,2.19-7.55-3.92a0,0,0,0,1,0,0,6.26,6.26,0,0,1-.36-.9c0-.12-.08-.24-.11-.35v0c0-.15-.09-.3-.14-.45s-.13-.38-.18-.58c-.13-.38-.24-.77-.36-1.17-3.91-12.92-6.12-29.19-1.77-37.79h0a13,13,0,0,1,.88-1.51,10.53,10.53,0,0,1,2.18-2.37l0,0a9.51,9.51,0,0,1,4.08-1.41,5.55,5.55,0,0,1,4.13,1.2c3.4,2.74,6.07,16.86,6.29,24.34,0,0,0,0,0,0s0,0,0,0h0c0,.42,0,.82,0,1.19v0a20,20,0,0,1,.62,5.27s0,0,0,0" style="fill:#fff"></path> <path d="M181.48,280.74a0,0,0,0,1,0,.05,0,0,0,0,1,0,0,0,0,0,0,1,0,0,0,0,0,0,1,0,0h0s0,0,0,0h0a22.65,22.65,0,0,1-.8,4.53c-.21.74-.42,1.47-.67,2.2a.64.64,0,0,1,0,.07,17.85,17.85,0,0,1-.92,3.05c-.07.18-.16.39-.26.61-.89,2.05-2.81,5.87-5.08,7.86s-5.16,2.19-7.55-3.92a0,0,0,0,1,0,0,6.26,6.26,0,0,1-.36-.9c0-.12-.08-.24-.11-.35v0c0-.15-.09-.3-.14-.45s-.13-.38-.18-.58c-.13-.38-.24-.77-.36-1.17-3.91-12.92-6.12-29.19-1.77-37.79h0a13,13,0,0,1,.88-1.51,10.53,10.53,0,0,1,2.18-2.37l0,0a9.51,9.51,0,0,1,4.08-1.41,5.55,5.55,0,0,1,4.13,1.2c3.4,2.74,6.07,16.86,6.29,24.34,0,0,0,0,0,0s0,0,0,0h0c0,.42,0,.82,0,1.19v0a20,20,0,0,1,.62,5.27S181.48,280.74,181.48,280.74Z" style="fill:none;stroke:#030506;stroke-linecap:round;stroke-linejoin:round;stroke-width:0.2029999941587448px"></path> <path d="M187.89,248.49a32.29,32.29,0,0,1-1,7,2.44,2.44,0,0,1-1.76,1.42,2.55,2.55,0,0,1-2.08-1c-.88-1.77-1.94-3.65-2.08-5.54-.5-6.88-.76-13.77-.86-20.67a7.11,7.11,0,0,1,.1-1.27c0-.35,0-.72,0-1.07,0-3.38,2-5,5-4.56a2.36,2.36,0,0,1,2.35,2.62c.05,3.07.12,6.15.18,9.22h-.12c0,.72,0,1.43,0,2.14h-.18c.23,3.29.5,6.58.5,9.88a14.21,14.21,0,0,1-.07,1.45v0s0,0,0,0,0,0,0,0,0,.2,0,.3" style="fill:#fff"></path> <path d="M187.89,248.49a32.29,32.29,0,0,1-1,7,2.44,2.44,0,0,1-1.76,1.42,2.55,2.55,0,0,1-2.08-1c-.88-1.77-1.94-3.65-2.08-5.54-.5-6.88-.76-13.77-.86-20.67a7.11,7.11,0,0,1,.1-1.27c0-.35,0-.72,0-1.07,0-3.38,2-5,5-4.56a2.36,2.36,0,0,1,2.35,2.62c.05,3.07.12,6.15.18,9.22h-.12c0,.72,0,1.43,0,2.14h-.18c.23,3.29.5,6.58.5,9.88a14.21,14.21,0,0,1-.07,1.45v0s0,0,0,0,0,0,0,0S187.89,248.39,187.89,248.49Z" style="fill:none;stroke:#030506;stroke-linecap:round;stroke-linejoin:round;stroke-width:0.2029999941587448px"></path> <path d="M190.78,268.13c.63-4.92,1.06-9.89,2-14.74a13.86,13.86,0,0,1,2.9-5.55,3.92,3.92,0,0,1,6.45.68,30.93,30.93,0,0,1,2.31,8.06,3.64,3.64,0,0,1-.05,1.61c.33,2.1-.72,2.82-2.91,2.66-3.31-.23-4.61.6-4.87,3.9,0,.35,0,.69-.07,1v.35c-.11,4.92.71,9.61,4.28,13.64,6.78,3.76.7,15.83-2.09,18.67a.5.5,0,0,1-.18.11s0,0,0,.05l-.15.07h0a7.06,7.06,0,0,1-2.51,1.13c-1.85,0-3-.44-3.62-1.6h0c-.08,0-.23-.23-.4-.56v0c-.92-1.72-2.73-6.64-3-7.15-2-3.72,1.26-17.83,2-22.34" style="fill:#fff"></path> <path d="M190.78,268.13c.63-4.92,1.06-9.89,2-14.74a13.86,13.86,0,0,1,2.9-5.55,3.92,3.92,0,0,1,6.45.68,30.93,30.93,0,0,1,2.31,8.06,3.64,3.64,0,0,1-.05,1.61c.33,2.1-.72,2.82-2.91,2.66-3.31-.23-4.61.6-4.87,3.9,0,.35,0,.69-.07,1v.35c-.11,4.92.71,9.61,4.28,13.64,6.78,3.76.7,15.83-2.09,18.67a.5.5,0,0,1-.18.11s0,0,0,.05l-.15.07h0a7.06,7.06,0,0,1-2.51,1.13c-1.85,0-3-.44-3.62-1.6h0c-.08,0-.23-.23-.4-.56v0c-.92-1.72-2.73-6.64-3-7.15C186.81,286.75,190.08,272.64,190.78,268.13Z" style="fill:none;stroke:#030506;stroke-linecap:round;stroke-linejoin:round;stroke-width:0.2029999941587448px"></path> <path d="M198.69,160.87c.7,7.07,1.28,14.15,1.81,21.19.28,3.59.52,7.19.75,10.78.14,2.33.39,4.66.56,7,.08,1.18.13,2.36.14,3.54a6.53,6.53,0,0,1-.4,2.94,4.12,4.12,0,0,1-.53.88,7,7,0,0,1-2.37,1.79,92.93,92.93,0,0,1-11.4,4.86,76.73,76.73,0,0,1-9.85,2.8c-7.59,1.61-15.4,1.67-23.13,1.62-1.87,0-3.93-.11-5.26-1.42-2.63-2.58-1.44-8.53-1.33-11.77q.24-7.2.49-14.41.48-14.4,1-28.82c.18-4.76.35-9.52.48-14.28.13-4.3.3-8.61.45-12.91,0-1,.15-2.12,1-2.66s1.78-.25,2.69-.24a11,11,0,0,0,3.86-1,31.65,31.65,0,0,1,6.49-1.63c2.23-.32,4.46-.48,6.69-.85.76-.13,1.51-.28,2.26-.46a88.27,88.27,0,0,0,9.71-3.46c2.5-.93,7.35-3.2,9.73-1.06a5.62,5.62,0,0,1,1.39,3.21c2.2,11.32,3.68,22.83,4.83,34.36" style="fill:#fff"></path> <path d="M198.69,160.87c.7,7.07,1.28,14.15,1.81,21.19.28,3.59.52,7.19.75,10.78.14,2.33.39,4.66.56,7,.08,1.18.13,2.36.14,3.54a6.53,6.53,0,0,1-.4,2.94,4.12,4.12,0,0,1-.53.88,7,7,0,0,1-2.37,1.79,92.93,92.93,0,0,1-11.4,4.86,76.73,76.73,0,0,1-9.85,2.8c-7.59,1.61-15.4,1.67-23.13,1.62-1.87,0-3.93-.11-5.26-1.42-2.63-2.58-1.44-8.53-1.33-11.77q.24-7.2.49-14.41.48-14.4,1-28.82c.18-4.76.35-9.52.48-14.28.13-4.3.3-8.61.45-12.91,0-1,.15-2.12,1-2.66s1.78-.25,2.69-.24a11,11,0,0,0,3.86-1,31.65,31.65,0,0,1,6.49-1.63c2.23-.32,4.46-.48,6.69-.85.76-.13,1.51-.28,2.26-.46a88.27,88.27,0,0,0,9.71-3.46c2.5-.93,7.35-3.2,9.73-1.06a5.62,5.62,0,0,1,1.39,3.21C196.06,137.83,197.54,149.34,198.69,160.87Z" style="fill:none;stroke:#030506;stroke-linecap:round;stroke-linejoin:round;stroke-width:0.2029999941587448px"></path> <path d="M289,130.16c-1.61-4.37-2.88-8.8-4.64-13.11a18.85,18.85,0,0,0-4.78-6.72,3.82,3.82,0,0,0-.67-.51,16.24,16.24,0,0,0-10.2-2.61c-1.11.09-2.23.51-3.3.58a1.93,1.93,0,0,1-2.09-1.07,22.44,22.44,0,0,0-4.6-5.39c-.76-.59-1.77-1.15-2.45-1.64a1.24,1.24,0,0,0-1.67,0,23.88,23.88,0,0,0-3.35,3.4c-.31.36-.38.75-.8.92a.93.93,0,0,1-1.07-.16c-1.19-1-2-1.94-3.19-3a28.44,28.44,0,0,0-5.48-4.53,63.53,63.53,0,0,0-9.08-4.22,48.4,48.4,0,0,0-13.08-3.68,71.9,71.9,0,0,0-7.53-.33,61.09,61.09,0,0,0-10.67,1.11c-1.47.31-2.91.81-4.08,1.17-5.06,1.58-4.83,5.54-3.9,9.66.79,3.54,1.81,4.91,5,6.07,1.22-.69,2.14-1.16,3.42-1.83s2.82-1.54,4.21-2.22a20.22,20.22,0,0,1,9.59-2.29c3.63-.26,8.52,1,11.57,2s5.09,1.2,7.42,2.38c3.54,1.78,5.19,3.8,7.16,7.07a3.39,3.39,0,0,1,.39,1.85,4.64,4.64,0,0,1-2.27,3.53c-1.31.9-3.09,2.11-4.31,3-.84.65-1,1.15-.19,1.71a24.33,24.33,0,0,0,4.3,2.22c1.42.61,2.88.91,4.27,1.45a25.44,25.44,0,0,0,3,1.17,2.35,2.35,0,0,0,1.59-.33,6.39,6.39,0,0,1,3.06-1.06.68.68,0,0,1,.62.49c.19,1,.31,2,.43,3a107.78,107.78,0,0,1,12.55.65,5.7,5.7,0,0,1,2.45-4.39,7.06,7.06,0,0,1,4.25-1.24,6.65,6.65,0,0,1,2.27.4c3.09,1.16,4.76,3.25,6.45,6a30.23,30.23,0,0,0,3,4.59c1.23,1.35,2.33,1.16,3.84.28.8-.46,1.74-1.07,2.56-1.55a1,1,0,0,0,.5-.72,8.09,8.09,0,0,0-.47-2.12"></path> <path d="M201,102.33c-.73.46-1.45,1-2.16,1.45-.22.15-.39.22-.61.35a6.43,6.43,0,0,1-.85.4l-.37.13a1,1,0,0,1-.2,0l-.19,0a2.62,2.62,0,0,1-.28,0l-.14,0-.13,0-.12,0-.24-.12a1.37,1.37,0,0,1-.23-.17s-.06,0-.1-.09l-.15-.15-.1-.11c0-.07-.09-.1-.16-.2s0,0-.16-.23a9.71,9.71,0,0,1-.5-.85,26,26,0,0,1-1.7-6.42c-.4-2.45,1.1-3.43,3-4.37,1-.47-.59.23.35-.13s3.2-.52,3.5.75c.38,1.58.48,3.14.78,4.61s.45,2.67.74,4.08a4.13,4.13,0,0,1,0,1.11" style="fill:#fff"></path> <path d="M201,102.33c-.73.46-1.45,1-2.16,1.45-.22.15-.39.22-.61.35a6.43,6.43,0,0,1-.85.4l-.37.13a1,1,0,0,1-.2,0l-.19,0a2.62,2.62,0,0,1-.28,0l-.14,0-.13,0-.12,0-.24-.12a1.37,1.37,0,0,1-.23-.17s-.06,0-.1-.09l-.15-.15-.1-.11c0-.07-.09-.1-.16-.2s0,0-.16-.23a9.71,9.71,0,0,1-.5-.85,26,26,0,0,1-1.7-6.42c-.4-2.45,1.1-3.43,3-4.37,1-.47-.59.23.35-.13s3.2-.52,3.5.75c.38,1.58.48,3.14.78,4.61s.45,2.67.74,4.08A4.13,4.13,0,0,1,201,102.33Z" style="fill:none;stroke:#030506;stroke-linecap:round;stroke-linejoin:round;stroke-width:0.18799999356269836px"></path> <path d="M210,98.83c-.65.21-2.07.6-2.92.77s-2.39,0-2.54-1a13.5,13.5,0,0,1-.19-4.44c.18-1.32-.89-2.17.7-3.36a7.65,7.65,0,0,1,7.93-.29c.84.55.59,1.16.44,1.8-.39,1.61-.63,2.75-.94,4.39-.24,1.19-1.15,1.7-2.48,2.13" style="fill:#fff"></path> <path d="M210,98.83c-.65.21-2.07.6-2.92.77s-2.39,0-2.54-1a13.5,13.5,0,0,1-.19-4.44c.18-1.32-.89-2.17.7-3.36a7.65,7.65,0,0,1,7.93-.29c.84.55.59,1.16.44,1.8-.39,1.61-.63,2.75-.94,4.39C212.28,97.89,211.37,98.4,210,98.83Z" style="fill:none;stroke:#030506;stroke-linecap:round;stroke-linejoin:round;stroke-width:0.18799999356269836px"></path> <path d="M225.22,98.51c.37-1.75.9-2.82.88-4.77s-2.4-2.92-4.2-3.32c-1-.23-2.07-.17-2.53.68A16.44,16.44,0,0,0,217.75,94a7.54,7.54,0,0,0-.64,3.16c0,.69,1.25,1.19,2.2,1.32,1.32.17,3.33.89,4.77.67.53-.08,1-.17,1.14-.66" style="fill:#fff"></path> <path d="M225.22,98.51c.37-1.75.9-2.82.88-4.77s-2.4-2.92-4.2-3.32c-1-.23-2.07-.17-2.53.68A16.44,16.44,0,0,0,217.75,94a7.54,7.54,0,0,0-.64,3.16c0,.69,1.25,1.19,2.2,1.32,1.32.17,3.33.89,4.77.67C224.61,99.09,225.12,99,225.22,98.51Z" style="fill:none;stroke:#030506;stroke-linecap:round;stroke-linejoin:round;stroke-width:0.18799999356269836px"></path> <path d="M233.82,101.16c.69-1.2,1-2.52,1.7-3.74a2.36,2.36,0,0,0,.33-.82,1.61,1.61,0,0,0-1-1.85,15.48,15.48,0,0,0-3.31-1.25c-1.21-.21-1.95,1-2.19,2a32.88,32.88,0,0,0-.24,3.28,7.08,7.08,0,0,1-.19,1.12,5.24,5.24,0,0,0,4.15,1.88c.44,0,.55-.36.73-.67" style="fill:#fff"></path> <path d="M233.82,101.16c.69-1.2,1-2.52,1.7-3.74a2.36,2.36,0,0,0,.33-.82,1.61,1.61,0,0,0-1-1.85,15.48,15.48,0,0,0-3.31-1.25c-1.21-.21-1.95,1-2.19,2a32.88,32.88,0,0,0-.24,3.28,7.08,7.08,0,0,1-.19,1.12,5.24,5.24,0,0,0,4.15,1.88C233.53,101.79,233.64,101.47,233.82,101.16Z" style="fill:none;stroke:#030506;stroke-linecap:round;stroke-linejoin:round;stroke-width:0.18799999356269836px"></path> <path d="M240,105.38c.72-1.33,1.61-2.75,2.28-4.2a2.27,2.27,0,0,0-.47-2.71,4.44,4.44,0,0,0-2-1.17c-1.14-.24-1.6.35-2.19,1.25a18.79,18.79,0,0,0-1.73,2.82,2.41,2.41,0,0,0,.63,2.94c.2.17.52.4.63.5s0,.1,0,.11c.71.29,1.14.78,1.87,1,.42.15.7-.09,1-.57" style="fill:#fff"></path> <path d="M240,105.38c.72-1.33,1.61-2.75,2.28-4.2a2.27,2.27,0,0,0-.47-2.71,4.44,4.44,0,0,0-2-1.17c-1.14-.24-1.6.35-2.19,1.25a18.79,18.79,0,0,0-1.73,2.82,2.41,2.41,0,0,0,.63,2.94c.2.17.52.4.63.5s0,.1,0,.11c.71.29,1.14.78,1.87,1C239.46,106.1,239.74,105.86,240,105.38Z" style="fill:none;stroke:#030506;stroke-linecap:round;stroke-linejoin:round;stroke-width:0.18799999356269836px"></path> <path d="M247.65,104.32a15.12,15.12,0,0,0-1.68-1.9.93.93,0,0,0-1.05-.2,11.85,11.85,0,0,0-2.86,3.41c-.93,1.65-1,2.88,0,4.28.4.59.9.72,1.33,1.18s.89.24,1.28-.17a24.23,24.23,0,0,0,3.12-3.85,2.16,2.16,0,0,0-.1-2.75" style="fill:#fff"></path> <path d="M247.65,104.32a15.12,15.12,0,0,0-1.68-1.9.93.93,0,0,0-1.05-.2,11.85,11.85,0,0,0-2.86,3.41c-.93,1.65-1,2.88,0,4.28.4.59.9.72,1.33,1.18s.89.24,1.28-.17a24.23,24.23,0,0,0,3.12-3.85A2.16,2.16,0,0,0,247.65,104.32Z" style="fill:none;stroke:#030506;stroke-linecap:round;stroke-linejoin:round;stroke-width:0.18799999356269836px"></path> <path d="M255.44,115.05c1.15-1.46,2.18-3.16,3.23-4.71,0,0,0,0,0,0,.22-.48.61-1,.82-1.48.9-1.9.44-2.89-.69-4.56a4.44,4.44,0,0,0-.6-.63c-.94-.92-1.78-1.3-2.92-.5a20.4,20.4,0,0,0-3,2.68c-1.35,1.38-2.54,2.77-3.91,4.23s-2.79,3.14-4.28,4.61a40.45,40.45,0,0,1-3.93,3.3c-1.12.84-2,1.57-1.38,2.73.37.75,1.11.77,1.76.94,2,.5,3.79.91,5.82,1.24a2.53,2.53,0,0,0,2.4-.85,72.35,72.35,0,0,0,6.68-7" style="fill:#fff"></path> <path d="M255.44,115.05c1.15-1.46,2.18-3.16,3.23-4.71,0,0,0,0,0,0,.22-.48.61-1,.82-1.48.9-1.9.44-2.89-.69-4.56a4.44,4.44,0,0,0-.6-.63c-.94-.92-1.78-1.3-2.92-.5a20.4,20.4,0,0,0-3,2.68c-1.35,1.38-2.54,2.77-3.91,4.23s-2.79,3.14-4.28,4.61a40.45,40.45,0,0,1-3.93,3.3c-1.12.84-2,1.57-1.38,2.73.37.75,1.11.77,1.76.94,2,.5,3.79.91,5.82,1.24a2.53,2.53,0,0,0,2.4-.85A72.35,72.35,0,0,0,255.44,115.05Z" style="fill:none;stroke:#030506;stroke-linecap:round;stroke-linejoin:round;stroke-width:0.18799999356269836px"></path> <path d="M284.71,127c-1.12-3.61-2.28-7.17-3.73-10.66a15.45,15.45,0,0,0-2.46-3.88,8.41,8.41,0,0,0-1.45-1.47,8,8,0,0,0-4.75-1.29,29.27,29.27,0,0,0-3.75.24,6.76,6.76,0,0,0-1.85.54l-2.9,1.23a8.83,8.83,0,0,0-3.08,2.59c-1.62,1.89-3.18,3.72-5,5.48a15.55,15.55,0,0,0-1.4,1.34,2,2,0,0,0-.3,2.21,5.68,5.68,0,0,1,.54,1.89c.09,1,.15,2,.21,3,2.46.07,4.92.26,7.38.47-.11-2.7,1.61-4.73,4.46-6.12,1.76-.87,3.67-.66,5.57-.61a5,5,0,0,1,1.4.28,9,9,0,0,1,4.14,3.29c1.12,1.45,2.06,2.91,3.11,4.39.33.46.66,1,1,1.44a1.93,1.93,0,0,0,2.25,1,1.82,1.82,0,0,0,1.35-2.12,19.18,19.18,0,0,0-.76-3.21" style="fill:#fff"></path> <polygon points="431.04 176.35 435.35 177.59 435.25 181.5 430.82 181.61 431.04 176.35" style="fill:#fff"></polygon> <rect x="330.34" y="141.89" width="97.03" height="145.63" style="fill:none;stroke:#ea5b27;stroke-miterlimit:10;stroke-width:0.6779999732971191px"></rect> <rect x="433.52" y="141.89" width="97.03" height="145.63" style="fill:none;stroke:#ea5b27;stroke-miterlimit:10;stroke-width:0.6779999732971191px"></rect> <rect x="217.73" y="131.26" width="322.39" height="165.51" style="fill:#bcbcbd"></rect> <rect x="221.55" y="135.08" width="314.75" height="157.87" style="fill:#ececec"></rect> <path d="M247.71,165.4H231.17a3.82,3.82,0,0,1-3.82-3.82V145a3.82,3.82,0,0,1,3.82-3.82h16.54a3.81,3.81,0,0,1,3.81,3.82v16.54a3.81,3.81,0,0,1-3.81,3.82" style="fill:#374aa9"></path> <rect x="227.35" y="141.22" width="24.17" height="24.17" rx="3.82" style="fill:none;stroke:#ececec;stroke-miterlimit:10;stroke-width:0.6740000247955322px"></rect> <path d="M271.88,165.4H255.34a3.81,3.81,0,0,1-3.81-3.82V145a3.81,3.81,0,0,1,3.81-3.82h16.54A3.82,3.82,0,0,1,275.7,145v16.54a3.82,3.82,0,0,1-3.82,3.82" style="fill:#374aa9"></path> <rect x="251.53" y="141.22" width="24.17" height="24.17" rx="3.82" style="fill:none;stroke:#ececec;stroke-miterlimit:10;stroke-width:0.6740000247955322px"></rect> <path d="M296.05,165.4H279.52a3.82,3.82,0,0,1-3.82-3.82V145a3.82,3.82,0,0,1,3.82-3.82h16.53a3.82,3.82,0,0,1,3.82,3.82v16.54a3.82,3.82,0,0,1-3.82,3.82" style="fill:#374aa9"></path> <rect x="275.7" y="141.22" width="24.17" height="24.17" rx="3.82" style="fill:none;stroke:#ececec;stroke-miterlimit:10;stroke-width:0.6740000247955322px"></rect> <path d="M320.22,165.4H303.69a3.82,3.82,0,0,1-3.82-3.82V145a3.82,3.82,0,0,1,3.82-3.82h16.53A3.82,3.82,0,0,1,324,145v16.54a3.82,3.82,0,0,1-3.82,3.82" style="fill:#374aa9"></path> <rect x="299.87" y="141.22" width="24.17" height="24.17" rx="3.82" style="fill:none;stroke:#ececec;stroke-miterlimit:10;stroke-width:0.6740000247955322px"></rect> <path d="M247.71,189.57H231.17a3.82,3.82,0,0,1-3.82-3.82V169.21a3.82,3.82,0,0,1,3.82-3.81h16.54a3.81,3.81,0,0,1,3.81,3.81v16.54a3.81,3.81,0,0,1-3.81,3.82" style="fill:#374aa9"></path> <rect x="227.35" y="165.4" width="24.17" height="24.17" rx="3.82" style="fill:none;stroke:#ececec;stroke-miterlimit:10;stroke-width:0.6740000247955322px"></rect> <path d="M271.88,189.57H255.34a3.81,3.81,0,0,1-3.81-3.82V169.21a3.81,3.81,0,0,1,3.81-3.81h16.54a3.82,3.82,0,0,1,3.82,3.81v16.54a3.82,3.82,0,0,1-3.82,3.82" style="fill:#374aa9"></path> <rect x="251.53" y="165.4" width="24.17" height="24.17" rx="3.82" style="fill:none;stroke:#ececec;stroke-miterlimit:10;stroke-width:0.6740000247955322px"></rect> <path d="M296.05,189.57H279.52a3.82,3.82,0,0,1-3.82-3.82V169.21a3.82,3.82,0,0,1,3.82-3.81h16.53a3.82,3.82,0,0,1,3.82,3.81v16.54a3.82,3.82,0,0,1-3.82,3.82" style="fill:#374aa9"></path> <rect x="275.7" y="165.4" width="24.17" height="24.17" rx="3.82" style="fill:none;stroke:#ececec;stroke-miterlimit:10;stroke-width:0.6740000247955322px"></rect> <path d="M320.22,189.57H303.69a3.82,3.82,0,0,1-3.82-3.82V169.21a3.82,3.82,0,0,1,3.82-3.81h16.53a3.82,3.82,0,0,1,3.82,3.81v16.54a3.82,3.82,0,0,1-3.82,3.82" style="fill:#374aa9"></path> <rect x="299.87" y="165.4" width="24.17" height="24.17" rx="3.82" style="fill:none;stroke:#ececec;stroke-miterlimit:10;stroke-width:0.6740000247955322px"></rect> <path d="M247.71,213.74H231.17a3.82,3.82,0,0,1-3.82-3.82V193.39a3.82,3.82,0,0,1,3.82-3.82h16.54a3.81,3.81,0,0,1,3.81,3.82v16.53a3.81,3.81,0,0,1-3.81,3.82" style="fill:#374aa9"></path> <rect x="227.35" y="189.57" width="24.17" height="24.17" rx="3.82" style="fill:none;stroke:#ececec;stroke-miterlimit:10;stroke-width:0.6740000247955322px"></rect> <path d="M271.88,213.74H255.34a3.81,3.81,0,0,1-3.81-3.82V193.39a3.81,3.81,0,0,1,3.81-3.82h16.54a3.82,3.82,0,0,1,3.82,3.82v16.53a3.82,3.82,0,0,1-3.82,3.82" style="fill:#374aa9"></path> <rect x="251.53" y="189.57" width="24.17" height="24.17" rx="3.82" style="fill:none;stroke:#ececec;stroke-miterlimit:10;stroke-width:0.6740000247955322px"></rect> <path d="M296.05,213.74H279.52a3.82,3.82,0,0,1-3.82-3.82V193.39a3.82,3.82,0,0,1,3.82-3.82h16.53a3.82,3.82,0,0,1,3.82,3.82v16.53a3.82,3.82,0,0,1-3.82,3.82" style="fill:#374aa9"></path> <rect x="275.7" y="189.57" width="24.17" height="24.17" rx="3.82" style="fill:none;stroke:#ececec;stroke-miterlimit:10;stroke-width:0.6740000247955322px"></rect> <path d="M320.22,213.74H303.69a3.82,3.82,0,0,1-3.82-3.82V193.39a3.82,3.82,0,0,1,3.82-3.82h16.53a3.82,3.82,0,0,1,3.82,3.82v16.53a3.82,3.82,0,0,1-3.82,3.82" style="fill:#374aa9"></path> <rect x="299.87" y="189.57" width="24.17" height="24.17" rx="3.82" style="fill:none;stroke:#ececec;stroke-miterlimit:10;stroke-width:0.6740000247955322px"></rect> <path d="M247.71,237.91H231.17a3.82,3.82,0,0,1-3.82-3.82V217.56a3.82,3.82,0,0,1,3.82-3.82h16.54a3.81,3.81,0,0,1,3.81,3.82v16.53a3.81,3.81,0,0,1-3.81,3.82" style="fill:#374aa9"></path> <rect x="227.35" y="213.74" width="24.17" height="24.17" rx="3.82" style="fill:none;stroke:#ececec;stroke-miterlimit:10;stroke-width:0.6740000247955322px"></rect> <path d="M271.88,237.91H255.34a3.81,3.81,0,0,1-3.81-3.82V217.56a3.81,3.81,0,0,1,3.81-3.82h16.54a3.82,3.82,0,0,1,3.82,3.82v16.53a3.82,3.82,0,0,1-3.82,3.82" style="fill:#374aa9"></path> <rect x="251.53" y="213.74" width="24.17" height="24.17" rx="3.82" style="fill:none;stroke:#ececec;stroke-miterlimit:10;stroke-width:0.6740000247955322px"></rect> <path d="M296.05,237.91H279.52a3.82,3.82,0,0,1-3.82-3.82V217.56a3.82,3.82,0,0,1,3.82-3.82h16.53a3.82,3.82,0,0,1,3.82,3.82v16.53a3.82,3.82,0,0,1-3.82,3.82" style="fill:#374aa9"></path> <rect x="275.7" y="213.74" width="24.17" height="24.17" rx="3.82" style="fill:none;stroke:#ececec;stroke-miterlimit:10;stroke-width:0.6740000247955322px"></rect> <path d="M320.22,237.91H303.69a3.82,3.82,0,0,1-3.82-3.82V217.56a3.82,3.82,0,0,1,3.82-3.82h16.53a3.82,3.82,0,0,1,3.82,3.82v16.53a3.82,3.82,0,0,1-3.82,3.82" style="fill:#374aa9"></path> <rect x="299.87" y="213.74" width="24.17" height="24.17" rx="3.82" style="fill:none;stroke:#ececec;stroke-miterlimit:10;stroke-width:0.6740000247955322px"></rect> <path d="M247.71,262.08H231.17a3.82,3.82,0,0,1-3.82-3.82V241.73a3.82,3.82,0,0,1,3.82-3.82h16.54a3.81,3.81,0,0,1,3.81,3.82v16.53a3.81,3.81,0,0,1-3.81,3.82" style="fill:#374aa9"></path> <rect x="227.35" y="237.91" width="24.17" height="24.17" rx="3.82" style="fill:none;stroke:#ececec;stroke-miterlimit:10;stroke-width:0.6740000247955322px"></rect> <path d="M271.88,262.08H255.34a3.81,3.81,0,0,1-3.81-3.82V241.73a3.81,3.81,0,0,1,3.81-3.82h16.54a3.82,3.82,0,0,1,3.82,3.82v16.53a3.82,3.82,0,0,1-3.82,3.82" style="fill:#374aa9"></path> <rect x="251.53" y="237.91" width="24.17" height="24.17" rx="3.82" style="fill:none;stroke:#ececec;stroke-miterlimit:10;stroke-width:0.6740000247955322px"></rect> <path d="M296.05,262.08H279.52a3.82,3.82,0,0,1-3.82-3.82V241.73a3.82,3.82,0,0,1,3.82-3.82h16.53a3.82,3.82,0,0,1,3.82,3.82v16.53a3.82,3.82,0,0,1-3.82,3.82" style="fill:#374aa9"></path> <rect x="275.7" y="237.91" width="24.17" height="24.17" rx="3.82" style="fill:none;stroke:#ececec;stroke-miterlimit:10;stroke-width:0.6740000247955322px"></rect> <path d="M320.22,262.08H303.69a3.82,3.82,0,0,1-3.82-3.82V241.73a3.82,3.82,0,0,1,3.82-3.82h16.53a3.82,3.82,0,0,1,3.82,3.82v16.53a3.82,3.82,0,0,1-3.82,3.82" style="fill:#374aa9"></path> <rect x="299.87" y="237.91" width="24.17" height="24.17" rx="3.82" style="fill:none;stroke:#ececec;stroke-miterlimit:10;stroke-width:0.6740000247955322px"></rect> <path d="M247.71,286.25H231.17a3.82,3.82,0,0,1-3.82-3.81V265.9a3.82,3.82,0,0,1,3.82-3.82h16.54a3.81,3.81,0,0,1,3.81,3.82v16.54a3.81,3.81,0,0,1-3.81,3.81" style="fill:#374aa9"></path> <rect x="227.35" y="262.08" width="24.17" height="24.17" rx="3.82" style="fill:none;stroke:#ececec;stroke-miterlimit:10;stroke-width:0.6740000247955322px"></rect> <path d="M271.88,286.25H255.34a3.81,3.81,0,0,1-3.81-3.81V265.9a3.81,3.81,0,0,1,3.81-3.82h16.54a3.82,3.82,0,0,1,3.82,3.82v16.54a3.82,3.82,0,0,1-3.82,3.81" style="fill:#374aa9"></path> <rect x="251.53" y="262.08" width="24.17" height="24.17" rx="3.82" style="fill:none;stroke:#ececec;stroke-miterlimit:10;stroke-width:0.6740000247955322px"></rect> <path d="M296.05,286.25H279.52a3.82,3.82,0,0,1-3.82-3.81V265.9a3.82,3.82,0,0,1,3.82-3.82h16.53a3.82,3.82,0,0,1,3.82,3.82v16.54a3.82,3.82,0,0,1-3.82,3.81" style="fill:#374aa9"></path> <rect x="275.7" y="262.08" width="24.17" height="24.17" rx="3.82" style="fill:none;stroke:#ececec;stroke-miterlimit:10;stroke-width:0.6740000247955322px"></rect> <path d="M320.22,286.25H303.69a3.82,3.82,0,0,1-3.82-3.81V265.9a3.82,3.82,0,0,1,3.82-3.82h16.53A3.82,3.82,0,0,1,324,265.9v16.54a3.82,3.82,0,0,1-3.82,3.81" style="fill:#374aa9"></path> <rect x="299.87" y="262.08" width="24.17" height="24.17" rx="3.82" style="fill:none;stroke:#ececec;stroke-miterlimit:10;stroke-width:0.6740000247955322px"></rect> <path d="M350.88,165.4H334.35a3.82,3.82,0,0,1-3.82-3.82V145a3.82,3.82,0,0,1,3.82-3.82h16.53A3.82,3.82,0,0,1,354.7,145v16.54a3.82,3.82,0,0,1-3.82,3.82" style="fill:#374aa9"></path> <rect x="330.53" y="141.22" width="24.17" height="24.17" rx="3.82" style="fill:none;stroke:#ececec;stroke-miterlimit:10;stroke-width:0.6740000247955322px"></rect> <path d="M375.05,165.4H358.52a3.82,3.82,0,0,1-3.82-3.82V145a3.82,3.82,0,0,1,3.82-3.82h16.53a3.82,3.82,0,0,1,3.82,3.82v16.54a3.82,3.82,0,0,1-3.82,3.82" style="fill:#374aa9"></path> <rect x="354.7" y="141.22" width="24.17" height="24.17" rx="3.82" style="fill:none;stroke:#ececec;stroke-miterlimit:10;stroke-width:0.6740000247955322px"></rect> <path d="M399.22,165.4H382.69a3.82,3.82,0,0,1-3.82-3.82V145a3.82,3.82,0,0,1,3.82-3.82h16.53A3.82,3.82,0,0,1,403,145v16.54a3.82,3.82,0,0,1-3.82,3.82" style="fill:#374aa9"></path> <rect x="378.87" y="141.22" width="24.17" height="24.17" rx="3.82" style="fill:none;stroke:#ececec;stroke-miterlimit:10;stroke-width:0.6740000247955322px"></rect> <path d="M423.4,165.4H406.86a3.82,3.82,0,0,1-3.82-3.82V145a3.82,3.82,0,0,1,3.82-3.82H423.4a3.82,3.82,0,0,1,3.81,3.82v16.54a3.82,3.82,0,0,1-3.81,3.82" style="fill:#374aa9"></path> <rect x="403.04" y="141.22" width="24.17" height="24.17" rx="3.82" style="fill:none;stroke:#ececec;stroke-miterlimit:10;stroke-width:0.6740000247955322px"></rect> <path d="M350.88,189.57H334.35a3.82,3.82,0,0,1-3.82-3.82V169.21a3.82,3.82,0,0,1,3.82-3.81h16.53a3.82,3.82,0,0,1,3.82,3.81v16.54a3.82,3.82,0,0,1-3.82,3.82" style="fill:#374aa9"></path> <rect x="330.53" y="165.4" width="24.17" height="24.17" rx="3.82" style="fill:none;stroke:#ececec;stroke-miterlimit:10;stroke-width:0.6740000247955322px"></rect> <path d="M375.05,189.57H358.52a3.82,3.82,0,0,1-3.82-3.82V169.21a3.82,3.82,0,0,1,3.82-3.81h16.53a3.82,3.82,0,0,1,3.82,3.81v16.54a3.82,3.82,0,0,1-3.82,3.82" style="fill:#374aa9"></path> <rect x="354.7" y="165.4" width="24.17" height="24.17" rx="3.82" style="fill:none;stroke:#ececec;stroke-miterlimit:10;stroke-width:0.6740000247955322px"></rect> <path d="M399.22,189.57H382.69a3.82,3.82,0,0,1-3.82-3.82V169.21a3.82,3.82,0,0,1,3.82-3.81h16.53a3.82,3.82,0,0,1,3.82,3.81v16.54a3.82,3.82,0,0,1-3.82,3.82" style="fill:#374aa9"></path> <rect x="378.87" y="165.4" width="24.17" height="24.17" rx="3.82" style="fill:none;stroke:#ececec;stroke-miterlimit:10;stroke-width:0.6740000247955322px"></rect> <path d="M423.4,189.57H406.86a3.82,3.82,0,0,1-3.82-3.82V169.21a3.82,3.82,0,0,1,3.82-3.81H423.4a3.82,3.82,0,0,1,3.81,3.81v16.54a3.82,3.82,0,0,1-3.81,3.82" style="fill:#374aa9"></path> <rect x="403.04" y="165.4" width="24.17" height="24.17" rx="3.82" style="fill:none;stroke:#ececec;stroke-miterlimit:10;stroke-width:0.6740000247955322px"></rect> <path d="M350.88,213.74H334.35a3.82,3.82,0,0,1-3.82-3.82V193.39a3.82,3.82,0,0,1,3.82-3.82h16.53a3.82,3.82,0,0,1,3.82,3.82v16.53a3.82,3.82,0,0,1-3.82,3.82" style="fill:#374aa9"></path> <rect x="330.53" y="189.57" width="24.17" height="24.17" rx="3.82" style="fill:none;stroke:#ececec;stroke-miterlimit:10;stroke-width:0.6740000247955322px"></rect> <path d="M375.05,213.74H358.52a3.82,3.82,0,0,1-3.82-3.82V193.39a3.82,3.82,0,0,1,3.82-3.82h16.53a3.82,3.82,0,0,1,3.82,3.82v16.53a3.82,3.82,0,0,1-3.82,3.82" style="fill:#374aa9"></path> <rect x="354.7" y="189.57" width="24.17" height="24.17" rx="3.82" style="fill:none;stroke:#ececec;stroke-miterlimit:10;stroke-width:0.6740000247955322px"></rect> <path d="M399.22,213.74H382.69a3.82,3.82,0,0,1-3.82-3.82V193.39a3.82,3.82,0,0,1,3.82-3.82h16.53a3.82,3.82,0,0,1,3.82,3.82v16.53a3.82,3.82,0,0,1-3.82,3.82" style="fill:#374aa9"></path> <rect x="378.87" y="189.57" width="24.17" height="24.17" rx="3.82" style="fill:none;stroke:#ececec;stroke-miterlimit:10;stroke-width:0.6740000247955322px"></rect> <path d="M423.4,213.74H406.86a3.82,3.82,0,0,1-3.82-3.82V193.39a3.82,3.82,0,0,1,3.82-3.82H423.4a3.82,3.82,0,0,1,3.81,3.82v16.53a3.82,3.82,0,0,1-3.81,3.82" style="fill:#374aa9"></path> <rect x="403.04" y="189.57" width="24.17" height="24.17" rx="3.82" style="fill:none;stroke:#ececec;stroke-miterlimit:10;stroke-width:0.6740000247955322px"></rect> <path d="M350.88,237.91H334.35a3.82,3.82,0,0,1-3.82-3.82V217.56a3.82,3.82,0,0,1,3.82-3.82h16.53a3.82,3.82,0,0,1,3.82,3.82v16.53a3.82,3.82,0,0,1-3.82,3.82" style="fill:#374aa9"></path> <rect x="330.53" y="213.74" width="24.17" height="24.17" rx="3.82" style="fill:none;stroke:#ececec;stroke-miterlimit:10;stroke-width:0.6740000247955322px"></rect> <path d="M375.05,237.91H358.52a3.82,3.82,0,0,1-3.82-3.82V217.56a3.82,3.82,0,0,1,3.82-3.82h16.53a3.82,3.82,0,0,1,3.82,3.82v16.53a3.82,3.82,0,0,1-3.82,3.82" style="fill:#374aa9"></path> <rect x="354.7" y="213.74" width="24.17" height="24.17" rx="3.82" style="fill:none;stroke:#ececec;stroke-miterlimit:10;stroke-width:0.6740000247955322px"></rect> <path d="M399.22,237.91H382.69a3.82,3.82,0,0,1-3.82-3.82V217.56a3.82,3.82,0,0,1,3.82-3.82h16.53a3.82,3.82,0,0,1,3.82,3.82v16.53a3.82,3.82,0,0,1-3.82,3.82" style="fill:#374aa9"></path> <rect x="378.87" y="213.74" width="24.17" height="24.17" rx="3.82" style="fill:none;stroke:#ececec;stroke-miterlimit:10;stroke-width:0.6740000247955322px"></rect> <path d="M423.4,237.91H406.86a3.82,3.82,0,0,1-3.82-3.82V217.56a3.82,3.82,0,0,1,3.82-3.82H423.4a3.82,3.82,0,0,1,3.81,3.82v16.53a3.82,3.82,0,0,1-3.81,3.82" style="fill:#374aa9"></path> <rect x="403.04" y="213.74" width="24.17" height="24.17" rx="3.82" style="fill:none;stroke:#ececec;stroke-miterlimit:10;stroke-width:0.6740000247955322px"></rect> <path d="M350.88,262.08H334.35a3.82,3.82,0,0,1-3.82-3.82V241.73a3.82,3.82,0,0,1,3.82-3.82h16.53a3.82,3.82,0,0,1,3.82,3.82v16.53a3.82,3.82,0,0,1-3.82,3.82" style="fill:#374aa9"></path> <rect x="330.53" y="237.91" width="24.17" height="24.17" rx="3.82" style="fill:none;stroke:#ececec;stroke-miterlimit:10;stroke-width:0.6740000247955322px"></rect> <path d="M375.05,262.08H358.52a3.82,3.82,0,0,1-3.82-3.82V241.73a3.82,3.82,0,0,1,3.82-3.82h16.53a3.82,3.82,0,0,1,3.82,3.82v16.53a3.82,3.82,0,0,1-3.82,3.82" style="fill:#374aa9"></path> <rect x="354.7" y="237.91" width="24.17" height="24.17" rx="3.82" style="fill:none;stroke:#ececec;stroke-miterlimit:10;stroke-width:0.6740000247955322px"></rect> <path d="M399.22,262.08H382.69a3.82,3.82,0,0,1-3.82-3.82V241.73a3.82,3.82,0,0,1,3.82-3.82h16.53a3.82,3.82,0,0,1,3.82,3.82v16.53a3.82,3.82,0,0,1-3.82,3.82" style="fill:#374aa9"></path> <rect x="378.87" y="237.91" width="24.17" height="24.17" rx="3.82" style="fill:none;stroke:#ececec;stroke-miterlimit:10;stroke-width:0.6740000247955322px"></rect> <path d="M423.4,262.08H406.86a3.82,3.82,0,0,1-3.82-3.82V241.73a3.82,3.82,0,0,1,3.82-3.82H423.4a3.82,3.82,0,0,1,3.81,3.82v16.53a3.82,3.82,0,0,1-3.81,3.82" style="fill:#374aa9"></path> <rect x="403.04" y="237.91" width="24.17" height="24.17" rx="3.82" style="fill:none;stroke:#ececec;stroke-miterlimit:10;stroke-width:0.6740000247955322px"></rect> <path d="M350.88,286.25H334.35a3.82,3.82,0,0,1-3.82-3.81V265.9a3.82,3.82,0,0,1,3.82-3.82h16.53a3.82,3.82,0,0,1,3.82,3.82v16.54a3.82,3.82,0,0,1-3.82,3.81" style="fill:#374aa9"></path> <rect x="330.53" y="262.08" width="24.17" height="24.17" rx="3.82" style="fill:none;stroke:#ececec;stroke-miterlimit:10;stroke-width:0.6740000247955322px"></rect> <path d="M375.05,286.25H358.52a3.82,3.82,0,0,1-3.82-3.81V265.9a3.82,3.82,0,0,1,3.82-3.82h16.53a3.82,3.82,0,0,1,3.82,3.82v16.54a3.82,3.82,0,0,1-3.82,3.81" style="fill:#374aa9"></path> <rect x="354.7" y="262.08" width="24.17" height="24.17" rx="3.82" style="fill:none;stroke:#ececec;stroke-miterlimit:10;stroke-width:0.6740000247955322px"></rect> <path d="M399.22,286.25H382.69a3.82,3.82,0,0,1-3.82-3.81V265.9a3.82,3.82,0,0,1,3.82-3.82h16.53A3.82,3.82,0,0,1,403,265.9v16.54a3.82,3.82,0,0,1-3.82,3.81" style="fill:#374aa9"></path> <rect x="378.87" y="262.08" width="24.17" height="24.17" rx="3.82" style="fill:none;stroke:#ececec;stroke-miterlimit:10;stroke-width:0.6740000247955322px"></rect> <path d="M423.4,286.25H406.86a3.82,3.82,0,0,1-3.82-3.81V265.9a3.82,3.82,0,0,1,3.82-3.82H423.4a3.82,3.82,0,0,1,3.81,3.82v16.54a3.82,3.82,0,0,1-3.81,3.81" style="fill:#374aa9"></path> <rect x="403.04" y="262.08" width="24.17" height="24.17" rx="3.82" style="fill:none;stroke:#ececec;stroke-miterlimit:10;stroke-width:0.6740000247955322px"></rect> <path d="M453.87,165.4H437.34a3.82,3.82,0,0,1-3.82-3.82V145a3.82,3.82,0,0,1,3.82-3.82h16.53a3.82,3.82,0,0,1,3.82,3.82v16.54a3.82,3.82,0,0,1-3.82,3.82" style="fill:#374aa9"></path> <rect x="433.52" y="141.22" width="24.17" height="24.17" rx="3.82" style="fill:none;stroke:#ececec;stroke-miterlimit:10;stroke-width:0.6740000247955322px"></rect> <path d="M478,165.4H461.51a3.82,3.82,0,0,1-3.82-3.82V145a3.82,3.82,0,0,1,3.82-3.82H478a3.82,3.82,0,0,1,3.82,3.82v16.54A3.82,3.82,0,0,1,478,165.4" style="fill:#374aa9"></path> <rect x="457.69" y="141.22" width="24.17" height="24.17" rx="3.82" style="fill:none;stroke:#ececec;stroke-miterlimit:10;stroke-width:0.6740000247955322px"></rect> <path d="M502.22,165.4H485.68a3.82,3.82,0,0,1-3.82-3.82V145a3.82,3.82,0,0,1,3.82-3.82h16.54A3.81,3.81,0,0,1,506,145v16.54a3.81,3.81,0,0,1-3.81,3.82" style="fill:#374aa9"></path> <rect x="481.86" y="141.22" width="24.17" height="24.17" rx="3.82" style="fill:none;stroke:#ececec;stroke-miterlimit:10;stroke-width:0.6740000247955322px"></rect> <path d="M526.39,165.4H509.85a3.81,3.81,0,0,1-3.81-3.82V145a3.81,3.81,0,0,1,3.81-3.82h16.54a3.82,3.82,0,0,1,3.82,3.82v16.54a3.82,3.82,0,0,1-3.82,3.82" style="fill:#374aa9"></path> <rect x="506.04" y="141.22" width="24.17" height="24.17" rx="3.82" style="fill:none;stroke:#ececec;stroke-miterlimit:10;stroke-width:0.6740000247955322px"></rect> <path d="M453.87,189.57H437.34a3.82,3.82,0,0,1-3.82-3.82V169.21a3.82,3.82,0,0,1,3.82-3.81h16.53a3.82,3.82,0,0,1,3.82,3.81v16.54a3.82,3.82,0,0,1-3.82,3.82" style="fill:#374aa9"></path> <rect x="433.52" y="165.4" width="24.17" height="24.17" rx="3.82" style="fill:none;stroke:#ececec;stroke-miterlimit:10;stroke-width:0.6740000247955322px"></rect> <path d="M478,189.57H461.51a3.82,3.82,0,0,1-3.82-3.82V169.21a3.82,3.82,0,0,1,3.82-3.81H478a3.82,3.82,0,0,1,3.82,3.81v16.54a3.82,3.82,0,0,1-3.82,3.82" style="fill:#374aa9"></path> <rect x="457.69" y="165.4" width="24.17" height="24.17" rx="3.82" style="fill:none;stroke:#ececec;stroke-miterlimit:10;stroke-width:0.6740000247955322px"></rect> <path d="M502.22,189.57H485.68a3.82,3.82,0,0,1-3.82-3.82V169.21a3.82,3.82,0,0,1,3.82-3.81h16.54a3.81,3.81,0,0,1,3.81,3.81v16.54a3.81,3.81,0,0,1-3.81,3.82" style="fill:#374aa9"></path> <rect x="481.86" y="165.4" width="24.17" height="24.17" rx="3.82" style="fill:none;stroke:#ececec;stroke-miterlimit:10;stroke-width:0.6740000247955322px"></rect> <path d="M526.39,189.57H509.85a3.81,3.81,0,0,1-3.81-3.82V169.21a3.81,3.81,0,0,1,3.81-3.81h16.54a3.82,3.82,0,0,1,3.82,3.81v16.54a3.82,3.82,0,0,1-3.82,3.82" style="fill:#374aa9"></path> <rect x="506.04" y="165.4" width="24.17" height="24.17" rx="3.82" style="fill:none;stroke:#ececec;stroke-miterlimit:10;stroke-width:0.6740000247955322px"></rect> <path d="M453.87,213.74H437.34a3.82,3.82,0,0,1-3.82-3.82V193.39a3.82,3.82,0,0,1,3.82-3.82h16.53a3.82,3.82,0,0,1,3.82,3.82v16.53a3.82,3.82,0,0,1-3.82,3.82" style="fill:#374aa9"></path> <rect x="433.52" y="189.57" width="24.17" height="24.17" rx="3.82" style="fill:none;stroke:#ececec;stroke-miterlimit:10;stroke-width:0.6740000247955322px"></rect> <path d="M478,213.74H461.51a3.82,3.82,0,0,1-3.82-3.82V193.39a3.82,3.82,0,0,1,3.82-3.82H478a3.82,3.82,0,0,1,3.82,3.82v16.53a3.82,3.82,0,0,1-3.82,3.82" style="fill:#374aa9"></path> <rect x="457.69" y="189.57" width="24.17" height="24.17" rx="3.82" style="fill:none;stroke:#ececec;stroke-miterlimit:10;stroke-width:0.6740000247955322px"></rect> <path d="M502.22,213.74H485.68a3.82,3.82,0,0,1-3.82-3.82V193.39a3.82,3.82,0,0,1,3.82-3.82h16.54a3.81,3.81,0,0,1,3.81,3.82v16.53a3.81,3.81,0,0,1-3.81,3.82" style="fill:#374aa9"></path> <rect x="481.86" y="189.57" width="24.17" height="24.17" rx="3.82" style="fill:none;stroke:#ececec;stroke-miterlimit:10;stroke-width:0.6740000247955322px"></rect> <path d="M526.39,213.74H509.85a3.81,3.81,0,0,1-3.81-3.82V193.39a3.81,3.81,0,0,1,3.81-3.82h16.54a3.82,3.82,0,0,1,3.82,3.82v16.53a3.82,3.82,0,0,1-3.82,3.82" style="fill:#374aa9"></path> <rect x="506.04" y="189.57" width="24.17" height="24.17" rx="3.82" style="fill:none;stroke:#ececec;stroke-miterlimit:10;stroke-width:0.6740000247955322px"></rect> <path d="M453.87,237.91H437.34a3.82,3.82,0,0,1-3.82-3.82V217.56a3.82,3.82,0,0,1,3.82-3.82h16.53a3.82,3.82,0,0,1,3.82,3.82v16.53a3.82,3.82,0,0,1-3.82,3.82" style="fill:#374aa9"></path> <rect x="433.52" y="213.74" width="24.17" height="24.17" rx="3.82" style="fill:none;stroke:#ececec;stroke-miterlimit:10;stroke-width:0.6740000247955322px"></rect> <path d="M478,237.91H461.51a3.82,3.82,0,0,1-3.82-3.82V217.56a3.82,3.82,0,0,1,3.82-3.82H478a3.82,3.82,0,0,1,3.82,3.82v16.53a3.82,3.82,0,0,1-3.82,3.82" style="fill:#374aa9"></path> <rect x="457.69" y="213.74" width="24.17" height="24.17" rx="3.82" style="fill:none;stroke:#ececec;stroke-miterlimit:10;stroke-width:0.6740000247955322px"></rect> <path d="M502.22,237.91H485.68a3.82,3.82,0,0,1-3.82-3.82V217.56a3.82,3.82,0,0,1,3.82-3.82h16.54a3.81,3.81,0,0,1,3.81,3.82v16.53a3.81,3.81,0,0,1-3.81,3.82" style="fill:#374aa9"></path> <rect x="481.86" y="213.74" width="24.17" height="24.17" rx="3.82" style="fill:none;stroke:#ececec;stroke-miterlimit:10;stroke-width:0.6740000247955322px"></rect> <path d="M526.39,237.91H509.85a3.81,3.81,0,0,1-3.81-3.82V217.56a3.81,3.81,0,0,1,3.81-3.82h16.54a3.82,3.82,0,0,1,3.82,3.82v16.53a3.82,3.82,0,0,1-3.82,3.82" style="fill:#374aa9"></path> <rect x="506.04" y="213.74" width="24.17" height="24.17" rx="3.82" style="fill:none;stroke:#ececec;stroke-miterlimit:10;stroke-width:0.6740000247955322px"></rect> <path d="M453.87,262.08H437.34a3.82,3.82,0,0,1-3.82-3.82V241.73a3.82,3.82,0,0,1,3.82-3.82h16.53a3.82,3.82,0,0,1,3.82,3.82v16.53a3.82,3.82,0,0,1-3.82,3.82" style="fill:#374aa9"></path> <rect x="433.52" y="237.91" width="24.17" height="24.17" rx="3.82" style="fill:none;stroke:#ececec;stroke-miterlimit:10;stroke-width:0.6740000247955322px"></rect> <path d="M478,262.08H461.51a3.82,3.82,0,0,1-3.82-3.82V241.73a3.82,3.82,0,0,1,3.82-3.82H478a3.82,3.82,0,0,1,3.82,3.82v16.53a3.82,3.82,0,0,1-3.82,3.82" style="fill:#374aa9"></path> <rect x="457.69" y="237.91" width="24.17" height="24.17" rx="3.82" style="fill:none;stroke:#ececec;stroke-miterlimit:10;stroke-width:0.6740000247955322px"></rect> <path d="M502.22,262.08H485.68a3.82,3.82,0,0,1-3.82-3.82V241.73a3.82,3.82,0,0,1,3.82-3.82h16.54a3.81,3.81,0,0,1,3.81,3.82v16.53a3.81,3.81,0,0,1-3.81,3.82" style="fill:#374aa9"></path> <rect x="481.86" y="237.91" width="24.17" height="24.17" rx="3.82" style="fill:none;stroke:#ececec;stroke-miterlimit:10;stroke-width:0.6740000247955322px"></rect> <path d="M526.39,262.08H509.85a3.81,3.81,0,0,1-3.81-3.82V241.73a3.81,3.81,0,0,1,3.81-3.82h16.54a3.82,3.82,0,0,1,3.82,3.82v16.53a3.82,3.82,0,0,1-3.82,3.82" style="fill:#374aa9"></path> <rect x="506.04" y="237.91" width="24.17" height="24.17" rx="3.82" style="fill:none;stroke:#ececec;stroke-miterlimit:10;stroke-width:0.6740000247955322px"></rect> <path d="M453.87,286.25H437.34a3.82,3.82,0,0,1-3.82-3.81V265.9a3.82,3.82,0,0,1,3.82-3.82h16.53a3.82,3.82,0,0,1,3.82,3.82v16.54a3.82,3.82,0,0,1-3.82,3.81" style="fill:#374aa9"></path> <rect x="433.52" y="262.08" width="24.17" height="24.17" rx="3.82" style="fill:none;stroke:#ececec;stroke-miterlimit:10;stroke-width:0.6740000247955322px"></rect> <path d="M478,286.25H461.51a3.82,3.82,0,0,1-3.82-3.81V265.9a3.82,3.82,0,0,1,3.82-3.82H478a3.82,3.82,0,0,1,3.82,3.82v16.54a3.82,3.82,0,0,1-3.82,3.81" style="fill:#374aa9"></path> <rect x="457.69" y="262.08" width="24.17" height="24.17" rx="3.82" style="fill:none;stroke:#ececec;stroke-miterlimit:10;stroke-width:0.6740000247955322px"></rect> <path d="M502.22,286.25H485.68a3.82,3.82,0,0,1-3.82-3.81V265.9a3.82,3.82,0,0,1,3.82-3.82h16.54A3.81,3.81,0,0,1,506,265.9v16.54a3.81,3.81,0,0,1-3.81,3.81" style="fill:#374aa9"></path> <rect x="481.86" y="262.08" width="24.17" height="24.17" rx="3.82" style="fill:none;stroke:#ececec;stroke-miterlimit:10;stroke-width:0.6740000247955322px"></rect> <path d="M526.39,286.25H509.85a3.81,3.81,0,0,1-3.81-3.81V265.9a3.81,3.81,0,0,1,3.81-3.82h16.54a3.82,3.82,0,0,1,3.82,3.82v16.54a3.82,3.82,0,0,1-3.82,3.81" style="fill:#374aa9"></path> <rect x="506.04" y="262.08" width="24.17" height="24.17" rx="3.82" style="fill:none;stroke:#ececec;stroke-miterlimit:10;stroke-width:0.6740000247955322px"></rect> <g style="clip-path:url(#clip-path)"> <g style="opacity:0.5500029921531677;mix-blend-mode:overlay"> <g style="clip-path:url(#clip-path-2)"> <g style="clip-path:url(#clip-path-3)"> <g style="mask:url(#mask)"> <rect x="211.14" y="121.14" width="215.9" height="192.27" style="fill:url(#Безымянный_градиент_11)"></rect> </g> </g> </g> </g> <g style="opacity:0.5500029921531677;mix-blend-mode:overlay"> <g style="clip-path:url(#clip-path-4)"> <g style="clip-path:url(#clip-path-5)"> <g style="mask:url(#mask-2)"> <rect x="337.39" y="126.65" width="138.62" height="236.82" style="fill:url(#Безымянный_градиент_11-2)"></rect> </g> </g> </g> </g> </g> <path d="M251.63,128.25c.06.49.13,1,.2,1.47.13.88,0,1.83.16,2.68a7.44,7.44,0,0,0,2.75,4.46,17.6,17.6,0,0,0,4.65,2.65,63.28,63.28,0,0,0,8.55,2.79,41,41,0,0,0,4.69.68c1,.14,2.25.35,3.26.39s1.36-.08,1.79-1,.79-2.21,1.17-3.28a1.38,1.38,0,0,0-.7-1.83,23.55,23.55,0,0,0-3.63-1.4c-2.62-.81-5.09-1.19-7.43-2.61-1.42-.86-2.55-1.5-2.87-3.42a4.39,4.39,0,0,1,0-.89,112.36,112.36,0,0,0-12.55-.65"></path> <path d="M255,131a12,12,0,0,0,.47,3.36,7.51,7.51,0,0,0,2.43,3,32.81,32.81,0,0,0,7.07,3.35,21.56,21.56,0,0,0,4.71,1,30.23,30.23,0,0,0,4.66,0,1.84,1.84,0,0,0,1.6-1.17,1.68,1.68,0,0,0-.89-2.35c-1.5-.78-3.1-1.32-4.56-2a27.61,27.61,0,0,1-5.91-3.51c-.72-.57-1.56-.9-1.91-1.85a9.07,9.07,0,0,1-.46-2.45c-2.46-.21-4.93-.44-7.39-.51,0,.9.12,2.08.18,3" style="fill:#fff"></path> <path d="M63.25,177.34a1.43,1.43,0,0,1-.13.38,1.79,1.79,0,0,1-.22.34.79.79,0,0,1-.14.17,3.38,3.38,0,0,1-.85.73,1.4,1.4,0,0,1-.26.16,3.61,3.61,0,0,1-1.06.4h0a2.81,2.81,0,0,1-.64,0l-.37,0-.19-.05a2,2,0,0,1-.37-.12h0a1.68,1.68,0,0,1-.3-.15,1.83,1.83,0,0,1-.31-.24,1,1,0,0,1-.24-.25,1.48,1.48,0,0,1-.28-.45.74.74,0,0,1-.11-.24,1.29,1.29,0,0,1-.07-.21,1.9,1.9,0,0,1-.09-.36,2.51,2.51,0,0,1-.07-.5c-.11-1.36,1.49-2.43,4.22-2.36.33.43,1.32,1.2,1.53,2.15a1.31,1.31,0,0,1,0,.59" style="fill:#fff"></path> <path d="M63.25,177.34a1.43,1.43,0,0,1-.13.38,1.79,1.79,0,0,1-.22.34.79.79,0,0,1-.14.17,3.38,3.38,0,0,1-.85.73,1.4,1.4,0,0,1-.26.16,3.61,3.61,0,0,1-1.06.4h0a2.81,2.81,0,0,1-.64,0l-.37,0-.19-.05a2,2,0,0,1-.37-.12h0a1.68,1.68,0,0,1-.3-.15,1.83,1.83,0,0,1-.31-.24,1,1,0,0,1-.24-.25,1.48,1.48,0,0,1-.28-.45.74.74,0,0,1-.11-.24,1.29,1.29,0,0,1-.07-.21,1.9,1.9,0,0,1-.09-.36,2.51,2.51,0,0,1-.07-.5c-.11-1.36,1.49-2.43,4.22-2.36.33.43,1.32,1.2,1.53,2.15A1.31,1.31,0,0,1,63.25,177.34Z" style="fill:none;stroke:#030506;stroke-linecap:round;stroke-linejoin:round;stroke-width:0.2029999941587448px"></path> <path d="M54.59,274.17a20,20,0,0,1-1.74,6.57,7.69,7.69,0,0,1-1.72,2.51,3.65,3.65,0,0,1-2.79,1,3.84,3.84,0,0,1-2.9-2.69,11.18,11.18,0,0,1-.34-4.12q.13-3.48.28-6.94a8.31,8.31,0,0,1,.62-3.44c.91-1.88,3.61-3.18,5.44-1.82,2.7,2,3.43,5.49,3.15,8.93"></path> <path d="M54.59,274.17a20,20,0,0,1-1.74,6.57,7.69,7.69,0,0,1-1.72,2.51,3.65,3.65,0,0,1-2.79,1,3.84,3.84,0,0,1-2.9-2.69,11.18,11.18,0,0,1-.34-4.12q.13-3.48.28-6.94a8.31,8.31,0,0,1,.62-3.44c.91-1.88,3.61-3.18,5.44-1.82C54.14,267.24,54.87,270.73,54.59,274.17Z" style="fill:none;stroke:#030506;stroke-linecap:round;stroke-linejoin:round;stroke-width:0.2029999941587448px"></path> <path d="M198.89,271.08a14.64,14.64,0,0,1,.06-5,5.4,5.4,0,0,1,.77-2.07,2.62,2.62,0,0,1,1.79-1.2,2.78,2.78,0,0,1,2.53,1.38,8.32,8.32,0,0,1,1,2.85c.34,1.65.69,3.3,1,5a6.24,6.24,0,0,1,.18,2.54c-.31,1.49-2,2.89-3.52,2.25-2.27-.93-3.41-3.27-3.82-5.75" style="fill:#fff"></path> <path d="M198.89,271.08a14.64,14.64,0,0,1,.06-5,5.4,5.4,0,0,1,.77-2.07,2.62,2.62,0,0,1,1.79-1.2,2.78,2.78,0,0,1,2.53,1.38,8.32,8.32,0,0,1,1,2.85c.34,1.65.69,3.3,1,5a6.24,6.24,0,0,1,.18,2.54c-.31,1.49-2,2.89-3.52,2.25C200.44,275.9,199.3,273.56,198.89,271.08Z" style="fill:none;stroke:#030506;stroke-linecap:round;stroke-linejoin:round;stroke-width:0.2029999941587448px"></path> <path d="M118.05,123a1.75,1.75,0,0,1-2,1.79c-1.18-.06-2.12-.5-2.07-1.88a1.53,1.53,0,0,1,1.71-1.63c1.72,0,2.38.69,2.36,1.72" style="fill:#fff"></path> <path d="M118.05,123a1.75,1.75,0,0,1-2,1.79c-1.18-.06-2.12-.5-2.07-1.88a1.53,1.53,0,0,1,1.71-1.63C117.41,121.27,118.07,122,118.05,123Z" style="fill:none;stroke:#030506;stroke-linecap:round;stroke-linejoin:round;stroke-width:0.2029999941587448px"></path> <path d="M117.18,147.06a1.75,1.75,0,0,1-2,1.79c-1.18-.06-2.12-.51-2.07-1.88a1.54,1.54,0,0,1,1.72-1.64c1.72,0,2.37.7,2.35,1.73" style="fill:#fff"></path> <path d="M117.18,147.06a1.75,1.75,0,0,1-2,1.79c-1.18-.06-2.12-.51-2.07-1.88a1.54,1.54,0,0,1,1.72-1.64C116.55,145.3,117.2,146,117.18,147.06Z" style="fill:none;stroke:#030506;stroke-linecap:round;stroke-linejoin:round;stroke-width:0.2029999941587448px"></path> <path d="M114.78,168.17a1.75,1.75,0,0,1-2,1.79c-1.18-.05-2.12-.5-2.07-1.88a1.54,1.54,0,0,1,1.72-1.63c1.72,0,2.37.69,2.35,1.72" style="fill:#fff"></path> <path d="M114.78,168.17a1.75,1.75,0,0,1-2,1.79c-1.18-.05-2.12-.5-2.07-1.88a1.54,1.54,0,0,1,1.72-1.63C114.15,166.41,114.8,167.14,114.78,168.17Z" style="fill:none;stroke:#030506;stroke-linecap:round;stroke-linejoin:round;stroke-width:0.2029999941587448px"></path> <path d="M99.27,179.61a1.21,1.21,0,0,1-1.38,1.24c-.82,0-1.47-.35-1.44-1.3a1.07,1.07,0,0,1,1.19-1.14c1.19,0,1.65.49,1.63,1.2" style="fill:#fff"></path> <path d="M99.27,179.61a1.21,1.21,0,0,1-1.38,1.24c-.82,0-1.47-.35-1.44-1.3a1.07,1.07,0,0,1,1.19-1.14C98.83,178.39,99.29,178.9,99.27,179.61Z" style="fill:none;stroke:#030506;stroke-linecap:round;stroke-linejoin:round;stroke-width:0.2029999941587448px"></path> <path d="M159.31,136.78c0,1.27-2,2.87-3.79,2.86-1.94.07-2-1.53-2-2.86s.34-3,2.32-3.11a3.77,3.77,0,0,1,3.5,3.11"></path> <path d="M159.31,136.78c0,1.27-2,2.87-3.79,2.86-1.94.07-2-1.53-2-2.86s.34-3,2.32-3.11A3.77,3.77,0,0,1,159.31,136.78Z" style="fill:none;stroke:#030506;stroke-linecap:round;stroke-linejoin:round;stroke-width:0.2029999941587448px"></path> <path d="M158.78,151.56c0,1.27-2,2.87-3.79,2.86-1.94.07-2-1.52-2-2.85s.34-3,2.32-3.11a3.76,3.76,0,0,1,3.5,3.1"></path> <path d="M158.78,151.56c0,1.27-2,2.87-3.79,2.86-1.94.07-2-1.52-2-2.85s.34-3,2.32-3.11A3.76,3.76,0,0,1,158.78,151.56Z" style="fill:none;stroke:#030506;stroke-linecap:round;stroke-linejoin:round;stroke-width:0.2029999941587448px"></path> <path d="M173.74,133.61a2.39,2.39,0,0,1-2.73,2.44c-1.6-.08-2.89-.69-2.82-2.56a2.1,2.1,0,0,1,2.34-2.23c2.34,0,3.24,1,3.21,2.35"></path> <path d="M173.74,133.61a2.39,2.39,0,0,1-2.73,2.44c-1.6-.08-2.89-.69-2.82-2.56a2.1,2.1,0,0,1,2.34-2.23C172.87,131.21,173.77,132.21,173.74,133.61Z" style="fill:none;stroke:#030506;stroke-linecap:round;stroke-linejoin:round;stroke-width:0.2029999941587448px"></path> <path d="M157.94,169.17c-.17,1-1.38,1.82-2.12,2.72-2-.5-2.94-1.15-2.84-2.83a2.27,2.27,0,0,1,2.44-2.44c1.65,0,2.78,1,2.52,2.55"></path> <path d="M157.94,169.17c-.17,1-1.38,1.82-2.12,2.72-2-.5-2.94-1.15-2.84-2.83a2.27,2.27,0,0,1,2.44-2.44C157.07,166.61,158.2,167.65,157.94,169.17Z" style="fill:none;stroke:#030506;stroke-linecap:round;stroke-linejoin:round;stroke-width:0.2029999941587448px"></path> <path d="M157.08,189.09c-.11,1.49-.89,2.41-2.6,2.14a2.29,2.29,0,0,1-2.33-2.69,2.18,2.18,0,0,1,2.61-2.19,2.25,2.25,0,0,1,2.32,2.74"></path> <path d="M157.08,189.09c-.11,1.49-.89,2.41-2.6,2.14a2.29,2.29,0,0,1-2.33-2.69,2.18,2.18,0,0,1,2.61-2.19A2.25,2.25,0,0,1,157.08,189.09Z" style="fill:none;stroke:#030506;stroke-linecap:round;stroke-linejoin:round;stroke-width:0.2029999941587448px"></path> <path d="M157.54,208.1c-.28,2.52-1.68,2.91-2.91,2.69a2.85,2.85,0,0,1-1.62-2.14c-.07-1.33.64-2.81,2.28-2.42,1,.23,1.73,1.41,2.25,1.87"></path> <path d="M157.54,208.1c-.28,2.52-1.68,2.91-2.91,2.69a2.85,2.85,0,0,1-1.62-2.14c-.07-1.33.64-2.81,2.28-2.42C156.27,206.46,157,207.64,157.54,208.1Z" style="fill:none;stroke:#030506;stroke-linecap:round;stroke-linejoin:round;stroke-width:0.2029999941587448px"></path> <path d="M141.86,34q-.12-.64-.27-1.26a20.75,20.75,0,0,0-9.41-12.49,32.93,32.93,0,0,0-5.75-2.66,65.6,65.6,0,0,0-12.68-2.88c-7-1-18.1-2.2-27.87-1-5,.59-9.89,4.15-13.55,7.45a10.36,10.36,0,0,0-2.91,12c1.9,4.37,6.22,7.68,10.51,9.51a45.34,45.34,0,0,0,10.9,2.84,131.68,131.68,0,0,0,29.88,1.3,52.91,52.91,0,0,0,14.52-2.68c2.31-.85,4.65-2.07,5.87-4.21a8.85,8.85,0,0,0,.76-5.9" style="fill:#fff"></path> <path d="M141.86,34q-.12-.64-.27-1.26a20.75,20.75,0,0,0-9.41-12.49,32.93,32.93,0,0,0-5.75-2.66,65.6,65.6,0,0,0-12.68-2.88c-7-1-18.1-2.2-27.87-1-5,.59-9.89,4.15-13.55,7.45a10.36,10.36,0,0,0-2.91,12c1.9,4.37,6.22,7.68,10.51,9.51a45.34,45.34,0,0,0,10.9,2.84,131.68,131.68,0,0,0,29.88,1.3,52.91,52.91,0,0,0,14.52-2.68c2.31-.85,4.65-2.07,5.87-4.21A8.85,8.85,0,0,0,141.86,34Z" style="fill:none;stroke:#030506;stroke-linecap:round;stroke-linejoin:round;stroke-width:0.2029999941587448px"></path> <path d="M130.74,35.79a8.12,8.12,0,0,1-.68,1.85c-1.05,2.09-2.81,3.38-4.73,3.25-2.14-.16-4.37-.56-5.48-3.4a6.07,6.07,0,0,1-.24-.72,19.14,19.14,0,0,1-.37-3.51c.21-1.45.31-2.68.59-3.82a13.19,13.19,0,0,1,.89-2.57c.78-1.55,1.84-1.93,3.84-1.84a9,9,0,0,0,2.64-.25,3.18,3.18,0,0,1,4,2.14,6.81,6.81,0,0,1,.41,2.76,31.08,31.08,0,0,1-.92,6.11"></path> <path d="M130.74,35.79a8.12,8.12,0,0,1-.68,1.85c-1.05,2.09-2.81,3.38-4.73,3.25-2.14-.16-4.37-.56-5.48-3.4a6.07,6.07,0,0,1-.24-.72,19.14,19.14,0,0,1-.37-3.51c.21-1.45.31-2.68.59-3.82a13.19,13.19,0,0,1,.89-2.57c.78-1.55,1.84-1.93,3.84-1.84a9,9,0,0,0,2.64-.25,3.18,3.18,0,0,1,4,2.14,6.81,6.81,0,0,1,.41,2.76A31.08,31.08,0,0,1,130.74,35.79Z" style="fill:none;stroke:#030506;stroke-linecap:round;stroke-linejoin:round;stroke-width:0.27399998903274536px"></path> <path d="M202.92,33.52c-.75-1.73-1.69-3.45-3.37-4.11-1.3-.5-2.48-1.5-3.76-2-1.94-.79-3.95-1.37-5.92-2l-1.48-.53a64.43,64.43,0,0,0-7-2.33c-3.8-.86-7.64-1.48-11.49-2l-1.14-.16a88.56,88.56,0,0,0-10-.91c-3.13-.06-6.27.24-9.4.49a13,13,0,0,0-3.44.75,1.58,1.58,0,0,0-1,.77c-.2.47,0,1.05.54,1.73.16.19.34.36.51.55A23.93,23.93,0,0,1,149.74,29a14.08,14.08,0,0,1,1.26,4,26.07,26.07,0,0,1,.38,3.71,12.26,12.26,0,0,1-.48,3.79A28.51,28.51,0,0,1,146,50.35c-.73.93-.81,2.57-.16,2.85a9.35,9.35,0,0,0,2.48.81c3.13.37,6.25.64,9.38.92,5.88.55,11.68,1.24,17.6,1a51,51,0,0,0,19.6-4.77A15.57,15.57,0,0,0,202.51,44a11.76,11.76,0,0,0,.41-10.48" style="fill:#fff"></path> <path d="M202.92,33.52c-.75-1.73-1.69-3.45-3.37-4.11-1.3-.5-2.48-1.5-3.76-2-1.94-.79-3.95-1.37-5.92-2l-1.48-.53a64.43,64.43,0,0,0-7-2.33c-3.8-.86-7.64-1.48-11.49-2l-1.14-.16a88.56,88.56,0,0,0-10-.91c-3.13-.06-6.27.24-9.4.49a13,13,0,0,0-3.44.75,1.58,1.58,0,0,0-1,.77c-.2.47,0,1.05.54,1.73.16.19.34.36.51.55A23.93,23.93,0,0,1,149.74,29a14.08,14.08,0,0,1,1.26,4,26.07,26.07,0,0,1,.38,3.71,12.26,12.26,0,0,1-.48,3.79A28.51,28.51,0,0,1,146,50.35c-.73.93-.81,2.57-.16,2.85a9.35,9.35,0,0,0,2.48.81c3.13.37,6.25.64,9.38.92,5.88.55,11.68,1.24,17.6,1a51,51,0,0,0,19.6-4.77A15.57,15.57,0,0,0,202.51,44,11.76,11.76,0,0,0,202.92,33.52Z" style="fill:none;stroke:#030506;stroke-linecap:round;stroke-linejoin:round;stroke-width:0.2029999941587448px"></path> <path d="M197.53,43.73A4.23,4.23,0,0,1,191,45.39l-.55-.4a6.83,6.83,0,0,1-.58-.51,5.91,5.91,0,0,1-.8-7.47c.3-.47.59-.94.9-1.39.2-.3.42-.6.63-.88s.39-.51.6-.75.38-.44.57-.65a10.22,10.22,0,0,1,1-1c.13-.11.25-.21.39-.31a4,4,0,0,1,.39-.29,7.78,7.78,0,0,1,.92-.56,10.25,10.25,0,0,1,1-.44c2.23-.78,3.69.4,3.94,3.35.05.58.07,1.17.1,1.75a18.44,18.44,0,0,1-2,7.86"></path> <path d="M197.53,43.73A4.23,4.23,0,0,1,191,45.39l-.55-.4a6.83,6.83,0,0,1-.58-.51,5.91,5.91,0,0,1-.8-7.47c.3-.47.59-.94.9-1.39.2-.3.42-.6.63-.88s.39-.51.6-.75.38-.44.57-.65a10.22,10.22,0,0,1,1-1c.13-.11.25-.21.39-.31a4,4,0,0,1,.39-.29,7.78,7.78,0,0,1,.92-.56,10.25,10.25,0,0,1,1-.44c2.23-.78,3.69.4,3.94,3.35.05.58.07,1.17.1,1.75A18.44,18.44,0,0,1,197.53,43.73Z" style="fill:none;stroke:#030506;stroke-linecap:round;stroke-linejoin:round;stroke-width:0.2029999941587448px"></path> <path d="M197.36,37.84c-.89,1.38-4.52-.6-2.18-3.65.7-.71,1.19-1.67,2-.88,1.13,1.06,1.16,1.87.15,4.53" style="fill:#fff"></path> <path d="M197.36,37.84c-.89,1.38-4.52-.6-2.18-3.65.7-.71,1.19-1.67,2-.88C198.34,34.37,198.37,35.18,197.36,37.84Z" style="fill:none;stroke:#030506;stroke-linecap:round;stroke-linejoin:round;stroke-width:0.2029999941587448px"></path> <path d="M128.41,32.71c-.88,1.39-4.51-.59-2.17-3.65.7-.7,1.19-1.66,2-.88,1.13,1.06,1.15,1.88.14,4.53" style="fill:#fff"></path> <path d="M128.41,32.71c-.88,1.39-4.51-.59-2.17-3.65.7-.7,1.19-1.66,2-.88C129.4,29.24,129.42,30.06,128.41,32.71Z" style="fill:none;stroke:#030506;stroke-linecap:round;stroke-linejoin:round;stroke-width:0.2029999941587448px"></path> <path d="M172.9,77.33c-11.8,5.26-24.16,10.4-37,10.57-13.31.17-27.09-4.86-39.53-10.1a.61.61,0,0,1-.1-.69,3.22,3.22,0,0,1,.43-.92c.18-.32.37-.62.55-.94a112.69,112.69,0,0,0,74.32-.85,17.13,17.13,0,0,1,1.29,2.93" style="fill:#fff"></path> <path d="M173.75,77.71a31.92,31.92,0,0,1-5.05,2.47c-10.78,4.58-22.06,8.72-33.95,8.63-10.17-.1-20-2.84-29.45-6.28-3.21-1-6.12-2.75-9.5-3.26a2,2,0,0,1-1.12-1.54,2.1,2.1,0,0,1,.08-1,9.74,9.74,0,0,1,1.16-2.3,1.57,1.57,0,0,1,1.89-.7,111.57,111.57,0,0,0,73.58.06.65.65,0,0,1,.74.24,16.5,16.5,0,0,1,1.3,2.22,2,2,0,0,1,.32,1.44M172,77a.52.52,0,0,0-.07.49l-.05-.19a15.89,15.89,0,0,0-.85-2.55l.76.27a113.82,113.82,0,0,1-75.05,1.78l1.89-.71S98,77.24,98,77.25a1.23,1.23,0,0,0-.12.27c0,.1,0,.14,0-.28s-.16-.39-.1-.34l-.7-.56a16.28,16.28,0,0,0,4.42,2.32c25.78,10.61,40.9,11.39,66.53-.17A20.15,20.15,0,0,1,172,77" style="fill:#030506"></path> </g> </g> </g> </svg> 