<?xml version="1.0" encoding="UTF-8"?> <svg xmlns="http://www.w3.org/2000/svg" viewBox="0 0 456.13 289.51"> <title>Ресурс 3опыление</title> <g id="Слой_2" data-name="Слой 2"> <g id="Слой_1-2" data-name="Слой 1"> <path d="M202.05,11.19s-44.84-.13-74.11,25.36S94.47,77.78,88.52,109c0,0-12.55-47.18,4.64-76.69S140.12,0,155,0s47.1,11.19,47.1,11.19" style="fill:#45ab34"></path> <path d="M202.05,11.19a56,56,0,0,0-15.66,12.26C178.57,32.07,158,64.1,148.53,73.94s-18.75,21.59-60,35.06c6-31.22,10.15-46.95,39.42-72.45s74.11-25.36,74.11-25.36" style="fill:#067132"></path> <path d="M17.74,228.56s-6.59-40.7,11.38-70.89,31.06-36.25,57.38-46.09c0,0-42.89-4.7-66.1,15.1S-1,173.91,1.19,187.38s16.55,41.18,16.55,41.18" style="fill:#45ab34"></path> <path d="M17.74,228.56a51.6,51.6,0,0,1,8.41-16c6.37-8.32,31.29-31.59,38.49-41.54S80.74,151,86.5,111.58c-26.32,9.84-39.41,15.89-57.38,46.09s-11.38,70.89-11.38,70.89" style="fill:#067132"></path> <path d="M344.74,151.6S313,136.48,284.38,143s-36.5,15.18-50.4,33.17c0,0,5.75-34.42,27.08-47.55s43.29-4.94,53.79,0,29.89,23,29.89,23" style="fill:#45ab34"></path> <path d="M344.74,151.6a44.52,44.52,0,0,0-14.9,2.6c-8.21,2.89-32.75,16.49-42.47,19.63s-20,7.54-53.39,2.33c13.9-18,21.76-26.66,50.4-33.17s60.36,8.61,60.36,8.61" style="fill:#067132"></path> <path d="M233.09,89.82S215.32,106,212,125.73s.12,27,7.89,40.45c0,0-20.26-12.55-23-29.44s8.1-28.63,14-34,22.26-12.94,22.26-12.94" style="fill:#45ab34"></path> <path d="M233.09,89.82a30.47,30.47,0,0,0-2.22,10.09c-.3,5.94,1.94,25,1.4,31.93s-.42,14.58-12.37,34.34c-7.77-13.45-11.2-20.66-7.89-40.45s21.08-35.91,21.08-35.91" style="fill:#067132"></path> <path d="M196.78,286.18l-.34-.18a1.23,1.23,0,0,0,.34.18" style="fill:#45ab34"></path> <path d="M98.48,117.32c5.3,2.14,11.62,3.38,22,23.74,8.28,16.28,1.39,44.1,17.79,65.89v0c-.17.82-.32,1.63-.43,2.47s-.24,1.38-.35,2.1c-.18,1.12-.35,2.31-.46,3.5s-.28,2.43-.39,3.68c-.13,1.69-.27,3.44-.34,5.25-.1,2.22-.16,4.49-.16,6.86-.07,32.17,11,33.69,9.58,50.21a16.42,16.42,0,0,1-.76,3.75,126.84,126.84,0,0,1,47.92.21,7.05,7.05,0,0,1,2.85.62,2.17,2.17,0,0,1,.34.19.46.46,0,0,0-.19-.13A51.24,51.24,0,0,1,190,281c-4.89-4.4-7.18-8.2-13.55-18.26-2.1-3.32-5.33-12.45-7.53-23.62-.2-1-.37-2-.57-3-.14-.84-.27-1.65-.41-2.49-.3-2-.58-4.08-.79-6.17,36.62,14.14,63.72-8.88,70.27-24.12,7.21-16.81-5.05-34.13-22.68-42.24s-45.72-1.3-57.44,9.76a58.34,58.34,0,0,0-9.74,11.86c-3.63-5.88-5.6-11.29-7.08-14.39-4.2-9-3.27-14.69-10.79-29.5S108.47,115,102.39,112.52,87,107.35,85.7,110.08s7.17,5,12.78,7.24m69.26,84.52c.15-.72.3-1.44.48-2.16.11-.56.26-1.13.41-1.66,0-.15.09-.28.12-.41.18-.68.39-1.37.63-2s.42-1.25.66-1.85c0-.06,0-.09.07-.13a30.65,30.65,0,0,1,1.7-3.73,27.21,27.21,0,0,1,7.19-8.79,9.2,9.2,0,0,1,1.14-.86,12.63,12.63,0,0,1,1.21-.8,18.51,18.51,0,0,1,2.44-1.34,24.47,24.47,0,0,1,3-1.22,30.94,30.94,0,0,1,12.09-1.77,9.1,9.1,0,0,1,1.4.14,5,5,0,0,1,.85.11,11.12,11.12,0,0,1,1.44.29,1,1,0,0,1,.28.06c.4.09.78.18,1.15.3a13.58,13.58,0,0,1,1.32.45c.13,0,.22.09.35.12.53.21,1.06.46,1.56.7l.19.09a13.05,13.05,0,0,1,1.64.92,20,20,0,0,1,3,2.3,17.32,17.32,0,0,1,1.26,1.32,13.73,13.73,0,0,1,1.14,1.43,9.89,9.89,0,0,1,.8,1.26,15.46,15.46,0,0,1,1,1.83,14.28,14.28,0,0,1,.58,1.52,15.33,15.33,0,0,1,.46,1.56v0c2.27,9.74-4.64,20.56-24.41,19.06a63.89,63.89,0,0,1-25.11-6.74" style="fill:#45ab34"></path> <path d="M168.93,239.14a135,135,0,0,1-15.56-4.71A55.14,55.14,0,0,1,136.3,224a116.83,116.83,0,0,1,2-17,57,57,0,0,0,17.37,15,81.15,81.15,0,0,0,11.51,5.53c.42,4,1,8,1.78,11.68" style="fill:#067132"></path> <path d="M217.52,187.53a17.43,17.43,0,0,1-.27,2c-2.23-9.74-13.63-18.39-30.47-12.67-11.18,3.8-16.78,13.44-19.05,25a49.12,49.12,0,0,1-11.28-8c2.49-6.28,7.85-16.4,18.22-21.68,15.52-7.91,27.68-4.47,34.09-.43a18.43,18.43,0,0,1,8.76,15.83" style="fill:#067132"></path> <path d="M196.78,286.18l-.34-.18a1.23,1.23,0,0,0,.34.18" style="fill:#067132"></path> <path d="M195.72,285.63a2.17,2.17,0,0,1,.34.19.46.46,0,0,0-.19-.13c-.06,0-.09-.06-.15-.06" style="fill:#067132"></path> <path d="M340.64,259.58a3.82,3.82,0,0,0-.89-.07,1.67,1.67,0,0,1-1.72-.75,2,2,0,0,1,.33-2,1.45,1.45,0,0,1,1.19-.16,9,9,0,0,1,1.83,1.26c.35.29.38.67,0,1.06a2.21,2.21,0,0,0-.32.73,4.15,4.15,0,0,1,.69.28,3.55,3.55,0,0,1,.92.68,2.4,2.4,0,0,1,.34.94c.24,1.16-.28,1.83-1.48,1.93-.67.06-1.35.1-2,.12a1.24,1.24,0,0,1-1.39-1.34,2.71,2.71,0,0,1,0-.29c.11-1.7.3-1.94,2-2l.46-.05,0-.3" style="fill:#fff"></path> <path d="M343.54,269.74a8,8,0,0,1,0,1,1.45,1.45,0,0,1-1.6,1.47c-.58,0-1.15.06-1.73.11-1,.09-1.42-.18-1.61-1.1a3.78,3.78,0,0,1,.05-2.75,1.67,1.67,0,0,1,.95-.79,12.46,12.46,0,0,1,2.44-.15,1.4,1.4,0,0,1,1.41,1.2c.06.36.07.72.1,1" style="fill:#fff"></path> <path d="M332.41,270.17a5.78,5.78,0,0,1,.24-1.23c.1-.28.4-.65.66-.69a17.89,17.89,0,0,1,2.93-.2,1,1,0,0,1,.68.65,7.43,7.43,0,0,1,.25,2.9c-.12.39-.21.7-.61.76a12.73,12.73,0,0,1-2.21.22c-1.3-.05-1.87-.75-1.94-2.41" style="fill:#fff"></path> <path d="M342.08,277c-.58,0-1.15-.06-1.73-.12a1.29,1.29,0,0,1-1.28-1.35c0-.24-.08-.47-.1-.71a1.44,1.44,0,0,1,1.57-1.74c.55,0,1.09-.08,1.64-.07.88,0,1.28.43,1.39,1.33l.12.78c.19,1.21-.33,2.05-1.61,1.88" style="fill:#fff"></path> <path d="M334.09,252.14a11,11,0,0,1-1.92-.37c-.88-.32-.74-1.16-.68-1.86a1.37,1.37,0,0,1,1.11-1.34c.72-.15,1.46-.26,2.19-.36a.93.93,0,0,1,1.15.72.75.75,0,0,0,.06.13c.8,1.94.25,2.81-1.91,3.08" style="fill:#fff"></path> <path d="M340,247.64c1.39,0,1.9.37,2.15,1.57a1.47,1.47,0,0,1-1.06,1.91,9.68,9.68,0,0,1-2.34.29,1.22,1.22,0,0,1-1.26-1.29c-.12-1.85.5-2.46,2.51-2.48" style="fill:#fff"></path> <path d="M334.71,263.93a8.43,8.43,0,0,1-.87,0c-1.3-.08-1.6-.37-1.65-1.58a1.62,1.62,0,0,1,1.55-1.87,10.37,10.37,0,0,1,2.15-.14c.81.06,1,.45,1.09,1.25.13,1.81-.52,2.25-2.27,2.31" style="fill:#fff"></path> <path d="M335.14,273.31h.29a2,2,0,0,1,2,2.95.88.88,0,0,1-.22.36c-.62.53-3.45.47-3.78-.22a4.57,4.57,0,0,1-.25-2.28c.05-.69.72-.74,1.29-.76l.65,0h0" style="fill:#fff"></path> <path d="M340.31,267.32a9,9,0,0,1-1.6-.58,1.21,1.21,0,0,1-.36-1.71,2,2,0,0,1,1.25-.77,11.58,11.58,0,0,1,2.21-.21,1.38,1.38,0,0,1,1.43,1.07,1.08,1.08,0,0,1-.67,1.41c-.7.27-1.42.5-2.26.79" style="fill:#fff"></path> <path d="M328.36,252.49c-1.6,0-2.18-.33-2.36-1.79a1.77,1.77,0,0,1,1.58-1.72c.24,0,.48,0,.72,0,1.3,0,1.7.31,2,1.62a1.47,1.47,0,0,1-1.08,1.71c-.3.07-.61.12-.82.16" style="fill:#fff"></path> <path d="M328.33,260.24c-.5.05-1.13.1-1.37-.59a2.6,2.6,0,0,1,.23-2.54c.28-.34,1-.37,1.52-.46a5.45,5.45,0,0,1,1.06.07.92.92,0,0,1,.93.79,2.12,2.12,0,0,1-2.37,2.73" style="fill:#fff"></path> <path d="M323.92,264.87c-1.6.1-2.41-.9-1.84-2.35a1.48,1.48,0,0,1,.83-.76,4.38,4.38,0,0,1,1.95-.25c.85.14,1.23,1,1.14,2.14a1.49,1.49,0,0,1-1.43,1.19c-.21,0-.43,0-.65,0" style="fill:#fff"></path> <path d="M331.5,270.92c.08.66.09,1.27-.54,1.57a2.53,2.53,0,0,1-2.6.13,1,1,0,0,1-.3-.77,4.52,4.52,0,0,1,1-2.78,1.56,1.56,0,0,1,1.36-.38c.38.12.68.67.89,1.09a3.89,3.89,0,0,1,.19,1.14" style="fill:#fff"></path> <path d="M332.46,266.31c0-1.07.37-1.53,1.42-1.62a14.92,14.92,0,0,0,1.5-.12,1.2,1.2,0,0,1,1.57.9c.29.84.06,1.59-.82,1.78a15.87,15.87,0,0,1-2.57.34c-.65.05-1.08-.5-1.1-1.28" style="fill:#fff"></path> <path d="M325.52,258.93c.09,1.23-.53,1.72-2.38,1.85a1.32,1.32,0,0,1-1.4-1.47c0-1.63.23-2,1.93-2.21,1.06-.13,1.91.31,1.85,1.83" style="fill:#fff"></path> <path d="M347.56,270.07a3.78,3.78,0,0,1-.32,1.25,1.38,1.38,0,0,1-2.55-.37,4.14,4.14,0,0,1,0-2.88c.23-.51.54-1,1.09-.8a2.22,2.22,0,0,1,1.2.9,8.16,8.16,0,0,1,.58,1.9" style="fill:#fff"></path> <path d="M318.82,257.83c1.18-.06,1.31,0,1.54,1.21a5.18,5.18,0,0,1,.09.78,1.28,1.28,0,0,1-1.4,1.44,3.2,3.2,0,0,0-.93,0c-.71.23-1.06-.1-1.21-.72a3.62,3.62,0,0,1-.15-1.48,1.74,1.74,0,0,1,.81-1,3.87,3.87,0,0,1,1.25-.27" style="fill:#fff"></path> <path d="M315.07,273.65c-1.17.1-1.51-.15-1.71-1.3-.08-.5-.3-1,0-1.52a1.6,1.6,0,0,1,1.72-1,1.77,1.77,0,0,1,1.4,1.37c.05.26.1.52.13.78.13,1-.35,1.55-1.55,1.65" style="fill:#fff"></path> <path d="M317.16,263.7c0-1.3,0-1.36,1.3-1.55a4.94,4.94,0,0,1,.94,0c.88,0,1.23.38,1.33,1.2.15,1.24,0,1.64-1,1.94a3,3,0,0,1-.78.14c-1.46.1-1.82-.23-1.82-1.68" style="fill:#fff"></path> <path d="M322.81,249.58c1.61-.37,2.24,1.25,1.88,2.47a.72.72,0,0,1-.09.2,4.93,4.93,0,0,1-2.65.67,1.66,1.66,0,0,1-.8-1.91c.2-1.18.39-1.34,1.66-1.43" style="fill:#fff"></path> <path d="M317.85,253.32c-.71,0-1.4.07-1.75-.77-.59-1.4,0-2.42,1.57-2.41.69,0,1.42-.12,1.83.78a1.58,1.58,0,0,1-1.36,2.39h-.29" style="fill:#fff"></path> <path d="M328.28,275.48c-.09-1.55.82-2.29,2.35-1.92l.2.08a2.41,2.41,0,0,1,.87,2.44c-.08.43-.86.91-1.51.92a3,3,0,0,1-.43,0c-1.4-.08-1.4-.08-1.48-1.49" style="fill:#fff"></path> <path d="M315,256.15c0,1.07-.72,1.71-2,1.69-1.07,0-1.44-.73-1.5-1.81a1.44,1.44,0,0,1,1.4-1.65c1.55,0,2.09.45,2.1,1.77" style="fill:#fff"></path> <path d="M326.72,255c0-.08,0-.18,0-.27,0-1.13.22-1.37,1.35-1.52.28,0,.57,0,.86,0,1.56-.1,1.62.61,1.68,2a.87.87,0,0,1-.57.61,18.4,18.4,0,0,1-2.77.17c-.54,0-.63-.51-.54-1" style="fill:#fff"></path> <path d="M318.37,257.17c-1.25,0-2-.41-2-1.13.06-1.22,0-1.93,1.51-2s1.95.24,2.25,1.32a1,1,0,0,1-.58,1.35c-.49.19-1,.39-1.22.5" style="fill:#fff"></path> <path d="M351.48,275.12v.72c0,.78-.23,1.07-.89,1.13a1.2,1.2,0,0,1-1.41-1c-.12-.73-.2-1.47-.32-2.2a.92.92,0,0,1,.63-1.13c.84-.28,1.56-.11,1.75.47a15.46,15.46,0,0,1,.37,1.94l-.13,0" style="fill:#fff"></path> <path d="M324.84,268.7c-.43-.11-.86-.24-1.31-.31-1-.15-1.27-.41-1.27-1.29s.36-1.28,1.3-1.39l.85-.1a1.41,1.41,0,0,1,1.8,1.35,1,1,0,0,1-.71,1.21,3.1,3.1,0,0,0-.68.54Z" style="fill:#fff"></path> <path d="M345.22,275.13l-.16-.81a1.2,1.2,0,0,1,1-1.55,1.43,1.43,0,0,1,1.57,1.07,9.62,9.62,0,0,1,.11,1.78c0,.84-.45,1.28-1.15,1.26a1.29,1.29,0,0,1-1.36-1.35c0-.09,0-.19,0-.4" style="fill:#fff"></path> <path d="M323.11,253.6c1.41-.11,2.06.26,2.18,1.27.09.75-.14,1.16-.87,1.34a4.93,4.93,0,0,1-1.57.15c-.44,0-1.22-.26-1.23-.42a6,6,0,0,1,.35-2.14c.07-.18.74-.14,1.14-.2" style="fill:#fff"></path> <path d="M344.75,250.72c-.88,0-1.47-.62-1.5-1.65,0-1.53.37-1.57,1.6-1.8.84-.15,1.5.65,1.54,1.69a1.6,1.6,0,0,1-1.64,1.76" style="fill:#fff"></path> <path d="M335,252.35a3.13,3.13,0,0,1,1,.47c.09.09-.08.6-.26.81a8.87,8.87,0,0,1-1.16,1c-.2.16-.46.26-.65.44a1.29,1.29,0,0,1-1.6.18c-.55-.29-.54-.82-.47-1.33a1.24,1.24,0,0,1,1-1.22c.68-.12,1.38-.19,2.07-.27l0-.12" style="fill:#fff"></path> <path d="M325.06,274.36c1.26-.11,1.83.26,1.9,1.22s-.51,1.53-1.67,1.65-1.84-.36-1.93-1.33c-.11-1.15.17-1.41,1.7-1.54" style="fill:#fff"></path> <path d="M321.74,276.12c0,.87-.19,1.07-1.05,1.18a1.71,1.71,0,0,1-.71,0c-.45-.16-1.05-.27-1.26-.61a1.92,1.92,0,0,1,0-2.11.79.79,0,0,1,.49-.24,4.12,4.12,0,0,1,.79,0c1.32,0,1.75.46,1.73,1.79" style="fill:#fff"></path> <path d="M312.91,250.63a1.58,1.58,0,0,1,1.67,1.54c0,1-.65,1.51-2,1.59-.62,0-1.33-.74-1.39-1.52-.08-1,.51-1.55,1.72-1.61" style="fill:#fff"></path> <path d="M344,256.71c-.06-.88.41-1.31,1.52-1.39.85,0,1.42.62,1.49,1.75,0,.57-.77,1.75-1.21,1.77-1,.05-1.71-.79-1.8-2.13" style="fill:#fff"></path> <path d="M350.76,261c.06,1-.27,1.62-1,1.9a1.12,1.12,0,0,1-1.41-.37,1.65,1.65,0,0,1-.32-.92,6.83,6.83,0,0,1,.16-1.56c.1-.57.57-.65,1-.69a1.15,1.15,0,0,1,1.29.7,6.17,6.17,0,0,1,.24.94" style="fill:#fff"></path> <path d="M311.72,272.18c0,1.35-.45,1.78-1.73,1.74a1.42,1.42,0,0,1-1.19-1.44c0-1.24.64-1.94,1.67-1.9a1.4,1.4,0,0,1,1.25,1.6" style="fill:#fff"></path> <path d="M313.81,275.88c-.2-1,.27-1.37,1.43-1.47a1.48,1.48,0,0,1,1.54,1.46c.06,1.12-.24,1.57-1.06,1.6-1.32,0-2-.28-1.91-1.59" style="fill:#fff"></path> <path d="M346.76,253a1.57,1.57,0,0,1-1.61,1.66,1.3,1.3,0,0,1-1.33-1c-.06-1.46.36-2.17,1.33-2.21a1.57,1.57,0,0,1,1.61,1.57" style="fill:#fff"></path> <path d="M340.56,251.85a1.71,1.71,0,0,1,2,1.1,1.54,1.54,0,0,1,0,1.08.94.94,0,0,1-.88.26,28,28,0,0,1-3-1.3c-.42-.2-.28-.53.11-.66.59-.19,1.19-.32,1.79-.48" style="fill:#fff"></path> <path d="M318.72,266.14c.52,0,.83.08,1.14.08.74,0,1,.32,1.12,1.07a1.17,1.17,0,0,1-.88,1.41,1.44,1.44,0,0,1-1.85-.52,2.65,2.65,0,0,1-.28-1.59c0-.2.58-.35.75-.45" style="fill:#fff"></path> <path d="M309.94,266.76a1.73,1.73,0,0,1,1.72,1.39c.09.66-.88,1.54-1.82,1.65a1.22,1.22,0,0,1-1.23-1.07,2.43,2.43,0,0,1,.36-1.27c.2-.31.64-.47,1-.7" style="fill:#fff"></path> <path d="M313.94,258.22a4.42,4.42,0,0,1,1,.67,1.81,1.81,0,0,1,.33,1.9,1.07,1.07,0,0,1-1.57.3,4,4,0,0,1-.92-.69c-.27-.31-.69-.9-.59-1a4.77,4.77,0,0,1,1.25-.94c.09-.06.24,0,.36,0l.1-.18" style="fill:#fff"></path> <path d="M335.16,259.86a3.5,3.5,0,0,1-.65,0,.82.82,0,0,1-.45-1.47c.35-.38.77-.7,1.15-1.07a.87.87,0,0,1,1.17-.18,1.19,1.19,0,0,1,.64,1.19,1.85,1.85,0,0,1-1.86,1.56" style="fill:#fff"></path> <path d="M350.58,256.73a1.24,1.24,0,0,1-.81,1.34,3.64,3.64,0,0,1-1.43,0c-.06,0-.17-.08-.17-.12a9.68,9.68,0,0,1,0-2.22c.12-.55.75-.68,1.32-.56a1.58,1.58,0,0,1,1.07,1.58" style="fill:#fff"></path> <path d="M310.84,274.75c.8,0,1.39.69,1.41,1.83,0,.63-.53.8-1.05.84-1.32.09-2-.41-2.09-1.41,0-.75.54-1,1.73-1.26" style="fill:#fff"></path> <path d="M314.38,269.31c-.66.05-1.26-.19-1.37-.81a2.71,2.71,0,0,1,.31-1.75c.31-.48,1-.28,1.43,0a1.53,1.53,0,0,1,.49.52c.21.4.6,1,.46,1.22-.21.42-.79.65-1.22,1l-.1-.16" style="fill:#fff"></path> <path d="M349.92,248.76a5.61,5.61,0,0,1-1,1.2c-.2.15-.81,0-1.09-.25a1.23,1.23,0,0,1-.37-1.43c.32-1.2.72-1.59,1.53-1.24.62.27.78.85.9,1.72" style="fill:#fff"></path> <path d="M308.58,264.68c.05-1.06.43-1.54,1.21-1.51a2.08,2.08,0,0,1,1.42,1.63c0,.57-.84,1.14-1.63,1.11s-1-.37-1-1.23" style="fill:#fff"></path> <path d="M347.76,252.86c-.05-1.14.38-1.74,1.29-1.79.5,0,1,.72,1.07,1.5s-.63,1.54-1.15,1.54a1.26,1.26,0,0,1-1.21-1.25" style="fill:#fff"></path> <path d="M327,262.88c.11-.44.18-.89.33-1.31.23-.62.76-.67,1.32-.57s.6.54.54.95a5.24,5.24,0,0,1-.43,1.73c-.15.27-.7.39-1.09.42-.16,0-.38-.39-.51-.63a1.75,1.75,0,0,1-.08-.57l-.08,0" style="fill:#fff"></path> <path d="M309.81,252.48c0,.79-.44,1.48-1,1.51a1.41,1.41,0,0,1-1.25-1.36c0-.84.4-1.63.92-1.63a1.4,1.4,0,0,1,1.35,1.48" style="fill:#fff"></path> <path d="M310.3,256.81a1.14,1.14,0,0,1-1.18,1.22c-.51,0-1-.63-1.08-1.33-.05-.88.35-1.5,1-1.55s1.2.51,1.25,1.66" style="fill:#fff"></path> <path d="M350.9,265.15c-.48.62-1,1.26-1.94.82a1,1,0,0,1-.57-1.25c.17-.42.56-1,.91-1.05.92-.12,1.41.53,1.6,1.48" style="fill:#fff"></path> <path d="M324.82,268.71c.94.38,1.09,1.07.28,1.68a3,3,0,0,1-1.52.45c-.42,0-1-.22-.84-.75a2,2,0,0,1,.88-1,5.32,5.32,0,0,1,1.22-.42h0" style="fill:#fff"></path> <path d="M308.32,261.17c.15-.13.38-.49.65-.53.52-.08,1.09.12,1.09.74,0,.27-.45.69-.75.76-.46.1-.88-.17-1-1" style="fill:#fff"></path> <path d="M346.32,259.48a3.78,3.78,0,0,1,.6,1.25c0,.25-.47.54-.72.81a3.76,3.76,0,0,1-.55-1.07c0-.3.2-.64.32-1l.35,0" style="fill:#fff"></path> <path d="M331.47,266.69c-.43.44-.66.83-1,1-.15.06-.63-.32-.73-.58s.43-1.18.74-1.08a4.61,4.61,0,0,1,1,.7" style="fill:#fff"></path> <path d="M319.18,273.74a6.67,6.67,0,0,1-1-1c0-.06.49-.65.56-.62a6.85,6.85,0,0,1,1.08.8l-.68.8" style="fill:#fff"></path> <path d="M344.92,264.92c.32.39.59.58.65.83s-.38.52-.49.49a1.4,1.4,0,0,1-.68-.57c0-.08.25-.37.52-.75" style="fill:#fff"></path> <path d="M317.31,171q16.59-.78,33.17-1.57c1.33-.06,2.66-.2,4-.35,3.6-.41,5.41.76,5.92,4.32,1.24,8.64,2.7,17.27,3.38,26,1.21,15.69,2.17,31.42,2.75,47.15.41,11.05,0,22.13,0,33.19a22.61,22.61,0,0,0,.61,4.14c.63,3.2-.26,6-4.74,5.6-6.82-.57-13.71-.24-20.56-.36q-16.59-.28-33.19-.66c-7.2-.15-14.4-.35-21.6-.51-2.63-.06-4.7-1.68-4.83-4.2-.37-7-.5-14.1-.89-21.14-.89-16.12-1.93-32.23-2.83-48.35-.4-7.26-.48-14.54-1-21.79-.33-4.71-1.06-9.4-1.77-14.07-.4-2.68-.43-2.86,2.12-3.79.31-.12.77-.15.91-.37,1.49-2.37,3.81-1.57,5.92-1.67q16.29-.73,32.59-1.52h0m-31.5,58.14.62,0c.43,9.26.88,18.52,1.3,27.78.32,7,.62,14,.95,21,.05,1.05,0,2.1,1.65,2.11,9.87.07,19.73.23,29.6.36,6.53.08,13.06.13,19.59.27,5.65.13,11.31.36,17,.59,2,.08,2.48-1,2.4-2.77a7.27,7.27,0,0,1,.4-2.69c.39-1.19,1.29-2.27,1.44-3.47a53.78,53.78,0,0,0,.33-7.18c0-4.4-.57-8.84-.16-13.19a65,65,0,0,0-.29-11.34c-.86-11.1-1.5-22.22-2.51-33.31-.9-9.75-2.11-19.47-3.34-29.19-.37-3-.69-3.05-3.64-2.89-14.38.78-28.76,1.63-43.14,2.33-7.45.36-14.92.48-22.37.73-2.38.07-2.6.33-2.4,2.76.23,2.85.59,5.7.73,8.57.66,13.18,1.26,26.38,1.88,39.57"></path> <path d="M285.81,229.18c-.62-13.19-1.22-26.39-1.88-39.57-.14-2.87-.5-5.72-.73-8.57-.2-2.43,0-2.69,2.4-2.76,7.45-.25,14.92-.37,22.37-.73,14.38-.7,28.76-1.55,43.14-2.33,2.95-.16,3.27-.1,3.64,2.89,1.23,9.72,2.44,19.44,3.34,29.19,1,11.09,1.65,22.21,2.51,33.31a65,65,0,0,1,.29,11.34c-.41,4.35.13,8.79.16,13.19a53.78,53.78,0,0,1-.33,7.18c-.15,1.2-1.05,2.28-1.44,3.47a7.27,7.27,0,0,0-.4,2.69c.08,1.77-.37,2.85-2.4,2.77-5.65-.23-11.31-.46-17-.59-6.53-.14-13.06-.19-19.59-.27-9.87-.13-19.73-.29-29.6-.36-1.68,0-1.6-1.06-1.65-2.11-.33-7-.63-14-.95-21-.42-9.26-.87-18.52-1.3-27.78l-.62,0" style="fill:#fff"></path> <path d="M347,272.11c-.08-1.75-.14-3.5-.24-5.25-.06-1-.27-2.05-.28-3.08,0-2.93,0-5.87,0-8.8,0-1.91.09-3.81,0-5.71-.06-2.19-.24-4.37-.35-6.55,0-.17,0-.32,0-.46L343.39,241a1.61,1.61,0,0,1-1,.52c-1.58.08-3.16,0-4.74,0-1.37,0-2.73.08-4.1.13-2.16.07-4.33.16-6.49.21-.84,0-1.68-.09-2.52-.07s-1.92.13-2.87.18l-3.8.19c-.91.06-1.81.17-2.72.2-2.06.06-4.13.09-6.19.12a28.36,28.36,0,0,1-7.79-.51c-1.63-.43-2.15-.09-2.22,1.6s-.11,3.13-.11,4.7c0,1.84.11,3.69.06,5.53-.08,3-.36,6-.35,8.94s-.71,6.22-.09,9.36c.21,1,.94,1.52,1.82.91a4.27,4.27,0,0,1,4.25-.81,2.44,2.44,0,0,0,.86,0c.78-.05,1.57-.16,2.35-.16,1.75,0,3.51.07,5.26.12,3.61.11,7.22.23,10.83.33,1.05,0,2.11,0,3.16,0,3.48.22,7,.45,10.45.74,2,.16,4,.44,5.94.67a14.47,14.47,0,0,0,2.35.27c1.22-.07,1.47-.49,1.23-1.68,0-.14,0-.29,0-.44m-45.22-14.7c.12-1.06.54-1.51,1.31-1.43a2.09,2.09,0,0,1,1.31,1.72c0,.57-.92,1.09-1.7,1s-1-.44-.92-1.29m0-3.53c.16-.12.41-.46.68-.48.52,0,1.09.19,1,.81,0,.27-.49.66-.8.71-.47.07-.86-.23-.92-1m1-3.07c-.5,0-1-.7-1-1.4,0-.88.45-1.47,1.11-1.48s1.16.6,1.14,1.74a1.16,1.16,0,0,1-1.27,1.14m-.17-7.06a1.4,1.4,0,0,1,1.23,1.57c0,.79-.53,1.44-1.11,1.44a1.41,1.41,0,0,1-1.15-1.44c0-.85.51-1.6,1-1.57m-.62,16.45a3.43,3.43,0,0,1,1-.62,1.73,1.73,0,0,1,1.62,1.5c0,.66-1,1.47-1.93,1.52a1.23,1.23,0,0,1-1.16-1.15,2.52,2.52,0,0,1,.45-1.25m-.51,5c.11-1.23.77-1.89,1.8-1.77a1.39,1.39,0,0,1,1.14,1.67c-.13,1.35-.58,1.75-1.85,1.62a1.42,1.42,0,0,1-1.09-1.52m3.16,4.33c0,.63-.58.76-1.1.76-1.32,0-2-.54-2-1.54,0-.75.61-1,1.81-1.14.8,0,1.35.78,1.28,1.92m8.37-7.32a1.43,1.43,0,0,1-1.8-.65A2.58,2.58,0,0,1,311,260c0-.2.6-.31.78-.4.51.08.82.14,1.13.16.74,0,1,.39,1.05,1.15a1.19,1.19,0,0,1-1,1.35M307,243.69a1.57,1.57,0,0,1,1.56,1.64c0,1-.75,1.47-2.1,1.45a1.64,1.64,0,0,1-1.29-1.61c0-1,.61-1.5,1.83-1.48M305.26,249a1.46,1.46,0,0,1,1.51-1.56c1.55.11,2.06.6,2,1.92-.07,1.07-.84,1.65-2.11,1.54-1.07-.08-1.39-.82-1.38-1.9m.48,3.38a4.71,4.71,0,0,1,1.32-.86c.09-.05.23,0,.35,0l.12-.17a4.38,4.38,0,0,1,1,.73,1.83,1.83,0,0,1,.2,1.92,1.06,1.06,0,0,1-1.59.19,3.92,3.92,0,0,1-.87-.75c-.25-.32-.62-.94-.52-1.06m.58,7.44c.35-.47,1-.22,1.43.12a1.51,1.51,0,0,1,.46.55c.18.42.53,1,.38,1.25-.25.41-.84.59-1.29.87l-.09-.17c-.65,0-1.25-.28-1.31-.9a2.69,2.69,0,0,1,.42-1.72M308,270.65c-1.33,0-2-.41-1.8-1.71-.13-1,.36-1.35,1.52-1.37a1.48,1.48,0,0,1,1.44,1.56c0,1.12-.34,1.55-1.16,1.52m-.39-3.85c-1.18,0-1.5-.25-1.62-1.42a2,2,0,0,1,.11-1.51,1.6,1.6,0,0,1,1.79-.86,1.76,1.76,0,0,1,1.3,1.46c0,.26.06.52.08.79.05,1-.46,1.52-1.66,1.54m4.19-23.28c.68,0,1.42,0,1.77.9a1.58,1.58,0,0,1-1.52,2.29h-.29c-.71,0-1.4,0-1.69-.88-.49-1.44.2-2.41,1.73-2.3m-1.66,5.8c.14-1.22.19-1.92,1.65-1.93s1.93.37,2.15,1.46a1,1,0,0,1-.67,1.31l-1.25.42c-1.25,0-2-.55-1.88-1.26m.14,3.06a1.77,1.77,0,0,1,.87-.92,3.82,3.82,0,0,1,1.28-.19c1.18,0,1.3.13,1.45,1.31a7,7,0,0,1,0,.79,1.27,1.27,0,0,1-1.5,1.33,3.24,3.24,0,0,0-.93,0c-.73.17-1.06-.18-1.15-.81a3.59,3.59,0,0,1-.06-1.49m.08,4.64c.09-1.3.14-1.36,1.41-1.46a4.22,4.22,0,0,1,.94,0c.88.12,1.21.48,1.25,1.3.07,1.24-.16,1.63-1.1,1.87a3.55,3.55,0,0,1-.79.09c-1.47,0-1.8-.36-1.71-1.8m1.05,8.53a6.44,6.44,0,0,1,1,.87l-.73.75a6.92,6.92,0,0,1-.89-1.05c0-.06.53-.61.6-.57m2.68,4.17c-.07.86-.26,1-1.12,1.1a1.53,1.53,0,0,1-.71,0c-.44-.18-1-.34-1.22-.69a1.88,1.88,0,0,1,.16-2.1.75.75,0,0,1,.49-.22,5.23,5.23,0,0,1,.79,0c1.33.09,1.73.57,1.61,1.9m6.42-21c.1-1.12.31-1.34,1.45-1.42a8.43,8.43,0,0,1,.86.05c1.56,0,1.57.71,1.53,2.13a.84.84,0,0,1-.61.57,15.89,15.89,0,0,1-2.76,0c-.55,0-.6-.54-.48-1a2.62,2.62,0,0,1,0-.27m-1.43.07c0,.76-.22,1.15-1,1.28a4.94,4.94,0,0,1-1.58.05c-.43-.06-1.2-.34-1.19-.51a5.75,5.75,0,0,1,.49-2.11c.08-.17.75-.09,1.15-.12,1.42,0,2,.4,2.09,1.41m-.05,4.08c0,1.23-.65,1.67-2.5,1.68a1.32,1.32,0,0,1-1.29-1.57c.13-1.61.36-2,2.07-2.07,1.07-.06,1.88.44,1.72,2m-3.82-8.21c.28-1.15.48-1.31,1.75-1.31,1.63-.26,2.16,1.4,1.71,2.59a1.14,1.14,0,0,1-.1.19,4.82,4.82,0,0,1-2.69.49,1.65,1.65,0,0,1-.67-2m.15,11.55a1.42,1.42,0,0,1,.87-.7,4.42,4.42,0,0,1,2-.12c.84.2,1.15,1.11,1,2.21a1.48,1.48,0,0,1-1.51,1.09,4.73,4.73,0,0,1-.65,0c-1.6,0-2.34-1.06-1.67-2.47m.14,7.6a2,2,0,0,1,.95-.91,5.38,5.38,0,0,1,1.24-.34c-.43-.13-.85-.3-1.28-.39-1-.22-1.25-.5-1.19-1.38s.45-1.25,1.39-1.3l.86,0a1.42,1.42,0,0,1,1.71,1.47,1,1,0,0,1-.8,1.16,3,3,0,0,0-.71.5c.91.43,1,1.14.17,1.69a3,3,0,0,1-1.56.34c-.41,0-1-.28-.78-.8m2.06,7.3c-1.15,0-1.81-.49-1.84-1.46,0-1.16.27-1.4,1.8-1.42,1.27,0,1.81.38,1.82,1.34s-.62,1.5-1.78,1.54m4.2-28c.24,0,.48.06.72.07,1.3.07,1.68.43,1.85,1.76a1.49,1.49,0,0,1-1.19,1.63c-.31,0-.62.07-.83.1-1.6-.1-2.16-.48-2.24-2a1.78,1.78,0,0,1,1.69-1.61m-.93,8.09c.29-.32,1-.3,1.54-.35a4.41,4.41,0,0,1,1.06.14.91.91,0,0,1,.87.85,2.12,2.12,0,0,1-2.55,2.56c-.5,0-1.14,0-1.33-.68a2.61,2.61,0,0,1,.41-2.52m-.45,6.34a1.77,1.77,0,0,1,0-.57l-.08,0c.14-.43.24-.87.42-1.28.27-.61.8-.62,1.35-.47s.57.57.48,1a5.25,5.25,0,0,1-.55,1.69c-.16.26-.73.34-1.11.35-.16,0-.36-.41-.47-.67m1.5,5.72a1.55,1.55,0,0,1,1.37-.29c.37.15.64.72.82,1.16a4.1,4.1,0,0,1,.12,1.14c0,.67,0,1.28-.65,1.53a2.55,2.55,0,0,1-2.61-.05,1,1,0,0,1-.24-.79,4.48,4.48,0,0,1,1.19-2.7m2.15,7.18c-.11.42-.91.84-1.57.81-.14,0-.28-.05-.43-.06-1.39-.18-1.39-.18-1.37-1.58,0-1.56,1-2.24,2.48-1.76a.66.66,0,0,1,.19.09,2.43,2.43,0,0,1,.7,2.5m-.65-8.5c-.16.05-.61-.36-.69-.63-.12-.42.51-1.15.81-1a4.37,4.37,0,0,1,.94.76c-.46.41-.71.78-1.06.89m19.91-8.25a3.93,3.93,0,0,1-1.43-.11c-.06,0-.16-.09-.16-.13a9.56,9.56,0,0,1,.17-2.22c.16-.54.79-.62,1.35-.46a1.58,1.58,0,0,1,1,1.64,1.23,1.23,0,0,1-.9,1.28m-.54-4a1.27,1.27,0,0,1-1.12-1.33c0-1.14.5-1.71,1.41-1.7.5,0,1,.79,1,1.57s-.72,1.49-1.25,1.46m-6.43-.52a.92.92,0,0,1-.88.2,28.23,28.23,0,0,1-2.89-1.5c-.4-.23-.25-.55.15-.65.6-.15,1.21-.24,1.82-.36a1.71,1.71,0,0,1,1.91,1.24,1.46,1.46,0,0,1-.11,1.07m-2-6.54c1.38.08,1.87.49,2,1.71a1.47,1.47,0,0,1-1.19,1.83,9.34,9.34,0,0,1-2.36.13,1.22,1.22,0,0,1-1.17-1.37c0-1.85.67-2.42,2.68-2.3m-2.29,9a1.45,1.45,0,0,1,1.2-.08,9.18,9.18,0,0,1,1.74,1.38.65.65,0,0,1-.08,1.06c-.19.16-.25.47-.37.71a4.17,4.17,0,0,1,.67.33,3.67,3.67,0,0,1,.87.74,2.14,2.14,0,0,1,.27,1c.17,1.18-.4,1.81-1.61,1.83-.67,0-1.34,0-2,0a1.25,1.25,0,0,1-1.3-1.44c0-.09,0-.19,0-.28.23-1.7.42-1.92,2.18-1.89.16,0,.31,0,.47,0s0-.19.05-.29a4,4,0,0,0-.89-.13,1.68,1.68,0,0,1-1.67-.86,2,2,0,0,1,.47-2m-6.39-7.29a1.38,1.38,0,0,1,1.2-1.26c.73-.1,1.47-.16,2.21-.21a.93.93,0,0,1,1.1.79.78.78,0,0,0,.05.14c.66,2,0,2.81-2.11,2.95a11.8,11.8,0,0,1-1.9-.51c-.85-.38-.66-1.2-.55-1.9m2.26,14.2a6.32,6.32,0,0,1-.87,0c-1.29-.17-1.57-.48-1.54-1.7a1.62,1.62,0,0,1,1.68-1.75,10.3,10.3,0,0,1,2.15,0c.8.12,1,.53,1,1.33,0,1.82-.67,2.2-2.42,2.14m1.19,3.42a20.2,20.2,0,0,1-2.58.17c-.66,0-1-.58-1-1.36,0-1.07.46-1.5,1.52-1.52.5,0,1,0,1.51,0a1.2,1.2,0,0,1,1.5,1c.24.86-.05,1.6-.94,1.73m-3-12.2c-.54-.33-.49-.85-.39-1.35a1.27,1.27,0,0,1,1.12-1.16c.7-.06,1.4-.08,2.09-.12a.61.61,0,0,0,.05-.12,3.14,3.14,0,0,1,.95.54c.09.1-.11.59-.31.79a8.22,8.22,0,0,1-1.23,1c-.21.16-.48.24-.68.4a1.27,1.27,0,0,1-1.6.07m-.59,13.64c.12-.27.45-.62.71-.64a17.92,17.92,0,0,1,2.93,0,1,1,0,0,1,.64.7c0,1,.41,1.91.05,2.9-.14.39-.25.69-.66.72a11.78,11.78,0,0,1-2.22.07c-1.29-.14-1.81-.87-1.77-2.54a6.1,6.1,0,0,1,.32-1.21m4.3,7.63a.94.94,0,0,1-.25.34c-.65.48-3.47.23-3.76-.48a4.76,4.76,0,0,1-.09-2.29c.1-.69.77-.69,1.34-.67h.94a2,2,0,0,1,1.82,3.09m.79-17.94a1.85,1.85,0,0,1-2,1.43,2.74,2.74,0,0,1-.64-.08.82.82,0,0,1-.35-1.49c.38-.36.82-.65,1.22-1a.88.88,0,0,1,1.18-.11,1.21,1.21,0,0,1,.56,1.24m.87,6.8a1.92,1.92,0,0,1,1.29-.68,11.86,11.86,0,0,1,2.23-.06,1.37,1.37,0,0,1,1.35,1.17,1.07,1.07,0,0,1-.76,1.35c-.72.23-1.46.41-2.31.64a9,9,0,0,1-1.55-.68,1.22,1.22,0,0,1-.25-1.74m2.9,12.15c-.57-.08-1.14-.14-1.71-.24a1.28,1.28,0,0,1-1.18-1.43c0-.24-.05-.48-.06-.72a1.45,1.45,0,0,1,1.69-1.63c.54,0,1.1,0,1.64,0,.87.08,1.25.52,1.3,1.42l.06.79c.11,1.22-.46,2-1.74,1.77m1.88-6.11a1.46,1.46,0,0,1-1.7,1.36c-.58,0-1.15,0-1.73,0-1,0-1.41-.28-1.53-1.22a3.78,3.78,0,0,1,.23-2.73,1.66,1.66,0,0,1,1-.73,13.26,13.26,0,0,1,2.44,0,1.4,1.4,0,0,1,1.32,1.3c0,.36,0,.72,0,1a9.25,9.25,0,0,1-.08,1m2.91-23.31c.85-.1,1.46.75,1.42,1.79a1.6,1.6,0,0,1-1.76,1.64c-.87,0-1.41-.71-1.37-1.75.06-1.53.47-1.54,1.71-1.68m1.52,5.86a1.57,1.57,0,0,1-1.72,1.54,1.31,1.31,0,0,1-1.27-1.11c.05-1.47.52-2.14,1.49-2.11a1.57,1.57,0,0,1,1.5,1.68M340,271c-.08.83-.54,1.24-1.24,1.18a1.3,1.3,0,0,1-1.26-1.45c0-.09,0-.19,0-.39s-.06-.51-.09-.82a1.18,1.18,0,0,1,1.07-1.48,1.43,1.43,0,0,1,1.49,1.17,9.73,9.73,0,0,1,0,1.79m-.18-4.33a1.38,1.38,0,0,1-2.52-.54,4.16,4.16,0,0,1,.19-2.88c.27-.49.61-.92,1.15-.72a2.26,2.26,0,0,1,1.13,1,8.12,8.12,0,0,1,.46,1.94,3.91,3.91,0,0,1-.41,1.22M338,260.12c.3.4.55.62.59.87s-.41.5-.52.45a1.4,1.4,0,0,1-.64-.61c0-.08.28-.35.57-.71m1-4.39c0-.3.24-.63.38-.94h.36a3.83,3.83,0,0,1,.51,1.3c0,.25-.5.5-.78.75a3.88,3.88,0,0,1-.47-1.1m.3-1.61c-1,0-1.66-.91-1.65-2.25,0-.89.5-1.28,1.61-1.28.85,0,1.38.71,1.37,1.84,0,.57-.89,1.7-1.33,1.69m2.36-10.42c.41-1.19.83-1.54,1.61-1.14.61.31.73.9.79,1.77a5.47,5.47,0,0,1-1.05,1.14c-.21.13-.8-.1-1.08-.33a1.25,1.25,0,0,1-.27-1.44m-.1,11.75c.14-.56.62-.6,1.09-.62a1.16,1.16,0,0,1,1.24.79,6.15,6.15,0,0,1,.18,1c0,1-.38,1.59-1.13,1.82a1.1,1.1,0,0,1-1.38-.47,1.62,1.62,0,0,1-.26-.93,7.5,7.5,0,0,1,.26-1.55m-.11,4.71c.19-.41.62-1,1-1,.93-.06,1.38.62,1.5,1.58-.53.6-1.07,1.2-2,.7a1,1,0,0,1-.48-1.29m2.37,10.58c0,.24,0,.48-.05.72,0,.78-.3,1.05-1,1.07a1.21,1.21,0,0,1-1.35-1c-.06-.74-.09-1.48-.16-2.22a.91.91,0,0,1,.7-1.08c.86-.22,1.57,0,1.72.59a14.17,14.17,0,0,1,.23,2h-.13"></path> <path d="M350.35,203.45c-.05,1.65-.15,3.14-.11,4.62.13,5.49-1.89,10.31-4.69,14.85a24.06,24.06,0,0,1-5.85,6.27,22.68,22.68,0,0,1-12.17,4.64,38.2,38.2,0,0,1-5.76.09,34.17,34.17,0,0,1-4.45-.75,33.57,33.57,0,0,1-8-2.8,39.45,39.45,0,0,1-4.31-2.49,30.11,30.11,0,0,1-3.17-2.34,10.93,10.93,0,0,1-1.77-1.89c-1.38-1.83-2.8-3.63-4-5.57a19.41,19.41,0,0,1-2.53-6.15,16.85,16.85,0,0,1-.2-4.81,20.18,20.18,0,0,1,5.28-11.66,49.23,49.23,0,0,1,5.29-4.66,25.64,25.64,0,0,1,8.57-4.62,33.58,33.58,0,0,1,10.28-1.82,41.92,41.92,0,0,1,10.48.92,31.62,31.62,0,0,1,8.68,3.37,18.18,18.18,0,0,1,5.43,4.71,12.65,12.65,0,0,1,2.39,5.65c.24,1.52.43,3.05.63,4.44M321.14,227a32.79,32.79,0,0,0,9.59-1.91,20.38,20.38,0,0,0,6.21-3.42q1.67-1.38,3.24-2.87a8.63,8.63,0,0,0,3-5.72c.12-1.87.16-3.76.16-5.64a14.58,14.58,0,0,0-.25-2.95c-.24-1.14-.71-2.24-1-3.37a14.24,14.24,0,0,0-2.87-5.62,11.31,11.31,0,0,0-4.4-3.06,27.57,27.57,0,0,0-10.9-2.26,26.8,26.8,0,0,0-10.25,2.41,23.56,23.56,0,0,0-7.76,5.36,19,19,0,0,0-4.73,8.67,13.13,13.13,0,0,0-.35,6.19A13.28,13.28,0,0,0,303,217.6a23.48,23.48,0,0,0,6.2,6.25,17.39,17.39,0,0,0,5.81,2.46,17.93,17.93,0,0,0,6.1.67" style="fill:#fff"></path> <path d="M321.71,184.39l1,0a41.92,41.92,0,0,1,10.48.92,31.62,31.62,0,0,1,8.68,3.37,18.18,18.18,0,0,1,5.43,4.71,12.65,12.65,0,0,1,2.39,5.65c.24,1.52.43,3.05.63,4.44-.05,1.65-.15,3.14-.11,4.62.13,5.49-1.89,10.31-4.69,14.86a24,24,0,0,1-5.86,6.26,22.62,22.62,0,0,1-12.16,4.64l-1.65.12a40.23,40.23,0,0,1-4.11,0,34.17,34.17,0,0,1-4.45-.75,33.57,33.57,0,0,1-8-2.8,39.45,39.45,0,0,1-4.31-2.49,30.24,30.24,0,0,1-3.18-2.34,11.76,11.76,0,0,1-1.77-1.89c-1.37-1.83-2.79-3.63-4-5.57a19.41,19.41,0,0,1-2.53-6.15,16.83,16.83,0,0,1-.2-4.81,20.13,20.13,0,0,1,5.28-11.65,48.24,48.24,0,0,1,5.29-4.67,25.64,25.64,0,0,1,8.57-4.62,34,34,0,0,1,9.25-1.79m-1.3,42.66a5.82,5.82,0,0,0,.73-.07,32.79,32.79,0,0,0,9.59-1.91,20.38,20.38,0,0,0,6.21-3.42q1.67-1.38,3.24-2.87a8.63,8.63,0,0,0,3-5.72c.12-1.87.16-3.76.16-5.64a14.42,14.42,0,0,0-.25-2.94c-.24-1.15-.71-2.25-1-3.38a14.37,14.37,0,0,0-2.87-5.62,11.42,11.42,0,0,0-4.4-3.06,27.57,27.57,0,0,0-10.9-2.26l-.78,0a27.48,27.48,0,0,0-9.47,2.39,23.46,23.46,0,0,0-7.76,5.36,19,19,0,0,0-4.73,8.67,12,12,0,0,0,1.84,11,23.48,23.48,0,0,0,6.2,6.25,17.39,17.39,0,0,0,5.81,2.46,21.34,21.34,0,0,0,5.37.74m1.21-44.71.1,2-.1-2a36.34,36.34,0,0,0-9.81,1.89,27.49,27.49,0,0,0-9.24,5l-1.43,1.17a33.6,33.6,0,0,0-4.08,3.7,22.22,22.22,0,0,0-5.78,12.83,18.27,18.27,0,0,0,.24,5.4,20.9,20.9,0,0,0,2.78,6.81c1,1.68,2.22,3.25,3.37,4.77l.72,1a13.68,13.68,0,0,0,2.1,2.24,34.3,34.3,0,0,0,3.39,2.49,38.38,38.38,0,0,0,4.54,2.61,35.3,35.3,0,0,0,8.52,3l1.13.23a23.89,23.89,0,0,0,3.58.56c1.45.08,2.9.09,4.32,0,.59,0,1.17-.07,1.74-.13A24.8,24.8,0,0,0,341,230.8a26,26,0,0,0,6.34-6.8c3.52-5.73,5.11-10.81,5-16,0-.94,0-1.91,0-2.94,0-.51,0-1,.06-1.57v-.17l0-.17q-.09-.63-.18-1.29c-.14-1-.29-2.11-.46-3.19a14.67,14.67,0,0,0-2.77-6.56,20.27,20.27,0,0,0-6-5.25,33.71,33.71,0,0,0-9.24-3.59,43.85,43.85,0,0,0-11-1c-.36,0-.73,0-1.09,0M320.31,225a20.16,20.16,0,0,1-4.82-.69,15.2,15.2,0,0,1-5.14-2.18,21.49,21.49,0,0,1-5.65-5.72,10,10,0,0,1-1.53-9.31,17,17,0,0,1,4.22-7.74,21.74,21.74,0,0,1,7.08-4.9,25.26,25.26,0,0,1,8.77-2.23l.7,0a25.23,25.23,0,0,1,10.1,2.11,9.12,9.12,0,0,1,3.62,2.49,12.25,12.25,0,0,1,2.46,4.82c.14.54.31,1.05.48,1.54a15.48,15.48,0,0,1,.5,1.73,11.79,11.79,0,0,1,.21,2.52c0,2.17-.06,3.93-.16,5.51a6.57,6.57,0,0,1-2.38,4.36c-1,.91-2,1.82-3.15,2.79a18.18,18.18,0,0,1-5.6,3.06,31,31,0,0,1-9,1.79h-.18a4,4,0,0,1-.52.05"></path> <path d="M321.14,227a17.69,17.69,0,0,1-6.1-.67,17.39,17.39,0,0,1-5.81-2.46,23.48,23.48,0,0,1-6.2-6.25,13.28,13.28,0,0,1-2.19-4.81,13.13,13.13,0,0,1,.35-6.19,19,19,0,0,1,4.73-8.67,23.56,23.56,0,0,1,7.76-5.36,26.8,26.8,0,0,1,10.25-2.41,27.57,27.57,0,0,1,10.9,2.26,11.42,11.42,0,0,1,4.4,3.06,14.24,14.24,0,0,1,2.87,5.62c.3,1.13.77,2.23,1,3.38a14.42,14.42,0,0,1,.25,2.94c0,1.88,0,3.77-.16,5.64a8.63,8.63,0,0,1-3,5.72q-1.57,1.49-3.24,2.87a20.38,20.38,0,0,1-6.21,3.42,32.79,32.79,0,0,1-9.59,1.91m18.24-28.81a4.06,4.06,0,0,0-.4.26l-2,1.88c-.42.39-.85.32-1.32-.19s0-.63.3-.86l2-1.81c.4-.36.37-.68,0-1s-.71-.82-1.12-1.16a9,9,0,0,0-1.9-1.33c-1.37-.62-2.81-1.08-4.21-1.62-.53-.21-.89-.07-1.06.47a16.48,16.48,0,0,0-.73,2.62c-.13,1-.69,1.21-1.5,1.24h-.06c-.84.09-1.18-.3-.93-1.11s.54-1.61.78-2.42c.38-1.31.37-1.3-1-1.47a19.51,19.51,0,0,0-3.18-.41,28.58,28.58,0,0,0-4,.7c-.45.09-.53.4-.37.8s.28.6.4.9c.71,1.89.7,1.9-.78,3-.65.5-1,.35-1.15-.48s-.42-1.76-.68-2.63-.29-.8-1-.48a23.17,23.17,0,0,0-6,3.5c-.71.59-.69.61.06,1.14l.28.25a8.22,8.22,0,0,0,.76.9c.89.76.9.75.59,1.79-.12.41-.1,1-.62,1s-.73-.44-1.08-.7c-.08-.05-.12-.16-.19-.24l-1.5-1.8c-.39-.47-.72-.41-1.1,0a21,21,0,0,0-3.94,6.55c-.2.59-.12.74.53.78,1.09,0,2.19.08,3.28.08.46,0,.61.15.51.58a8.18,8.18,0,0,1-.34,1.38.72.72,0,0,1-.59.34c-1-.16-1.93-.37-2.89-.6s-1.28,0-1.45,1a10.29,10.29,0,0,0,.58,5.41c.15.41.33.56.77.47,1-.19,1.95-.33,2.93-.51a.75.75,0,0,1,.94.59c.13.47-.28.59-.63.67a3.14,3.14,0,0,1-.61.05c-.56.06-1.12.08-1.67.18s-.77.41-.38.94c.61.81,1.21,1.62,1.88,2.37a19.39,19.39,0,0,0,6.3,4.85.54.54,0,0,0,.78-.19,34,34,0,0,1,2.4-2.82,11.58,11.58,0,0,1,4.9-3.06,1.41,1.41,0,0,0,.75-.73c1.06-2.38,2.08-4.77,3.11-7.16a129.49,129.49,0,0,1,6.14-12.38,1,1,0,0,1,.76-.45.69.69,0,0,1,.61.8c-.05.43-.08.86-.15,1.29-.48,2.94-.94,5.87-1.45,8.8-.4,2.26-.89,4.5-1.3,6.76-.16.89-.23,1.8-.31,2.71,0,.38,0,.74.51.86a8.89,8.89,0,0,1,1.41.45,9.47,9.47,0,0,1,3.63,2.29c.42.48.73.51,1.17.13,1.14-1,2.28-2,3.41-3a10.89,10.89,0,0,0,2.42-3.64c.14-.32.37-.76-.24-.88-.91-.18-1.83-.34-2.75-.46-.39,0-.74-.05-.68-.55s.32-.63.79-.56c.92.13,1.84.23,2.76.34.68.08.93-.07,1-.75.18-1.13.33-2.25.44-3.38a6.79,6.79,0,0,0-.15-3.06l-.59.17a6.35,6.35,0,0,1-3.32.57,3.68,3.68,0,0,1-.76-.35c.21-.29.36-.76.65-.86a30.23,30.23,0,0,1,3.24-1c.49-.13.6-.4.45-.82s-.37-1-.6-1.56c-.54-1.15-1.12-2.28-1.7-3.47m-25.31,26.69,1,.21a20.09,20.09,0,0,0,3.4.62,29.6,29.6,0,0,0,9.27-1.05c1.62-.48,3.18-1.17,4.75-1.8.57-.23.61-.46.23-.94a4.66,4.66,0,0,0-.94-.89,13.69,13.69,0,0,0-6.92-2.19,10.82,10.82,0,0,0-5,.7,14.45,14.45,0,0,0-5.1,4.15,7.2,7.2,0,0,0-.68,1.19m8.09-7.22.48.06c1.07,0,2.15,0,3.21.14.66.08.91-.16,1-.74.2-1.1.41-2.2.63-3.29.42-2.17.86-4.34,1.28-6.51q.51-2.58,1-5.18a3.37,3.37,0,0,0,0-.63c-3.08,5.11-5.07,10.69-7.56,16.15"></path> <path d="M339.38,198.17c.58,1.19,1.16,2.32,1.69,3.47.24.51.42,1,.61,1.56s0,.69-.45.82a30.23,30.23,0,0,0-3.24,1c-.29.1-.44.57-.65.86a3.46,3.46,0,0,0,.76.35,6.35,6.35,0,0,0,3.32-.57l.59-.17a6.79,6.79,0,0,1,.15,3.06c-.11,1.13-.26,2.25-.44,3.38-.1.68-.35.83-1,.75-.92-.11-1.84-.21-2.76-.34-.48-.07-.74.13-.79.56s.29.51.68.55c.92.12,1.84.28,2.75.46.61.12.38.56.24.88a10.89,10.89,0,0,1-2.42,3.64c-1.13,1-2.27,2-3.41,3-.44.38-.75.35-1.17-.13a9.47,9.47,0,0,0-3.63-2.29,8.89,8.89,0,0,0-1.41-.45c-.49-.12-.54-.48-.51-.86.08-.91.15-1.82.31-2.71.41-2.26.9-4.5,1.3-6.76.51-2.93,1-5.86,1.45-8.8.07-.43.1-.86.15-1.29a.69.69,0,0,0-.61-.8,1,1,0,0,0-.76.45A129.49,129.49,0,0,0,324,210.12c-1,2.39-2,4.78-3.11,7.16a1.41,1.41,0,0,1-.75.73,11.66,11.66,0,0,0-4.9,3.05,35.88,35.88,0,0,0-2.4,2.83.54.54,0,0,1-.78.19,19.53,19.53,0,0,1-6.3-4.85c-.67-.75-1.27-1.56-1.88-2.37-.39-.53-.27-.83.38-.94s1.11-.12,1.67-.18a4.18,4.18,0,0,0,.61-.05c.35-.08.76-.2.63-.67a.75.75,0,0,0-.94-.59c-1,.18-2,.32-2.93.51-.44.09-.62-.06-.77-.47a10.29,10.29,0,0,1-.58-5.41c.17-1,.43-1.22,1.45-1s1.92.44,2.89.6a.72.72,0,0,0,.59-.34,8.18,8.18,0,0,0,.34-1.38c.1-.43-.05-.58-.51-.58-1.09,0-2.19,0-3.28-.08-.65,0-.73-.19-.53-.78A21,21,0,0,1,306.8,199c.38-.45.71-.51,1.1,0l1.5,1.8c.07.08.11.19.19.24.35.26.71.69,1.08.7s.5-.6.62-1c.31-1,.3-1-.59-1.79a8.22,8.22,0,0,1-.76-.9l-.28-.25c-.75-.53-.77-.55-.06-1.14a23.17,23.17,0,0,1,6-3.5c.75-.32.8-.28,1,.48s.49,1.74.68,2.63.5,1,1.15.48c1.48-1.15,1.49-1.16.78-3-.12-.3-.27-.6-.4-.9s-.08-.71.37-.8a28.58,28.58,0,0,1,4-.7,19.51,19.51,0,0,1,3.18.41c1.32.17,1.33.16,1,1.47-.24.81-.53,1.61-.78,2.42s.09,1.2.93,1.11h.06c.81,0,1.37-.26,1.5-1.24a16.48,16.48,0,0,1,.73-2.62c.17-.54.53-.68,1.06-.47,1.4.54,2.84,1,4.21,1.62a9,9,0,0,1,1.9,1.33c.41.34.73.79,1.11,1.16s.41.69,0,1l-2,1.81c-.26.23-.73.39-.3.86s.9.58,1.32.19l2-1.88a3.11,3.11,0,0,1,.4-.26" style="fill:#fff"></path> <path d="M314.07,224.86a7.2,7.2,0,0,1,.68-1.19,14.45,14.45,0,0,1,5.1-4.15,10.82,10.82,0,0,1,5-.7,13.78,13.78,0,0,1,6.92,2.19,4.66,4.66,0,0,1,.94.89c.38.48.34.71-.23.94-1.57.63-3.13,1.32-4.75,1.8a29.91,29.91,0,0,1-9.27,1.06,21.16,21.16,0,0,1-3.4-.63l-1-.21" style="fill:#fff"></path> <path d="M322.16,217.64c2.49-5.46,4.48-11,7.56-16.15a3.37,3.37,0,0,1,0,.63q-.47,2.59-1,5.18c-.42,2.17-.86,4.34-1.28,6.51-.22,1.09-.43,2.19-.63,3.29-.11.58-.36.82-1,.74-1.06-.12-2.14-.1-3.21-.14l-.48-.06" style="fill:#626260"></path> <path d="M299.2,158.2l4.64-5c.18-.19.32-.53.52-.57a2.78,2.78,0,0,1,1.49,0c.2.09.23.81.16,1.2a2.27,2.27,0,0,1-.63.91c-1.32,1.4-2.64,2.79-4,4.16-.51.53-.6.91-.05,1.52,7.24,7.91,4.63,20.45-2,26.26a10.68,10.68,0,0,1-2.75,1.77c-7.17,3-14.44,3.54-21.55,0-5.15-2.56-7.62-7.07-7.87-12.8a15.25,15.25,0,0,1,1.22-6.15c.32-.85.09-1.1-.66-1.4a15.58,15.58,0,0,1-2.93-1.57,1.2,1.2,0,0,1,1.59-1.79,13.57,13.57,0,0,0,2.43,1.09,1.55,1.55,0,0,0,1.76-.66c1.48-1.73,3-3.41,4.62-5.05a1.37,1.37,0,0,0,.33-1.81c-.71-1.28-1.48-2.53-2.15-3.84-.31-.59-1.11-1.26-.1-1.93.71-.46,1.25-.53,1.79.43a45.06,45.06,0,0,0,3,4.51,1.38,1.38,0,0,0,1.05,0c.41-1.23,1.51-1.4,2.5-1.67a1.47,1.47,0,0,0,1.27-1.85,21.39,21.39,0,0,1,.25-3.82c.1-1.08.22-2.17.3-3.26.05-.58,0-1.21.84-1.21s.93.64.91,1.27c0,.86-.13,1.73-.16,2.59-.05,1.47-.07,2.93-.1,4.4,0,.84.31,1.23,1.23,1.12a18.2,18.2,0,0,1,3-.13,1.83,1.83,0,0,0,1.82-1q1.69-2.81,3.44-5.58c.36-.56.68-1.49,1.6-.87s.56,1.35.07,2.09c-.95,1.44-1.87,2.91-2.79,4.38a11.66,11.66,0,0,0-.57,1.21l6.47,3m-9.76,30.41c.48-.09,1-.18,1.44-.29,4-.95,7.48-2.77,9.66-6.48a19.48,19.48,0,0,0,2.86-10.21c-.06-4-.93-7.8-4.22-10.58-1.87-1.59-3.8-3.12-6.28-3.62a2.26,2.26,0,0,0-1.75.19c-1,1-2.13.88-3.33.53a7.84,7.84,0,0,0-5.94.48,32.35,32.35,0,0,0-5.61,3.37,18.62,18.62,0,0,0-6.68,11.34,12.57,12.57,0,0,0,5.69,12.74,21.28,21.28,0,0,0,14.16,2.53"></path> <path d="M289.44,188.61a21.28,21.28,0,0,1-14.16-2.53,12.57,12.57,0,0,1-5.69-12.74A18.66,18.66,0,0,1,276.27,162a32.35,32.35,0,0,1,5.61-3.37,7.84,7.84,0,0,1,5.94-.48c1.2.35,2.29.52,3.33-.53a2.26,2.26,0,0,1,1.75-.19c2.49.5,4.41,2,6.29,3.62,3.28,2.78,4.15,6.62,4.21,10.58a19.48,19.48,0,0,1-2.86,10.21c-2.18,3.71-5.63,5.53-9.65,6.48-.48.11-1,.2-1.45.29M285.26,167c0,.1-.05.2-.08.3a4.09,4.09,0,0,0-3.09,6c.75,1.64,2.49,2.46,4,1.5a10.6,10.6,0,0,0,2.75-3c1.2-1.75,1-2.81-.77-4a9.51,9.51,0,0,0-2.79-.8" style="fill:#fff"></path> <path d="M285.26,167a9.51,9.51,0,0,1,2.79.8c1.78,1.16,2,2.22.77,4a10.6,10.6,0,0,1-2.75,3c-1.49,1-3.23.14-4-1.5a4.1,4.1,0,0,1,3.1-6c0-.09.05-.19.08-.29m1.29,3.13a2.79,2.79,0,0,0-1-.41c-.65,0-1.6,1.28-1.32,1.83a1.69,1.69,0,0,0,1.1.86c.67.09,1.4-1.18,1.22-2.28"></path> <path d="M286.55,170.08c.18,1.1-.55,2.37-1.22,2.28a1.69,1.69,0,0,1-1.1-.86c-.28-.55.67-1.84,1.32-1.83a2.79,2.79,0,0,1,1,.41" style="fill:#fff"></path> <path d="M370.69,169.1a21.32,21.32,0,0,1-1.43,8.54,11.75,11.75,0,0,1-3.62,4.44c-4.35,3.41-9.35,4.35-14.72,3.59a18,18,0,0,1-7.47-2.67,21.44,21.44,0,0,1-4.62-4.05,16,16,0,0,1-3.42-6.22,12.05,12.05,0,0,1,1.72-10.28A23.36,23.36,0,0,1,350,153a18.46,18.46,0,0,1,8.09-.61,26.37,26.37,0,0,1,3.45.55,8.66,8.66,0,0,1,3.94,2.61,20.18,20.18,0,0,1,3.72,5.42,24.69,24.69,0,0,1,1.53,8.09m-1.26-1.25c-.26-1.59-.45-3.2-.81-4.77a15.1,15.1,0,0,0-4.46-7.24,8.23,8.23,0,0,0-3.84-2.3,21.46,21.46,0,0,0-3.84-.49,17.78,17.78,0,0,0-6.14.88,23.59,23.59,0,0,0-10.9,7.28,12.32,12.32,0,0,0-.88,14.84,20.67,20.67,0,0,0,6,6,19.55,19.55,0,0,0,6.79,2.69,15.42,15.42,0,0,0,9.83-1.15,12.91,12.91,0,0,0,7.63-9.24,31.1,31.1,0,0,0,.59-6.47"></path> <path d="M369.43,167.85a31.1,31.1,0,0,1-.59,6.47,12.91,12.91,0,0,1-7.63,9.24,15.42,15.42,0,0,1-9.83,1.15,19.55,19.55,0,0,1-6.79-2.69,20.67,20.67,0,0,1-6-6,12.32,12.32,0,0,1,.88-14.84,23.59,23.59,0,0,1,10.9-7.28,17.78,17.78,0,0,1,6.14-.88,21.35,21.35,0,0,1,3.84.49,8.23,8.23,0,0,1,3.84,2.3,15.1,15.1,0,0,1,4.46,7.24c.36,1.57.55,3.18.81,4.77m-16.59-6.65c-.65.2-1.8.55-2.95.92A5.66,5.66,0,0,0,347,164.3a7.54,7.54,0,0,0-1.29,7.12,7.35,7.35,0,0,0,2.54,4.14,7.07,7.07,0,0,0,1.67,1.05,9.46,9.46,0,0,0,7.56-.47c3-1.54,5-3.77,5.13-7.24a7.64,7.64,0,0,0-.52-2.68,5.39,5.39,0,0,0-4.21-4,1.69,1.69,0,0,1-.6-.19c-1.19-.83-2.55-.85-4.48-.87" style="fill:#fff"></path> <path d="M352.84,161.2c1.93,0,3.29,0,4.48.87a1.69,1.69,0,0,0,.6.19,5.39,5.39,0,0,1,4.21,4,7.6,7.6,0,0,1,.52,2.68c-.17,3.47-2.11,5.7-5.13,7.24a9.46,9.46,0,0,1-7.56.47,7.07,7.07,0,0,1-1.67-1.05,7.35,7.35,0,0,1-2.54-4.14A7.54,7.54,0,0,1,347,164.3a5.61,5.61,0,0,1,2.85-2.18c1.15-.37,2.3-.72,2.95-.92m-6.2,6.85c.09,0,.14.1.2.1,1.27,0,2.55.08,3.83.09a.82.82,0,0,0,.49-.32,11,11,0,0,0,.81-1.12c.09-.15.18-.44.1-.54q-.75-1-1.59-2a.56.56,0,0,0-.54-.1,12.29,12.29,0,0,0-2.33,1.52,3.6,3.6,0,0,0-1,2.38m11.37,1.6c-.63-.08-1,.15-1.06.83a.34.34,0,0,1-.1.23c-.9,1-.34,1.85.19,2.73l.3.48c.49.83.66.83,1.41.21a8.87,8.87,0,0,0,2.27-3.71c.12-.28.09-.54-.32-.57l-2.69-.2m-5.15,2.56c0-.59-.74-1.15-1.11-.89-1,.67-1.95,1.38-2.9,2.1a.57.57,0,0,0-.09.57,4.8,4.8,0,0,0,3,1.7.75.75,0,0,0,.61-.37c.21-1,.36-2.1.51-3.11m3.22-9.18,0,.19c-.56,0-.87.21-.91.79s-.14,1.29-.19,1.94c0,.43.76,1.06,1.12.86q1.71-1,3.36-2.07c.44-.28.4-.66-.11-.82-1.07-.33-2.15-.6-3.23-.89m-8.43,6.05c-1,0-1.12.13-.84,1.18a18.65,18.65,0,0,0,.73,2.06.5.5,0,0,0,.46.15c1.05-.72,2.1-1.44,3.1-2.23.17-.13.17-.57.13-.85,0-.12-.36-.25-.55-.26-1,0-2,0-3,0m12.9-.25c.68,0,.9-.22.77-.88s-.34-1.16-.51-1.74c-.12-.41-.35-.48-.7-.28-1,.57-2.05,1.12-3.05,1.72a.68.68,0,0,0-.21.61.72.72,0,0,0,.51.4c1.06.09,2.12.12,3.19.17m-5.95,7.28a14.36,14.36,0,0,0,1.6-.55c.7-.33.75-.6.37-1.29-.27-.49-.57-1-.79-1.48s-.66-.46-1.11-.4-.74.21-.77.72c0,.69-.13,1.38-.18,2.07-.07.89-.06.89.88.93M354,163.72c0-.08-.09-.27-.2-.34a2.39,2.39,0,0,0-2.36.11c-.32.23-.34.46-.11.73.49.57,1,1.13,1.48,1.68.13.14.41.34.48.3a1.08,1.08,0,0,0,.49-.59c.12-.59.15-1.2.22-1.89"></path> <path d="M346.64,168.05a3.6,3.6,0,0,1,1-2.38,12.29,12.29,0,0,1,2.33-1.52.56.56,0,0,1,.54.1q.84,1,1.59,2c.08.1,0,.39-.1.54a11,11,0,0,1-.81,1.12.82.82,0,0,1-.49.32c-1.28,0-2.56-.05-3.83-.09-.06,0-.11-.05-.2-.1" style="fill:#fff"></path> <path d="M358,169.65l2.69.2c.41,0,.44.29.32.57a8.87,8.87,0,0,1-2.27,3.71c-.74.62-.92.62-1.41-.21l-.3-.48c-.53-.88-1.09-1.75-.19-2.73a.34.34,0,0,0,.1-.23c0-.68.43-.91,1.06-.83" style="fill:#fff"></path> <path d="M352.86,172.21c-.16,1-.3,2.07-.51,3.11a.75.75,0,0,1-.61.37,4.8,4.8,0,0,1-3-1.7.57.57,0,0,1,.09-.57c.95-.72,1.91-1.43,2.9-2.1.37-.26,1.09.3,1.11.89" style="fill:#fff"></path> <path d="M356.08,163c1.08.29,2.16.56,3.23.89.51.16.55.54.11.82q-1.65,1.08-3.36,2.07c-.36.2-1.15-.43-1.12-.86.05-.65.14-1.29.19-1.94s.35-.81.91-.79l0-.19" style="fill:#fff"></path> <path d="M347.65,169.09c1.06,0,2,0,3,0,.19,0,.53.15.55.26,0,.28,0,.72-.13.85-1,.79-2.05,1.51-3.1,2.23a.49.49,0,0,1-.46-.14,19.58,19.58,0,0,1-.73-2.07c-.28-1-.18-1.16.84-1.17" style="fill:#fff"></path> <path d="M360.55,168.83c-1.07-.05-2.13-.08-3.19-.17a.7.7,0,0,1-.51-.4.65.65,0,0,1,.21-.61c1-.6,2-1.15,3.05-1.72.35-.2.58-.13.7.28.17.58.39,1.15.51,1.74s-.09.87-.77.88" style="fill:#fff"></path> <path d="M354.6,176.11c-.94,0-1,0-.88-.93,0-.69.13-1.38.18-2.07,0-.5.31-.67.77-.72s.86-.16,1.11.4.52,1,.79,1.48c.38.7.33,1-.37,1.29a14.36,14.36,0,0,1-1.6.55" style="fill:#fff"></path> <path d="M354,163.72c-.07.69-.1,1.3-.22,1.89a1.08,1.08,0,0,1-.49.59c-.07,0-.35-.16-.48-.3-.5-.55-1-1.11-1.48-1.68-.23-.27-.21-.5.11-.73a2.39,2.39,0,0,1,2.36-.11c.11.07.15.26.2.34" style="fill:#fff"></path> <path d="M233.32,249.17l1,1.31c1.31,1.86,1.59,1.69,3.95,1.15a7.92,7.92,0,0,0,.75-.31c1.37-.47,1.76-1,1.45-2.43s-.71-2.89-1.16-4.3c-.63-2-1.29-3.89-2-5.8-.69-1.75-1.53-3.44-2.25-5.18-.52-1.27-1-2.57-1.4-3.88-.34-1.06-1.32-1.86-2.21-1.52a3.79,3.79,0,0,0-1.51,1.18q-1.76,2.28-3.35,4.67a2.16,2.16,0,0,0-.09,2.42c1.45,2.69,2.75,5.46,4.18,8.16.82,1.56,1.78,3,2.68,4.55l0,0" style="fill:#fff"></path> <path d="M273,207.7a3.84,3.84,0,0,0-.25,1.05c0,1.38,0,2.76.19,4.13a47.6,47.6,0,0,0,.77,4.88c.28,1.29,1.11,1.69,2.38,1.36,2-.54,2.37-1,2.32-3.49q-.06-3.19-.24-6.39c-.14-2.43-.82-2.91-3.17-2.29-.62.17-1.21.45-2,.75" style="fill:#fff"></path> <path d="M266.15,210.39a2.82,2.82,0,0,0-1.06,3.11c.42,1.72.67,3.47,1.07,5.2a3.94,3.94,0,0,0,.79,1.93c1.21,1.2,3.57.29,4-1.37.37-1.33-.3-2.48-.36-3.74-.08-1.61-.33-3.21-.48-4.81a1.46,1.46,0,0,0-1.89-1.3,18.66,18.66,0,0,0-2.09,1" style="fill:#fff"></path> <path d="M246.42,226.07c-.67.69-1.37,1.36-2,2.08a1.18,1.18,0,0,0,0,1.43c.8,1.47,1.53,3,2.28,4.47a1.55,1.55,0,0,0,2.35.75,9.23,9.23,0,0,0,1.86-1.55c.85-.94.59-2.1.34-3.18a32.7,32.7,0,0,0-1.08-3.62c-.51-1.39-1.56-2-2.8-.94-.27.23-.57.42-.85.63l-.08-.07" style="fill:#fff"></path> <path d="M256.3,220a5.65,5.65,0,0,0-4.56,2.86,2.2,2.2,0,0,0,0,1.27c.45,1.53,1,3,1.45,4.55a5.1,5.1,0,0,0,.39.9,1.13,1.13,0,0,0,1.76.5c.94-.64,1.79-1.4,2.68-2.1s.4-2.52-.07-3.56-.76-2.18-1.15-3.27c-.14-.4-.33-.78-.49-1.15" style="fill:#fff"></path> <path d="M243.2,232.12c-1.27-1.73-2.4-1.81-3.53-.58a15.09,15.09,0,0,1-1.43,1.55,1.09,1.09,0,0,0-.34,1.43c.63,1.47,1.25,2.94,2,4.36.58,1.16,1.09,1.28,2.23.64a12.15,12.15,0,0,0,2.13-1.49,1.78,1.78,0,0,0,.55-1.26,13.11,13.11,0,0,0-1.57-4.65" style="fill:#fff"></path> <path d="M263.46,224.06c.86-.31.88-1,.7-1.92-.25-1.24-.3-2.51-.55-3.75s-.61-2.45-1-3.67a1,1,0,0,0-1.71-.28c-.84.77-2,1.32-2.24,2.58a3,3,0,0,0,0,1.46c.48,1.61,1,3.22,1.59,4.81.64,1.75,1.59,2,3.18.77" style="fill:#fff"></path> <path d="M243,251.25a1.07,1.07,0,0,0,.53-1.43q-.85-2.53-1.69-5.07a5.85,5.85,0,0,1-.49-1.54,1.93,1.93,0,0,1,.49-1.34,37.07,37.07,0,0,1,3.45-2.93c1.89-1.4,3.88-2.68,5.78-4.07,2.46-1.8,4.84-3.73,7.34-5.47,2.29-1.59,4.69-3,7-4.49a23.4,23.4,0,0,1,3.21-1.91,50.09,50.09,0,0,1,5.06-1.7c2.23-.65,4.5-1.16,6.71-1.88.41-.14.78-.95.85-1.48a21.45,21.45,0,0,0,0-3c0-2.26,0-4.53-.05-6.79a3.07,3.07,0,0,0-3.76-3c-1.3.25-2.62.4-3.91.7a19.74,19.74,0,0,0-3.72,1.13c-2.59,1.2-5.12,2.55-7.1,3.55-2.53,2.27-4.52,4.1-6.56,5.87s-4.36,3.81-6.63,5.6c-3.42,2.71-6.91,5.33-10.4,8a3.92,3.92,0,0,1-1.62.83c-1.1.19-1.6-.33-2.09-1.77s-.91-2.66-1.45-4c-.36-.89-.86-1.11-1.66-.58a29.55,29.55,0,0,0-3.72,2.85c-1.06,1-1.93,2.13-2.91,3.17-.76.8-1.64,1.5-2.32,2.37a2,2,0,0,0-.24,1.56,4.53,4.53,0,0,1,.14,2.57l2,3.73a1.5,1.5,0,0,1,.89.86c.26.56.54,1.11.8,1.67.79,1.65,1.61,3.29,2.39,4.95,0,0,4.59,6.6,5.24,6.5a15.24,15.24,0,0,0,6.1-2.06c.74-.49,1.48-1,2.25-1.45m27.13-40.54c.15,1.6.4,3.2.48,4.81.06,1.26.73,2.41.36,3.74-.45,1.66-2.81,2.57-4,1.37a4,4,0,0,1-.79-1.93c-.4-1.73-.65-3.48-1.07-5.2a2.84,2.84,0,0,1,1.05-3.12,22.94,22.94,0,0,1,2.09-1,1.46,1.46,0,0,1,1.9,1.3m-23.71,15.36.08.07c.28-.21.58-.4.85-.63,1.24-1.06,2.29-.45,2.8.94a32.7,32.7,0,0,1,1.08,3.62c.25,1.08.5,2.24-.34,3.18a8.87,8.87,0,0,1-1.86,1.54,1.54,1.54,0,0,1-2.35-.74c-.75-1.49-1.48-3-2.28-4.47a1.18,1.18,0,0,1,0-1.43c.62-.73,1.32-1.39,2-2.08m-3.22,6.05a13.11,13.11,0,0,1,1.57,4.65,1.78,1.78,0,0,1-.55,1.26,12.15,12.15,0,0,1-2.13,1.49c-1.14.64-1.65.52-2.23-.64-.71-1.42-1.33-2.89-2-4.36a1.1,1.1,0,0,1,.34-1.44,14,14,0,0,0,1.43-1.54c1.13-1.23,2.26-1.15,3.53.58m12.13-2.07a1.13,1.13,0,0,1-1.76-.5,5.1,5.1,0,0,1-.39-.9c-.5-1.51-1-3-1.45-4.55a2.2,2.2,0,0,1,0-1.27A5.65,5.65,0,0,1,256.3,220c.16.37.35.75.49,1.15.39,1.09.68,2.22,1.15,3.27s.84,3,.07,3.56-1.74,1.46-2.68,2.1m5.59-15.61a1,1,0,0,1,1.71.28c.37,1.22.73,2.43,1,3.67s.3,2.51.55,3.75c.18.9.16,1.61-.7,1.92-1.59,1.22-2.54,1-3.18-.77-.58-1.59-1.11-3.2-1.59-4.81a3,3,0,0,1,0-1.46c.25-1.26,1.4-1.81,2.24-2.58m12.79,3.32a47.6,47.6,0,0,1-.77-4.88c-.15-1.37-.17-2.75-.19-4.13a3.84,3.84,0,0,1,.25-1.05,21.2,21.2,0,0,1,2-.75c2.35-.62,3-.14,3.17,2.29q.18,3.19.24,6.39c0,2.48-.3,3-2.32,3.49-1.27.33-2.1-.07-2.38-1.36M239,251.32a7.92,7.92,0,0,1-.75.31c-2.36.54-2.64.71-3.95-1.15-.31-.44-.64-.87-1-1.31l0,0c-.9-1.52-1.86-3-2.68-4.55-1.43-2.7-2.73-5.47-4.18-8.16a2.16,2.16,0,0,1,.09-2.42q1.59-2.38,3.35-4.67a3.79,3.79,0,0,1,1.51-1.18c.89-.34,1.87.46,2.21,1.52.42,1.31.88,2.61,1.41,3.88.71,1.74,1.55,3.43,2.24,5.18.74,1.91,1.4,3.85,2,5.8.45,1.41.84,2.85,1.16,4.3s-.08,2-1.45,2.43"></path> <path d="M417.68,222.46c.36.4.79.8,1.16,1.19,1.52,1.63,1.39,2.78.8,4.9-.07.23-.28.6-.37.83-.49,1.22-1,2-2.36,1.49a25.62,25.62,0,0,1-3.7-1.66,30.1,30.1,0,0,1-4.77-3.16c-1.48-1.21-2.93-2.49-4.38-3.73-1.06-.91-2.3-1.93-3.36-2.74a2.22,2.22,0,0,1-1-2.57,2,2,0,0,1,1.26-1,37.17,37.17,0,0,0,4.34-2.14,1.5,1.5,0,0,1,1.94.25c2,1.76,4.35,3.4,6.59,5.07,1.29.95,2.64,2.18,3.89,3.23,0,0,0,0,0,.05" style="fill:#fff"></path> <path d="M370.23,214a3.13,3.13,0,0,1,.15,1,38,38,0,0,1-.59,4,34,34,0,0,1-1.27,4.69,2,2,0,0,1-2.57,1.27c-1.9-.41-2.23-1.1-2-3.19.23-1.8.51-4.16.87-6.05.41-2.15,1.23-2.77,3.43-2.36a17.93,17.93,0,0,1,2,.66" style="fill:#fff"></path> <path d="M376.72,216.53a3.08,3.08,0,0,1,.87,3.36,34.83,34.83,0,0,0-1.24,5.18c-.07.69-.22,1.67-.8,2-1.53.75-3.94-.56-4.34-2.08-.32-1.22.55-2.28.71-3.47.22-1.52.65-3.08.92-4.63a1.56,1.56,0,0,1,1.9-1.23,6.26,6.26,0,0,1,2,.92" style="fill:#fff"></path> <path d="M394.45,229.48a22.38,22.38,0,0,0,2.36-.4,1.07,1.07,0,0,1,1.12.63c.8,1.34,2,2.51,3,3.81a1.33,1.33,0,0,1-.73,2.13,8.77,8.77,0,0,1-2.5.65,3.14,3.14,0,0,1-2.88-1.41,16.47,16.47,0,0,1-1.88-3c-.6-1.18-.44-1.75.75-2.15.26-.09.54-.11.79-.2,0,0,0-.08,0-.08" style="fill:#fff"></path> <path d="M385.79,228.48a6.47,6.47,0,0,1,4,1.7,4.16,4.16,0,0,1,.66.87c.74,1.27,1.2,2.67,1.91,3.95a2.3,2.3,0,0,1,.34.77c.12.75-.2,1.21-1.08,1.19a11,11,0,0,1-3.75-.83c-1.21-.49-1.7-2-1.84-3.24s-.27-2.15-.31-3.28c0-.42,0-.73,0-1.13" style="fill:#fff"></path> <path d="M400.71,229.63c-.93-1.43-1.16-2.68.47-3.51.69-.35,1.3-.48,1.87-.82a1.06,1.06,0,0,1,1.42.17c1.19,1.1,2.52,2.18,3.61,3.3.89.9.93,1.48,0,2.41a8.74,8.74,0,0,1-2.28,1.58,2,2,0,0,1-1.46.05,12,12,0,0,1-3.66-3.18" style="fill:#fff"></path> <path d="M380.31,232.09a2.17,2.17,0,0,1-1.31-2.27,35.38,35.38,0,0,1,.05-4.13,19.43,19.43,0,0,1,.74-4c.26-.68.89-.66,1.35.1.62,1,1.79,2.14,2.21,3.45a4.3,4.3,0,0,1,.1,1.56c-.12,1.83.14,3,0,5s-1.71,1.43-3.11.24" style="fill:#fff"></path> <path d="M420.37,231.52c1.34-2.47,2.48-4.41,2.07-7.94-.13-1.07-4.24-5.08-5.64-6.06s-2.9-1.78-4.25-2.68c-.46-.31-.93-.6-1.36-.88a1.81,1.81,0,0,1-.72-1c-1-.69-1.91-1.45-2.85-2.18a2.33,2.33,0,0,1-1.83-.24,1.39,1.39,0,0,0-1.24,0c-.8.55-1.37,1.24-2.16,1.78-1,.71-2.05,1.15-3.13,1.85a20.32,20.32,0,0,0-3.16,2.49c-.6.59-.41,1.16.29,1.75,1,.86,2.38,1.91,3.37,2.74s1.65,1.5,1.37,2.7c-.14.63-.77,1-1.17,1.26-2.95,2-5.57,4.13-9.28,3.57-2.46-.38-4-1.88-5.67-3.88s-3.41-5.18-5.13-7.38a25.66,25.66,0,0,0-6.52-4.07,16.81,16.81,0,0,0-3.56-1,30.78,30.78,0,0,0-3.9-.48,3.68,3.68,0,0,0-4,3c-.38,2.23-.46,4.33-.76,6.51a20,20,0,0,0-.26,2.85c0,.51.24,1.22.68,1.34,2.36.64,4.14.81,6.65,1.38a15.41,15.41,0,0,1,5.65,2.36c1.31.92,3,2.45,4.42,3.37a34.33,34.33,0,0,0,10.17,4.79,20.81,20.81,0,0,0,10.58-.13,30.73,30.73,0,0,0,7.26-3.17,29.92,29.92,0,0,0,4.07-2.7,1.61,1.61,0,0,1,1.27-.25,4.22,4.22,0,0,1,1.28.66c1.43.77,2.86,1.53,4.33,2.27.54.28,1,.39,1.44-.34s1.16-1.26,1.7-2.26m-45.63-15.91a6.26,6.26,0,0,1,2,.92,3.08,3.08,0,0,1,.87,3.36,34.83,34.83,0,0,0-1.24,5.18c-.07.69-.22,1.67-.8,2-1.53.75-3.94-.57-4.34-2.08-.32-1.22.55-2.28.71-3.47.22-1.52.65-3.08.92-4.63a1.56,1.56,0,0,1,1.9-1.23m22.07,13.47a1.07,1.07,0,0,1,1.12.63c.8,1.34,2,2.51,3,3.81a1.33,1.33,0,0,1-.73,2.13,8.77,8.77,0,0,1-2.5.65,3.14,3.14,0,0,1-2.88-1.41,16.47,16.47,0,0,1-1.88-3c-.6-1.18-.44-1.75.75-2.15.26-.08.54-.11.79-.2,0,0,0-.08,0-.08a22.38,22.38,0,0,0,2.36-.4m4.37-3c.69-.35,1.3-.48,1.87-.82a1.06,1.06,0,0,1,1.42.17c1.19,1.1,2.52,2.18,3.61,3.3.89.9.93,1.48,0,2.41a8.85,8.85,0,0,1-2.27,1.58,2,2,0,0,1-1.47.05,12,12,0,0,1-3.66-3.18c-.93-1.43-1.16-2.68.47-3.51m-13.27,10c-1.21-.49-1.7-2-1.84-3.24s-.27-2.15-.31-3.28c0-.42,0-.73,0-1.13a6.47,6.47,0,0,1,4,1.7,3.85,3.85,0,0,1,.66.87c.74,1.26,1.2,2.67,1.91,3.95a2.3,2.3,0,0,1,.34.77c.12.75-.2,1.21-1.08,1.19a11,11,0,0,1-3.75-.83m-4.56-10.87a4.3,4.3,0,0,1,.1,1.56c-.12,1.83.14,3,0,5s-1.71,1.43-3.11.24a2.17,2.17,0,0,1-1.31-2.27,33.28,33.28,0,0,1,.06-4.13,18.65,18.65,0,0,1,.73-4c.26-.68.89-.66,1.35.1.62,1,1.8,2.14,2.21,3.45m-17.4-.32c-1.9-.41-2.23-1.1-2-3.19.23-1.8.51-4.16.87-6.05.41-2.15,1.23-2.77,3.43-2.36a17.14,17.14,0,0,1,2,.65,3.23,3.23,0,0,1,.15,1,38,38,0,0,1-.59,4,34.43,34.43,0,0,1-1.27,4.69,2,2,0,0,1-2.57,1.27m51,5.93a25.62,25.62,0,0,1-3.7-1.66,30.1,30.1,0,0,1-4.77-3.16c-1.48-1.21-2.93-2.49-4.38-3.73-1.06-.91-2.3-1.93-3.36-2.74a2.22,2.22,0,0,1-1-2.57,2,2,0,0,1,1.26-1,37.17,37.17,0,0,0,4.34-2.14,1.5,1.5,0,0,1,1.94.25c2,1.76,4.35,3.4,6.59,5.07,1.29.95,2.64,2.18,3.9,3.23,0,0,0,0,0,.05.36.4.79.8,1.16,1.19,1.52,1.63,1.39,2.78.8,4.9-.07.23-.28.6-.37.83-.49,1.22-1,2-2.36,1.49"></path> <path d="M413.8,179.83a33.17,33.17,0,0,0-5.05,5.57,15,15,0,0,0-2.19,6.62,13.89,13.89,0,0,0,.17,5.09,36.07,36.07,0,0,0,3.11,7.6,1,1,0,0,1,.09.71c-.58,1.74-.37,4-.48,5.79a3.42,3.42,0,0,0,.42,2,30,30,0,0,0,4,5.29,12.21,12.21,0,0,0,2.14,1.84,15,15,0,0,0,2.54,1.2.69.69,0,0,0,.66-.15,7.5,7.5,0,0,0,1.13-1,1.28,1.28,0,0,1,1.43-.26,11.5,11.5,0,0,0,5,.87,87.2,87.2,0,0,0,9.21-.81,11.32,11.32,0,0,0,4.32-1.83,6.52,6.52,0,0,0,1.36-1.51l-.48-.74a5.94,5.94,0,0,1-1.3,1.3,15.19,15.19,0,0,1-5.51,1.9,34.43,34.43,0,0,1-7.09.29,17,17,0,0,1-4.67-.75.51.51,0,0,1-.21-.74c.16-.27.37-.54.55-.8a19.36,19.36,0,0,0,2.21-3.78,9.14,9.14,0,0,1,.43-1,8.56,8.56,0,0,0,1-5.58c-.06-.51,0-.55.54-.58a11.54,11.54,0,0,0,3.48-.58l.92-.38-.8-.71a6.09,6.09,0,0,1-1.16.39,14.21,14.21,0,0,1-3.21.23c-.23,0-.52-.36-.65-.62a8,8,0,0,0-4.24-3.85,1.63,1.63,0,0,1-1.15-1.54,1.93,1.93,0,0,0-.1-.6,6.87,6.87,0,0,1-.4-4.1,13.81,13.81,0,0,1,3.7-7.12,2.32,2.32,0,0,0,.67-1.6c0-.18-.22-.38-.39-.5s-.43-.17-.62-.28c-1.87-1.13-3.77-2.27-5.61-3.43-.9-.56-1.79-1.26-2.6-1.85-.45-.33-.9-.42-1.25-.07m7.66,23.52a5.77,5.77,0,0,1,2.21,2.06,3.73,3.73,0,0,1,.79,2,8.8,8.8,0,0,1-1.27,4.73,5.05,5.05,0,0,1-1.53,1.88c-.16.11-.26.39-.38.57a4.21,4.21,0,0,1-.43.61c-.56.52-1.13,1.07-1.71,1.55a2,2,0,0,1-2.72.24l-.95-.67a13.2,13.2,0,0,1-3.63-3.48,5.45,5.45,0,0,1-1-3.42,6.81,6.81,0,0,1,.65-2.52,7.5,7.5,0,0,1,4.1-3.35,6.79,6.79,0,0,1,2.78-.69c.56,0,1.19,0,1.7.1a4.27,4.27,0,0,1,1.37.39M415,181.71c1.5.92,3,2,4.46,2.89,0,0,0,0,0,0,.9.53,1.93,1.06,2.79,1.61.61.4.67.6.26,1.2a22.2,22.2,0,0,0-3.12,6.46,11.22,11.22,0,0,0-.3,5.49c.17.86-.14,1.08-1,1a6.56,6.56,0,0,0-2.61.19,11.64,11.64,0,0,0-4.51,3.24c-.39.39-.59.34-.82-.19-.74-1.72-1.76-3.62-2.35-5.4a14.68,14.68,0,0,1-.42-7.14,10.35,10.35,0,0,1,1.82-4.81,55.55,55.55,0,0,1,3.66-4.23c.78-.83,1.22-.83,2.11-.28"></path> <path d="M435.19,203.26c1.33-1.29,2.52-2.73,3.76-4.07.52-.55.84-.66,1.48-.27a15.82,15.82,0,0,0,3.71,1.58c.63.18,1.05.44,1.08,1.21a19,19,0,0,1-1.38,8.43c-.68,1.88-1.45,3.67-2.18,5.5-.08.2-.39.3-.38.48s.36.5.44.75a6.11,6.11,0,0,0,.38-.65,33.94,33.94,0,0,0,1.8-4.21,54.94,54.94,0,0,0,1.8-6,26.43,26.43,0,0,0,.35-4.08c0-.43,0-.89,0-1.31a.78.78,0,0,0-.61-.78c-.81-.3-1.68-.55-2.48-.9a20.34,20.34,0,0,1-2.36-1.25c-.73-.44-1-.51-1.62.15-1.18,1.31-2.3,2.7-3.52,4A10,10,0,0,1,432.4,204c-.52.25-1.06.5-1.59.73l.8.71a12.36,12.36,0,0,0,3.58-2.22"></path> <path d="M439,199.19c-1.24,1.34-2.43,2.78-3.76,4.07a12.36,12.36,0,0,1-3.58,2.22,62.9,62.9,0,0,1,9.64,10.65c.09-.19.32-.29.4-.49.75-1.83,1.51-3.62,2.19-5.5a22.5,22.5,0,0,0,1.37-5.83,25.12,25.12,0,0,0,0-2.6c0-.77-.45-1-1.08-1.21a15.82,15.82,0,0,1-3.71-1.58c-.64-.39-1-.28-1.48.27" style="fill:#fff"></path> <path d="M431.61,205.48l-.92.38a11.54,11.54,0,0,1-3.48.58c-.53,0-.61.07-.54.58a8.62,8.62,0,0,1-1,5.58,9.14,9.14,0,0,0-.43,1,19.36,19.36,0,0,1-2.21,3.78c-.18.26-.39.53-.55.8a.51.51,0,0,0,.21.74,17,17,0,0,0,4.67.75,34.43,34.43,0,0,0,7.09-.29,15.19,15.19,0,0,0,5.51-1.9,5.94,5.94,0,0,0,1.3-1.3,62.9,62.9,0,0,0-9.64-10.65" style="fill:#fff"></path> <path d="M419.42,184.6c-1.5-.93-3-2-4.46-2.89-.89-.55-1.33-.55-2.11.28a55.55,55.55,0,0,0-3.66,4.23,10.35,10.35,0,0,0-1.82,4.81,14.68,14.68,0,0,0,.42,7.14c.59,1.78,1.61,3.68,2.35,5.4.23.53.43.58.82.19a11.64,11.64,0,0,1,4.51-3.24,6.56,6.56,0,0,1,2.61-.19c.86.08,1.17-.14,1-1a11.22,11.22,0,0,1,.3-5.49,22.2,22.2,0,0,1,3.12-6.46c.41-.6.35-.8-.26-1.2-.86-.55-1.89-1.08-2.79-1.61,0,0,0,0,0,0" style="fill:#fff"></path> <path d="M423.19,212.14a8.81,8.81,0,0,0,1.27-4.74,3.73,3.73,0,0,0-.79-2,5.77,5.77,0,0,0-2.21-2.06,4.27,4.27,0,0,0-1.37-.39c-.51-.06-1.14-.09-1.7-.1a6.79,6.79,0,0,0-2.78.69,7.5,7.5,0,0,0-4.1,3.35,6.56,6.56,0,0,0-.64,2.52,5.38,5.38,0,0,0,1,3.42,13,13,0,0,0,3.63,3.47c.33.25.62.45,1,.68a2,2,0,0,0,2.71-.24c.58-.49,1.15-1,1.71-1.55a4.21,4.21,0,0,0,.43-.61c.12-.18.22-.47.38-.58a4.94,4.94,0,0,0,1.53-1.87" style="fill:#fff"></path> <path d="M228.88,276.54a14.8,14.8,0,0,0,2.93-6,25.74,25.74,0,0,0,.67-8.07,30.35,30.35,0,0,0-1.11-5.68.46.46,0,0,0-.74-.28,9.45,9.45,0,0,0-.76.66,10.35,10.35,0,0,1-3.83,2.55,8.46,8.46,0,0,0-1.09.42,9.77,9.77,0,0,1-6.75.57c-.58-.15-.67-.08-.75.53a10.33,10.33,0,0,1-1.13,3.84l-.11.19c3.54,4.14,7.34,8.26,11.24,12.37a5.61,5.61,0,0,0,1.43-1.14" style="fill:#fff"></path> <path d="M226.56,278.27c-2.25.63-4.52,1.31-6.81,1.88a26.36,26.36,0,0,1-7.13,1c-1,0-2.07-.16-3.11-.26a1.38,1.38,0,0,1-1.29-1.32,12.73,12.73,0,0,0-1.39-4.28c-.43-.74-.24-1.1.5-1.61,1.8-1.24,3.62-2.44,5.34-3.77a14.75,14.75,0,0,0,3.54-4.56c-.27-.31-.53-.63-.79-.94a24.57,24.57,0,0,1-1.47,2.46,10.66,10.66,0,0,1-3,3.22c-1.73,1.2-3.49,2.35-5.24,3.51-.87.57-.89.84-.38,1.77a17.62,17.62,0,0,1,1.2,2.75c.32.93.51,1.91.74,2.86a.89.89,0,0,0,.86.75c.52,0,1,.1,1.56.11a33.4,33.4,0,0,0,4.9,0,74.18,74.18,0,0,0,7.34-1.41,41.52,41.52,0,0,0,5.23-1.6,8.71,8.71,0,0,0,.94-.42c-.23-.23-.45-.47-.67-.71-.3.19-.6.38-.89.59"></path> <path d="M216.21,265.31a14.6,14.6,0,0,1-3.54,4.55c-1.72,1.34-3.54,2.54-5.34,3.78-.74.51-.93.87-.5,1.61a12.73,12.73,0,0,1,1.39,4.28,1.38,1.38,0,0,0,1.29,1.32c1,.1,2.08.24,3.11.26a26.36,26.36,0,0,0,7.13-1c2.29-.57,4.56-1.26,6.81-1.88.29-.21.59-.4.89-.59-3.9-4.11-7.7-8.23-11.24-12.37" style="fill:#fff"></path> <path d="M233.47,252.54a1.3,1.3,0,0,0,.11-.84c-.32-1-.71-2-1.15-3.25a29.37,29.37,0,0,0-1.8-2.78,30.21,30.21,0,0,0-5.3-5.42,2.23,2.23,0,0,0-2-.47,35.13,35.13,0,0,0-5.63,1.41,1,1,0,0,1-.76-.11,31.6,31.6,0,0,0-8.05-3.55,20.44,20.44,0,0,0-6-.64,19.18,19.18,0,0,0-8.13,1.78,43.07,43.07,0,0,0-7.27,5.08c-.46.37-.44.84-.09,1.4.65,1,1.32,2,1.89,3.09,1.15,2.17,2.25,4.38,3.36,6.57a5.73,5.73,0,0,0,.26.73c.13.2.36.48.55.48a2.78,2.78,0,0,0,2-.58A15.85,15.85,0,0,1,204.4,252a8.13,8.13,0,0,1,4.83.86,1.51,1.51,0,0,0,.7.17,1.78,1.78,0,0,1,1.69,1.43,7.91,7.91,0,0,0,4,5.11c.29.14.69.55.66.79a15.42,15.42,0,0,1-.68,3.53c-.06.16-.14.32-.21.48.26.32.52.63.79.94l.11-.19a10.33,10.33,0,0,0,1.13-3.84c.08-.61.17-.68.75-.53a9.77,9.77,0,0,0,6.75-.57,8.46,8.46,0,0,1,1.09-.42,10.35,10.35,0,0,0,3.83-2.55,9.45,9.45,0,0,1,.76-.66.46.46,0,0,1,.74.28,29.55,29.55,0,0,1,1.1,5.68,25.45,25.45,0,0,1-.67,8.07,14.66,14.66,0,0,1-2.92,6,5.61,5.61,0,0,1-1.43,1.14c.22.24.44.48.67.71a7.12,7.12,0,0,0,1.84-1.28,11.65,11.65,0,0,0,2.71-4.65,26.09,26.09,0,0,0-.19-16.73,1.8,1.8,0,0,1,.18-1.79,9.27,9.27,0,0,0,.81-1.4m-21.61-4.92a7.23,7.23,0,0,0-.5,2.94c0,1.05-.34,1.35-1.32,1a12.85,12.85,0,0,0-6.57-.21,24.73,24.73,0,0,0-8.08,2.84c-.75.43-1,.36-1.38-.4-.55-1.08-1-2.19-1.56-3.28l0,0c-1-1.75-1.91-3.5-2.89-5.24-.58-1-.57-1.46.59-2.31,1.79-1.29,3.64-2.52,5.52-3.67a13.13,13.13,0,0,1,5.94-1.56,18.8,18.8,0,0,1,8.36,1.06c2,.75,3.82,1.75,5.71,2.66.58.28.57.52.09.94a13.82,13.82,0,0,0-3.95,5.25m17.46,4.94c-.46.73-.89,1.46-1.35,2.18a3.19,3.19,0,0,1-.56.54c-.17.16-.44.28-.53.48a3.32,3.32,0,0,1-2.18,1.61,10.07,10.07,0,0,1-5.75,1,4.66,4.66,0,0,1-2.28-1.07,6.69,6.69,0,0,1-2.21-2.7,5.2,5.2,0,0,1-.3-1.57c0-.65.05-1.3.05-1.95a7.62,7.62,0,0,1,1-3.15,10.87,10.87,0,0,1,4-4.8,8.22,8.22,0,0,1,2.46-1.14,4,4,0,0,1,3.48,1.17,16.05,16.05,0,0,1,3.56,4.74c.24.4.44.82.69,1.22a3,3,0,0,1-.08,3.46"></path> <path d="M192.49,250.49c-1-1.75-1.91-3.5-2.89-5.24-.58-1-.57-1.46.59-2.31,1.79-1.29,3.64-2.52,5.52-3.67a13.13,13.13,0,0,1,5.94-1.56,18.66,18.66,0,0,1,8.36,1.06c2,.75,3.82,1.75,5.71,2.66.58.28.57.52.09.94a13.82,13.82,0,0,0-3.95,5.25,7.23,7.23,0,0,0-.5,2.94c0,1.05-.34,1.35-1.32,1a12.85,12.85,0,0,0-6.57-.21,24.73,24.73,0,0,0-8.08,2.84c-.75.43-1,.36-1.38-.4-.55-1.08-1-2.19-1.56-3.28l0,0" style="fill:#fff"></path> <path d="M224.7,257.37a10.07,10.07,0,0,1-5.75,1,4.66,4.66,0,0,1-2.28-1.07,6.69,6.69,0,0,1-2.21-2.7,5.2,5.2,0,0,1-.3-1.57c0-.65.05-1.3.05-1.95a7.62,7.62,0,0,1,1-3.15,10.87,10.87,0,0,1,4-4.8,7.9,7.9,0,0,1,2.47-1.13,4,4,0,0,1,3.47,1.16,16.05,16.05,0,0,1,3.56,4.74c.24.4.44.82.69,1.22a3,3,0,0,1-.08,3.46c-.46.73-.89,1.46-1.35,2.18a2.88,2.88,0,0,1-.56.54c-.17.16-.44.28-.53.48a3.32,3.32,0,0,1-2.18,1.61" style="fill:#fff"></path> <path d="M425.33,161.43s-2.8-2-3.61-.69,1.61,6.29,1.61,6.29" style="fill:none;stroke:#000;stroke-linecap:round;stroke-miterlimit:10;stroke-width:1.3849999904632568px"></path> <path d="M420.8,170.74s-6.57-2-7.89,0a3,3,0,0,0-.24,2.1" style="fill:none;stroke:#000;stroke-linecap:round;stroke-miterlimit:10;stroke-width:1.3849999904632568px"></path> <path d="M420,183.49a7.24,7.24,0,0,1,2.16-2.54,7.37,7.37,0,0,1,2.63-.55" style="fill:none;stroke:#000;stroke-linecap:round;stroke-miterlimit:10;stroke-width:1.3849999904632568px"></path> <path d="M426.81,193a6.38,6.38,0,0,1,.3-3.48,7.47,7.47,0,0,1,2.62-2.35" style="fill:none;stroke:#000;stroke-linecap:round;stroke-miterlimit:10;stroke-width:1.3849999904632568px"></path> <path d="M441.7,196.84s-2.09-.39-2.46-1.47a11.3,11.3,0,0,1,0-3.53" style="fill:none;stroke:#000;stroke-linecap:round;stroke-miterlimit:10;stroke-width:1.3849999904632568px"></path> <path d="M455.44,181a3.86,3.86,0,0,0-2.4-1.77" style="fill:none;stroke:#000;stroke-linecap:round;stroke-miterlimit:10;stroke-width:1.3849999904632568px"></path> <path d="M420.58,169.74c-1.06,2.85.84,6.2,4.24,7.47s7,0,8.1-2.87-.84-6.19-4.25-7.46-7,0-8.09,2.86" style="fill:#131313"></path> <path d="M424.82,177.2a5.58,5.58,0,0,0,1,.29,6.44,6.44,0,0,1-3.72-8.13,6.25,6.25,0,0,1,2-2.69,5.14,5.14,0,0,0-3.53,3.06c-1.05,2.86.84,6.2,4.25,7.47"></path> <path d="M426.3,170c-4.25,5.94-2,14.79,4.93,19.78S447.31,194,451.56,188s2-14.79-4.94-19.78S430.54,164,426.3,170" style="fill:#e73438"></path> <path d="M431.23,189.76c7,5,16.08,4.22,20.32-1.71a9.1,9.1,0,0,0,.94-1.59c-4.58,4.74-12.8,5-19.21.44s-8.77-12.38-5.88-18.22a9.9,9.9,0,0,0-1.11,1.29c-4.24,5.95-2,14.81,4.94,19.79" style="fill:#e30a13"></path> <path d="M427,169.11c1.82-.27,5.75,0,12.19,4.87A27.87,27.87,0,0,1,449.72,190a9.31,9.31,0,0,0,1.47-1.54c-.88-2.71-4-10.56-11.19-15.25-6.43-4.18-10.43-4.94-12.1-5.05a6.46,6.46,0,0,0-.9.91"></path> <path d="M435.05,168.08a1.81,1.81,0,1,0,1.72-1.89,1.8,1.8,0,0,0-1.72,1.89"></path> <path d="M442.41,170.9a1.8,1.8,0,1,0,1.72-1.88,1.8,1.8,0,0,0-1.72,1.88"></path> <path d="M447.44,177.71a1.8,1.8,0,1,0,1.71-1.88,1.79,1.79,0,0,0-1.71,1.88"></path> <path d="M435.52,180.33a1.81,1.81,0,1,0,1.72-1.89,1.8,1.8,0,0,0-1.72,1.89"></path> <path d="M428,176.47a1.8,1.8,0,1,0,1.71-1.89,1.79,1.79,0,0,0-1.71,1.89"></path> <path d="M439.22,187.12a1.81,1.81,0,1,0,1.72-1.89,1.82,1.82,0,0,0-1.72,1.89"></path> <path d="M139.41,8.5s3.14-1.33,3.67.07-2.86,5.83-2.86,5.83" style="fill:none;stroke:#000;stroke-linecap:round;stroke-miterlimit:10;stroke-width:1.3849999904632568px"></path> <path d="M141.93,18.54s6.83-.56,7.73,1.6a3,3,0,0,1-.2,2.11" style="fill:none;stroke:#000;stroke-linecap:round;stroke-miterlimit:10;stroke-width:1.3849999904632568px"></path> <path d="M140.09,31.19a7.31,7.31,0,0,0-1.6-2.93A7.43,7.43,0,0,0,136,27.18" style="fill:none;stroke:#000;stroke-linecap:round;stroke-miterlimit:10;stroke-width:1.3849999904632568px"></path> <path d="M131.47,39.06a6.27,6.27,0,0,0,.42-3.46,7.54,7.54,0,0,0-2.08-2.85" style="fill:none;stroke:#000;stroke-linecap:round;stroke-miterlimit:10;stroke-width:1.3849999904632568px"></path> <path d="M116.1,39.79s2.13,0,2.71-.93a11.51,11.51,0,0,0,.76-3.46" style="fill:none;stroke:#000;stroke-linecap:round;stroke-miterlimit:10;stroke-width:1.3849999904632568px"></path> <path d="M105.91,21.47a3.84,3.84,0,0,1,2.71-1.23" style="fill:none;stroke:#000;stroke-linecap:round;stroke-miterlimit:10;stroke-width:1.3849999904632568px"></path> <path d="M142.35,17.62c.45,3-2.1,5.88-5.69,6.43s-6.88-1.46-7.33-4.47,2.09-5.89,5.69-6.43,6.87,1.46,7.33,4.47" style="fill:#131313"></path> <path d="M136.66,24a5.42,5.42,0,0,1-1,.08,6.45,6.45,0,0,0,5.31-7.19,6.24,6.24,0,0,0-1.39-3,5.1,5.1,0,0,1,2.82,3.73c.45,3-2.09,5.89-5.69,6.43"></path> <path d="M136.71,16.67c2.93,6.68-1.06,14.9-8.91,18.35s-16.6.82-19.53-5.87,1-14.9,8.9-18.35,16.6-.82,19.54,5.87" style="fill:#e73438"></path> <path d="M127.8,35c-7.85,3.44-16.59.82-19.53-5.85a8.59,8.59,0,0,1-.59-1.75c3.51,5.58,11.49,7.54,18.71,4.38s11.13-10.31,9.5-16.62a9,9,0,0,1,.82,1.5c2.93,6.69-1.06,14.9-8.91,18.34" style="fill:#e30a13"></path> <path d="M136.19,15.68c-1.72-.64-5.62-1.17-12.93,2.25a28,28,0,0,0-13.61,13.55,9.59,9.59,0,0,1-1.12-1.81c1.42-2.46,6.09-9.51,14.09-12.62,7.15-2.77,11.23-2.68,12.88-2.45a6.39,6.39,0,0,1,.69,1.08"></path> <path d="M128.53,13a1.8,1.8,0,1,1-1.29-2.2,1.81,1.81,0,0,1,1.29,2.2"></path> <path d="M120.74,14.26a1.8,1.8,0,1,1-1.29-2.2,1.8,1.8,0,0,1,1.29,2.2"></path> <path d="M114.43,19.89a1.81,1.81,0,1,1-1.3-2.2,1.81,1.81,0,0,1,1.3,2.2"></path> <path d="M125.55,24.9a1.81,1.81,0,1,1-1.3-2.2,1.81,1.81,0,0,1,1.3,2.2"></path> <path d="M133.67,22.66a1.81,1.81,0,1,1-1.3-2.2,1.81,1.81,0,0,1,1.3,2.2"></path> <path d="M120.53,30.78a1.8,1.8,0,1,1-1.29-2.2,1.81,1.81,0,0,1,1.29,2.2"></path> </g> </g> </svg> 