<?xml version="1.0" encoding="UTF-8"?> <svg xmlns="http://www.w3.org/2000/svg" viewBox="0 0 395.73 211.69"> <title>Ресурс 4прогноз</title> <g id="Слой_2" data-name="Слой 2"> <g id="Слой_1-2" data-name="Слой 1"> <path d="M169.74,167.61a5.92,5.92,0,0,1,1.32-.1,2.45,2.45,0,0,0,2.53-1.1c.4-.7.21-2.53-.48-3a2.17,2.17,0,0,0-1.76-.23,13.55,13.55,0,0,0-2.69,1.85,1,1,0,0,0,0,1.56,3.27,3.27,0,0,1,.47,1.09,6,6,0,0,0-1,.41,5,5,0,0,0-1.34,1,3.32,3.32,0,0,0-.5,1.37c-.36,1.71.4,2.7,2.17,2.85q1.49.14,3,.18a1.83,1.83,0,0,0,2.06-2c0-.14,0-.29,0-.43-.16-2.51-.43-2.86-3-3-.22,0-.45,0-.67-.08,0-.15,0-.29,0-.44" style="fill:#fff"></path> <path d="M165.47,182.58c0,.54,0,1,0,1.46a2.16,2.16,0,0,0,2.37,2.16c.85,0,1.69.09,2.54.16,1.42.14,2.1-.26,2.38-1.63s.66-2.74-.07-4a2.49,2.49,0,0,0-1.41-1.18,18.68,18.68,0,0,0-3.59-.22,2.05,2.05,0,0,0-2.07,1.78c-.1.51-.11,1-.16,1.5" style="fill:#fff"></path> <path d="M181.87,183.21a9.39,9.39,0,0,0-.35-1.82,1.69,1.69,0,0,0-1-1,27,27,0,0,0-4.31-.3,1.43,1.43,0,0,0-1,1c-.15,1.41-.79,2.76-.37,4.26.17.58.31,1,.89,1.12a17.15,17.15,0,0,0,3.26.32c1.92-.07,2.75-1.09,2.86-3.54" style="fill:#fff"></path> <path d="M167.63,193.19c.85-.06,1.7-.09,2.54-.18a1.88,1.88,0,0,0,1.89-2c0-.35.11-.7.14-1.05a2.11,2.11,0,0,0-2.3-2.56c-.81,0-1.62-.12-2.43-.11-1.28,0-1.88.64-2,2-.05.38-.11.77-.17,1.15-.28,1.79.48,3,2.37,2.77" style="fill:#fff"></path> <path d="M179.39,156.66a16.47,16.47,0,0,0,2.83-.55c1.29-.48,1.09-1.7,1-2.74a2,2,0,0,0-1.64-2c-1.07-.24-2.15-.39-3.23-.55a1.38,1.38,0,0,0-1.69,1.06,1.76,1.76,0,0,1-.09.2c-1.17,2.86-.36,4.13,2.81,4.54" style="fill:#fff"></path> <path d="M170.65,150c-2.05,0-2.81.53-3.17,2.3a2.17,2.17,0,0,0,1.56,2.82,14.23,14.23,0,0,0,3.45.42,1.79,1.79,0,0,0,1.85-1.89c.18-2.73-.73-3.63-3.69-3.65" style="fill:#fff"></path> <path d="M178.48,174c.43,0,.86.08,1.28.06,1.91-.12,2.35-.56,2.43-2.34a2.39,2.39,0,0,0-2.28-2.75,15.31,15.31,0,0,0-3.16-.2c-1.2.09-1.53.66-1.61,1.84-.19,2.67.77,3.3,3.34,3.39" style="fill:#fff"></path> <path d="M177.85,187.83l-.43,0a3,3,0,0,0-3,4.36,1.33,1.33,0,0,0,.33.52c.92.78,5.08.69,5.57-.32a7,7,0,0,0,.36-3.36c-.07-1-1.06-1.09-1.9-1.13l-1,0h0" style="fill:#fff"></path> <path d="M170.23,179a13.42,13.42,0,0,0,2.35-.85,1.8,1.8,0,0,0,.54-2.53,3,3,0,0,0-1.84-1.13,17.66,17.66,0,0,0-3.26-.31,2,2,0,0,0-2.09,1.59,1.56,1.56,0,0,0,1,2.06c1,.4,2.1.75,3.33,1.17" style="fill:#fff"></path> <path d="M187.82,157.17c2.36,0,3.22-.48,3.49-2.63A2.62,2.62,0,0,0,189,152c-.35,0-.7,0-1.06,0-1.91,0-2.51.46-2.89,2.39a2.17,2.17,0,0,0,1.59,2.51c.44.12.9.18,1.2.24" style="fill:#fff"></path> <path d="M187.87,168.59c.73.06,1.67.14,2-.87a3.82,3.82,0,0,0-.34-3.74c-.4-.51-1.46-.55-2.24-.68a7.53,7.53,0,0,0-1.56.1,1.35,1.35,0,0,0-1.37,1.17c-.71,2.53,1.3,4.2,3.49,4" style="fill:#fff"></path> <path d="M194.37,175.41c2.35.15,3.54-1.33,2.71-3.46a2.15,2.15,0,0,0-1.22-1.13,6.67,6.67,0,0,0-2.88-.37c-1.25.22-1.8,1.52-1.67,3.15.08.9.88,1.58,2.1,1.76.32,0,.64,0,1,0" style="fill:#fff"></path> <path d="M183.2,184.32c-.12,1-.12,1.87.8,2.3,1.23.59,2.55,1,3.83.19a1.56,1.56,0,0,0,.44-1.14,6.52,6.52,0,0,0-1.48-4.08,2.23,2.23,0,0,0-2-.56c-.56.17-1,1-1.31,1.61a5.87,5.87,0,0,0-.29,1.68" style="fill:#fff"></path> <path d="M181.79,177.53c.05-1.58-.54-2.26-2.08-2.39-.74-.06-1.49,0-2.22-.18a1.77,1.77,0,0,0-2.31,1.32c-.43,1.24-.08,2.35,1.22,2.63a24.94,24.94,0,0,0,3.77.5c1,.07,1.59-.73,1.62-1.88" style="fill:#fff"></path> <path d="M192,166.66c-.13,1.81.79,2.52,3.51,2.73a2,2,0,0,0,2-2.18c0-2.39-.33-3-2.84-3.25-1.56-.19-2.8.46-2.72,2.7" style="fill:#fff"></path> <path d="M159.55,183.06a5.55,5.55,0,0,0,.47,1.83,2,2,0,0,0,3.76-.53,6.15,6.15,0,0,0,0-4.25c-.35-.75-.8-1.41-1.61-1.17a3.18,3.18,0,0,0-1.76,1.32,12,12,0,0,0-.87,2.8" style="fill:#fff"></path> <path d="M201.87,165c-1.73-.09-1.93.05-2.27,1.77a9.15,9.15,0,0,0-.13,1.16,1.88,1.88,0,0,0,2.07,2.11,4.45,4.45,0,0,1,1.37.06c1.05.33,1.57-.15,1.77-1.07a5.17,5.17,0,0,0,.23-2.18,2.56,2.56,0,0,0-1.19-1.45,5.69,5.69,0,0,0-1.85-.4" style="fill:#fff"></path> <path d="M207.4,188.33c1.72.15,2.23-.22,2.52-1.92.12-.74.43-1.44,0-2.23a2.34,2.34,0,0,0-2.53-1.44,2.58,2.58,0,0,0-2.06,2,11.48,11.48,0,0,0-.19,1.15c-.19,1.53.51,2.28,2.28,2.43" style="fill:#fff"></path> <path d="M204.33,173.68c0-1.91-.06-2-1.93-2.28a6.31,6.31,0,0,0-1.37-.08c-1.3.08-1.82.57-2,1.78-.22,1.81.07,2.41,1.44,2.85a5.46,5.46,0,0,0,1.14.21c2.16.14,2.68-.35,2.69-2.48" style="fill:#fff"></path> <path d="M196,152.88c-2.37-.54-3.31,1.84-2.77,3.64a1.08,1.08,0,0,0,.13.29c.31.48,3.24,1.22,3.89,1a2.41,2.41,0,0,0,1.19-2.81c-.29-1.73-.58-2-2.44-2.11" style="fill:#fff"></path> <path d="M203.31,158.39c1.05.07,2.06.1,2.57-1.13.87-2.06-.06-3.56-2.32-3.55-1,0-2.08-.18-2.68,1.14a2.33,2.33,0,0,0,2,3.52l.43,0" style="fill:#fff"></path> <path d="M188,191c.13-2.28-1.21-3.38-3.46-2.83a1.34,1.34,0,0,0-.3.12c-.93.44-1.55,2.19-1.28,3.6.12.63,1.26,1.33,2.23,1.35.21,0,.42,0,.63-.05,2.07-.12,2.07-.12,2.18-2.19" style="fill:#fff"></path> <path d="M207.47,162.56c0,1.58,1.07,2.51,2.95,2.49,1.57,0,2.12-1.07,2.21-2.66a2.13,2.13,0,0,0-2.06-2.44c-2.29,0-3.08.67-3.1,2.61" style="fill:#fff"></path> <path d="M190.24,160.82c0-.12,0-.26,0-.4,0-1.66-.33-2-2-2.24-.42-.05-.85,0-1.27,0-2.29-.14-2.38.9-2.46,3a1.27,1.27,0,0,0,.83.9,26.47,26.47,0,0,0,4.07.24c.8,0,.94-.74.8-1.47" style="fill:#fff"></path> <path d="M202.54,164.06c1.84.06,2.94-.6,2.89-1.66-.09-1.8-.08-2.84-2.23-3-1.95-.15-2.87.36-3.32,1.94a1.45,1.45,0,0,0,.87,2c.71.28,1.42.59,1.79.74" style="fill:#fff"></path> <path d="M153.78,190.5c0,.35,0,.71,0,1.06,0,1.15.33,1.57,1.3,1.66a1.77,1.77,0,0,0,2.08-1.4c.17-1.08.3-2.16.47-3.24a1.36,1.36,0,0,0-.93-1.67c-1.24-.41-2.3-.15-2.58.7a22.21,22.21,0,0,0-.53,2.86l.18,0" style="fill:#fff"></path> <path d="M193,181a18.6,18.6,0,0,1,1.93-.45c1.49-.23,1.88-.6,1.88-1.91s-.54-1.88-1.92-2l-1.26-.15a2.07,2.07,0,0,0-2.65,2,1.42,1.42,0,0,0,1.06,1.78,4.3,4.3,0,0,1,1,.8Z" style="fill:#fff"></path> <path d="M163,190.52c.05-.3.14-.75.22-1.2a1.76,1.76,0,0,0-1.42-2.29,2.13,2.13,0,0,0-2.31,1.58,13.58,13.58,0,0,0-.17,2.63c0,1.23.67,1.87,1.7,1.86a1.92,1.92,0,0,0,2-2c0-.14,0-.28,0-.58" style="fill:#fff"></path> <path d="M195.56,158.8c-2.08-.16-3,.39-3.21,1.87a1.53,1.53,0,0,0,1.29,2,7.54,7.54,0,0,0,2.31.23c.64-.06,1.79-.39,1.8-.63a8.68,8.68,0,0,0-.51-3.15c-.1-.27-1.09-.21-1.68-.3" style="fill:#fff"></path> <path d="M163.7,154.57c1.29,0,2.15-.91,2.2-2.43.06-2.26-.54-2.32-2.35-2.65-1.24-.23-2.22.95-2.27,2.48a2.37,2.37,0,0,0,2.42,2.6" style="fill:#fff"></path> <path d="M178.07,157a4.71,4.71,0,0,0-1.44.7c-.14.14.11.88.37,1.19a14,14,0,0,0,1.72,1.53c.29.24.68.38,1,.65a1.88,1.88,0,0,0,2.35.26c.81-.43.8-1.2.69-1.95a1.83,1.83,0,0,0-1.53-1.8c-1-.17-2-.27-3.05-.4a1.34,1.34,0,0,0-.07-.18" style="fill:#fff"></path> <path d="M192.69,189.38c-1.86-.16-2.7.38-2.8,1.8s.76,2.25,2.46,2.43,2.7-.53,2.84-2c.17-1.69-.25-2.07-2.5-2.26" style="fill:#fff"></path> <path d="M197.58,192c0,1.27.28,1.58,1.54,1.73a2.34,2.34,0,0,0,1,0c.66-.22,1.54-.4,1.86-.9a2.82,2.82,0,0,0,0-3.09,1.12,1.12,0,0,0-.72-.37,7.43,7.43,0,0,0-1.16,0c-1.95,0-2.59.66-2.55,2.63" style="fill:#fff"></path> <path d="M210.58,154.44a2.32,2.32,0,0,0-2.46,2.26c-.06,1.42.95,2.22,2.94,2.33.92.06,2-1.08,2.05-2.23.12-1.47-.74-2.27-2.53-2.36" style="fill:#fff"></path> <path d="M164.75,163.38c.08-1.29-.62-1.93-2.25-2-1.25-.08-2.1.92-2.2,2.58-.05.83,1.15,2.58,1.79,2.61,1.48.07,2.52-1.17,2.66-3.15" style="fill:#fff"></path> <path d="M154.84,169.66c-.09,1.51.4,2.38,1.47,2.8a1.67,1.67,0,0,0,2.09-.55,2.59,2.59,0,0,0,.47-1.36,11.23,11.23,0,0,0-.24-2.3c-.15-.83-.84-.94-1.54-1a1.69,1.69,0,0,0-1.89,1,7.26,7.26,0,0,0-.36,1.38" style="fill:#fff"></path> <path d="M212.33,186.17c0,2,.67,2.61,2.54,2.56a2.08,2.08,0,0,0,1.76-2.12c0-1.83-.95-2.86-2.46-2.79a2.05,2.05,0,0,0-1.84,2.35" style="fill:#fff"></path> <path d="M209.26,191.62c.29-1.49-.4-2-2.11-2.17a2.19,2.19,0,0,0-2.27,2.15c-.08,1.65.35,2.32,1.56,2.35,1.95.06,2.92-.4,2.82-2.33" style="fill:#fff"></path> <path d="M160.74,157.94a2.29,2.29,0,0,0,2.36,2.44,1.91,1.91,0,0,0,2-1.5c.09-2.16-.54-3.19-2-3.25a2.3,2.3,0,0,0-2.36,2.31" style="fill:#fff"></path> <path d="M169.86,156.23c-1.38-.11-2.45.28-2.92,1.62a2.15,2.15,0,0,0,0,1.58,1.38,1.38,0,0,0,1.29.4,42.6,42.6,0,0,0,4.39-1.92c.61-.3.42-.79-.16-1-.86-.28-1.76-.48-2.64-.71" style="fill:#fff"></path> <path d="M202,177.27c-.76.06-1.22.12-1.67.11-1.09,0-1.53.48-1.66,1.59a1.75,1.75,0,0,0,1.3,2.08,2.11,2.11,0,0,0,2.72-.77,3.87,3.87,0,0,0,.42-2.35c0-.29-.85-.52-1.11-.66" style="fill:#fff"></path> <path d="M215,178.19a2.55,2.55,0,0,0-2.53,2.05c-.13,1,1.3,2.25,2.68,2.42a1.8,1.8,0,0,0,1.82-1.57,3.8,3.8,0,0,0-.53-1.88c-.31-.46-.95-.69-1.44-1" style="fill:#fff"></path> <path d="M209.06,165.61a6.26,6.26,0,0,0-1.53,1,2.67,2.67,0,0,0-.48,2.8,1.56,1.56,0,0,0,2.31.44,5.51,5.51,0,0,0,1.36-1c.39-.45,1-1.32.87-1.5a7,7,0,0,0-1.85-1.4c-.13-.08-.35,0-.52,0s-.11-.18-.16-.27" style="fill:#fff"></path> <path d="M177.82,168a4.26,4.26,0,0,0,1-.05,1.21,1.21,0,0,0,.67-2.16c-.52-.57-1.14-1-1.69-1.58A1.31,1.31,0,0,0,176,164a1.76,1.76,0,0,0-.94,1.76,2.72,2.72,0,0,0,2.74,2.3" style="fill:#fff"></path> <path d="M155.1,163.41a1.83,1.83,0,0,0,1.2,2,5.57,5.57,0,0,0,2.11,0c.09,0,.24-.12.24-.18a13.15,13.15,0,0,0,0-3.26c-.18-.81-1.1-1-1.95-.83a2.34,2.34,0,0,0-1.58,2.32" style="fill:#fff"></path> <path d="M213.62,190c-1.17,0-2,1-2.06,2.69,0,.94.78,1.18,1.54,1.24,1.94.14,3-.59,3.07-2.07.06-1.1-.79-1.5-2.55-1.86" style="fill:#fff"></path> <path d="M208.42,181.93c1,.08,1.86-.28,2-1.18a3.89,3.89,0,0,0-.45-2.58c-.46-.71-1.41-.41-2.1.05a2.21,2.21,0,0,0-.73.76c-.3.59-.88,1.41-.68,1.8.31.61,1.17.95,1.8,1.4l.15-.25" style="fill:#fff"></path> <path d="M156.08,151.67a7.41,7.41,0,0,0,1.43,1.77c.3.23,1.19-.05,1.61-.37a1.8,1.8,0,0,0,.54-2.09c-.48-1.78-1.06-2.34-2.25-1.84-.92.4-1.16,1.26-1.33,2.53" style="fill:#fff"></path> <path d="M217,175.12c-.06-1.56-.63-2.27-1.77-2.23a3.07,3.07,0,0,0-2.1,2.4c0,.85,1.24,1.69,2.4,1.64s1.53-.54,1.47-1.81" style="fill:#fff"></path> <path d="M159.26,157.72c.08-1.68-.56-2.57-1.9-2.64-.73,0-1.52,1.07-1.57,2.21s.92,2.27,1.7,2.27a1.87,1.87,0,0,0,1.77-1.84" style="fill:#fff"></path> <path d="M189.8,172.47a17.58,17.58,0,0,0-.49-1.93c-.33-.92-1.11-1-1.93-.83s-.89.78-.8,1.4a7.59,7.59,0,0,0,.63,2.53c.22.4,1,.58,1.61.62.23,0,.56-.56.75-.92a2.55,2.55,0,0,0,.11-.84l.12,0" style="fill:#fff"></path> <path d="M215.15,157.15c0,1.17.64,2.18,1.5,2.23a2.06,2.06,0,0,0,1.83-2c.07-1.24-.58-2.4-1.35-2.41a2.07,2.07,0,0,0-2,2.18" style="fill:#fff"></path> <path d="M214.42,163.53a1.69,1.69,0,0,0,1.75,1.8c.74,0,1.51-.93,1.58-2,.08-1.3-.52-2.22-1.49-2.29-1.14-.08-1.77.75-1.84,2.44" style="fill:#fff"></path> <path d="M154.64,175.81c.71.92,1.46,1.86,2.86,1.22a1.41,1.41,0,0,0,.83-1.84c-.25-.62-.82-1.48-1.34-1.55-1.35-.19-2.07.77-2.35,2.17" style="fill:#fff"></path> <path d="M193,181.06c-1.37.56-1.61,1.57-.41,2.47a4.38,4.38,0,0,0,2.24.66c.62,0,1.45-.32,1.24-1.1a3,3,0,0,0-1.31-1.43A7.71,7.71,0,0,0,193,181l0,0" style="fill:#fff"></path> <path d="M217.34,170c-.22-.2-.55-.72-1-.78-.77-.11-1.62.17-1.61,1.09,0,.39.66,1,1.11,1.12.68.15,1.28-.25,1.45-1.43" style="fill:#fff"></path> <path d="M161.38,167.46a5.58,5.58,0,0,0-.88,1.85c0,.36.68.79,1.07,1.18a5.55,5.55,0,0,0,.8-1.57c.06-.44-.3-.94-.47-1.42l-.52,0" style="fill:#fff"></path> <path d="M183.25,178.09c.63.64,1,1.21,1.46,1.4.24.09.95-.46,1.09-.85.22-.6-.64-1.74-1.1-1.59a6.88,6.88,0,0,0-1.45,1" style="fill:#fff"></path> <path d="M201.34,188.47a10,10,0,0,0,1.42-1.45c.06-.09-.72-1-.82-.91a10.55,10.55,0,0,0-1.59,1.18c.26.31.52.63,1,1.18" style="fill:#fff"></path> <path d="M163.44,175.48c-.47.56-.87.86-.95,1.22-.05.19.56.77.72.71a1.93,1.93,0,0,0,1-.83c.07-.11-.37-.55-.77-1.1" style="fill:#fff"></path> <path d="M204.11,37.24q24,1.13,48,2.24c3.11.14,6.53-1,8.72,2.46.21.33.88.37,1.34.54,3.76,1.37,3.72,1.64,3.12,5.59-1,6.88-2.12,13.78-2.6,20.72-.74,10.68-.85,21.4-1.45,32.09-1.32,23.73-2.85,47.46-4.17,71.2-.57,10.36-.76,20.75-1.31,31.12-.19,3.72-3.23,6.1-7.11,6.19-10.6.24-21.2.53-31.81.75q-24.43.53-48.87,1c-10.09.18-20.24-.3-30.27.53-6.6.55-7.91-3.53-7-8.25a32.45,32.45,0,0,0,.9-6.09c0-16.29-.56-32.61,0-48.88.86-23.16,2.26-46.32,4.05-69.43,1-12.8,3.14-25.51,5-38.23.75-5.24,3.42-7,8.72-6.36,2,.22,3.91.43,5.87.52q24.42,1.19,48.86,2.31h0m49.15,27.33c.21-4.21.73-8.41,1.08-12.62.29-3.57,0-4-3.54-4.07-11-.36-22-.53-32.94-1.06-21.18-1-42.35-2.29-63.53-3.43-4.35-.23-4.81-.15-5.37,4.25-1.8,14.31-3.59,28.63-4.91,43-1.49,16.33-2.43,32.7-3.7,49.05-.43,5.56-1,11-.42,16.69.6,6.41-.19,12.94-.24,19.42a79.41,79.41,0,0,0,.48,10.58c.23,1.77,1.55,3.37,2.13,5.12a10.92,10.92,0,0,1,.59,4c-.13,2.6.54,4.19,3.53,4.07,8.32-.33,16.65-.67,25-.86,9.61-.22,19.23-.28,28.85-.4,14.53-.19,29.05-.43,43.58-.53,2.47,0,2.36-1.56,2.44-3.12.48-10.3.91-20.6,1.39-30.91q.94-20.44,1.92-40.9l.92,0c.91-19.42,1.79-38.85,2.76-58.27"></path> <path d="M250.5,122.84c.91-19.42,1.79-38.85,2.76-58.27.21-4.21.73-8.41,1.08-12.62.29-3.57,0-4-3.54-4.07-11-.36-22-.53-32.94-1.06-21.18-1-42.35-2.29-63.53-3.43-4.35-.23-4.81-.15-5.37,4.25-1.8,14.31-3.59,28.63-4.91,43-1.49,16.33-2.43,32.7-3.7,49.05-.43,5.56-1,11-.42,16.69.6,6.41-.19,12.94-.23,19.42a77.77,77.77,0,0,0,.47,10.58c.23,1.77,1.55,3.37,2.13,5.12a10.92,10.92,0,0,1,.59,4c-.13,2.6.54,4.19,3.53,4.08,8.32-.34,16.65-.68,25-.87,9.61-.22,19.23-.28,28.85-.4,14.53-.19,29.05-.43,43.58-.53,2.47,0,2.36-1.56,2.44-3.12.48-10.3.91-20.6,1.39-30.91q.94-20.44,1.92-40.9l.92,0" style="fill:#fff"></path> <path d="M160.39,186.71c-.34,1.75,0,2.37,1.82,2.47a20.49,20.49,0,0,0,3.46-.39c2.92-.34,5.83-.75,8.75-1,5.12-.42,10.25-.77,15.38-1.09,1.55-.1,3.1,0,4.65,0,5.32-.15,10.64-.33,16-.48,2.58-.08,5.17-.17,7.75-.18,1.15,0,2.31.17,3.46.23a3.17,3.17,0,0,0,1.27-.06c2.35-.91,4.34-.16,6.26,1.19,1.29.91,2.37.2,2.67-1.33.92-4.62-.13-9.19-.12-13.79,0-4.38-.4-8.77-.52-13.15-.07-2.72.09-5.44.09-8.16,0-2.3-.07-4.61-.16-6.91-.1-2.49-.88-3-3.27-2.35-3.83,1-7.63.79-11.47.74-3.05,0-6.09-.08-9.13-.17-1.33,0-2.66-.22-4-.3-1.87-.11-3.73-.17-5.6-.28-1.41-.08-2.82-.23-4.23-.26-1.23,0-2.47.13-3.71.1-3.19-.08-6.37-.21-9.55-.32-2-.06-4-.17-6.05-.18-2.32,0-4.65.13-7,0a2.46,2.46,0,0,1-1.44-.76l-4.05,1.84c0,.2,0,.42,0,.67-.18,3.21-.43,6.43-.52,9.64-.07,2.8,0,5.61.06,8.41,0,4.33.07,8.65,0,13,0,1.51-.33,3-.42,4.54-.15,2.57-.24,5.15-.35,7.73a4.6,4.6,0,0,1-.05.64m65.29-20.39c-1.15.13-2.46-.63-2.51-1.47a3.09,3.09,0,0,1,1.93-2.54c1.14-.12,1.75.55,1.92,2.1.14,1.26-.22,1.78-1.34,1.91m0-5.57c-.46-.07-1.15-.65-1.18-1-.07-.91.76-1.25,1.52-1.19.41,0,.77.53,1,.7-.09,1.19-.67,1.64-1.35,1.53m-2-7.73c0-1.69.53-2.56,1.67-2.56,1,0,1.63.88,1.64,2.18,0,1-.71,2-1.45,2.06a1.69,1.69,0,0,1-1.86-1.68m3.63-6.41a2.07,2.07,0,0,1-1.69,2.12c-.86,0-1.6-1-1.65-2.12a2.08,2.08,0,0,1,1.83-2.31c.76,0,1.49,1.06,1.51,2.31m.06,23.76a1.8,1.8,0,0,1-1.71,1.68c-1.39-.06-2.91-1.25-2.85-2.23a2.57,2.57,0,0,1,2.39-2.21,5.12,5.12,0,0,1,1.51.92,3.82,3.82,0,0,1,.66,1.84m-1.52,7.76c-1.87.18-2.54-.4-2.72-2.38a2.06,2.06,0,0,1,1.68-2.47c1.5-.18,2.48.79,2.64,2.61a2.06,2.06,0,0,1-1.6,2.24m-1.17,1.31c1.78.24,2.65.57,2.67,1.67,0,1.48-1,2.29-2.92,2.28-.77,0-1.57-.2-1.63-1.13-.09-1.67.71-2.8,1.88-2.82m-15.64-9.95c0-1.11.45-1.63,1.54-1.69.46,0,.91-.12,1.67-.22.26.12,1.1.29,1.14.57a3.82,3.82,0,0,1-.26,2.38,2.1,2.1,0,0,1-2.65.95,1.74,1.74,0,0,1-1.44-2M222,146.4a2.4,2.4,0,0,1-1.9,2.36c-2,0-3.05-.7-3.09-2.13a2.32,2.32,0,0,1,2.3-2.42c1.79,0,2.7.71,2.69,2.19m-2.13,8.41c-1.88.15-3-.71-3.11-2.28-.12-1.94.63-2.66,2.91-2.82a2.13,2.13,0,0,1,2.22,2.3c0,1.59-.46,2.67-2,2.8m.55,3.73a5.47,5.47,0,0,1-1.28,1.11,1.57,1.57,0,0,1-2.34-.28,2.67,2.67,0,0,1,.3-2.83,6.44,6.44,0,0,1,1.45-1.08l.18.26c.17,0,.39-.08.52,0a7.06,7.06,0,0,1,1.94,1.26c.15.18-.41,1.09-.77,1.56m.53,11.93c-.09.91-1,1.33-1.93,1.32,0,.09-.09.17-.13.26-.66-.41-1.54-.69-1.89-1.28-.23-.37.29-1.23.56-1.84a2.18,2.18,0,0,1,.67-.81c.66-.5,1.59-.87,2.1-.19a3.92,3.92,0,0,1,.62,2.54m-4.8,11.2a2.18,2.18,0,0,1,2.12-2.29c1.71,0,2.43.51,2.25,2,.23,1.91-.71,2.43-2.66,2.51-1.2.05-1.68-.59-1.71-2.24M216,176c0-.38.06-.77.11-1.16a2.6,2.6,0,0,1,1.92-2.15,2.36,2.36,0,0,1,2.63,1.27,3,3,0,0,1,.16,2.23c-.17,1.71-.65,2.12-2.38,2.08s-2.53-.73-2.44-2.27m-1.19-28.62c-.43,1.26-1.44,1.29-2.49,1.3h-.42a2.33,2.33,0,0,1-2.24-3.38c.51-1.35,1.6-1.24,2.6-1.32,2.25-.16,3.28,1.27,2.55,3.39m-2.87,7c-.38-.13-1.1-.39-1.83-.62a1.43,1.43,0,0,1-1-1.92c.33-1.61,1.22-2.18,3.17-2.16,2.16,0,2.22,1.05,2.43,2.84.12,1.06-.93,1.8-2.77,1.86m2.48,4.85c-.14.93-.63,1.44-1.7,1.18a4.87,4.87,0,0,0-1.37,0,1.87,1.87,0,0,1-2.2-2,7.64,7.64,0,0,1,.05-1.17c.22-1.74.41-1.89,2.14-1.92a6,6,0,0,1,1.88.27,2.62,2.62,0,0,1,1.28,1.37,5.1,5.1,0,0,1-.08,2.19m-2.55,7.28a4.49,4.49,0,0,1-1.16-.14c-1.4-.34-1.72-.91-1.63-2.74.07-1.22.56-1.74,1.85-1.91a6.28,6.28,0,0,1,1.37,0c1.88.15,2,.23,2.08,2.15.14,2.12-.35,2.64-2.51,2.65m1.86,10.76a10.93,10.93,0,0,1-1.32,1.54l-1.08-1.11a10.14,10.14,0,0,1,1.51-1.28c.1-.06.94.75.89.85m-2.47,2.49a6.48,6.48,0,0,1,1.16-.05,1.17,1.17,0,0,1,.74.32,2.82,2.82,0,0,1,.23,3.09c-.28.52-1.15.75-1.8,1a2.45,2.45,0,0,1-1,0c-1.26-.08-1.54-.36-1.65-1.63-.17-2,.42-2.66,2.37-2.8M199.4,152c.19.72.1,1.44-.7,1.52a25.13,25.13,0,0,1-4.07,0,1.27,1.27,0,0,1-.9-.84c-.06-2.09,0-3.12,2.26-3.14.42,0,.85-.1,1.26-.07,1.68.11,2,.44,2.14,2.09a2.74,2.74,0,0,1,0,.4m5.17-2.38c.59.06,1.58-.07,1.69.19a8.62,8.62,0,0,1,.73,3.11c0,.24-1.12.65-1.75.75a7.6,7.6,0,0,1-2.33-.08c-1.1-.19-1.48-.77-1.42-1.88.09-1.49,1-2.1,3.08-2.09m-.47,5.21c2.52.13,2.85.67,3.05,3.05a1.94,1.94,0,0,1-1.9,2.31c-2.73,0-3.69-.67-3.68-2.48-.24-2.24,1-3,2.53-2.88m2.1-6.32c-.63.27-3.61-.27-3.95-.72a1.51,1.51,0,0,1-.15-.28c-.66-1.76.11-4.2,2.51-3.82,1.88,0,2.17.23,2.59,1.94a2.43,2.43,0,0,1-1,2.88m-1.69,17.76c-.32,0-.64,0-1,0-1.23-.1-2.08-.72-2.21-1.61-.25-1.62.22-3,1.45-3.26a6.67,6.67,0,0,1,2.9.18,2.15,2.15,0,0,1,1.29,1c1,2.07-.11,3.62-2.47,3.63m1.1,8.73a4.41,4.41,0,0,1-2.29-.5c-1.25-.82-1.08-1.85.25-2.5a3.94,3.94,0,0,0-1-.72,1.43,1.43,0,0,1-1.17-1.72,2.08,2.08,0,0,1,2.51-2.16l1.27.06c1.38.08,2,.61,2.05,1.91s-.28,1.71-1.75,2c-.64.14-1.26.39-1.88.59a7.31,7.31,0,0,1,1.82.5,2.93,2.93,0,0,1,1.4,1.33c.26.76-.54,1.18-1.16,1.18m-4.5,7.31c0-1.42.81-2,2.68-2,2.25,0,2.7.38,2.65,2.09,0,1.43-1,2.21-2.7,2.15s-2.63-.85-2.63-2.26M200,145.62c-.12,2.16-.95,2.71-3.3,2.86-.31,0-.77-.07-1.22-.15a2.17,2.17,0,0,1-1.75-2.4c.24-2,.81-2.48,2.72-2.58.35,0,.7-.09,1.06-.1a2.62,2.62,0,0,1,2.49,2.37m-.52,13.25c-.28,1-1.22,1-2,1-2.18.33-4.3-1.19-3.76-3.77a1.36,1.36,0,0,1,1.28-1.26,7.69,7.69,0,0,1,1.56-.21c.79.08,1.84.05,2.27.53a3.81,3.81,0,0,1,.6,3.71m-.63,6.6c-.57,0-1.4-.13-1.64-.51a7.35,7.35,0,0,1-.8-2.49c-.14-.6-.08-1.24.7-1.45s1.59-.19,2,.7a17.4,17.4,0,0,1,.62,1.89l-.11,0a2.55,2.55,0,0,1-.06.84c-.17.38-.45,1-.69,1m.23,11.42a1.51,1.51,0,0,1-.35,1.17c-1.23.91-2.58.57-3.85.07-.94-.37-1-1.27-.94-2.25a5.49,5.49,0,0,1,.17-1.69c.26-.65.65-1.48,1.2-1.7a2.26,2.26,0,0,1,2,.42,6.51,6.51,0,0,1,1.75,4m-3.89,2.92a1.11,1.11,0,0,1,.29-.14c2.21-.7,3.62.3,3.65,2.59,0,2.07,0,2.07-2,2.33-.21,0-.42.08-.63.09a2.5,2.5,0,0,1-2.32-1.2c-.37-1.38.13-3.17,1-3.67m-1.63-10.14a6.82,6.82,0,0,1,1.38-1.14c.45-.18,1.38.9,1.2,1.51-.11.4-.79,1-1,.92-.51-.15-.89-.69-1.56-1.29m-29.08-12.73a2.35,2.35,0,0,1,1.42-2.43c.83-.23,1.76-.1,2,.7a13.92,13.92,0,0,1,.24,3.25c0,.06-.14.18-.23.19a5.27,5.27,0,0,1-2.1.17,1.79,1.79,0,0,1-1.33-1.88m.27-6.16c0-1.14.68-2.3,1.42-2.31,1.34,0,2,.82,2.07,2.5a1.87,1.87,0,0,1-1.65,2c-.77,0-1.81-1.16-1.84-2.15m11.16-.2a2.49,2.49,0,0,1,2.8-1.81c.9.17,1.81.3,2.69.52.59.15.82.62.23,1a47.68,47.68,0,0,1-4.26,2.21,1.4,1.4,0,0,1-1.31-.31,2.19,2.19,0,0,1-.15-1.58m7.1-4.65a1.79,1.79,0,0,1-1.72,2,13.9,13.9,0,0,1-3.47-.19,2.17,2.17,0,0,1-1.75-2.7c.25-1.79,1-2.39,3-2.52,2.95-.17,3.93.67,3.93,3.4m.12,12.74a2.46,2.46,0,0,1-2.45,1.27,6,6,0,0,0-1.31.19c0,.14.05.29.08.43.22,0,.45,0,.68,0,2.59,0,2.88.29,3.21,2.78,0,.14,0,.28,0,.42a1.83,1.83,0,0,1-1.92,2.11c-1,0-2,0-3,0-1.79,0-2.61-1-2.37-2.7a3.26,3.26,0,0,1,.41-1.4,5,5,0,0,1,1.27-1.1,6.43,6.43,0,0,1,1-.47,3.27,3.27,0,0,0-.55-1.05c-.6-.53-.61-1.09-.11-1.56a13.06,13.06,0,0,1,2.56-2,2.16,2.16,0,0,1,1.77.11c.72.39,1,2.2.68,2.93m7.91-10.86a17.35,17.35,0,0,1-2.79.74c-3.19-.19-4.09-1.4-3.11-4.34a.8.8,0,0,0,.07-.2,1.37,1.37,0,0,1,1.62-1.17c1.09.08,2.18.16,3.26.32A2,2,0,0,1,191.9,145c.15,1,.44,2.24-.82,2.8M185,162.76c0-1.18.3-1.77,1.48-1.94a15.26,15.26,0,0,1,3.17,0,2.37,2.37,0,0,1,2.46,2.58c0,1.79-.37,2.25-2.27,2.5a10.77,10.77,0,0,1-1.27,0c-2.58.09-3.58-.48-3.57-3.16m.42,5.65a1.77,1.77,0,0,1,2.22-1.47c.73.08,1.48,0,2.22,0,1.56,0,2.19.65,2.25,2.24,0,1.14-.53,2-1.5,2a25.31,25.31,0,0,1-3.79-.25c-1.32-.19-1.74-1.27-1.4-2.54m3.45-15.52c-.29-.25-.68-.36-1-.59a13,13,0,0,1-1.81-1.4c-.29-.29-.59-1-.46-1.17a4.76,4.76,0,0,1,1.4-.79c0,.06.05.11.07.17,1,.06,2.06.09,3.08.19a1.83,1.83,0,0,1,1.65,1.7c.15.74.22,1.51-.56,2a1.88,1.88,0,0,1-2.37-.1m3.7,22c.06,2.46-.7,3.53-2.61,3.74a17.09,17.09,0,0,1-3.27-.11c-.59,0-.76-.48-1-1.05-.52-1.46,0-2.86.08-4.28a1.43,1.43,0,0,1,.93-1,27.22,27.22,0,0,1,4.33,0c.38,0,.86.54,1,.94a9.32,9.32,0,0,1,.47,1.78m-4.12,4.9h.42l1,0c.84,0,1.83,0,2,1a7,7,0,0,1-.13,3.38c-.42,1-4.57,1.41-5.54.7a1.31,1.31,0,0,1-.36-.5,3,3,0,0,1,2.68-4.55m-3-23.69a1.31,1.31,0,0,1,1.74.15c.58.51,1.24.93,1.8,1.46a1.22,1.22,0,0,1-.53,2.21,5.63,5.63,0,0,1-.94.11,2.72,2.72,0,0,1-2.89-2.11,1.75,1.75,0,0,1,.82-1.82M183,170.46a12.73,12.73,0,0,1-2.29,1c-1.25-.34-2.33-.61-3.39-.94a1.56,1.56,0,0,1-1.12-2,2,2,0,0,1,2-1.73,17.94,17.94,0,0,1,3.28.09,2.94,2.94,0,0,1,1.91,1,1.79,1.79,0,0,1-.37,2.55m-6.47,12.73c0-.38.07-.77.09-1.16a1.89,1.89,0,0,1,1.91-2.09c.8-.07,1.62,0,2.42-.06a2.12,2.12,0,0,1,2.48,2.4c0,.35-.07.71-.08,1.06a1.87,1.87,0,0,1-1.75,2.1c-.83.15-1.67.24-2.51.36-1.88.37-2.72-.81-2.56-2.61m-.32-7.83c0-.46,0-1,.05-1.52a2.06,2.06,0,0,1,1.94-1.91,18.84,18.84,0,0,1,3.6,0,2.49,2.49,0,0,1,1.49,1.08c.81,1.23.53,2.66.34,4s-.83,1.82-2.26,1.79c-.85,0-1.69,0-2.54,0a2.15,2.15,0,0,1-2.51-2c-.08-.45-.07-.92-.11-1.45M174.52,145c.06,1.52-.73,2.52-2,2.57a2.37,2.37,0,0,1-2.6-2.43c-.05-1.52.85-2.77,2.1-2.63,1.83.21,2.44.23,2.52,2.49M172,148.63c1.43,0,2.12,1,2.19,3.11a1.92,1.92,0,0,1-1.87,1.63,2.38,2.38,0,0,1-.32-4.74m-1.35,33.14a2.12,2.12,0,0,1,2.2-1.72,1.75,1.75,0,0,1,1.57,2.18c0,.45-.11.91-.14,1.21s.06.44.07.58a1.93,1.93,0,0,1-1.87,2.13c-1,.09-1.7-.52-1.82-1.74a13.69,13.69,0,0,1,0-2.64m-.33-5.53a12.76,12.76,0,0,1,.68-2.86,3.29,3.29,0,0,1,1.66-1.43c.8-.3,1.29.33,1.69,1.05a6.18,6.18,0,0,1,.28,4.25,2,2,0,0,1-3.71.78,5.64,5.64,0,0,1-.6-1.79m4.21-6.79a2,2,0,0,1-.94.91c-.16.06-.8-.47-.77-.67.06-.37.44-.69.87-1.28.44.53.91.93.84,1m-3.05-5.89c-.41-.37-1.15-.74-1.15-1.1a5.57,5.57,0,0,1,.76-1.91h.52c.21.47.6.95.56,1.39a5.17,5.17,0,0,1-.69,1.62m-1.71-6.47c0-1.67.77-2.72,2-2.72,1.64,0,2.38.59,2.38,1.88,0,2-.95,3.29-2.44,3.32-.64,0-1.95-1.64-2-2.48m-1.92-10.74c-.4.34-1.26.68-1.58.48a7.83,7.83,0,0,1-1.54-1.67c.08-1.28.26-2.16,1.15-2.62,1.15-.58,1.78-.06,2.37,1.68a1.82,1.82,0,0,1-.4,2.13m.94,17.46a2.44,2.44,0,0,1-.38,1.38,1.64,1.64,0,0,1-2,.69c-1.09-.34-1.65-1.17-1.66-2.69a9.07,9.07,0,0,1,.27-1.41,1.68,1.68,0,0,1,1.82-1.16c.7,0,1.4.09,1.6.91a11.1,11.1,0,0,1,.39,2.28m-.92,6.55c-1.36.74-2.17-.15-2.94-1,.18-1.41.84-2.42,2.2-2.33.53,0,1.15.86,1.44,1.46a1.41,1.41,0,0,1-.7,1.89m-3,13.67a19.69,19.69,0,0,1,.34-2.88c.22-.87,1.26-1.2,2.53-.88a1.35,1.35,0,0,1,1,1.6c-.1,1.09-.14,2.18-.24,3.27a1.78,1.78,0,0,1-2,1.54c-1,0-1.34-.43-1.41-1.57,0-.35-.05-.71-.07-1.06l-.19,0"></path> <path d="M156.38,78.41a18.5,18.5,0,0,1,3.52-8.31,26.45,26.45,0,0,1,8-6.93,46.75,46.75,0,0,1,12.79-5,61.9,61.9,0,0,1,15.42-1.36,49.6,49.6,0,0,1,15.14,2.68,37.72,37.72,0,0,1,12.62,6.81c2.65,2.24,5.52,4.29,7.79,6.87a29.52,29.52,0,0,1,7.77,17.17,24,24,0,0,1-.29,7.08,28.37,28.37,0,0,1-3.72,9c-1.75,2.87-3.85,5.52-5.87,8.22a16.77,16.77,0,0,1-2.61,2.78,46.49,46.49,0,0,1-4.67,3.45,59,59,0,0,1-6.35,3.66,49.5,49.5,0,0,1-11.82,4.12,52.86,52.86,0,0,1-6.56,1.11,57,57,0,0,1-8.47-.13,33.37,33.37,0,0,1-17.92-6.85,35.32,35.32,0,0,1-8.63-9.21c-4.11-6.7-7.09-13.79-6.89-21.88,0-2.19-.11-4.38-.17-6.8.29-2,.58-4.3.93-6.55m51.07,40.21A26,26,0,0,0,216,115a34.89,34.89,0,0,0,9.12-9.21,19.25,19.25,0,0,0,3.22-7.08,19.45,19.45,0,0,0-.5-9.12,27.94,27.94,0,0,0-7-12.76,34.75,34.75,0,0,0-11.42-7.9,39.69,39.69,0,0,0-15.09-3.55,40.25,40.25,0,0,0-16.05,3.34,16.53,16.53,0,0,0-6.48,4.51,21,21,0,0,0-4.24,8.26c-.44,1.68-1.13,3.29-1.48,5a20.94,20.94,0,0,0-.37,4.33c0,2.77.06,5.55.24,8.31.23,3.44,2,6.12,4.44,8.42,1.54,1.46,3.14,2.87,4.78,4.23a30,30,0,0,0,9.14,5,48.69,48.69,0,0,0,14.13,2.82c2.62.39,5.78-.28,9-1" style="fill:#fff"></path> <path d="M197.61,56.89a50.24,50.24,0,0,1,13.63,2.63,37.72,37.72,0,0,1,12.62,6.81c2.65,2.24,5.52,4.29,7.79,6.87a29.58,29.58,0,0,1,7.77,17.17,24,24,0,0,1-.29,7.08,28.37,28.37,0,0,1-3.72,9c-1.75,2.87-3.85,5.52-5.87,8.21a16.45,16.45,0,0,1-2.61,2.79,46.49,46.49,0,0,1-4.67,3.45,59,59,0,0,1-6.35,3.66,49.5,49.5,0,0,1-11.82,4.12,52.86,52.86,0,0,1-6.56,1.11,57.93,57.93,0,0,1-6,0c-.82,0-1.63-.1-2.43-.17a33.37,33.37,0,0,1-17.92-6.85,35.2,35.2,0,0,1-8.63-9.22c-4.11-6.69-7.09-13.78-6.89-21.87,0-2.19-.11-4.38-.17-6.8.29-2,.58-4.3.93-6.55a18.59,18.59,0,0,1,3.51-8.31,26.61,26.61,0,0,1,8-6.93,46.75,46.75,0,0,1,12.79-5,61.9,61.9,0,0,1,15.42-1.36c.51,0,1,0,1.51,0m1.93,62.82a31.65,31.65,0,0,0,7.9-1.09A25.77,25.77,0,0,0,216,115a34.78,34.78,0,0,0,9.13-9.21,19.25,19.25,0,0,0,3.22-7.08,19.45,19.45,0,0,0-.5-9.12,27.94,27.94,0,0,0-7-12.76,34.75,34.75,0,0,0-11.42-7.9,40.9,40.9,0,0,0-13.95-3.52l-1.14,0a40.25,40.25,0,0,0-16.05,3.34,16.53,16.53,0,0,0-6.48,4.51,21,21,0,0,0-4.24,8.26c-.44,1.68-1.13,3.29-1.48,5a20.94,20.94,0,0,0-.37,4.33c0,2.77.06,5.55.24,8.31.23,3.43,2,6.12,4.44,8.42,1.54,1.46,3.14,2.87,4.77,4.23a30.18,30.18,0,0,0,9.15,5,48.62,48.62,0,0,0,14.13,2.82c.35,0,.7.08,1.07.1m-1.78-65.84-1.62,0A65.36,65.36,0,0,0,180,55.26a49.65,49.65,0,0,0-13.61,5.3,29.51,29.51,0,0,0-8.88,7.73,21.47,21.47,0,0,0-4.08,9.65c-.25,1.6-.47,3.18-.68,4.71-.09.64-.17,1.28-.26,1.89l0,.25V85c0,.8,0,1.57.08,2.31.06,1.52.12,3,.09,4.34-.18,7.61,2.15,15.08,7.34,23.53a38.18,38.18,0,0,0,9.34,10,36.48,36.48,0,0,0,19.5,7.47c.84.08,1.71.14,2.56.18a58.9,58.9,0,0,0,6.37,0A35,35,0,0,0,203,132l1.67-.33a53.18,53.18,0,0,0,12.55-4.36,60,60,0,0,0,6.68-3.85,49.42,49.42,0,0,0,5-3.67,19.9,19.9,0,0,0,3.09-3.29l1.06-1.41c1.69-2.24,3.44-4.55,5-7a30.7,30.7,0,0,0,4.1-10,26.83,26.83,0,0,0,.35-8,32.66,32.66,0,0,0-8.51-18.89,48.52,48.52,0,0,0-6-5.45c-.73-.59-1.43-1.15-2.11-1.72a40.43,40.43,0,0,0-13.61-7.38,53.54,53.54,0,0,0-14.44-2.78l-.15,3Zm1.92,62.82a5.79,5.79,0,0,1-.76-.07l-.13,0h-.14A45.63,45.63,0,0,1,185.38,114a27.18,27.18,0,0,1-8.25-4.51c-1.7-1.43-3.22-2.77-4.63-4.12-2.25-2.12-3.36-4.16-3.51-6.42s-.22-4.91-.23-8.11a17.49,17.49,0,0,1,.3-3.71,23.7,23.7,0,0,1,.75-2.55c.24-.72.49-1.48.7-2.27a17.94,17.94,0,0,1,3.62-7.09,13.43,13.43,0,0,1,5.34-3.67,37.27,37.27,0,0,1,14.86-3.11c.34,0,.69,0,1,0a37.71,37.71,0,0,1,12.92,3.28,31.8,31.8,0,0,1,10.42,7.22,24.94,24.94,0,0,1,6.22,11.41,14.74,14.74,0,0,1-2.25,13.7,31.47,31.47,0,0,1-8.32,8.43,22.55,22.55,0,0,1-7.57,3.2,29.34,29.34,0,0,1-7.1,1"></path> <path d="M184.34,116.79a30.18,30.18,0,0,1-9.15-5c-1.63-1.36-3.23-2.77-4.77-4.23-2.42-2.3-4.21-5-4.44-8.42-.18-2.76-.23-5.54-.24-8.31a20.27,20.27,0,0,1,.37-4.33c.35-1.69,1-3.3,1.48-5a21,21,0,0,1,4.24-8.26,16.53,16.53,0,0,1,6.48-4.51,40.42,40.42,0,0,1,16.05-3.34,39.69,39.69,0,0,1,15.09,3.55,34.75,34.75,0,0,1,11.42,7.9,27.94,27.94,0,0,1,7,12.76,19.45,19.45,0,0,1,.5,9.12,19.25,19.25,0,0,1-3.22,7.08A34.78,34.78,0,0,1,216,115a25.77,25.77,0,0,1-8.56,3.62c-3.19.71-6.35,1.38-9,1a48.62,48.62,0,0,1-14.13-2.82M169.11,82.3a23.57,23.57,0,0,0-.89,2.29c-.22.62-.07,1,.66,1.2a48.62,48.62,0,0,1,4.77,1.45c.42.15.64.83.95,1.27a5.61,5.61,0,0,1-1.12.51c-1.72.34-3.3-.29-4.88-.83-.28-.1-.57-.17-.88-.26a10,10,0,0,0-.21,4.5c.17,1.67.38,3.33.64,5,.16,1,.52,1.23,1.52,1.11,1.36-.16,2.72-.31,4.07-.51.7-.09,1.09.2,1.16.84s-.43.74-1,.81c-1.35.16-2.7.41-4,.67-.89.18-.56.83-.35,1.29a16,16,0,0,0,3.56,5.37c1.66,1.47,3.35,2.92,5,4.37.65.56,1.1.52,1.73-.19a13.88,13.88,0,0,1,5.35-3.37,13.39,13.39,0,0,1,2.06-.67c.73-.18.81-.71.76-1.27-.12-1.33-.22-2.67-.46-4-.6-3.32-1.33-6.62-1.91-9.94-.76-4.32-1.44-8.64-2.14-13-.1-.63-.15-1.27-.21-1.9a1,1,0,0,1,.89-1.17,1.44,1.44,0,0,1,1.12.66,196.53,196.53,0,0,1,9,18.22c1.51,3.52,3,7,4.57,10.56A2.13,2.13,0,0,0,200,106.4a17,17,0,0,1,7.2,4.5,52.26,52.26,0,0,1,3.55,4.16.78.78,0,0,0,1.14.27,28.52,28.52,0,0,0,9.28-7.13c1-1.11,1.87-2.3,2.76-3.49.58-.78.4-1.23-.56-1.39-.8-.14-1.63-.18-2.45-.26a6.69,6.69,0,0,1-.9-.08c-.52-.12-1.12-.29-.93-1a1.12,1.12,0,0,1,1.39-.88c1.44.27,2.88.48,4.32.76.64.13.9-.09,1.12-.7a15.11,15.11,0,0,0,.86-8c-.25-1.49-.64-1.8-2.14-1.45s-2.82.65-4.25.89a1.06,1.06,0,0,1-.87-.5,13.83,13.83,0,0,1-.51-2c-.14-.63.08-.85.76-.85,1.61,0,3.22,0,4.83-.12,1-.05,1.08-.28.78-1.14a30.75,30.75,0,0,0-5.8-9.65c-.56-.66-1.05-.75-1.62-.06-.73.89-1.47,1.77-2.21,2.65a2,2,0,0,1-.28.36c-.52.37-1,1-1.59,1-.77,0-.73-.88-.91-1.48-.46-1.54-.45-1.52.86-2.64A11.91,11.91,0,0,0,215,76.89a2.92,2.92,0,0,1,.41-.37c1.1-.78,1.12-.81.08-1.68a33.54,33.54,0,0,0-8.8-5.15c-1.11-.47-1.18-.42-1.53.7-.39,1.28-.73,2.57-1,3.87s-.72,1.45-1.68.71c-2.19-1.7-2.2-1.7-1.15-4.48.17-.46.39-.89.58-1.34s.13-1.05-.54-1.18a42.12,42.12,0,0,0-5.83-1,26.92,26.92,0,0,0-4.68.61c-1.95.24-2,.23-1.4,2.15.35,1.2.78,2.37,1.14,3.57s-.13,1.77-1.36,1.63h-.09c-1.2-.05-2-.38-2.21-1.82a23.37,23.37,0,0,0-1.08-3.86c-.25-.8-.78-1-1.56-.7-2.07.79-4.18,1.48-6.19,2.39a13,13,0,0,0-2.81,2c-.6.5-1.07,1.16-1.64,1.71s-.59,1,0,1.54l3,2.66c.38.34,1.06.57.43,1.27s-1.33.86-1.93.28l-2.91-2.76a4.09,4.09,0,0,0-.59-.38c-.86,1.74-1.7,3.41-2.49,5.11m38.76,32.43a21.21,21.21,0,0,0-7.51-6.11,15.82,15.82,0,0,0-7.36-1,20.11,20.11,0,0,0-10.19,3.21,6.64,6.64,0,0,0-1.38,1.32c-.57.7-.5,1.05.33,1.38,2.32.93,4.61,1.94,7,2.65a43.66,43.66,0,0,0,13.65,1.55,31.42,31.42,0,0,0,5-.91l1.46-.32a11.58,11.58,0,0,0-1-1.75M185.82,82.07a4.16,4.16,0,0,0,0,.93c.46,2.55.92,5.09,1.41,7.63.62,3.19,1.27,6.38,1.9,9.58.32,1.61.64,3.22.93,4.84.16.87.53,1.21,1.5,1.1,1.56-.18,3.15-.15,4.73-.21.17,0,.34,0,.71-.09-3.68-8-6.61-16.25-11.15-23.78"></path> <path d="M171.6,77.18c-.86,1.75-1.7,3.42-2.49,5.11-.35.75-.62,1.53-.89,2.3-.22.62-.07,1,.66,1.2a48.62,48.62,0,0,1,4.77,1.45c.42.15.64.83.95,1.27a5.61,5.61,0,0,1-1.12.51c-1.72.34-3.3-.3-4.88-.83-.28-.1-.57-.17-.88-.26a10,10,0,0,0-.21,4.5c.17,1.67.38,3.33.64,5,.16,1,.52,1.23,1.52,1.11,1.36-.16,2.72-.31,4.07-.51.7-.1,1.09.2,1.16.84s-.43.74-1,.81c-1.35.16-2.7.41-4,.67-.89.17-.56.83-.35,1.29a16,16,0,0,0,3.56,5.37c1.66,1.47,3.35,2.91,5,4.37.65.56,1.1.52,1.73-.19a13.88,13.88,0,0,1,5.35-3.37,13.39,13.39,0,0,1,2.06-.67c.73-.18.81-.71.76-1.27-.12-1.33-.22-2.67-.46-4-.6-3.32-1.33-6.62-1.91-10-.76-4.31-1.44-8.64-2.14-13-.1-.63-.15-1.27-.21-1.9a1,1,0,0,1,.89-1.18,1.48,1.48,0,0,1,1.12.67,196.53,196.53,0,0,1,9,18.22c1.51,3.52,3,7,4.57,10.56A2.13,2.13,0,0,0,200,106.4a17,17,0,0,1,7.2,4.5,50.55,50.55,0,0,1,3.55,4.16.78.78,0,0,0,1.14.27,28.65,28.65,0,0,0,9.28-7.13c1-1.11,1.87-2.31,2.76-3.49.58-.78.4-1.23-.56-1.39-.8-.14-1.63-.18-2.45-.26a6.69,6.69,0,0,1-.9-.08c-.52-.12-1.12-.29-.93-1a1.12,1.12,0,0,1,1.39-.88c1.44.26,2.88.48,4.32.76.64.13.9-.09,1.12-.7a15.12,15.12,0,0,0,.86-8c-.25-1.49-.64-1.81-2.14-1.45s-2.82.65-4.25.89a1.06,1.06,0,0,1-.87-.5,13.83,13.83,0,0,1-.51-2c-.14-.63.08-.86.76-.85,1.61,0,3.22,0,4.83-.12,1-.05,1.08-.28.78-1.14a30.75,30.75,0,0,0-5.8-9.65c-.56-.66-1.05-.76-1.62-.06-.73.89-1.47,1.76-2.21,2.65-.1.11-.16.27-.28.36-.52.37-1,1-1.59,1-.77,0-.73-.88-.91-1.48-.46-1.54-.45-1.52.86-2.64A11.91,11.91,0,0,0,215,76.89a2.41,2.41,0,0,1,.41-.37c1.1-.78,1.12-.81.08-1.68a33.54,33.54,0,0,0-8.8-5.15c-1.11-.47-1.18-.42-1.53.7-.39,1.28-.73,2.57-1,3.87s-.72,1.45-1.68.7c-2.19-1.69-2.2-1.69-1.15-4.47.17-.46.39-.89.58-1.34s.13-1.05-.54-1.18a42.12,42.12,0,0,0-5.83-1,26.92,26.92,0,0,0-4.68.61c-1.95.24-2,.23-1.4,2.15.35,1.2.78,2.37,1.14,3.57s-.13,1.77-1.36,1.63l-.09,0c-1.2,0-2-.37-2.21-1.81a23.37,23.37,0,0,0-1.08-3.86c-.25-.8-.78-1-1.56-.7-2.07.79-4.18,1.48-6.19,2.39a13,13,0,0,0-2.81,2c-.6.49-1.07,1.16-1.64,1.71s-.59,1,0,1.53l3,2.67c.38.34,1.06.57.43,1.27s-1.33.86-1.93.28l-2.91-2.77a5.21,5.21,0,0,0-.59-.38" style="fill:#fff"></path> <path d="M208.88,116.48a11.58,11.58,0,0,0-1-1.75,21.21,21.21,0,0,0-7.51-6.11,15.82,15.82,0,0,0-7.36-1,20.14,20.14,0,0,0-10.19,3.21,6.64,6.64,0,0,0-1.38,1.32c-.57.7-.5,1.05.34,1.38,2.31.93,4.6,1.94,7,2.64a43.37,43.37,0,0,0,13.65,1.56,31.22,31.22,0,0,0,5-.91l1.46-.32" style="fill:#fff"></path> <path d="M197,105.85c-3.68-8-6.61-16.25-11.15-23.78a4.16,4.16,0,0,0,0,.93c.46,2.55.92,5.09,1.42,7.63.61,3.19,1.26,6.38,1.89,9.58.32,1.61.64,3.22.93,4.84.16.86.53,1.21,1.5,1.1,1.56-.18,3.15-.15,4.73-.21.17,0,.35,0,.71-.09" style="fill:#626260"></path> <path d="M240.3,13.89a14.87,14.87,0,0,0-.85-1.78c-1.34-2.17-2.7-4.33-4.11-6.46-.71-1.09-1.12-2.23.11-3.07s1.83.45,2.35,1.29q2.58,4.06,5.07,8.21a2.71,2.71,0,0,0,2.68,1.54,25.81,25.81,0,0,1,4.48.19c1.36.17,1.84-.41,1.82-1.64,0-2.16-.08-4.32-.16-6.48,0-1.27-.2-2.54-.24-3.82,0-.93.11-1.88,1.35-1.87S254,.94,254,1.79c.13,1.6.31,3.2.45,4.8a32.25,32.25,0,0,1,.37,5.61c-.14,1.66.4,2.34,1.86,2.73s3.08.65,3.68,2.46c.05.15,1.35.2,1.55-.08a66.23,66.23,0,0,0,4.4-6.63c.78-1.42,1.58-1.32,2.63-.63,1.49,1,.31,2-.15,2.84-1,1.92-2.12,3.76-3.16,5.65a2,2,0,0,0,.48,2.67c2.34,2.41,4.63,4.88,6.81,7.44a2.28,2.28,0,0,0,2.59,1A20.53,20.53,0,0,0,279.12,28a2.05,2.05,0,0,1,2.76.71,2.05,2.05,0,0,1-.43,1.93,22.36,22.36,0,0,1-4.32,2.3c-1.1.45-1.44.83-1,2.06a22.56,22.56,0,0,1,1.8,9.07c-.37,8.43-4,15.07-11.59,18.85-10.47,5.21-21.18,4.47-31.74,0a15.16,15.16,0,0,1-4-2.6c-9.79-8.56-13.65-27-3-38.68.81-.88.69-1.45-.07-2.22-2-2-3.93-4.08-5.87-6.14a3.15,3.15,0,0,1-.92-1.33c-.12-.58-.07-1.65.23-1.77a4.06,4.06,0,0,1,2.19,0c.29.06.5.56.76.84l6.85,7.32,9.52-4.43M266,59.38c5.53-3.09,9.82-11,8.37-18.77a27.4,27.4,0,0,0-9.83-16.69,47.77,47.77,0,0,0-8.26-5,11.59,11.59,0,0,0-8.75-.7c-1.76.51-3.37.77-4.9-.78-.48-.49-1.75-.46-2.59-.29-3.65.75-6.48,3-9.25,5.34-4.83,4.09-6.12,9.74-6.2,15.57a28.67,28.67,0,0,0,4.2,15c3.22,5.46,8.29,8.14,14.23,9.54.7.16,1.41.28,2.12.43A31.43,31.43,0,0,0,266,59.38"></path> <path d="M243,62.68c-5.94-1.4-11-4.08-14.23-9.54a28.67,28.67,0,0,1-4.2-15c.08-5.83,1.37-11.48,6.2-15.57,2.77-2.34,5.6-4.59,9.25-5.34.84-.17,2.11-.2,2.59.29,1.53,1.55,3.14,1.29,4.9.78a11.54,11.54,0,0,1,8.75.7,47.77,47.77,0,0,1,8.26,5,27.44,27.44,0,0,1,9.83,16.69c1.45,7.78-2.84,15.68-8.37,18.77a31.43,31.43,0,0,1-20.86,3.73c-.71-.15-1.42-.27-2.12-.43m4.16-30.3c-2.61,1.72-2.89,3.27-1.12,5.86a15.76,15.76,0,0,0,4,4.43c2.2,1.4,4.76.2,5.87-2.22a6,6,0,0,0-4.55-8.81l-.12-.43c-1.38.37-3,.42-4.12,1.17" style="fill:#fff"></path> <path d="M251.41,31.64A6,6,0,0,1,256,40.45c-1.11,2.42-3.67,3.62-5.87,2.22a15.76,15.76,0,0,1-4-4.43c-1.77-2.59-1.49-4.14,1.12-5.86,1.14-.75,2.73-.8,4.12-1.17,0,.14.08.29.11.43m-.22,7.54a2.59,2.59,0,0,0,1.63-1.28c.4-.8-1-2.7-1.94-2.69a4,4,0,0,0-1.48.6c-.27,1.62.81,3.49,1.79,3.37"></path> <path d="M249.4,35.81c-.27,1.62.81,3.49,1.79,3.37a2.59,2.59,0,0,0,1.63-1.28c.4-.8-1-2.7-1.94-2.69a4,4,0,0,0-1.48.6" style="fill:#fff"></path> <path d="M127.75,22.46a29.6,29.6,0,0,1,5.48-8A12.51,12.51,0,0,1,139,10.64a39.12,39.12,0,0,1,5.09-.82,27.12,27.12,0,0,1,11.91.9,34.43,34.43,0,0,1,18.9,13.86,17.78,17.78,0,0,1,2.52,15.14,23.47,23.47,0,0,1-5,9.16,31.35,31.35,0,0,1-6.8,6,26.42,26.42,0,0,1-11,3.93c-7.91,1.12-15.27-.26-21.68-5.29a17.26,17.26,0,0,1-5.34-6.54c-1.72-3.87-2-8-2.1-12.57.29-3.77.56-8,2.26-11.91m.47,19.59a19,19,0,0,0,11.24,13.62,22.68,22.68,0,0,0,14.47,1.69,28.76,28.76,0,0,0,10-4,30.06,30.06,0,0,0,8.87-8.78,18.12,18.12,0,0,0-1.28-21.85A34.73,34.73,0,0,0,155.47,12a26,26,0,0,0-9-1.3,31.64,31.64,0,0,0-5.67.72,12.24,12.24,0,0,0-5.65,3.38c-3.05,3-5.57,6.4-6.56,10.67-.54,2.31-.81,4.68-1.2,7a45.9,45.9,0,0,0,.87,9.52"></path> <path d="M128.55,25.51c1-4.27,3.51-7.64,6.56-10.67a12.16,12.16,0,0,1,5.65-3.38,31.64,31.64,0,0,1,5.67-.72,26,26,0,0,1,9,1.3,34.73,34.73,0,0,1,16.05,10.72,18.12,18.12,0,0,1,1.28,21.85,30.18,30.18,0,0,1-8.87,8.78,28.76,28.76,0,0,1-10,4,22.62,22.62,0,0,1-14.47-1.7,19,19,0,0,1-11.24-13.61,45.9,45.9,0,0,1-.87-9.52c.39-2.35.66-4.72,1.2-7M145.18,24a2.3,2.3,0,0,1-.87.29c-3.34.6-5.17,2.84-6.2,5.83a10.92,10.92,0,0,0-.77,3.95c.25,5.11,3.11,8.39,7.56,10.66a13.84,13.84,0,0,0,11.12.69,10.3,10.3,0,0,0,2.47-1.55c2.12-1.48,3-3.74,3.73-6.1a11.09,11.09,0,0,0-1.9-10.48,8.25,8.25,0,0,0-4.19-3.21c-1.7-.54-3.4-1.06-4.35-1.35-2.84,0-4.84.05-6.6,1.27" style="fill:#fff"></path> <path d="M156.13,24.09a8.25,8.25,0,0,1,4.19,3.21,11.09,11.09,0,0,1,1.9,10.48c-.76,2.36-1.61,4.62-3.73,6.1A10.3,10.3,0,0,1,156,45.43a13.84,13.84,0,0,1-11.12-.69c-4.45-2.27-7.31-5.55-7.56-10.66a10.92,10.92,0,0,1,.77-3.95c1-3,2.86-5.23,6.2-5.83a2.3,2.3,0,0,0,.87-.29c1.76-1.22,3.76-1.24,6.6-1.27.95.29,2.65.81,4.35,1.35m3.36,5.24a17.89,17.89,0,0,0-3.44-2.25.82.82,0,0,0-.79.15c-.82.95-1.61,1.94-2.35,3-.11.15,0,.58.15.8a15.93,15.93,0,0,0,1.19,1.64,1.18,1.18,0,0,0,.73.48c1.88,0,3.76-.08,5.64-.13.08,0,.16-.08.3-.15a5.37,5.37,0,0,0-1.43-3.5M140.2,35.48c-.6.05-.65.42-.47.84.82,2,1.61,4,3.34,5.45,1.11.92,1.36.92,2.09-.3.14-.24.3-.47.44-.71.77-1.29,1.6-2.58.27-4a.61.61,0,0,1-.14-.34c-.06-1-.64-1.33-1.57-1.22-1.32.1-2.64.21-4,.3m12.3,8.05a1.06,1.06,0,0,0,.9.54,7,7,0,0,0,4.39-2.49.84.84,0,0,0-.14-.84c-1.39-1.07-2.81-2.11-4.26-3.1-.55-.38-1.61.45-1.64,1.31.23,1.48.44,3,.75,4.58M142.26,26.74c-.76.23-.81.8-.17,1.21C143.71,29,145.37,30,147,31c.52.3,1.69-.64,1.65-1.26-.07-1-.21-1.91-.28-2.86a1.11,1.11,0,0,0-1.34-1.16l-.07-.28c-1.58.43-3.17.82-4.74,1.3M155,34.42c-.29,0-.79.21-.82.38-.06.41-.06,1.05.19,1.25,1.48,1.16,3,2.23,4.57,3.29a.71.71,0,0,0,.67-.22,27.46,27.46,0,0,0,1.08-3c.42-1.55.26-1.71-1.24-1.73s-3,0-4.45.07m-9.84-.7a1,1,0,0,0,.75-.59,1,1,0,0,0-.32-.9c-1.47-.88-3-1.69-4.48-2.52-.53-.3-.86-.19-1,.4-.24.86-.58,1.7-.74,2.57s.13,1.27,1.13,1.3c1.57-.08,3.14-.13,4.7-.26m5.36,9.6c-.08-1-.2-2-.26-3,0-.75-.47-1-1.15-1.07s-1.26-.24-1.62.6-.78,1.46-1.18,2.18c-.56,1-.48,1.42.56,1.9a23.2,23.2,0,0,0,2.35.8c1.39,0,1.4,0,1.3-1.37m-.12-14.08a1.57,1.57,0,0,0,.72.86c.1.07.51-.23.7-.43.75-.81,1.47-1.64,2.19-2.48.34-.4.3-.74-.17-1.07a3.47,3.47,0,0,0-3.47-.17c-.17.1-.23.38-.29.5a27.2,27.2,0,0,0,.32,2.79"></path> <path d="M160.92,32.83a5.37,5.37,0,0,0-1.43-3.5,18.38,18.38,0,0,0-3.44-2.25.82.82,0,0,0-.79.15c-.82.95-1.61,1.94-2.35,3-.11.15,0,.58.15.8a15.93,15.93,0,0,0,1.19,1.64,1.18,1.18,0,0,0,.73.48c1.88,0,3.76-.08,5.64-.13.08,0,.16-.08.3-.15" style="fill:#fff"></path> <path d="M144.16,35.18c-1.32.1-2.64.21-4,.3-.6.05-.65.42-.47.84.82,2,1.61,4,3.34,5.46,1.11.92,1.36.91,2.09-.31.14-.24.3-.47.44-.7.77-1.3,1.6-2.59.27-4a.69.69,0,0,1-.14-.34c-.06-1-.64-1.33-1.57-1.22" style="fill:#fff"></path> <path d="M151.75,39c.23,1.48.44,3,.76,4.59,0,.24.61.57.89.54a7.09,7.09,0,0,0,4.39-2.5.84.84,0,0,0-.14-.84c-1.39-1.07-2.81-2.11-4.26-3.1-.55-.38-1.61.45-1.64,1.31" style="fill:#fff"></path> <path d="M147,25.44c-1.58.43-3.18.82-4.74,1.3-.76.23-.81.8-.17,1.21C143.71,29,145.37,30,147,31c.52.3,1.69-.64,1.65-1.26-.07-1-.21-1.91-.28-2.86a1.11,1.11,0,0,0-1.34-1.16,2.29,2.29,0,0,0-.07-.28" style="fill:#fff"></path> <path d="M159.42,34.35c-1.55,0-3,0-4.45.07-.29,0-.79.21-.82.38-.06.41-.06,1.05.19,1.25,1.48,1.16,3,2.23,4.58,3.29a.7.7,0,0,0,.66-.22,27.46,27.46,0,0,0,1.08-3c.42-1.55.26-1.7-1.24-1.73" style="fill:#fff"></path> <path d="M140.43,34c1.57-.08,3.14-.13,4.7-.26a1,1,0,0,0,.75-.59,1,1,0,0,0-.32-.9c-1.47-.88-3-1.69-4.48-2.52-.53-.3-.86-.19-1,.41-.24.85-.58,1.69-.74,2.56s.13,1.27,1.13,1.3" style="fill:#fff"></path> <path d="M149.19,44.69c1.39,0,1.4,0,1.3-1.36-.08-1-.2-2-.26-3,0-.75-.47-1-1.15-1.07s-1.26-.23-1.62.6-.78,1.46-1.18,2.18c-.56,1-.48,1.42.56,1.9a23.2,23.2,0,0,0,2.35.8" style="fill:#fff"></path> <path d="M150.05,26.45a27.2,27.2,0,0,0,.32,2.79,1.57,1.57,0,0,0,.72.86c.1.07.51-.23.7-.43.75-.81,1.47-1.64,2.19-2.48.34-.4.3-.74-.17-1.07a3.47,3.47,0,0,0-3.47-.17c-.17.1-.23.38-.29.5" style="fill:#fff"></path> <path d="M327.78,152.28c-.47.65-.95,1.29-1.41,1.94-1.93,2.73-2.34,2.48-5.81,1.69-.39-.09-.73-.33-1.11-.45-2-.7-2.59-1.51-2.13-3.59s1-4.25,1.7-6.34c.92-2.87,1.9-5.72,3-8.53,1-2.58,2.26-5.07,3.31-7.63.77-1.88,1.45-3.79,2.06-5.71.5-1.57,1.95-2.75,3.26-2.24a5.49,5.49,0,0,1,2.23,1.74q2.58,3.34,4.92,6.87a3.19,3.19,0,0,1,.14,3.57c-2.14,4-4.05,8-6.15,12-1.21,2.28-2.62,4.46-3.95,6.69Z" style="fill:#fff"></path> <path d="M269.36,91.21a6.27,6.27,0,0,1,.36,1.55c0,2-.05,4.07-.27,6.08A69.85,69.85,0,0,1,268.3,106c-.41,1.91-1.63,2.49-3.5,2-3-.79-3.48-1.49-3.42-5.14q.09-4.69.36-9.41c.2-3.57,1.2-4.28,4.67-3.37.91.24,1.78.66,2.95,1.1" style="fill:#fff"></path> <path d="M279.45,95.17A4.16,4.16,0,0,1,281,99.76c-.61,2.53-1,5.11-1.57,7.65a6,6,0,0,1-1.16,2.85c-1.78,1.77-5.26.42-5.93-2-.55-2,.44-3.66.53-5.5.12-2.37.49-4.73.71-7.1a2.14,2.14,0,0,1,2.79-1.9,30.8,30.8,0,0,1,3.08,1.43" style="fill:#fff"></path> <path d="M308.5,118.27c1,1,2,2,2.92,3.07a1.7,1.7,0,0,1,.05,2.09c-1.18,2.17-2.26,4.39-3.36,6.59a2.28,2.28,0,0,1-3.46,1.09,13,13,0,0,1-2.74-2.27c-1.24-1.38-.87-3.09-.49-4.68a47.21,47.21,0,0,1,1.58-5.33c.75-2,2.3-2.94,4.13-1.39.39.34.83.62,1.25.93l.12-.1" style="fill:#fff"></path> <path d="M293.94,109.28c2.36-.08,6,2.14,6.72,4.22a3.1,3.1,0,0,1,0,1.86c-.66,2.25-1.4,4.48-2.13,6.71a7.63,7.63,0,0,1-.57,1.31,1.66,1.66,0,0,1-2.6.75c-1.38-.94-2.63-2.07-3.95-3.1-1.13-.88-.59-3.7.1-5.24s1.13-3.21,1.7-4.81c.21-.59.49-1.16.72-1.7" style="fill:#fff"></path> <path d="M313.24,127.17c1.87-2.55,3.53-2.65,5.2-.85a21.74,21.74,0,0,0,2.1,2.28,1.6,1.6,0,0,1,.5,2.11c-.92,2.16-1.84,4.33-2.89,6.43-.86,1.7-1.6,1.88-3.28.93a18.44,18.44,0,0,1-3.13-2.18,2.64,2.64,0,0,1-.82-1.86,19.35,19.35,0,0,1,2.32-6.86" style="fill:#fff"></path> <path d="M283.4,115.3c-1.26-.45-1.3-1.49-1-2.82.37-1.82.45-3.7.81-5.52s.91-3.62,1.44-5.4a1.52,1.52,0,0,1,2.52-.42c1.24,1.13,2.94,1.94,3.31,3.8a4.68,4.68,0,0,1,0,2.14q-1.06,3.58-2.34,7.09c-.95,2.58-2.34,2.93-4.69,1.13" style="fill:#fff"></path> <path d="M316.85,157.48a22.08,22.08,0,0,0,9,3c1,.15,7.72-9.56,7.72-9.56,1.15-2.45,2.35-4.87,3.52-7.3.39-.82.8-1.63,1.18-2.45a2.18,2.18,0,0,1,1.31-1.27l3-5.5a6.63,6.63,0,0,1,.21-3.78,2.93,2.93,0,0,0-.36-2.3c-1-1.27-2.3-2.3-3.41-3.49-1.45-1.53-2.73-3.24-4.29-4.66a43.92,43.92,0,0,0-5.47-4.21c-1.18-.77-1.92-.45-2.46.86-.78,1.91-1.45,3.87-2.12,5.83-.72,2.12-1.47,2.89-3.09,2.61a6,6,0,0,1-2.39-1.22c-5.13-3.87-10.27-7.73-15.31-11.72-3.34-2.64-6.54-5.45-9.75-8.25-3-2.61-6-5.31-9.66-8.64C281.52,94,277.8,92,274,90.22a28.33,28.33,0,0,0-5.47-1.65c-1.9-.45-3.85-.66-5.77-1a4.52,4.52,0,0,0-5.52,4.34c0,3.34-.06,6.67-.09,10a32.43,32.43,0,0,0,0,4.41c.1.79.64,2,1.24,2.18,3.25,1.06,6.6,1.82,9.88,2.78a70.75,70.75,0,0,1,7.45,2.49,34.51,34.51,0,0,1,4.73,2.82c3.48,2.18,7,4.27,10.38,6.61,3.69,2.56,7.19,5.4,10.82,8.06,2.8,2,5.72,3.93,8.51,6a56.3,56.3,0,0,1,5.08,4.3,2.84,2.84,0,0,1,.72,2,8.24,8.24,0,0,1-.72,2.26c-.83,2.49-1.65,5-2.49,7.48a1.55,1.55,0,0,0,.78,2.1c1.14.65,2.22,1.4,3.32,2.13M276.37,93.74a30.8,30.8,0,0,1,3.08,1.43A4.16,4.16,0,0,1,281,99.76c-.61,2.53-1,5.11-1.57,7.65a6,6,0,0,1-1.16,2.85c-1.78,1.77-5.26.42-5.94-2-.54-2,.45-3.66.54-5.5.12-2.37.49-4.73.71-7.1a2.13,2.13,0,0,1,2.79-1.9m35.05,27.6a1.7,1.7,0,0,1,.05,2.09c-1.18,2.17-2.26,4.39-3.36,6.59a2.28,2.28,0,0,1-3.46,1.09,13,13,0,0,1-2.74-2.27c-1.24-1.38-.87-3.09-.49-4.68a47.21,47.21,0,0,1,1.58-5.33c.75-2,2.3-2.94,4.13-1.39.39.34.83.62,1.25.93l.12-.1c1,1,2,2,2.92,3.07m7,5a21.74,21.74,0,0,0,2.1,2.28,1.6,1.6,0,0,1,.5,2.11c-.92,2.16-1.84,4.33-2.89,6.43-.86,1.7-1.6,1.88-3.28.93a18.44,18.44,0,0,1-3.13-2.18,2.64,2.64,0,0,1-.82-1.86,19.35,19.35,0,0,1,2.32-6.86c1.86-2.55,3.53-2.65,5.2-.85m-27-5.29c-1.13-.88-.59-3.7.1-5.24s1.13-3.21,1.7-4.81c.21-.59.49-1.16.72-1.7,2.36-.08,6,2.14,6.72,4.22a3.1,3.1,0,0,1,0,1.86c-.66,2.25-1.4,4.48-2.13,6.71a8.09,8.09,0,0,1-.57,1.32,1.67,1.67,0,0,1-2.6.74c-1.38-.94-2.63-2.07-3.95-3.1m-1-16.09a4.68,4.68,0,0,1,0,2.14q-1.06,3.58-2.34,7.09c-.95,2.58-2.34,2.93-4.69,1.13-1.26-.45-1.3-1.49-1-2.82.37-1.82.45-3.7.81-5.52s.9-3.62,1.44-5.4a1.52,1.52,0,0,1,2.52-.42c1.24,1.13,2.94,1.94,3.31,3.8M264.8,108c-3-.79-3.48-1.49-3.42-5.14q.09-4.69.36-9.41c.2-3.57,1.2-4.28,4.67-3.37.91.24,1.78.66,2.95,1.1a6.27,6.27,0,0,1,.36,1.55c0,2-.05,4.07-.27,6.08A69.85,69.85,0,0,1,268.3,106c-.41,1.91-1.63,2.49-3.5,2m52.51,43.84c.47-2.13,1-4.25,1.71-6.34.92-2.87,1.9-5.72,3-8.53,1-2.58,2.25-5.07,3.31-7.64.76-1.87,1.44-3.78,2.06-5.71.5-1.56,1.95-2.74,3.26-2.23a5.49,5.49,0,0,1,2.23,1.74q2.58,3.34,4.92,6.87a3.19,3.19,0,0,1,.14,3.57c-2.14,4-4.05,8-6.15,12-1.21,2.28-2.62,4.46-3.95,6.69l-.05,0c-.47.65-.95,1.29-1.41,1.94-1.93,2.73-2.34,2.48-5.81,1.69a11.81,11.81,0,0,1-1.11-.46c-2-.69-2.59-1.5-2.14-3.58"></path> <path d="M56.3,113c-.53.59-1.17,1.17-1.71,1.75-2.24,2.41-2.05,4.1-1.17,7.22.09.34.4.88.53,1.22.73,1.8,1.55,2.89,3.49,2.2a38.49,38.49,0,0,0,5.43-2.45,45,45,0,0,0,7-4.66c2.18-1.77,4.31-3.66,6.45-5.49,1.55-1.34,3.38-2.83,4.94-4,1.27-1,2.17-2.43,1.54-3.78a3,3,0,0,0-1.87-1.5,52.45,52.45,0,0,1-6.38-3.15,2.25,2.25,0,0,0-2.86.37c-3,2.59-6.41,5-9.71,7.46-1.9,1.42-3.88,3.22-5.73,4.77,0,0,0,.06,0,.07" style="fill:#fff"></path> <path d="M126.17,100.48A5.07,5.07,0,0,0,126,102a54.63,54.63,0,0,0,.87,5.85,51.61,51.61,0,0,0,1.87,6.91,3,3,0,0,0,3.78,1.87c2.81-.6,3.29-1.62,2.9-4.7-.33-2.65-.75-6.12-1.28-8.9-.6-3.18-1.8-4.08-5-3.49a28.69,28.69,0,0,0-2.88,1" style="fill:#fff"></path> <path d="M116.62,104.22a4.5,4.5,0,0,0-1.28,4.94,48.45,48.45,0,0,1,1.81,7.64c.11,1,.34,2.45,1.19,2.87,2.25,1.1,5.8-.84,6.39-3.07.48-1.8-.81-3.35-1-5.1-.31-2.25-1-4.55-1.35-6.82a2.3,2.3,0,0,0-2.8-1.82,9.34,9.34,0,0,0-2.91,1.36" style="fill:#fff"></path> <path d="M90.51,123.28a31.24,31.24,0,0,1-3.48-.59,1.56,1.56,0,0,0-1.64.94c-1.19,2-3,3.69-4.38,5.61-.9,1.26-.39,2.54,1.07,3.14a13.28,13.28,0,0,0,3.69,1A4.66,4.66,0,0,0,90,131.26a23.38,23.38,0,0,0,2.77-4.4c.88-1.73.66-2.56-1.1-3.16-.38-.12-.8-.16-1.17-.3,0,0,0-.11,0-.12" style="fill:#fff"></path> <path d="M103.26,121.82a9.44,9.44,0,0,0-6,2.5,5.41,5.41,0,0,0-1,1.28c-1.09,1.86-1.77,3.94-2.82,5.81a3.68,3.68,0,0,0-.49,1.14c-.18,1.1.3,1.78,1.59,1.75a16.18,16.18,0,0,0,5.52-1.22c1.78-.72,2.49-3,2.71-4.78s.4-3.15.46-4.82c0-.61,0-1.07,0-1.66" style="fill:#fff"></path> <path d="M81.28,123.52c1.38-2.12,1.71-4-.69-5.18-1-.51-1.9-.7-2.75-1.2a1.54,1.54,0,0,0-2.09.25C74,119,72,120.6,70.43,122.24c-1.31,1.33-1.36,2.19,0,3.55a12.58,12.58,0,0,0,3.35,2.32,3,3,0,0,0,2.16.09,18,18,0,0,0,5.38-4.68" style="fill:#fff"></path> <path d="M111.33,127.13a3.2,3.2,0,0,0,1.92-3.34c-.08-2.1.25-4.08-.07-6.09s-.35-4-1.09-5.86c-.38-1-1.31-1-2,.16-.92,1.52-2.65,3.14-3.26,5.08a6.46,6.46,0,0,0-.15,2.28c.19,2.7-.2,4.47,0,7.42s2.51,2.1,4.58.35" style="fill:#fff"></path> <path d="M54.85,129.62c.66,1.07,1.32.91,2.11.51,2.17-1.1,4.27-2.22,6.38-3.35a6.27,6.27,0,0,1,1.88-1,2.38,2.38,0,0,1,1.88.38,45.61,45.61,0,0,0,6,4c3.47,1.86,6.68,3.67,10.7,4.67a30.64,30.64,0,0,0,15.58.19c5.1-1.24,10.37-4,15-7,2-1.35,4.59-3.62,6.51-5a22.52,22.52,0,0,1,8.32-3.47c3.7-.83,6.31-1.09,9.79-2,.65-.18,1-1.22,1-2a29,29,0,0,0-.39-4.2c-.44-3.21-.55-6.3-1.11-9.59a5.45,5.45,0,0,0-5.92-4.46,46.47,46.47,0,0,0-5.73.72,23.92,23.92,0,0,0-5.25,1.53,37.82,37.82,0,0,0-9.59,6c-2.54,3.25-5.08,7.92-7.57,10.87s-4.72,5.17-8.34,5.72c-5.46.83-9.32-2.35-13.66-5.26-.6-.4-1.52-.93-1.74-1.85-.41-1.78.57-2.76,2-4s3.49-2.77,5-4c1-.86,1.29-1.7.41-2.57a29.24,29.24,0,0,0-4.64-3.66c-1.6-1-3.1-1.69-4.61-2.73-1.17-.8-2-1.82-3.19-2.63a2,2,0,0,0-1.82,0,3.49,3.49,0,0,1-2.7.35c-1.38,1.08-2.76,2.19-4.19,3.22a2.66,2.66,0,0,1-1.07,1.49c-.63.41-1.32.84-2,1.29-2,1.34-4.2,2.51-6.26,4s-8.13,7.36-8.31,8.93c-.61,5.19,1.07,8.06,3,11.69.79,1.47,1.85,2.26,2.52,3.33m67.48-24.94c.4,2.27,1,4.57,1.35,6.82.24,1.75,1.53,3.3,1,5.1-.59,2.23-4.14,4.17-6.39,3.07-.85-.42-1.08-1.86-1.19-2.87a51.06,51.06,0,0,0-1.81-7.64,4.5,4.5,0,0,1,1.28-4.94,9.34,9.34,0,0,1,2.91-1.36,2.3,2.3,0,0,1,2.8,1.82m-31.82,18.6s0,.11,0,.12c.37.14.79.17,1.17.3,1.76.6,2,1.43,1.1,3.16a23.38,23.38,0,0,1-2.77,4.4,4.66,4.66,0,0,1-4.23,2.08,13.28,13.28,0,0,1-3.69-1c-1.46-.61-2-1.88-1.07-3.14,1.36-1.92,3.19-3.64,4.38-5.61a1.56,1.56,0,0,1,1.64-.94,31.24,31.24,0,0,0,3.48.59m-9.23.23a17.84,17.84,0,0,1-5.38,4.69,3,3,0,0,1-2.16-.09,12.38,12.38,0,0,1-3.35-2.33c-1.32-1.35-1.27-2.21,0-3.54C72,120.6,74,119,75.75,117.39a1.54,1.54,0,0,1,2.09-.25c.85.5,1.74.69,2.75,1.2,2.4,1.23,2.07,3.06.69,5.17M94.62,134.3c-1.3,0-1.77-.65-1.59-1.75a3.46,3.46,0,0,1,.49-1.14c1-1.87,1.73-4,2.82-5.81a5.41,5.41,0,0,1,1-1.28,9.44,9.44,0,0,1,6-2.5c0,.59.07,1.05,0,1.66-.06,1.67-.25,3.06-.46,4.82s-.93,4.06-2.71,4.78a16.23,16.23,0,0,1-5.52,1.22M110.11,112c.67-1.11,1.6-1.14,2-.15.74,1.88.76,3.86,1.09,5.86s0,4,.07,6.09a3.2,3.2,0,0,1-1.92,3.34c-2.07,1.75-4.33,2.59-4.58-.35s.14-4.72,0-7.42a6.46,6.46,0,0,1,.15-2.28c.61-1.94,2.35-3.56,3.26-5.09m18.58,2.74a51.61,51.61,0,0,1-1.87-6.91A54.63,54.63,0,0,1,126,102a5.07,5.07,0,0,1,.22-1.49,28.69,28.69,0,0,1,2.88-1c3.24-.59,4.44.31,5,3.49.53,2.78.95,6.25,1.28,8.9.39,3.08-.09,4.1-2.9,4.7a3,3,0,0,1-3.78-1.87M54,123.14c-.13-.34-.44-.88-.53-1.22-.88-3.12-1.07-4.81,1.17-7.22.54-.58,1.18-1.16,1.71-1.75,0,0,0-.06,0-.07,1.85-1.55,3.83-3.35,5.73-4.77,3.3-2.45,6.7-4.87,9.71-7.46a2.25,2.25,0,0,1,2.86-.37A52.45,52.45,0,0,0,81,103.43a3,3,0,0,1,1.87,1.5c.63,1.35-.27,2.81-1.54,3.78-1.56,1.2-3.39,2.69-5,4-2.13,1.83-4.26,3.72-6.44,5.49a45,45,0,0,1-7,4.66,38.49,38.49,0,0,1-5.43,2.45c-1.94.69-2.76-.4-3.49-2.2"></path> <path d="M60.18,50.27c-1.2.88-2.52,1.9-3.84,2.74-2.7,1.7-5.51,3.38-8.25,5-.29.18-.68.25-.92.43s-.59.47-.57.73a3.42,3.42,0,0,0,1,2.35A20.33,20.33,0,0,1,53,72a10.1,10.1,0,0,1-.59,6,2.75,2.75,0,0,0-.15.88,2.39,2.39,0,0,1-1.69,2.27,11.67,11.67,0,0,0-6.24,5.67c-.19.38-.62.9-1,.91a21.66,21.66,0,0,1-4.72-.33A9.41,9.41,0,0,1,37,86.9l-1.18,1c.45.18.9.39,1.36.56a17,17,0,0,0,5.12.86c.78,0,.89.11.8.85a12.62,12.62,0,0,0,1.49,8.22,13.76,13.76,0,0,1,.62,1.4,29.1,29.1,0,0,0,3.26,5.57,12.29,12.29,0,0,1,.81,1.18.74.74,0,0,1-.3,1.09,25.3,25.3,0,0,1-6.88,1.1,50.81,50.81,0,0,1-10.44-.43,22.19,22.19,0,0,1-8.11-2.8,8.29,8.29,0,0,1-1.92-1.91c-.24.35-.47.72-.71,1.09a9.41,9.41,0,0,0,2,2.22,16.65,16.65,0,0,0,6.37,2.7c4.51.88,9.07.8,13.55,1.19a16.75,16.75,0,0,0,7.44-1.29,1.9,1.9,0,0,1,2.12.39,10.49,10.49,0,0,0,1.65,1.4,1,1,0,0,0,1,.22,23,23,0,0,0,3.74-1.76,18.3,18.3,0,0,0,3.15-2.72,44.18,44.18,0,0,0,5.92-7.79,4.89,4.89,0,0,0,.61-2.9c-.16-2.68.15-6-.7-8.52a1.6,1.6,0,0,1,.13-1c1.77-3.62,3.71-7.33,4.58-11.19a20.42,20.42,0,0,0,.25-7.5,22,22,0,0,0-3.22-9.74A49.62,49.62,0,0,0,62,50.17c-.53-.51-1.18-.38-1.84.1m-7.44,34c.76-.1,1.69-.13,2.51-.15a10.19,10.19,0,0,1,4.1,1,11.15,11.15,0,0,1,6,4.93,9.87,9.87,0,0,1,.94,3.72,8,8,0,0,1-1.43,5,19.16,19.16,0,0,1-5.35,5.12c-.48.36-.91.66-1.4,1-1.47,1-2.66.77-4-.35-.86-.71-1.7-1.51-2.52-2.28a5,5,0,0,1-.63-.9c-.18-.27-.33-.68-.57-.85a7.42,7.42,0,0,1-2.25-2.76,12.78,12.78,0,0,1-1.86-7,5.53,5.53,0,0,1,1.15-2.94,8.62,8.62,0,0,1,3.27-3,6,6,0,0,1,2-.56M63.41,53.36a77.49,77.49,0,0,1,5.39,6.23,15.31,15.31,0,0,1,2.68,7.07,21.65,21.65,0,0,1-.62,10.53c-.86,2.61-2.36,5.4-3.46,8-.34.78-.64.84-1.2.27-2-2-3.93-3.86-6.65-4.77a9.76,9.76,0,0,0-3.84-.28c-1.26.12-1.72-.21-1.47-1.48a16.64,16.64,0,0,0-.45-8.08,32.59,32.59,0,0,0-4.6-9.51c-.6-.88-.5-1.18.39-1.76,1.28-.82,2.78-1.6,4.11-2.38,0,0,0,.06.05.05,2.2-1.37,4.36-2.9,6.56-4.26,1.32-.81,2-.82,3.11.42"></path> <path d="M30.52,84.68c-2-1.9-3.72-4-5.55-6-.75-.81-1.22-1-2.18-.4a23.37,23.37,0,0,1-5.46,2.32c-.92.27-1.54.65-1.58,1.79a32.44,32.44,0,0,0,0,3.82,33.9,33.9,0,0,0,2,8.59c1,2.76,2.14,5.41,3.22,8.1.11.29.57.44.55.71s-.53.72-.65,1.1a10.29,10.29,0,0,1-.55-1,52.1,52.1,0,0,1-2.66-6.2A87.65,87.65,0,0,1,15,88.74a38.89,38.89,0,0,1-.51-6,15.58,15.58,0,0,1,0-1.93,1.16,1.16,0,0,1,.88-1.15c1.2-.44,2.48-.8,3.67-1.32a30.18,30.18,0,0,0,3.47-1.84c1.07-.65,1.51-.75,2.38.21,1.74,1.94,3.38,4,5.19,5.92a14.74,14.74,0,0,0,4.54,3.21c.76.36,1.56.73,2.33,1.07l-1.18,1a18.06,18.06,0,0,1-5.26-3.26"></path> <path d="M25,78.69c1.83,2,3.58,4.09,5.55,6a18.06,18.06,0,0,0,5.26,3.26,93.45,93.45,0,0,0-14.19,15.68c-.14-.28-.47-.42-.59-.71-1.11-2.69-2.22-5.34-3.22-8.1a33.09,33.09,0,0,1-2-8.59,34.75,34.75,0,0,1,0-3.82c0-1.14.66-1.52,1.58-1.79a23.37,23.37,0,0,0,5.46-2.32c1-.58,1.43-.41,2.18.4" style="fill:#fff"></path> <path d="M35.78,87.94c.45.18.9.39,1.36.56a17,17,0,0,0,5.12.86c.78,0,.89.11.8.85a12.62,12.62,0,0,0,1.49,8.22,13.76,13.76,0,0,1,.62,1.4,29.1,29.1,0,0,0,3.26,5.57,12.29,12.29,0,0,1,.81,1.18.74.74,0,0,1-.3,1.09,25.3,25.3,0,0,1-6.88,1.1,50.81,50.81,0,0,1-10.44-.43,22.19,22.19,0,0,1-8.11-2.8,8.29,8.29,0,0,1-1.92-1.91A93.13,93.13,0,0,1,35.78,87.94" style="fill:#fff"></path> <path d="M53.74,57.2c2.2-1.37,4.36-2.9,6.56-4.26,1.32-.81,2-.82,3.11.42a77.49,77.49,0,0,1,5.39,6.23,15.31,15.31,0,0,1,2.68,7.07,21.66,21.66,0,0,1-.62,10.53c-.86,2.61-2.36,5.4-3.46,8-.34.78-.64.84-1.2.27-2-2-3.93-3.86-6.65-4.77a9.76,9.76,0,0,0-3.84-.28c-1.26.12-1.72-.21-1.47-1.48a16.64,16.64,0,0,0-.45-8.08,32.59,32.59,0,0,0-4.6-9.51c-.6-.88-.5-1.18.39-1.76,1.28-.82,2.78-1.6,4.11-2.38,0,0,0,.06.05.05" style="fill:#fff"></path> <path d="M48.18,97.75a12.78,12.78,0,0,1-1.86-7,5.53,5.53,0,0,1,1.15-2.94,8.54,8.54,0,0,1,3.27-3,6,6,0,0,1,2-.56c.76-.1,1.69-.13,2.51-.15a10.19,10.19,0,0,1,4.1,1,11.18,11.18,0,0,1,6,4.93,9.87,9.87,0,0,1,.94,3.72,7.91,7.91,0,0,1-1.44,5,19,19,0,0,1-5.34,5.12c-.48.36-.91.66-1.4,1-1.47,1-2.66.77-4-.35-.86-.71-1.7-1.51-2.52-2.28a5,5,0,0,1-.63-.9c-.18-.27-.33-.68-.57-.85a7.42,7.42,0,0,1-2.25-2.76" style="fill:#fff"></path> <path d="M334.32,192.58a21.6,21.6,0,0,1-4.3-8.76,37.46,37.46,0,0,1-1-11.89,43.78,43.78,0,0,1,1.63-8.37.67.67,0,0,1,1.08-.4,11.35,11.35,0,0,1,1.12,1,15.36,15.36,0,0,0,5.64,3.76,14.82,14.82,0,0,1,1.61.61,14.42,14.42,0,0,0,9.95.84c.84-.22,1-.11,1.1.79a15.54,15.54,0,0,0,1.65,5.65l.17.28c-5.21,6.09-10.81,12.16-16.55,18.22a8.3,8.3,0,0,1-2.11-1.69" style="fill:#fff"></path> <path d="M337.74,195.13c3.31.93,6.65,1.93,10,2.78a39.53,39.53,0,0,0,10.49,1.41c1.53,0,3.06-.25,4.58-.38a2,2,0,0,0,1.91-1.95,18.29,18.29,0,0,1,2.05-6.3c.62-1.09.35-1.62-.75-2.38-2.64-1.81-5.32-3.59-7.85-5.55a21.55,21.55,0,0,1-5.22-6.71l1.17-1.38a34.22,34.22,0,0,0,2.16,3.62A15.78,15.78,0,0,0,360.7,183c2.54,1.76,5.13,3.46,7.72,5.17,1.28.84,1.3,1.24.55,2.61a24.67,24.67,0,0,0-1.76,4.05c-.47,1.37-.75,2.8-1.09,4.21a1.31,1.31,0,0,1-1.27,1.1c-.76.07-1.53.15-2.29.16a48.36,48.36,0,0,1-7.22,0,105.13,105.13,0,0,1-10.81-2.08,60.63,60.63,0,0,1-7.71-2.34c-.46-.18-.92-.39-1.38-.62l1-1c.44.28.88.55,1.31.86"></path> <path d="M353,176.05a21.41,21.41,0,0,0,5.22,6.71c2.53,2,5.21,3.74,7.85,5.55,1.1.76,1.37,1.29.75,2.38a18.53,18.53,0,0,0-2.06,6.3,2,2,0,0,1-1.9,1.95c-1.52.14-3,.34-4.58.38a39.48,39.48,0,0,1-10.49-1.41c-3.38-.85-6.72-1.85-10-2.78-.42-.31-.86-.58-1.3-.86,5.74-6.06,11.34-12.13,16.55-18.22" style="fill:#fff"></path> <path d="M328.75,159.31A2.66,2.66,0,0,1,329,162a38.1,38.1,0,0,0-.28,24.64,16.86,16.86,0,0,0,4,6.83,10.72,10.72,0,0,0,2.71,1.9l1-1a8.3,8.3,0,0,1-2.11-1.69,21.6,21.6,0,0,1-4.3-8.76,37.46,37.46,0,0,1-1-11.89,43.78,43.78,0,0,1,1.63-8.37.67.67,0,0,1,1.08-.4,11.35,11.35,0,0,1,1.12,1,15.36,15.36,0,0,0,5.64,3.76,14.82,14.82,0,0,1,1.61.61,14.36,14.36,0,0,0,9.95.84c.84-.22,1-.11,1.1.79a15.54,15.54,0,0,0,1.65,5.65l.17.28,1.17-1.38c-.11-.24-.23-.47-.32-.71a23.22,23.22,0,0,1-1-5.2c-.05-.35.55-.95,1-1.17a11.61,11.61,0,0,0,5.93-7.51,2.59,2.59,0,0,1,2.49-2.11,2.37,2.37,0,0,0,1-.25,11.81,11.81,0,0,1,7.11-1.26,23.2,23.2,0,0,1,13.15,5.06,4.19,4.19,0,0,0,2.91.86c.28,0,.61-.42.81-.71s.21-.74.38-1.08c1.63-3.23,3.24-6.48,4.94-9.68.84-1.56,1.83-3,2.78-4.55.52-.82.55-1.52-.12-2.06a63.64,63.64,0,0,0-10.71-7.48c-3.78-1.92-7.83-2.44-12-2.62a29.61,29.61,0,0,0-8.8.94,46.38,46.38,0,0,0-11.86,5.23,1.45,1.45,0,0,1-1.12.16,52.93,52.93,0,0,0-8.29-2.08,3.29,3.29,0,0,0-2.91.7,43.38,43.38,0,0,0-7.81,8,41.48,41.48,0,0,0-2.66,4.1c-.64,1.78-1.21,3.27-1.69,4.78a2,2,0,0,0,.16,1.23,13.71,13.71,0,0,0,1.19,2.07m24.81-17c-.7-.62-.71-1,.14-1.38,2.79-1.34,5.53-2.82,8.41-3.92a27.49,27.49,0,0,1,12.31-1.56c3.06.26,6.09.65,8.75,2.29s5.49,3.51,8.13,5.42c1.71,1.24,1.72,1.87.86,3.4-1.44,2.55-2.84,5.14-4.25,7.71l.07,0c-.77,1.61-1.5,3.24-2.31,4.83-.57,1.12-.93,1.23-2,.59a36.61,36.61,0,0,0-11.89-4.19,18.92,18.92,0,0,0-9.68.32c-1.45.49-2,.05-1.95-1.48a10.73,10.73,0,0,0-.73-4.34,20.45,20.45,0,0,0-5.83-7.73m-20,9.91c.37-.58.67-1.2,1-1.79,1.48-2.54,2.91-5.1,5.25-7,1.5-1.22,3.15-2.18,5.11-1.71a11.61,11.61,0,0,1,3.63,1.67,16,16,0,0,1,5.83,7.06c.67,1.5,1.54,2.92,1.54,4.64,0,1,.12,1.92.07,2.88a7.4,7.4,0,0,1-.45,2.3,9.64,9.64,0,0,1-3.25,4A6.87,6.87,0,0,1,349,165.8c-2.92.18-5.88,0-8.47-1.44a4.88,4.88,0,0,1-3.21-2.38c-.13-.29-.53-.46-.79-.7a4.72,4.72,0,0,1-.81-.8c-.69-1-1.32-2.13-2-3.2a4.45,4.45,0,0,1-.13-5.1"></path> <path d="M387.91,154.23c1.41-2.57,2.81-5.16,4.25-7.71.86-1.53.85-2.16-.86-3.4-2.64-1.91-5.36-3.72-8.13-5.42s-5.69-2-8.75-2.29A27.49,27.49,0,0,0,362.11,137c-2.88,1.1-5.62,2.58-8.41,3.92-.86.41-.84.76-.14,1.38a20.45,20.45,0,0,1,5.83,7.73,10.73,10.73,0,0,1,.73,4.34c-.05,1.53.5,2,1.95,1.48a18.92,18.92,0,0,1,9.68-.32,36.61,36.61,0,0,1,11.89,4.19c1.1.64,1.46.53,2-.59.81-1.59,1.54-3.22,2.31-4.83l-.07,0" style="fill:#fff"></path> <path d="M340.48,164.36c2.59,1.49,5.55,1.62,8.47,1.43a6.76,6.76,0,0,0,3.35-1.57,9.72,9.72,0,0,0,3.25-4,7.4,7.4,0,0,0,.45-2.3c.05-1-.07-1.92-.07-2.88,0-1.72-.87-3.14-1.54-4.64a16,16,0,0,0-5.83-7.06,11.61,11.61,0,0,0-3.63-1.67c-2-.47-3.61.49-5.11,1.71-2.34,1.89-3.77,4.45-5.25,7-.35.59-.65,1.2-1,1.79a4.45,4.45,0,0,0,.13,5.1c.67,1.06,1.3,2.15,2,3.2a4.72,4.72,0,0,0,.81.8c.26.24.65.41.79.7a4.88,4.88,0,0,0,3.21,2.38" style="fill:#fff"></path> <path d="M45,23.07s4.11-2.87,5.31-1S48,31.33,48,31.33" style="fill:none;stroke:#000;stroke-linecap:round;stroke-miterlimit:10;stroke-width:1.3849999904632568px"></path> <path d="M51.7,36.78s9.68-2.87,11.62,0a4.29,4.29,0,0,1,.36,3.09" style="fill:none;stroke:#000;stroke-linecap:round;stroke-miterlimit:10;stroke-width:1.3849999904632568px"></path> <path d="M52.89,55.56s-1.59-3-3.19-3.73A10.82,10.82,0,0,0,45.83,51" style="fill:none;stroke:#000;stroke-linecap:round;stroke-miterlimit:10;stroke-width:1.3849999904632568px"></path> <path d="M42.85,69.52s.61-3.16-.44-5.12a11.06,11.06,0,0,0-3.86-3.47" style="fill:none;stroke:#000;stroke-linecap:round;stroke-miterlimit:10;stroke-width:1.3849999904632568px"></path> <path d="M20.92,75.23s3.09-.59,3.62-2.17.06-5.2.06-5.2" style="fill:none;stroke:#000;stroke-linecap:round;stroke-miterlimit:10;stroke-width:1.3849999904632568px"></path> <path d="M.69,51.92a5.61,5.61,0,0,1,3.53-2.59" style="fill:none;stroke:#000;stroke-linecap:round;stroke-miterlimit:10;stroke-width:1.3849999904632568px"></path> <path d="M52,35.32c1.57,4.2-1.23,9.12-6.24,11s-10.35,0-11.92-4.21,1.23-9.12,6.25-11,10.35,0,11.91,4.21" style="fill:#131313"></path> <path d="M45.78,46.3a7.81,7.81,0,0,1-1.49.43,9.48,9.48,0,0,0,5.47-12,9.29,9.29,0,0,0-2.92-4A7.57,7.57,0,0,1,52,35.31c1.55,4.2-1.24,9.12-6.26,11"></path> <path d="M43.61,35.66c6.26,8.75,3,21.8-7.27,29.14S12.67,71,6.41,62.27s-3-21.79,7.27-29.14,23.67-6.21,29.93,2.53" style="fill:#e73438"></path> <path d="M36.34,64.8C26.07,72.14,12.67,71,6.43,62.28A12.34,12.34,0,0,1,5,59.94c6.74,7,18.84,7.38,28.28.64S46.24,42.36,42,33.75a14.49,14.49,0,0,1,1.63,1.91c6.24,8.75,3,21.8-7.28,29.14" style="fill:#e30a13"></path> <path d="M42.57,34.39c-2.67-.4-8.46,0-17.95,7.17A41,41,0,0,0,9.12,65.21,13.7,13.7,0,0,1,7,62.94c1.29-4,5.89-15.55,16.47-22.46,9.47-6.16,15.37-7.27,17.82-7.43a9.36,9.36,0,0,1,1.33,1.34"></path> <path d="M30.72,32.87a2.66,2.66,0,1,1-2.53-2.78,2.67,2.67,0,0,1,2.53,2.78"></path> <path d="M19.88,37a2.66,2.66,0,1,1-2.53-2.78A2.66,2.66,0,0,1,19.88,37"></path> <path d="M12.48,47.05A2.66,2.66,0,1,1,10,44.28a2.65,2.65,0,0,1,2.53,2.77"></path> <path d="M30,50.9a2.66,2.66,0,1,1-2.53-2.77A2.65,2.65,0,0,1,30,50.9"></path> <path d="M41,45.22a2.65,2.65,0,1,1-2.52-2.78A2.65,2.65,0,0,1,41,45.22"></path> <path d="M24.57,60.91a2.65,2.65,0,1,1-2.52-2.78,2.64,2.64,0,0,1,2.52,2.78"></path> </g> </g> </svg> 