<?xml version="1.0" encoding="UTF-8"?> <svg xmlns="http://www.w3.org/2000/svg" xmlns:xlink="http://www.w3.org/1999/xlink" viewBox="0 0 372.94 326.84"> <defs> <clipPath id="clip-path"> <rect x="38.13" y="119.67" width="47.22" height="56.14" style="fill:none"></rect> </clipPath> <clipPath id="clip-path-2"> <rect x="48.21" y="143.55" width="17.86" height="29.63" style="fill:none"></rect> </clipPath> </defs> <title>Ресурс 1рассадка</title> <g id="Слой_2" data-name="Слой 2"> <g id="Слой_1-2" data-name="Слой 1"> <path d="M227.35,266.87c.33-2.66,2.8-2.8,4.52-3.83-.77,2.14-2.75,2.86-4.52,3.83" style="fill:#23529c"></path> <path d="M232.64,262.51c0-1.68,1.59-1.3,2.4-1.88a9.32,9.32,0,0,1,2.71-.92c-1,2.28-3.39,1.9-5.11,2.8" style="fill:#23529c"></path> <path d="M219.21,272.42c.31-1.89,1.8-2.12,3.3-2.32-.57,1.53-2,1.84-3.3,2.32" style="fill:#23529c"></path> <path d="M224.61,269c.11-.75.64-.64,1.16-.58-.14.69-.56.82-1.16.58" style="fill:#23529c"></path> <path d="M232.15,262.85l.44-.31c0,.31-.14.42-.44.31" style="fill:#23529c"></path> <path d="M143.55,188.6c-.25.15-.41.32-.57.32s-.57-.14-.45-.49c0-.12.34-.23.51-.21s.28.2.51.38" style="fill:#23529c"></path> <path d="M149.59,259.41c.2-.09.38-.24.56-.23.38,0,.43.32.33.59s-.29.21-.44.31c-.1-.16-.21-.31-.45-.67" style="fill:#23529c"></path> <path d="M183.85,211.81l-34-4.21c-1.12-.14-2.22-.25-2-1.83a.64.64,0,0,0-.19-.54c-2.57-1.5-1.18-3.53-.83-5.49,1.28-7.13,2.4-14.3,3.72-21.43,1.23-6.59,2.79-13.13,3.95-19.73.92-5.29,1.5-10.63,2.17-16,.4-3.17,2.27-4.54,5.45-4,4.49.69,9,1.66,13.49,1.79,15.9.49,31.81.87,47.71.89,10.87,0,21.74-.61,32.61-.95.34,0,.67,0,1,0,5-.6,5.59,2.14,5.11,5.72-1.6,12-3.27,24.08-4.71,36.15-1.15,9.59-2.46,19.21-2.74,28.84-.11,3.82-1.7,5.12-4.4,6a16,16,0,0,1-6,.47c-15.39-1.25-30.77-2.55-46.14-4-4.74-.45-9.43-1.38-14.14-2.09,0,.16,0,.32-.07.47m5.84-5.72c9.84,1,22,2.29,34.16,3.35,7.42.65,14.88.88,22.32,1.33,1.87.11,2.74-.67,2.67-2.56-.34-9.13,1.69-18,2.73-27,1.22-10.54,2.72-21,4.08-31.57.26-2-.26-2.54-2.28-2.51-4.5,0-9,.19-13.49.18-17,0-34.1,0-51.15-.23-8-.09-16.1-.47-24.15-.84-2-.09-2.64.68-3,2.55-2.79,16.35-5.66,32.68-8.51,49-.58,3.32-.52,3.47,2.91,3.92l33.67,4.39"></path> <path d="M189.69,206.09,156,201.7c-3.43-.45-3.49-.6-2.91-3.92,2.85-16.33,5.72-32.66,8.51-49,.32-1.87.95-2.64,3-2.55,8,.37,16.1.75,24.15.84,17.05.18,34.1.19,51.15.23,4.5,0,9-.13,13.49-.18,2,0,2.54.52,2.28,2.51-1.36,10.53-2.86,21-4.08,31.57-1,9-3.07,17.89-2.73,27,.07,1.89-.8,2.67-2.67,2.56-7.44-.45-14.9-.68-22.32-1.33-12.17-1.06-24.32-2.37-34.16-3.35" style="fill:#fff"></path> <path d="M216.07,192.34c-7.13-.25-14.25-.68-21.38-.72-5.92,0-11.83.4-17.74.57-3.33.09-6.67,0-10,.05-1.12,0-1.27-.26-1-1.38.14-.66.14-1.35.26-2s.4-1.57.54-2.36c.37-2.05.69-4.11,1.06-6.16q.76-4.2,1.6-8.39c.55-2.74,1.14-5.48,1.75-8.2.34-1.51,1.11-1.87,2.71-1.57a40.6,40.6,0,0,0,4.79.68c11.23.69,22.46,1.28,33.68,2,7.25.47,14.48,1.12,21.72,1.66,2,.14,4,.16,6,.2a2.37,2.37,0,0,0,1.08-.24,4.11,4.11,0,0,1,4.08.41c.67.38.71.94.3,1.59a3.55,3.55,0,0,0-.54,1.17,169.78,169.78,0,0,0-2.08,19.88,26.41,26.41,0,0,0,.35,3.51c.07.91-.3,1.3-1.22,1.41-.68.08-1.36.13-2,.21a1,1,0,0,1-1.23-.54,1.49,1.49,0,0,0-1.09-.49c-5.1-.3-10.21-.56-15.31-.83l-6.25-.33v-.12m-17-21.63.29.14.65-.47c.69-.48,1.35-1,2.07-1.43s1.24,0,1.44.73a12.45,12.45,0,0,0,1,2.13c.08.16.35.21.53.32a2,2,0,0,0,.31-.62c.07-.59,0-1.19.12-1.77,0-.22.41-.6.52-.57a1.06,1.06,0,0,1,.67.58,2.11,2.11,0,0,1-.1,1,25,25,0,0,0-.47,2.56c0,.3.35.63.55,1,.18-.27.48-.53.54-.83.28-1.31.47-2.64.72-3.95.1-.55.27-1.11,1-.87s.38.74.29,1.24c-.34,1.89-.62,3.79-.91,5.7a.81.81,0,0,0,.12.53c.63.83,1.32,1.63,1.92,2.48a2,2,0,0,1,.42,1.28c-.11.6-.68.55-1.22.5a9.57,9.57,0,0,0-2.14,0c-.85.1-1.06.76-1.07,1.5s.65.61,1.09.65c.87.07,1.74.09,2.61.11,1.51,0,1.51,0,1.57-1.48,0-.12,0-.24,0-.37.23-1.76.45-3.52.7-5.27s.51-3.51.77-5.27c.08-.54.34-.93.92-.76s.75.49.53,1.14a16.63,16.63,0,0,0-.76,3.17c-.31,2.45-.55,4.9-.76,7.35-.14,1.69-.3,1.53,1.47,1.56.37,0,.75,0,1.12,0,.85.06,1.24-.33,1.35-1.17.43-3.58.9-7.16,1.34-10.75.07-.55.05-1.16.85-1,.65.13.7.55.61,1.2-.48,3.58-.89,7.16-1.33,10.75-.08.64.15.93.81.92,1,0,2.06,0,3.08,0a1.1,1.1,0,0,0,.79-.67,36.14,36.14,0,0,0,.54-3.59c.28-2.39.51-4.77.76-7.16,0-.51.21-1,.81-.83a1.28,1.28,0,0,1,.58,1c-.21,2.76-.5,5.52-.77,8.28-.07.71-.16,1.42-.18,2.13s.26.92.92.87,1.12,0,1.68,0c1.46,0,1.57,0,1.7-1.55.27-3,.5-6,.74-9,0-.54,0-1.19.79-1.09s.86.74.68,1.37c-.88,3.08-.6,6.24-.72,9.37,0,.64.23.92.87.92.93,0,1.87,0,2.8.05s1.19-.27,1.26-1.1c.26-3.16.55-6.33.84-9.49,0-.55-.14-1.36.82-1.21s.61.87.57,1.44c0,.09,0,.18,0,.28-.23,3-.46,6-.66,9,0,.34.09.94.28,1a4.22,4.22,0,0,0,2,.22c.28-.05.57-.76.62-1.19.43-3.53.78-7.06,1.2-10.59.33-2.77.27-2.87-2.56-3-3.42-.18-6.85-.35-10.27-.57-11.5-.77-23-1.6-34.5-2.34-6.16-.4-12.32-.65-18.48-1-1.48-.09-1.57-.07-1.78,1.42-.61,4.41-1.23,8.82-1.82,13.23,0,.42-.35,1.11.46,1.18,1.39.12,1.92.16,2.06-.77s.15-1.61.26-2.41c.49-3.39,1-6.78,1.49-10.16a.86.86,0,0,1,1.14-.8c.73.14.43.69.38,1.12-.43,3.77-.91,7.54-1.28,11.32-.2,2.09-.36,1.86,1.87,2,.84.06,1.22-.25,1.31-1,.21-1.77.42-3.53.65-5.29.32-2.41.65-4.81,1-7.22.09-.67.39-1.11,1.18-1s.53.74.45,1.23q-1,6.27-2,12.55a.85.85,0,0,0,.15.66,1.47,1.47,0,0,0,2.09-.82l1.35-9.44a17.47,17.47,0,0,1,.35-2.3,1.1,1.1,0,0,1,.85-.56c.17,0,.43.46.55.76s0,.42-.07.64c-.51,3.26-1,6.52-1.5,9.79-.1.63-.08,1.28-.12,2,.62,0,1.21,0,1.78.1.73.08,1.1-.17,1.21-.93.29-2.16.65-4.31,1-6.47.21-1.48.39-3,.58-4.45.06-.44.21-.88.73-.67.27.1.4.55.57.85,0,.06,0,.18,0,.27-.37,2.72-.76,5.43-1.09,8.15-.13,1.1-.13,2.22-.19,3.34,0,0,.09.08.14.08H193a4.63,4.63,0,0,0,1.58,0c.32-.11.51-.63.76-1-.27-.17-.52-.48-.8-.5a5.62,5.62,0,0,0-1.58.11c-1.74.35-2.52-.39-1.85-2.17.14-.37.52-.64.78-1s.44-.45.47-.7c.26-2.19.46-4.39.75-6.58a1,1,0,0,1,.72-.7c.64,0,.65.56.59,1-.18,1.39-.4,2.78-.58,4.17-.06.46-.06.94-.09,1.53,2.13-1.16,4.11-2.21,4.1-4.91,0-.25.07-.5.09-.75.06-.51.22-.95.86-.83s.72.59.58,1.14-.21.81-.31,1.21m-4.29,12a1.66,1.66,0,0,0-.44-.13l-13.06-.69c-1.11.77-2.11.09-3.21-.1a51.39,51.39,0,0,0-6.34-.39,1.08,1.08,0,0,0-1.3,1.19c-.06,1.27-.19,2.55-.33,3.82-.08.73.13,1.11.94,1.11,1.9,0,3.8,0,5.69.09,2.55.13,5.1.45,7.65.52,5.72.16,11.45.21,17.17.33,2.21,0,4.42.21,6.63.29,7.35.26,14.69.5,22,.77,2.43.09,4.85.28,7.28.39,1.56.07,1.84-.21,2-1.78.06-.78.1-1.56.16-2.33.08-1.25.09-1.27-1.21-1.3-5.41-.13-10.83-.27-16.25-.35-4.76-.07-9.53-.07-14.3-.09-1.37,0-1.53.2-1.26,1.52,0,.13,0,.25.07.37.07.84-.33,1.16-1.16,1.11-3.17-.2-6.33-.37-9.5-.51-.77,0-1.32-.28-1.35-1.06s.07-1.83.12-2.78m-1.33-5.42.11.22a2.12,2.12,0,0,0,.44.06,11.89,11.89,0,0,0,1.2-.11c1.49-.23,1.94.3,1.7,1.73s-.4,3.14-.53,4.71a.94.94,0,0,0,.58.7c2.26.21,4.53.37,6.8.52,1.05.07,1.36-.22,1.34-1.27,0-1.4-.08-2.8-.17-4.2,0-.62.19-1,.81-1s1.13-.06,1.68-.16a3.85,3.85,0,0,0,.89-.38,3.83,3.83,0,0,0-.42-.89c-1.56-1.89-3.15-3.76-4.71-5.65-.81-1-.8-1-1.86-.21-2.24,1.68-4.46,3.38-6.7,5.06l-1.16.87"></path> <path d="M199,170.71l.3-1.21c.15-.55.08-1-.57-1.14s-.8.32-.86.83c0,.25-.09.5-.09.75,0,2.7-2,3.75-4.1,4.91,0-.6,0-1.07.09-1.53.18-1.39.4-2.78.58-4.17.06-.47,0-1-.59-1a1,1,0,0,0-.72.7c-.29,2.19-.49,4.39-.75,6.58,0,.25-.3.48-.47.7s-.64.6-.78,1c-.67,1.78.11,2.52,1.85,2.17a5.62,5.62,0,0,1,1.58-.11c.28,0,.53.33.8.5-.25.34-.44.86-.76,1a4.63,4.63,0,0,1-1.58,0H189c-.05,0-.1-.06-.14-.08.06-1.12.05-2.24.19-3.34.33-2.72.72-5.43,1.09-8.15,0-.09.07-.21,0-.27-.17-.3-.31-.75-.57-.85-.52-.21-.67.23-.73.67-.19,1.49-.37,3-.58,4.45-.31,2.16-.67,4.31-1,6.47-.11.76-.48,1-1.21.93-.57-.07-1.16-.07-1.78-.1,0-.72,0-1.37.12-2,.48-3.27,1-6.53,1.5-9.79,0-.22.14-.47.07-.64s-.38-.78-.55-.76a1.1,1.1,0,0,0-.85.56,17.47,17.47,0,0,0-.35,2.3L183,179.46a1.47,1.47,0,0,1-2.09.82.85.85,0,0,1-.15-.66q1-6.28,2-12.55c.07-.49.42-1.08-.45-1.23s-1.09.3-1.18,1c-.34,2.41-.67,4.81-1,7.22-.23,1.76-.44,3.52-.65,5.29-.09.79-.47,1.1-1.31,1-2.23-.17-2.07.06-1.87-2,.36-3.78.85-7.55,1.28-11.32,0-.43.35-1-.39-1.12a.86.86,0,0,0-1.13.79q-.76,5.08-1.49,10.17c-.11.8-.14,1.61-.26,2.41s-.67.89-2.06.77c-.81-.08-.51-.76-.46-1.18.59-4.41,1.21-8.82,1.82-13.24.21-1.48.3-1.5,1.78-1.41,6.16.34,12.32.59,18.48,1,11.5.74,23,1.57,34.5,2.34,3.42.22,6.85.39,10.27.57,2.83.15,2.89.25,2.56,3-.42,3.53-.77,7.06-1.2,10.58-.05.44-.34,1.15-.62,1.2a4.22,4.22,0,0,1-2-.22c-.19-.06-.3-.66-.28-1,.2-3,.43-6,.66-9,0-.1,0-.19,0-.28,0-.57.27-1.3-.57-1.44s-.78.66-.83,1.21c-.29,3.16-.57,6.33-.83,9.49-.07.83-.43,1.16-1.26,1.1s-1.87-.06-2.8-.05c-.64,0-.89-.28-.87-.92.12-3.13-.16-6.29.72-9.37.18-.63.09-1.27-.69-1.37s-.74.55-.78,1.09c-.24,3-.47,6-.74,9-.13,1.5-.24,1.57-1.7,1.55-.56,0-1.12,0-1.68,0s-.94-.29-.92-.87.11-1.42.18-2.13c.27-2.76.56-5.52.77-8.28a1.28,1.28,0,0,0-.58-1c-.6-.21-.76.32-.81.83-.25,2.39-.49,4.77-.76,7.16-.13,1.2-.3,2.41-.54,3.59a1.1,1.1,0,0,1-.79.67c-1,.09-2.06,0-3.08,0-.66,0-.89-.28-.81-.92.44-3.59.85-7.17,1.33-10.75.09-.65,0-1.07-.61-1.2-.8-.16-.78.45-.85,1-.44,3.59-.91,7.17-1.35,10.75-.1.84-.49,1.23-1.34,1.17-.37,0-.75,0-1.12,0-1.77,0-1.61.13-1.47-1.56.21-2.45.45-4.91.76-7.35a17.39,17.39,0,0,1,.75-3.17c.22-.65,0-1-.52-1.14s-.84.21-.92.76c-.26,1.76-.53,3.51-.77,5.27s-.47,3.51-.7,5.27c0,.13,0,.25,0,.37-.06,1.5-.06,1.51-1.57,1.48-.87,0-1.74,0-2.61-.11-.44,0-1.1.18-1.09-.65s.22-1.41,1.07-1.51a10.21,10.21,0,0,1,2.14,0c.54.05,1.11.1,1.22-.5a2,2,0,0,0-.42-1.28c-.6-.85-1.29-1.65-1.92-2.48a.81.81,0,0,1-.12-.53c.29-1.91.57-3.81.91-5.7.09-.5.41-1-.29-1.24s-.91.32-1,.87c-.24,1.31-.43,2.64-.71,3.95-.06.3-.36.56-.54.83-.2-.32-.57-.65-.55-1a25,25,0,0,1,.47-2.56,2.24,2.24,0,0,0,.1-1,1.06,1.06,0,0,0-.67-.58c-.11,0-.48.35-.52.57-.1.58,0,1.18-.12,1.77a2,2,0,0,1-.31.62c-.18-.11-.45-.16-.53-.32a12.45,12.45,0,0,1-1-2.13c-.2-.7-.78-1.12-1.44-.73s-1.38,1-2.07,1.43l-.66.47-.28-.14" style="fill:#fff"></path> <path d="M194.73,182.74c0,.95-.16,1.87-.12,2.78s.58,1,1.35,1.06c3.17.14,6.33.31,9.5.51.83,0,1.23-.27,1.16-1.11,0-.12-.05-.24-.07-.37-.27-1.32-.11-1.52,1.26-1.52,4.77,0,9.54,0,14.3.09,5.42.08,10.84.22,16.25.35,1.3,0,1.29.05,1.21,1.3-.06.77-.1,1.55-.16,2.33-.12,1.57-.4,1.85-2,1.78-2.43-.11-4.85-.3-7.28-.39-7.35-.27-14.69-.51-22-.77-2.21-.08-4.42-.24-6.63-.29-5.72-.12-11.45-.17-17.17-.33-2.55-.07-5.1-.39-7.65-.52-1.89-.09-3.79-.09-5.69-.09-.81,0-1-.38-.94-1.11.14-1.27.27-2.55.33-3.82a1.08,1.08,0,0,1,1.3-1.19,51.39,51.39,0,0,1,6.34.39c1.1.19,2.1.87,3.21.1l13.06.69a2,2,0,0,1,.44.13" style="fill:#fff"></path> <path d="M193.4,177.32l1.16-.87c2.24-1.68,4.46-3.38,6.7-5.06,1.06-.79,1.05-.77,1.86.21,1.56,1.89,3.15,3.76,4.71,5.65a3.83,3.83,0,0,1,.42.89,3.85,3.85,0,0,1-.89.38c-.55.1-1.12.11-1.68.16s-.84.38-.81,1c.09,1.4.15,2.8.17,4.2,0,1.05-.29,1.34-1.34,1.27-2.27-.15-4.54-.31-6.8-.52a.94.94,0,0,1-.58-.7c.13-1.57.26-3.15.53-4.71s-.21-2-1.7-1.73a11.89,11.89,0,0,1-1.2.11,2.12,2.12,0,0,1-.44-.06l-.11-.22" style="fill:#fff"></path> <path d="M353.49,160.37a31.23,31.23,0,0,1-5.44.92,22.14,22.14,0,0,1-3.35.06c-1.85-.3-3.66-.83-5.49-1.26-.43-.1-.87-.16-.91.48s.24.82.84.84a9.85,9.85,0,0,1,2,.29,33.8,33.8,0,0,0,3.73,1c2.3.29,4.62.42,6.93.54a6.86,6.86,0,0,0,1.68-.37,2,2,0,0,1,.35,0l1.78-.19a7.08,7.08,0,0,1,1.44-.13,2,2,0,0,1,1.59,2.93,8.82,8.82,0,0,1-4.87,3.9,6,6,0,0,1-1.95.51c-2.84.11-5.35-1.06-8-1.78-1.28-.36-2.51-.92-3.77-1.39-.46-.18-.86-.25-1.19.29a1.05,1.05,0,0,1-.74.38c-1.09,0-2.19,0-3.28,0-5,.08-10,.16-15,.27-.7,0-1-.3-.94-.91s.14-1,.11-1.45c-.13-2.27-.33-4.54-.44-6.81-.12-2.49-.14-5-.26-7.47a1.63,1.63,0,0,1,1.55-1.91l2.56-.17c.49,0,.67-.21.53-.7a15,15,0,0,1,.33-9.51c1.1-2.88,2.58-5.48,6-6.19a3.56,3.56,0,0,1,3.58,1.09,7,7,0,0,1,1.56,3.88,4.45,4.45,0,0,1-1,3.9c-1.07,1.17-2.24,2.25-3.31,3.41a8.26,8.26,0,0,0-1.43,2,5.22,5.22,0,0,0-.15,1.78,6,6,0,0,0,.69,0q4-.65,8-1.32c.39-.06.78,0,.76.42-.06,1,.59,1,1.24.86.38-.06.73-.26,1.1-.35a4.35,4.35,0,0,1,.88-.07c.32,0,.69.13.95,0,.89-.44,1.75-1,2.61-1.47.3-.18.53-.49.83-.69a17.77,17.77,0,0,0,1.79-1.09c.67-.55,1.21-1.26,1.87-1.82s1.65-1.21,2.42-1.86a4.51,4.51,0,0,1,7.57,4,6.82,6.82,0,0,1-3.88,5.06,32.55,32.55,0,0,1-8.58,2.85,33.23,33.23,0,0,1-7.89,1.11c-.61,0-.8.28-.8.86s.43.76.92.76c2.27,0,4.54.08,6.81-.05,1.32-.08,2.76,0,3.9-1,.06-.05.18,0,.28-.05a6.23,6.23,0,0,0,4-1.5.73.73,0,0,1,.33-.12c.55-.16,1.12-.27,1.65-.47s1.28-.64,2-.82c1-.26,2.07-.4,2.86.52a2.17,2.17,0,0,1,.07,2.49c-.5,1.06-1.12,2.08-1.7,3.13-1-.42-1.53.61-2.29.93s-1.74.61-1.92,1.52a9.55,9.55,0,0,0-1.52,0m-16.34,5.35c.49,0,.7-.14.67-.68-.18-3-.34-6-.48-9-.1-2.17-.18-4.35-.23-6.52,0-.62-.28-.74-.83-.66-2.36.35-4.73.74-7.11,1-2,.23-4.09.3-6.13.45-.9.06-1.8.11-2.7.19s-1.09.15-1.06,1.09c.09,3.37.21,6.74.34,10.11.05,1.14.23,2.29.26,3.43,0,.7.32.87.93.88,2.71,0,5.43.06,8.14.1v-.14l8.2-.2m15.48-15.33a20.05,20.05,0,0,0,2.33-1,1.17,1.17,0,0,0,.5-.93,10.41,10.41,0,0,0-2.55-6,6.22,6.22,0,0,1-.47-.79c-.71.66-1.37,1.28-2,1.91-.07.07,0,.28,0,.4.49,1.5,1.05,3,1.45,4.5a8.64,8.64,0,0,1,0,2.16c.16,0,.46-.1.74-.21M328.3,134.52c-.46.13-.71.37-.33.89.82,1.14,1.54,2.37,2.43,3.44a6.21,6.21,0,0,0,1.82,1.18.65.65,0,0,0,.56-.16,2.78,2.78,0,0,0,.89-2.91,3.63,3.63,0,0,0-1.7-2.52c-.45-.21-1-.33-1.43-.5-.78.2-1.52.37-2.24.58m18.59,14c.2.9.39,1.81.53,2.72.07.45.24.6.67.48.94-.27,1.88-.51,2.82-.79.35-.1.43-.24.28-.68-.41-1.22-.65-2.49-1-3.73a6.6,6.6,0,0,0-.7-1.5.75.75,0,0,0-.7-.16c-.72.45-1.41.95-2.09,1.47-.15.12-.2.36-.28.5.18.62.36,1.15.48,1.69M328.3,137.66a18.81,18.81,0,0,0-1.23-1.63c-.28-.34-.57-.33-.91,0-1.39,1.42-1.51,1.84-.25,3.37a14.45,14.45,0,0,0,2.88,2.64c1.09.77,1.82.42,2.45-1a10,10,0,0,1-2.94-3.43m14.44,11c-.39.2-1,.36-1.1.69s.1.89.19,1.34a10.62,10.62,0,0,1,.29,1.21c.07.83.47,1,1.23.78s1.48-.32,2.22-.46a.81.81,0,0,0,.75-1,8.12,8.12,0,0,0-1.14-3.84c-.81.41-1.63.81-2.44,1.24M325,139.89c-.16-.24-.49-.36-.74-.53a3,3,0,0,0-.47.75c-.65,2.58-.85,1.78.84,3.78.61.72,1.17,1.55,2.19,1.73a1.1,1.1,0,0,0,.86-.24,17.18,17.18,0,0,0,1.09-1.67,16.06,16.06,0,0,1-3.77-3.82m29.21,15.3c-.07-.51-.35-.58-.79-.41-.72.29-1.44.59-2.18.82a.82.82,0,0,0-.67.89c0,1-.13,1.94-.25,2.91-.06.46.15.62.52.54,1-.23,2.09-.48,3.11-.8.21-.06.4-.43.45-.68a5.73,5.73,0,0,0,0-1.1h.09c-.11-.72-.21-1.44-.32-2.16M352,164.48a8.59,8.59,0,0,1-1.68,0,.86.86,0,0,0-1.07.8c-.17.78-.43,1.54-.59,2.32a.65.65,0,0,0,.28.56c.89.15,1.78.27,2.68.34a1,1,0,0,0,1.2-.93c.14-.69.24-1.39.36-2.08,0-1.14,0-1.13-1.18-1m-4.26-4.28c1.48,0,1.86-.42,1.92-1.93,0-.51,0-1,0-1.53s-.2-.57-.62-.49c-.81.16-1.63.32-2.45.41-.61.08-.83.34-.81,1a11.27,11.27,0,0,1-.13,1.83c-.07.59.18.8.74.78.34,0,.68,0,1,0v0h.37M358,145.33a3.67,3.67,0,0,0-2.68-4.27,2.81,2.81,0,0,0-.87,0c-.38.05-.56.23-.31.65a17.69,17.69,0,0,1,2.29,5.36,8.06,8.06,0,0,0,.31.89,4.05,4.05,0,0,0,1.26-2.6m.3,11.33c.5-.54.05-1.11-.11-1.65a2.89,2.89,0,0,0-.37-.63c-.24-.37-.55-1.08-.71-1a6.75,6.75,0,0,0-1.77.77.62.62,0,0,0-.17.5c.05,1.19.13,2.37.21,3.56a3,3,0,0,0,.07.35,7.1,7.1,0,0,0,2.85-1.86m-4,11.31a28.92,28.92,0,0,0,2.75-2c.32-.29.58-1.13.4-1.38a2.47,2.47,0,0,0-1.49-.71,2.44,2.44,0,0,0-1.27.27,1,1,0,0,0-.57.65c-.18,1.05-.27,2.11-.41,3.3a1.75,1.75,0,0,0,.59-.12m-31.14-23.39a6.4,6.4,0,0,0,.83,3.83,1,1,0,0,0,.65.38,15.91,15.91,0,0,0,2.18-.1.73.73,0,0,0,.52-.4,1,1,0,0,0-.21-.79c-.95-.89-1.95-1.72-2.94-2.57-.25-.21-.52-.41-.82-.65-.13.19-.21.24-.21.3m19.23,15c.52.13,1.05.22,1.57.34s.78-.11.81-.58a12.83,12.83,0,0,0,0-2c0-.15-.33-.39-.53-.41-.65-.06-1.31,0-2-.07s-.94.25-.89.9c0,.15,0,.29,0,.44,0,1.07,0,1.08,1,1.34m-2.51-6.7c1.27.07,1.42-.12,1.11-1.37a12.54,12.54,0,0,0-.41-1.63c-.1-.24-.47-.37-.72-.54,0,0-.1,0-.14,0-1.65.07-1.65.07-1.61,1.73s0,1.73,1.77,1.81m6.3,11.46c-.17,0-.45,0-.49.06-.34.78-.64,1.58-.94,2.38,0,0,.13.21.23.24.72.2,1.45.41,2.19.56a.6.6,0,0,0,.45-.31,18.39,18.39,0,0,0,.84-2c.2-.57,0-.89-.68-.84a7.12,7.12,0,0,1-.8,0v0c-.27,0-.54-.06-.8-.06m-2.34,1.77a1.41,1.41,0,0,0,.25-.45c.67-1.47.64-1.53-.85-2s-1.38-.39-2,1c-.27.61-.23,1,.5,1.21a15.67,15.67,0,0,1,1.56.56,3,3,0,0,0,.51-.33M339,156.68c-.74,0-.86.35-.84.95,0,.8.51,1.22,1.64,1.15.24,0,.46-.61.69-.93-.19-1-.34-1.12-1.49-1.17m.89,8.12c.31,0,.79-.9.81-1.5s-.71-.92-1.48-.82c-.27,0-.5.4-.61.49,0,1.15.6,1.87,1.28,1.83m19.75-11.55c-.16-.19-.53-.21-.8-.31a2.06,2.06,0,0,0-.06.73,13.48,13.48,0,0,0,.5,1.34,1.39,1.39,0,0,0,.36-1.76"></path> <path d="M329,166.06c-2.71,0-5.43-.08-8.14-.1-.61,0-.92-.18-.93-.88,0-1.15-.21-2.29-.26-3.43-.13-3.37-.25-6.74-.34-10.11,0-.94.09-1,1.06-1.09s1.8-.13,2.7-.2c2-.14,4.1-.21,6.13-.44,2.38-.26,4.75-.65,7.11-1,.55-.08.82,0,.83.66.05,2.17.13,4.35.23,6.52q.21,4.51.48,9c0,.54-.18.67-.67.68l-8.2.2v.14m4.78-15a1.59,1.59,0,0,0-1.19,1.7,2.49,2.49,0,0,0,1.24,2.1,1,1,0,0,0,1.31-.29,21.14,21.14,0,0,0,1-1.93l-.19-.1c0-1.78-.56-2.15-2.21-1.48m1.33,13.59a1.72,1.72,0,0,0,1.65-1.55c0-1.06-.62-1.88-1.41-1.88-1.17,0-2.05.54-2.06,1.26a2.08,2.08,0,0,0,1.82,2.17m.52-7.12c-.18-.54-.22-1.25-1-1.3a1.84,1.84,0,0,0-1.62.93,1.67,1.67,0,0,0-.05,2.09,1.38,1.38,0,0,0,2.65-.42c0-.19.07-.38.1-.61a4.48,4.48,0,0,0-.11-.69" style="fill:#fff"></path> <path d="M351.89,150.59a5.31,5.31,0,0,0,.74-.2,20.05,20.05,0,0,0,2.33-1,1.21,1.21,0,0,0,.51-.93,10.56,10.56,0,0,0-2.56-6,6.22,6.22,0,0,1-.47-.79c-.71.66-1.37,1.27-2,1.91-.07.07,0,.28,0,.4.49,1.5,1.05,3,1.45,4.5a8.56,8.56,0,0,1,0,2.15" style="fill:#fff"></path> <path d="M330.54,133.94c-.78.2-1.52.37-2.24.58-.46.13-.71.37-.33.89.82,1.14,1.53,2.36,2.43,3.44a6.28,6.28,0,0,0,1.82,1.18.68.68,0,0,0,.56-.16,2.78,2.78,0,0,0,.89-2.91,3.64,3.64,0,0,0-1.7-2.52c-.45-.21-1-.33-1.43-.5" style="fill:#fff"></path> <path d="M346.41,146.81c.18.62.36,1.15.48,1.69.2.9.39,1.81.53,2.72.07.45.24.6.67.48.94-.27,1.88-.51,2.82-.79.35-.1.43-.24.28-.68-.41-1.22-.65-2.49-1-3.73a6.41,6.41,0,0,0-.7-1.5.75.75,0,0,0-.7-.16c-.72.45-1.41.95-2.09,1.47-.15.12-.2.36-.28.5" style="fill:#fff"></path> <path d="M331.24,141.09a10,10,0,0,1-2.94-3.43,18.81,18.81,0,0,0-1.23-1.63c-.28-.34-.57-.33-.91,0-1.39,1.42-1.51,1.84-.25,3.37a14.45,14.45,0,0,0,2.88,2.64c1.09.77,1.82.42,2.45-1" style="fill:#fff"></path> <path d="M345.18,147.4c-.81.41-1.63.81-2.44,1.24-.39.2-1,.36-1.1.69s.1.89.19,1.34.25.8.29,1.21c.07.83.47,1,1.23.78s1.48-.32,2.22-.46a.81.81,0,0,0,.75-1,8.12,8.12,0,0,0-1.14-3.84" style="fill:#fff"></path> <path d="M328.78,143.71a16.06,16.06,0,0,1-3.77-3.82c-.16-.24-.49-.36-.74-.53a3,3,0,0,0-.47.75c-.65,2.58-.85,1.78.84,3.78.61.72,1.17,1.55,2.19,1.73a1.1,1.1,0,0,0,.86-.24,17.18,17.18,0,0,0,1.09-1.67" style="fill:#fff"></path> <path d="M354.54,157.35c-.11-.72-.21-1.44-.32-2.16-.07-.51-.35-.58-.79-.41-.72.29-1.44.59-2.19.82a.82.82,0,0,0-.66.89c0,1-.13,1.94-.25,2.91-.06.46.15.62.52.54,1-.23,2.09-.48,3.11-.8.21-.06.4-.43.45-.68a5.73,5.73,0,0,0,0-1.1h.09" style="fill:#fff"></path> <path d="M353.17,165.52c0-1.14,0-1.13-1.18-1a8.59,8.59,0,0,1-1.68,0,.86.86,0,0,0-1.07.8c-.17.78-.43,1.54-.59,2.32a.65.65,0,0,0,.28.56c.89.15,1.78.27,2.68.34a1,1,0,0,0,1.2-.93c.14-.69.24-1.39.36-2.08" style="fill:#fff"></path> <path d="M347.36,160.21h.37c1.48,0,1.86-.43,1.92-1.93,0-.51,0-1,0-1.53s-.2-.57-.62-.49c-.81.16-1.63.32-2.45.41-.61.07-.83.34-.81,1a11.27,11.27,0,0,1-.13,1.83c-.07.59.18.8.74.78.34,0,.68,0,1,0v0" style="fill:#fff"></path> <path d="M356.72,147.93a4.05,4.05,0,0,0,1.26-2.6,3.67,3.67,0,0,0-2.68-4.27,2.54,2.54,0,0,0-.87,0c-.38.05-.56.23-.31.65a17.69,17.69,0,0,1,2.29,5.36,8.06,8.06,0,0,0,.31.89" style="fill:#fff"></path> <path d="M355.43,158.52a7.1,7.1,0,0,0,2.85-1.86c.5-.54.05-1.11-.11-1.65a2.89,2.89,0,0,0-.37-.63c-.24-.37-.55-1.08-.71-1a6.62,6.62,0,0,0-1.78.77.66.66,0,0,0-.16.5c.05,1.19.13,2.37.21,3.56a3,3,0,0,0,.07.35" style="fill:#fff"></path> <path d="M353.66,168.09a1.75,1.75,0,0,0,.59-.12,28.92,28.92,0,0,0,2.75-2c.32-.29.58-1.13.4-1.38a2.47,2.47,0,0,0-1.49-.71,2.44,2.44,0,0,0-1.27.27,1,1,0,0,0-.57.65c-.18,1.05-.27,2.11-.41,3.3" style="fill:#fff"></path> <path d="M323.32,144.28c-.13.18-.21.24-.21.3a6.4,6.4,0,0,0,.83,3.83,1,1,0,0,0,.65.38,15.91,15.91,0,0,0,2.18-.1.73.73,0,0,0,.52-.4,1,1,0,0,0-.21-.79c-.95-.89-1.95-1.72-2.94-2.57-.25-.22-.52-.41-.82-.65" style="fill:#fff"></path> <path d="M341.34,158.2c0,1.07,0,1.08,1,1.34.52.13,1.05.22,1.57.34s.78-.11.81-.58a12.83,12.83,0,0,0,0-2c0-.15-.33-.39-.53-.41-.65-.06-1.31,0-2-.07s-.94.25-.89.9c0,.15,0,.29,0,.44" style="fill:#fff"></path> <path d="M338.06,151c0,1.73,0,1.73,1.77,1.81,1.27.06,1.42-.12,1.11-1.37a12.54,12.54,0,0,0-.41-1.63c-.1-.24-.47-.37-.72-.54,0,0-.1,0-.14,0-1.65.07-1.65.07-1.61,1.73" style="fill:#fff"></path> <path d="M346.93,164.36c-.27,0-.54-.06-.8-.06s-.45,0-.49.06c-.34.78-.64,1.58-.94,2.37,0,.05.13.22.23.25.72.2,1.45.41,2.19.56a.6.6,0,0,0,.45-.31,19.26,19.26,0,0,0,.84-2c.2-.57,0-.89-.68-.84a7.12,7.12,0,0,1-.8,0v0" style="fill:#fff"></path> <path d="M343.28,166.4a3,3,0,0,0,.51-.33,1.41,1.41,0,0,0,.25-.45c.67-1.47.64-1.53-.85-2s-1.38-.39-2,1c-.27.61-.23,1,.5,1.21a15.67,15.67,0,0,1,1.56.56" style="fill:#fff"></path> <path d="M340.51,157.85c-.19-1-.34-1.12-1.49-1.17-.74,0-.86.35-.84.95,0,.8.51,1.22,1.64,1.15.24,0,.46-.61.69-.93" style="fill:#fff"></path> <path d="M338.63,163c0,1.15.6,1.87,1.28,1.83.31,0,.79-.9.81-1.5s-.71-.92-1.47-.82c-.28,0-.51.4-.62.49" style="fill:#fff"></path> <path d="M359.3,155a1.39,1.39,0,0,0,.36-1.76c-.16-.19-.53-.21-.8-.31a2.06,2.06,0,0,0-.06.73,13.48,13.48,0,0,0,.5,1.34" style="fill:#fff"></path> <path d="M336.13,152.63a21.14,21.14,0,0,1-1,1.93,1,1,0,0,1-1.31.29,2.49,2.49,0,0,1-1.24-2.1,1.59,1.59,0,0,1,1.19-1.7c1.65-.67,2.2-.3,2.21,1.48l.19.1m-2.41.42c0,.09,0,.26.13.29s.31.08.39,0c.28-.23.53-.5.85-.81-.55-.14-1.32.19-1.37.51"></path> <path d="M333.24,162.47a2.08,2.08,0,0,0,1.82,2.17,1.72,1.72,0,0,0,1.65-1.55c0-1.06-.62-1.88-1.41-1.88-1.17,0-2.05.54-2.06,1.26"></path> <path d="M335.69,158.21a4.48,4.48,0,0,0-.11-.69c-.18-.54-.22-1.25-1-1.3a1.84,1.84,0,0,0-1.62.93,1.67,1.67,0,0,0-.05,2.09,1.38,1.38,0,0,0,2.65-.42c0-.19.07-.38.1-.61"></path> <path d="M335.09,152.54c-.55-.14-1.32.19-1.37.51,0,.09,0,.26.13.29a.42.42,0,0,0,.39,0c.28-.23.53-.5.85-.81" style="fill:#fff"></path> <path d="M283.24,169.1c-.38,1.53-.94,2.24-2.29,2.26-3.28.07-6.58.4-9.84.22A16.6,16.6,0,0,1,259.48,166c-.52-.57-1.11-1.08-1.64-1.63a1.19,1.19,0,0,1,0-1.8,72.4,72.4,0,0,0,7.51-11.32,34.75,34.75,0,0,1,1.84-3,1.49,1.49,0,0,1,1.21-.26c1.13.21,2.23.65,3.37.8,2.33.3,4.68.47,7,.7.28,0,.68,0,.82.18.69.82,1.47.52,2.21.23,2.19-.85,4.36-1.76,6.54-2.64,2.39-1,4.78-1.92,7.16-2.92,2.75-1.16,5.47-2.42,8.25-3.53s5.46-2.07,8.23-3c1-.32,1.38,0,1.6,1q1.89,8.25,3.78,16.5a58.21,58.21,0,0,1,1.18,10.85,2.46,2.46,0,0,1-2.06,2.77,47.21,47.21,0,0,1-6.72.44c-8-.06-16.06-.22-24.08-.33-.8,0-1.61.1-2.45.16m32.47-12.34c-.87-3.43-1.86-7.47-2.91-11.49-.34-1.34-.79-2.65-1.23-4-.2-.62-.6-.82-1.28-.56-1.66.62-3.35,1.15-5,1.79q-6.77,2.59-13.52,5.25-5.07,2-10.15,4c-1.85.74-1.92.84-1.51,3,.71,3.73,1.5,7.45,2.2,11.19a1.24,1.24,0,0,0,1.47,1.15c.81,0,1.61-.11,2.41-.1,4.45.06,8.89.15,13.34.2,3.51,0,7,.08,10.53,0,1.8,0,3.6-.21,5.39-.39a1.31,1.31,0,0,0,1.28-1.6c-.31-2.62-.63-5.24-1-8.48m-37.13,3.14-.21,0c0-.29-.08-.58-.13-.86-.37-2.23-.75-4.45-1.11-6.68a1.5,1.5,0,0,0-1.58-1.46c-.74,0-1.47-.18-2.21-.23-1.48-.11-2.95-.22-4.43-.25a1.24,1.24,0,0,0-.91.5c-.72,1.07-1.33,2.21-2,3.29q-2.55,3.87-5.15,7.69c-.35.52-1.07,1-1,1.47s.74,1,1.17,1.46a14.47,14.47,0,0,0,6.55,4.25,23.53,23.53,0,0,0,9.94.7c2.93-.32,3.07-.46,2.47-3.4-.44-2.17-.89-4.35-1.34-6.52"></path> <path d="M315.71,156.76c.39,3.24.71,5.86,1,8.48a1.31,1.31,0,0,1-1.28,1.6c-1.79.18-3.59.36-5.39.39-3.51.05-7,0-10.53,0-4.45,0-8.89-.14-13.34-.2-.8,0-1.6.07-2.41.1a1.24,1.24,0,0,1-1.47-1.15c-.7-3.74-1.49-7.46-2.2-11.19-.41-2.14-.34-2.24,1.51-3q5.07-2,10.15-4,6.75-2.64,13.52-5.25c1.65-.64,3.34-1.17,5-1.8.68-.25,1.08,0,1.28.57.44,1.32.89,2.63,1.23,4,1.05,4,2,8.06,2.91,11.49" style="fill:#fff"></path> <path d="M278.58,159.89q.68,3.27,1.34,6.53c.6,2.94.46,3.07-2.47,3.4a23.7,23.7,0,0,1-9.94-.7,14.41,14.41,0,0,1-6.55-4.26c-.43-.47-1.13-.94-1.17-1.45s.68-1,1-1.47q2.6-3.84,5.15-7.69c.71-1.08,1.31-2.22,2-3.29a1.24,1.24,0,0,1,.91-.5c1.48,0,2.95.14,4.43.25.74,0,1.47.21,2.21.23a1.49,1.49,0,0,1,1.58,1.46c.36,2.23.74,4.45,1.11,6.68.05.28.09.57.13.86Zm-6.74.16c-.55-2.53-1.94-3.36-4.16-2.58-1.35.48-2,1.49-1.49,2.63a17,17,0,0,0,2,2.78.36.36,0,0,0,.27.09c.87-.1,1.94.06,2.56-.4a2.06,2.06,0,0,0,.84-2.52" style="fill:#fff"></path> <path d="M271.84,160.05a2.09,2.09,0,0,1-.84,2.53c-.62.45-1.69.29-2.56.39a.36.36,0,0,1-.27-.09,17.6,17.6,0,0,1-2-2.77c-.53-1.15.15-2.16,1.5-2.64,2.21-.78,3.61.05,4.16,2.58m-4.23-1.21c-.05.17-.24.47-.19.72a3.78,3.78,0,0,0,2.67,1.93c.21,0,.55-.43.52-.62a2.58,2.58,0,0,0-3-2"></path> <path d="M267.61,158.84a2.58,2.58,0,0,1,3,2c0,.19-.31.59-.52.62a3.78,3.78,0,0,1-2.67-1.93c-.05-.25.14-.55.19-.72" style="fill:#fff"></path> <path d="M94.33,169.22c.78-1,1.61-2,2.43-3.05.21-.26.44-.5.69-.79.17.16.25.2.26.26a6.39,6.39,0,0,1-.11,3.87c.3-.06.61-.13.91-.21a.66.66,0,0,1,0-.14,15,15,0,0,0-2-9.3c-1.59-2.64-3.52-4.93-7-5a3.55,3.55,0,0,0-3.32,1.72,6.84,6.84,0,0,0-.85,4.09,4.48,4.48,0,0,0,1.7,3.66c1.26,1,2.6,1.81,3.87,2.76a8.5,8.5,0,0,1,1.75,1.69,3.06,3.06,0,0,1,.38,1.32c.43,0,.86-.06,1.29-.1a1,1,0,0,1,.07-.76m1.9-7.85c1.1,2.42,1.16,1.59-.15,3.86-.47.82-.87,1.73-1.84,2.09a1.05,1.05,0,0,1-.89-.08A16,16,0,0,1,92,165.79a15.71,15.71,0,0,0,3-4.43c.12-.26.42-.44.64-.65.2.22.48.4.59.66m-8.87,1.36A2.75,2.75,0,0,1,86,160a3.56,3.56,0,0,1,1.22-2.78,12,12,0,0,1,1.31-.75c.81.06,1.56.09,2.31.17.48.05.76.24.48.82-.6,1.26-1.08,2.6-1.77,3.81a6.26,6.26,0,0,1-1.58,1.49.64.64,0,0,1-.58-.06m1.74.92a10,10,0,0,0,2.27-3.89c.27-.62.59-1.23.92-1.82.21-.39.5-.43.9-.15,1.62,1.15,1.81,1.54.85,3.27a14.58,14.58,0,0,1-2.36,3.11c-.94,1-1.72.74-2.58-.52"></path> <path d="M101.7,169.46c-.85.11-1.7.18-2.55.29-.42.06-.63-.07-.64-.45-.3.08-.61.15-.91.21l0,.05A.93.93,0,0,1,97,170a15.8,15.8,0,0,1-2.16.3.69.69,0,0,1-.58-.31.07.07,0,0,1,0-.05c-.43,0-.86.08-1.29.1,0,.14,0,.27.08.4a5.55,5.55,0,0,1-.68.08l-8.13.14c-.39,0-.77.1-.67.55.25,1-.4,1.05-1.07,1.07-.38,0-.76-.13-1.14-.15a5.24,5.24,0,0,0-.88.08c-.31.05-.66.26-.93.18-1-.27-1.9-.62-2.83-1-.33-.13-.62-.39-1-.53a19.2,19.2,0,0,1-2-.76c-.76-.42-1.41-1-2.16-1.45s-1.84-.9-2.72-1.4a4.51,4.51,0,0,0-6.73,5.31,6.82,6.82,0,0,0,4.72,4.28,32.54,32.54,0,0,0,9,1.27,33.1,33.1,0,0,0,8-.32c.6-.12.84.14,1,.71s-.29.82-.78.91c-2.23.41-4.45.89-6.7,1.17-1.32.16-2.71.52-4-.25-.08,0-.2,0-.29,0a6.25,6.25,0,0,1-4.21-.76.76.76,0,0,0-.34-.06c-.57-.05-1.15-.06-1.71-.16a19.38,19.38,0,0,0-2.08-.46A2.58,2.58,0,0,0,62,180a2.16,2.16,0,0,0,.38,2.46c.69,1,1.47,1.85,2.23,2.78,1-.6,1.62.32,2.43.51s1.81.29,2.15,1.15a9.07,9.07,0,0,1,1.5-.28,31.81,31.81,0,0,0,5.52-.06,20.85,20.85,0,0,0,3.3-.55c1.77-.62,3.46-1.47,5.18-2.21.4-.18.83-.32,1,.31s-.08.84-.66,1a9.9,9.9,0,0,0-1.93.63,32.88,32.88,0,0,1-3.5,1.67c-2.2.7-4.46,1.23-6.72,1.77a6.59,6.59,0,0,1-1.71-.07l-.35,0-1.79.13a6.83,6.83,0,0,0-1.44.13,2,2,0,0,0-1,3.16,8.88,8.88,0,0,0,5.49,3,6.09,6.09,0,0,0,2,.14c2.81-.39,5.07-2,7.52-3.17,1.2-.58,2.31-1.35,3.46-2,.42-.26.8-.41,1.23.07a1,1,0,0,0,.78.24c1.09-.17,2.15-.43,3.24-.61q7.41-1.23,14.83-2.41c.69-.11.88-.47.76-1.07s-.31-.93-.37-1.41c-.28-2.25-.49-4.52-.78-6.77-.33-2.47-.76-4.93-1.08-7.4a1.63,1.63,0,0,0-1.87-1.6M63.3,180.7c.13-.21.49-.3.74-.44a2.28,2.28,0,0,1,.19.7c0,.45-.16.89-.26,1.41a1.39,1.39,0,0,1-.67-1.67m5.11,4.43a7.05,7.05,0,0,1-3.14-1.32c-.58-.44-.24-1.09-.18-1.64a2.61,2.61,0,0,1,.25-.69c.16-.4.34-1.15.5-1.15a6.35,6.35,0,0,1,1.89.45c.13,0,.24.29.26.46.16,1.17.29,2.35.43,3.53,0,.1,0,.19,0,.36m4.41-2.86a27.13,27.13,0,0,0,.77,2.81c.14.45,0,.64-.42.63-1.07,0-2.15-.1-3.21-.23-.21,0-.46-.35-.56-.59a5.36,5.36,0,0,1-.23-1.07h-.1c0-.73,0-1.46-.07-2.2,0-.5.24-.63.7-.53.77.15,1.53.31,2.3.41a.84.84,0,0,1,.82.76m5,.24a12.08,12.08,0,0,0,.45,1.77c.18.57,0,.82-.59.9-.33,0-.67.12-1,.19v0l-.37.06c-1.46.21-1.9-.09-2.23-1.55-.11-.5-.17-1-.24-1.52s.1-.59.53-.59c.83,0,1.66,0,2.48,0,.62,0,.88.18,1,.79m-5.93,11.72a1.64,1.64,0,0,1-.6,0,25.53,25.53,0,0,1-3.07-1.48c-.36-.23-.77-1-.63-1.29a2.49,2.49,0,0,1,1.33-1,2.41,2.41,0,0,1,1.3,0,1,1,0,0,1,.67.53c.37,1,.65,2,1,3.18m4.67-.75c-.84.31-1.7.59-2.57.82a1.05,1.05,0,0,1-1.35-.71c-.26-.65-.49-1.31-.73-2-.16-1.12-.16-1.11,1-1.23a9.27,9.27,0,0,0,1.66-.27.86.86,0,0,1,1.19.59c.31.74.7,1.45,1,2.19a.63.63,0,0,1-.18.59m3.72-1.9c-.67.33-1.35.66-2,.94a.59.59,0,0,1-.5-.22,19.6,19.6,0,0,1-1.19-1.82c-.29-.53-.12-.88.52-.95.27,0,.53-.1.79-.15v0c.26-.07.51-.16.77-.21s.44-.09.49,0c.47.71.92,1.43,1.35,2.17,0,0-.09.23-.18.28m3-1.7c-.48.23-.93.53-1.44.83a2.53,2.53,0,0,1-.56-.23,1.44,1.44,0,0,1-.33-.4c-.91-1.33-.9-1.39.49-2.07s1.29-.63,2.11.59c.37.56.41,1-.27,1.28m1.59-1.34c-.31,0-.94-.75-1.06-1.33s.53-1,1.3-1.08c.27,0,.56.3.69.38.2,1.13-.26,1.94-.93,2M65.39,174a8.48,8.48,0,0,1-.14.93,4.07,4.07,0,0,1-1.71-2.33,3.68,3.68,0,0,1,1.87-4.68,3.17,3.17,0,0,1,.85-.19c.39,0,.6.13.42.59A17.91,17.91,0,0,0,65.39,174m5.08,2.69a4.81,4.81,0,0,1-.76-.06,22.76,22.76,0,0,1-2.47-.59,1.22,1.22,0,0,1-.67-.83A10.52,10.52,0,0,1,68,168.84a5.6,5.6,0,0,0,.32-.86c.81.53,1.58,1,2.32,1.52.08.05.08.27.06.4-.21,1.56-.49,3.12-.62,4.69a9,9,0,0,0,.38,2.11m4.52-.18c0,.45-.13.63-.58.59-1-.1-1.94-.17-2.91-.27-.36,0-.47-.16-.4-.63.19-1.27.19-2.56.33-3.84a5.9,5.9,0,0,1,.42-1.6.73.73,0,0,1,.66-.29,25.46,25.46,0,0,1,2.31,1.08c.17.09.27.31.37.43-.07.65-.15,1.2-.17,1.76,0,.92-.06,1.85,0,2.77m5.33-.3c.07.83-.29,1.06-1.07,1s-1.51,0-2.27,0a.81.81,0,0,1-.91-.81,8,8,0,0,1,.44-4l2.61.78c.43.13,1,.19,1.21.48s.06.9,0,1.36-.09.83-.06,1.24m2.42.54c-1.24.29-1.42.13-1.33-1.15a11.57,11.57,0,0,1,.11-1.68c.06-.26.39-.45.61-.67,0,0,.09,0,.14,0,1.63-.22,1.63-.22,1.89,1.42s.27,1.71-1.42,2.1m-.61,5.11a3.58,3.58,0,0,0,.08.43c.24,1,.25,1-.75,1.49-.48.22-1,.41-1.48.62a.59.59,0,0,1-.9-.42,14,14,0,0,1-.37-1.93c0-.15.26-.44.45-.49.63-.19,1.29-.27,1.93-.43s1,.08,1,.73m1.69.73c-.25,0-.56-.52-.85-.8,0-1,.13-1.16,1.26-1.41.72-.16.9.19,1,.78.11.8-.28,1.3-1.4,1.43m18.91-10.8q.76,5,1.47,10c.16,1.13.18,2.29.36,3.42.11.69-.16.92-.76,1-2.67.51-5.33,1-8,1.56,0,0,0-.09,0-.14-2.71.42-5.41.83-8.11,1.27-.49.08-.71,0-.78-.55q-.54-4.5-1.14-9-.44-3.24-1-6.46c-.09-.61.15-.77.7-.79,2.39-.08,4.79-.12,7.17-.29,2-.14,4.08-.43,6.12-.66.9-.1,1.79-.21,2.69-.29s1.09,0,1.24.88"></path> <path d="M101.49,170.92c-.9.08-1.79.19-2.69.29-2,.23-4.07.52-6.12.66-2.38.17-4.78.21-7.17.29-.55,0-.79.18-.7.79q.51,3.23,1,6.46.6,4.49,1.14,9c.07.54.29.63.78.55,2.7-.44,5.4-.85,8.11-1.27,0,0,0,.09,0,.14,2.66-.52,5.32-1,8-1.56.6-.11.87-.34.76-1-.18-1.13-.2-2.29-.36-3.42q-.7-5-1.47-10c-.15-.93-.27-1-1.24-.88M91,185.05a2.08,2.08,0,0,1-1.41,2.46,1.7,1.7,0,0,1-1.89-1.22c-.19-1.06.27-2,1-2.11,1.14-.21,2.11.17,2.25.87m-.28-3.23a1.39,1.39,0,0,1-2.69.07c-.07-.18-.13-.37-.21-.59a5.37,5.37,0,0,1,0-.7c.08-.56,0-1.27.72-1.45a1.81,1.81,0,0,1,1.76.63,1.66,1.66,0,0,1,.43,2m-.77-6.46a2.5,2.5,0,0,1-.84,2.29,1,1,0,0,1-1.35-.05,19.13,19.13,0,0,1-1.37-1.72l.17-.13c-.31-1.75.17-2.21,1.91-1.85a1.6,1.6,0,0,1,1.48,1.46" style="fill:#fff"></path> <path d="M70.47,176.7a6.43,6.43,0,0,1-.76-.06,20.68,20.68,0,0,1-2.47-.6,1.18,1.18,0,0,1-.67-.82A10.52,10.52,0,0,1,68,168.84a5.6,5.6,0,0,0,.32-.86c.81.53,1.58,1,2.32,1.52.08.05.08.27.06.4-.21,1.56-.49,3.12-.62,4.69a9,9,0,0,0,.38,2.11" style="fill:#fff"></path> <path d="M88.5,156.5c.81.06,1.56.09,2.31.17.48.05.76.24.49.82-.61,1.26-1.09,2.6-1.78,3.81a6.09,6.09,0,0,1-1.58,1.49.64.64,0,0,1-.58-.06A2.75,2.75,0,0,1,86,160a3.56,3.56,0,0,1,1.22-2.78,13.92,13.92,0,0,1,1.31-.75" style="fill:#fff"></path> <path d="M75.19,172c-.07.64-.15,1.2-.17,1.76,0,.92-.06,1.85,0,2.77,0,.45-.13.63-.58.59-1-.1-1.94-.17-2.91-.27-.36,0-.47-.16-.4-.63.19-1.27.19-2.56.33-3.84a5.9,5.9,0,0,1,.42-1.6.73.73,0,0,1,.66-.29,25.46,25.46,0,0,1,2.31,1.08c.17.09.27.31.37.43" style="fill:#fff"></path> <path d="M89.1,163.65a10,10,0,0,0,2.27-3.89c.27-.62.59-1.23.92-1.82.21-.39.5-.43.9-.15,1.62,1.15,1.81,1.54.85,3.27a14.58,14.58,0,0,1-2.36,3.11c-.94,1-1.72.74-2.58-.52" style="fill:#fff"></path> <path d="M76.51,172.36l2.61.78c.43.13,1,.19,1.21.48s.06.9,0,1.36-.09.83-.06,1.24c.07.82-.29,1.06-1.07,1s-1.51,0-2.27,0a.81.81,0,0,1-.91-.81,8,8,0,0,1,.44-4" style="fill:#fff"></path> <path d="M92,165.79a15.71,15.71,0,0,0,3-4.43c.12-.26.42-.44.64-.65a2.62,2.62,0,0,1,.59.66c1.1,2.42,1.16,1.59-.15,3.86-.47.82-.87,1.73-1.84,2.09a1.05,1.05,0,0,1-.89-.08A16,16,0,0,1,92,165.79" style="fill:#fff"></path> <path d="M69.07,183.82c0-.73,0-1.46-.07-2.19,0-.5.24-.63.7-.53.77.15,1.53.31,2.3.41a.84.84,0,0,1,.82.76,27.13,27.13,0,0,0,.77,2.81c.14.45,0,.64-.42.63-1.07,0-2.15-.1-3.21-.23-.21,0-.46-.35-.56-.59a5.36,5.36,0,0,1-.23-1.07h-.1" style="fill:#fff"></path> <path d="M71.88,191.61c-.16-1.12-.16-1.11,1-1.23a9.27,9.27,0,0,0,1.66-.27.86.86,0,0,1,1.19.59c.31.74.7,1.45,1,2.19a.63.63,0,0,1-.18.59c-.84.31-1.7.59-2.57.82a1.05,1.05,0,0,1-1.35-.71c-.26-.65-.49-1.31-.73-2" style="fill:#fff"></path> <path d="M76.65,185.35l-.37.06c-1.46.21-1.9-.09-2.23-1.55-.11-.5-.17-1-.24-1.52s.1-.6.53-.59c.83,0,1.66,0,2.48,0,.62,0,.88.18,1,.79a12.08,12.08,0,0,0,.45,1.77c.18.56,0,.82-.59.9-.33,0-.67.12-1,.19v0" style="fill:#fff"></path> <path d="M65.25,174.94a4.07,4.07,0,0,1-1.71-2.33,3.68,3.68,0,0,1,1.87-4.68,3.17,3.17,0,0,1,.85-.19c.39,0,.6.13.42.59A18.19,18.19,0,0,0,65.39,174a8.48,8.48,0,0,1-.14.93" style="fill:#fff"></path> <path d="M68.41,185.13a7.05,7.05,0,0,1-3.14-1.32c-.59-.44-.24-1.09-.18-1.64a2.61,2.61,0,0,1,.25-.69c.16-.4.34-1.16.5-1.15a6.35,6.35,0,0,1,1.89.45c.13,0,.24.29.26.46.16,1.17.29,2.35.43,3.53,0,.1,0,.19,0,.36" style="fill:#fff"></path> <path d="M71.86,194.23a1.64,1.64,0,0,1-.6,0,25.53,25.53,0,0,1-3.07-1.48c-.36-.23-.77-1-.63-1.29a2.49,2.49,0,0,1,1.33-1,2.41,2.41,0,0,1,1.3,0,1,1,0,0,1,.67.53c.37,1,.65,2,1,3.18" style="fill:#fff"></path> <path d="M97.71,165.64c0-.06-.09-.1-.26-.26-.25.29-.48.53-.69.79-.82,1-1.65,2-2.43,3.05a1,1,0,0,0-.07.76,27.07,27.07,0,0,0,3.34-.47,6.39,6.39,0,0,0,.11-3.87" style="fill:#fff"></path> <path d="M94.26,170a.07.07,0,0,0,0,.05.69.69,0,0,0,.58.31A15.59,15.59,0,0,0,97,170a.93.93,0,0,0,.57-.48l0-.05a27.07,27.07,0,0,1-3.34.47" style="fill:#fff"></path> <path d="M82.21,182.3c.24,1,.25,1-.75,1.49-.48.22-1,.41-1.48.62a.59.59,0,0,1-.9-.42,14,14,0,0,1-.37-1.93c0-.15.26-.44.45-.5.63-.18,1.29-.26,1.93-.42s1,.08,1,.73a3.58,3.58,0,0,0,.08.43" style="fill:#fff"></path> <path d="M84.16,174.66c.27,1.71.27,1.71-1.42,2.1-1.24.29-1.42.13-1.33-1.16a11.52,11.52,0,0,1,.11-1.67c.06-.26.39-.45.61-.67,0,0,.09,0,.14,0,1.63-.22,1.63-.22,1.89,1.42" style="fill:#fff"></path> <path d="M77.82,189.36c.26-.07.51-.16.77-.21s.44-.09.49,0c.48.71.92,1.43,1.35,2.17,0,0-.09.23-.18.28-.67.33-1.35.66-2,.94a.58.58,0,0,1-.5-.23,18.21,18.21,0,0,1-1.19-1.81c-.29-.53-.12-.88.52-.95.27,0,.53-.1.79-.15v0" style="fill:#fff"></path> <path d="M81.77,190.71a2.53,2.53,0,0,1-.56-.23,1.44,1.44,0,0,1-.33-.4c-.91-1.33-.9-1.39.49-2.07s1.29-.63,2.11.59c.37.56.41,1-.27,1.28-.48.23-.93.53-1.44.83" style="fill:#fff"></path> <path d="M83,181.8c0-1,.13-1.16,1.26-1.41.72-.16.9.19,1,.78.11.8-.28,1.3-1.4,1.43-.25,0-.56-.52-.85-.8" style="fill:#fff"></path> <path d="M85.73,186.51c.2,1.13-.26,1.94-.93,2-.31,0-.94-.75-1.06-1.33s.53-1,1.3-1.08c.27,0,.57.3.69.38" style="fill:#fff"></path> <path d="M64,182.37c-.63-.42-.95-1.2-.67-1.67.13-.21.49-.3.74-.44a2.28,2.28,0,0,1,.19.7c0,.45-.16.89-.26,1.41" style="fill:#fff"></path> <path d="M86.51,175.75c-.31-1.75.17-2.21,1.91-1.85a1.6,1.6,0,0,1,1.48,1.46,2.5,2.5,0,0,1-.84,2.29,1,1,0,0,1-1.35-.05,19.13,19.13,0,0,1-1.37-1.72l.17-.13m.84-.14c.37.25.66.47,1,.65a.48.48,0,0,0,.39-.08.37.37,0,0,0,.07-.31c-.11-.3-.93-.5-1.44-.26"></path> <path d="M91,185.05a2.08,2.08,0,0,1-1.41,2.46,1.7,1.7,0,0,1-1.89-1.22c-.19-1.06.27-2,1-2.11,1.15-.21,2.11.17,2.25.87"></path> <path d="M87.77,181.3a5.37,5.37,0,0,1,0-.7c.08-.56,0-1.27.72-1.45a1.81,1.81,0,0,1,1.76.63,1.66,1.66,0,0,1,.43,2,1.39,1.39,0,0,1-2.69.07c-.07-.18-.13-.37-.21-.59"></path> <path d="M87.35,175.61c.51-.24,1.33,0,1.44.26a.37.37,0,0,1-.07.31.48.48,0,0,1-.39.08c-.32-.18-.61-.4-1-.65" style="fill:#fff"></path> <path d="M133.64,151.36c-.22-1.56,0-2.43,1.28-3,3-1.29,6-2.83,9.05-3.88a16.59,16.59,0,0,1,12.89.87c.69.34,1.42.59,2.13.9a1.17,1.17,0,0,1,.68,1.66,72.79,72.79,0,0,0-2.73,13.31,34.41,34.41,0,0,1-.57,3.52c-.07.3-.63.61-1,.69-1.13.23-2.31.23-3.43.52-2.27.59-4.51,1.32-6.77,2-.28.08-.64.24-.84.13-.94-.5-1.55.07-2.13.61-1.71,1.62-3.39,3.27-5.08,4.91-1.85,1.79-3.72,3.56-5.55,5.37-2.12,2.11-4.17,4.29-6.33,6.36s-4.3,4-6.52,5.86c-.79.67-1.29.48-1.86-.32-3.22-4.64-6.43-9.28-9.67-13.9a59.68,59.68,0,0,1-5.15-9.62,2.46,2.46,0,0,1,.88-3.34,48.44,48.44,0,0,1,6.07-2.93c7.47-2.94,15-5.79,22.46-8.69.75-.28,1.45-.69,2.21-1.06m-25.5,23.58c2.08,2.86,4.52,6.23,7,9.58.82,1.11,1.73,2.16,2.62,3.21a.84.84,0,0,0,1.4.05c1.3-1.2,2.68-2.33,4-3.53,3.54-3.29,7.06-6.61,10.57-9.92,2.65-2.5,5.3-5,7.92-7.51,1.44-1.38,1.47-1.49.29-3.32-2.05-3.2-4.17-6.36-6.22-9.56a1.24,1.24,0,0,0-1.79-.52c-.74.32-1.45.7-2.2,1-4.15,1.61-8.31,3.18-12.45,4.8-3.27,1.27-6.54,2.55-9.78,3.91-1.66.69-3.26,1.53-4.85,2.37a1.31,1.31,0,0,0-.59,2l4.12,7.48m33.26-16.78.18-.12.44.75c1.18,1.93,2.37,3.84,3.53,5.78a1.49,1.49,0,0,0,2,.76c.7-.26,1.43-.39,2.14-.61,1.41-.45,2.82-.9,4.2-1.42a1.25,1.25,0,0,0,.66-.81c.26-1.26.4-2.54.65-3.81.61-3,1.26-6,1.9-9.06.13-.6.62-1.34.41-1.75s-1.06-.62-1.63-.91a14.37,14.37,0,0,0-7.67-1.49,23.56,23.56,0,0,0-9.48,3.06c-2.59,1.4-2.67,1.57-1,4.07q1.83,2.79,3.68,5.56"></path> <path d="M108.14,174.94,104,167.46a1.31,1.31,0,0,1,.59-2c1.59-.84,3.19-1.68,4.85-2.37,3.24-1.36,6.51-2.64,9.78-3.91,4.14-1.62,8.3-3.19,12.45-4.8.75-.29,1.46-.67,2.2-1a1.24,1.24,0,0,1,1.79.52c2,3.2,4.17,6.36,6.22,9.56,1.18,1.83,1.15,1.94-.29,3.32-2.62,2.52-5.27,5-7.92,7.51-3.51,3.31-7,6.63-10.57,9.92-1.29,1.2-2.67,2.33-4,3.53a.84.84,0,0,1-1.4-.05c-.89-1-1.8-2.1-2.62-3.21-2.47-3.35-4.91-6.72-7-9.58" style="fill:#fff"></path> <path d="M141.4,158.16q-1.85-2.78-3.68-5.56c-1.65-2.5-1.58-2.67,1-4.07a23.51,23.51,0,0,1,9.48-3.06,14.37,14.37,0,0,1,7.67,1.49c.57.29,1.4.45,1.63.91s-.28,1.15-.41,1.75c-.64,3-1.29,6-1.9,9.06-.25,1.27-.39,2.55-.65,3.81a1.28,1.28,0,0,1-.66.81c-1.38.52-2.79,1-4.2,1.42-.71.22-1.44.35-2.14.61a1.49,1.49,0,0,1-2-.76c-1.16-1.94-2.35-3.85-3.53-5.78l-.44-.75-.18.12m6.19-2.67c1.47,2.15,3.07,2.39,4.83.84,1.07-1,1.33-2.14.4-3a17,17,0,0,0-2.88-1.83.34.34,0,0,0-.28,0c-.77.42-1.82.68-2.23,1.33a2.08,2.08,0,0,0,.16,2.65" style="fill:#fff"></path> <path d="M147.59,155.49a2.08,2.08,0,0,1-.16-2.65c.41-.65,1.46-.91,2.23-1.33a.34.34,0,0,1,.28,0,17,17,0,0,1,2.88,1.83c.93.86.67,2-.4,3-1.76,1.55-3.36,1.31-4.83-.84M152,155c0-.18.05-.53-.09-.74a3.82,3.82,0,0,0-3.2-.8.81.81,0,0,0-.25.78A2.6,2.6,0,0,0,152,155"></path> <path d="M152,155a2.6,2.6,0,0,1-3.54-.76.81.81,0,0,1,.25-.78,3.82,3.82,0,0,1,3.2.8c.14.21.07.56.09.74" style="fill:#fff"></path> <path d="M202.92,64.58,198,64.31a4.28,4.28,0,0,1-2.86-1.4,1.65,1.65,0,0,1,0-2.44,11.16,11.16,0,0,1,5.73-2.89c2.34-.43,2.33-.41,2.27-2.76,0-2-.1-4-.09-5.92,0-.65-.22-.76-.8-.75a21.31,21.31,0,0,1-6.46-.57c-.71-.21-1.42-.56-1.41-1.28a2.29,2.29,0,0,1,.93-1.47c1.41-1,3.16-1.08,4.81-1.41.53-.11,1.07-.14,1.61-.24,1.25-.23,1.33-.32,1.27-1.63-.09-2.15-.21-4.29-.32-6.43,0-.8-.09-1.6-.08-2.4,0-.59-.21-.76-.81-.81-1.33-.1-2.66-.31-4-.49a1.48,1.48,0,0,1-.41-.12c-.92-.38-1.84-.81-1.88-2s.91-1.46,1.71-1.78a8.69,8.69,0,0,1,4.08-.83c.81.07,1.11-.31,1.07-1.13-.13-3.08-.23-6.17-.32-9.26,0-.55-.26-.7-.76-.8a7.3,7.3,0,0,1-6.18-5.34A7,7,0,0,1,197,3.42a10.11,10.11,0,0,1,10.57-3,6.72,6.72,0,0,1,5.21,5.77c.38,2.64-.92,4.63-2.84,6.26a19.85,19.85,0,0,1-2.4,1.63,1.3,1.3,0,0,0-.74,1.24c.12,3.32.21,6.64.36,10a1,1,0,0,0,.68.64,28.74,28.74,0,0,0,3.08.14c1.91,0,2.55,1.1,3.08,2.37a1.06,1.06,0,0,1-.8,1.47c-1.57.49-3.15,1-4.76,1.34-1.25.3-1.3.23-1.26,1.55.08,2.95.21,5.89.31,8.84,0,.51.1.76.76.82,2.19.18,4.36.49,6.54.76a2.49,2.49,0,0,1,2,1.9,1.09,1.09,0,0,1-.86,1.51c-2.33.44-4.66.86-7,1.21-1.07.16-1.21.23-1.16,1.32.08,2.12.17,4.23.23,6.35,0,.57.19.78.79.83,2,.17,3.95.13,5.78,1a3.44,3.44,0,0,1,2.24,2.49,1.79,1.79,0,0,1-1.19,2.27c-1.71.52-3.47.91-5.22,1.3-2.23.5-1.82.35-1.72,2.33.06,1.08.13,2.17.27,3.24a.94.94,0,0,0,.54.67A12.54,12.54,0,0,1,217.06,74a24,24,0,0,1,3.88,5.51,6.64,6.64,0,0,1,.58,1.85A1.69,1.69,0,0,1,220.06,83c-6.79.45-13.58.87-20.37,1.36-1.71.13-3.4.43-5.1.69-.73.12-1.23,0-1.23-.84a10.63,10.63,0,0,1,.15-2.77,16.61,16.61,0,0,1,4.19-7.58,21.42,21.42,0,0,1,4.07-3c1-.59,1.62-1.12,1.43-2.39s-.19-2.61-.28-3.92m-8.38,17.89.22.23,1.09-.07,14.09-1.13c2.84-.23,5.69-.46,8.53-.74.94-.1,1.13-.58.57-1.34s-1.35-1.75-2.06-2.6A12.89,12.89,0,0,0,211.84,73c-3.07-1.22-6.07-.52-8.91.66a12.63,12.63,0,0,0-6.37,5.24c-.69,1.19-1.34,2.41-2,3.61m9.42-81c-1.81.25-4.11.11-5.7,2.14a8.54,8.54,0,0,0-2.21,4.63c-.24,4,3.59,6.79,7.43,6.11a11.27,11.27,0,0,0,6.75-3.95c2.57-3.06,1.61-6.3-1.67-8.24a7.24,7.24,0,0,0-4.6-.69m2.8,53.91.23,0c-.13-2-.29-4-.38-6.07-.07-1.39,0-1.39-1.38-1.31-1,.07-1.06.25-1.06,1.52,0,3.94,0,7.88,0,11.82,0,2-.09,2,1.9,1.79,1-.11,1.18-.35,1.12-1.32-.12-2.14-.27-4.28-.41-6.41m-1.37-40.26a6.2,6.2,0,0,0-1.48.42,1.33,1.33,0,0,0-.65.92c.06,3.28.18,6.57.3,9.85,0,.56.16,1.12.18,1.68,0,.74,0,1.48,0,2.22,0,.18.13.51.2.51a5.49,5.49,0,0,0,1.68-.15c.2-.06.35-.61.34-.93,0-3-.11-6.06-.22-9.09-.07-1.76-.22-3.52-.34-5.43m.45,20.23h.21c0-1,0-1.89-.05-2.83,0-.42.07-1-.6-.85s-1.6-.29-1.63.88c0,.8,0,1.6,0,2.4q.16,5.25.35,10.51c0,.37,0,.74,0,1.11,0,.18.15.5.23.5a6,6,0,0,0,1.75-.16c.21-.07.37-.67.35-1-.2-3.51-.43-7-.66-10.53m2.43,24.83h0c0,.6.09,1.19.12,1.79s.17.72.67.6c1.78-.41,3.57-.76,5.31-1.29a2.11,2.11,0,0,0,1.16-1.3c.18-.71-.36-1.27-1-1.62a11.57,11.57,0,0,0-5.57-.94.73.73,0,0,0-.8.88l.12,1.88m-7.06,3.35v-.07h.51c1.16,0,1.31-.2,1.31-1.36q0-1.41.06-2.82c.06-1,0-1.09-1-.86l-.59.11a10.93,10.93,0,0,0-5.16,2.69c-.75.74-.63,1.25.32,1.71a2.89,2.89,0,0,0,1,.31c1.19.12,2.39.19,3.58.29m8.84-16.71,4.28-1a1.16,1.16,0,0,0,.55-.22,7.36,7.36,0,0,0,.7-.77c-.29-.25-.55-.67-.86-.71-1.8-.27-3.61-.51-5.43-.62-1.49-.09-1.64.17-1.64,1.65,0,2.06,0,1.77,2.4,1.67M207.33,64.1c-.89.06-1.69.06-2.46.19-.27,0-.69.45-.68.68,0,1.46.11,2.91.23,4.37,0,.16.37.42.56.42a6.29,6.29,0,0,0,1.78-.21c.33-.11.83-.5.83-.76,0-1.53-.16-3.06-.26-4.69M201.4,47.42l0-.15c.26,0,.51-.05.77,0,.58,0,.83-.27.84-.83s0-1,.05-1.54-.25-.85-.84-.73c-1.57.32-3.14.62-4.69,1a4.15,4.15,0,0,0-1.29.66c-.21.14-.31.45-.46.68.23.14.45.37.69.4,1.63.21,3.27.38,4.91.57m-.53-16.2.06-.23c1.69,0,1.69,0,1.61-1.75a4.81,4.81,0,0,0-.08-1,.71.71,0,0,0-.46-.48,6.73,6.73,0,0,0-4.81,1.31c-.63.43-.54,1.05.17,1.27,1.15.36,2.34.6,3.51.89m6.23-2.39c0,1.69,0,1.7,1.69,1.34a4.92,4.92,0,0,0,.58-.14A25.3,25.3,0,0,0,212.25,29c.79-.39.81-1,.12-1.54a2.2,2.2,0,0,0-1.08-.41C210.53,27,209.75,27,209,27c-1.72,0-1.91.18-1.88,1.87"></path> <path d="M194.54,82.47c.68-1.2,1.33-2.42,2-3.61a12.63,12.63,0,0,1,6.37-5.24c2.84-1.18,5.84-1.88,8.91-.66A12.89,12.89,0,0,1,217,76.82c.71.85,1.4,1.72,2.06,2.6s.37,1.24-.57,1.34c-2.84.28-5.69.51-8.53.74l-14.09,1.13-1.09.07-.22-.23" style="fill:#fff"></path> <path d="M204,1.49a7.24,7.24,0,0,1,4.6.69c3.28,1.94,4.24,5.18,1.67,8.24a11.27,11.27,0,0,1-6.75,3.95c-3.84.68-7.67-2.14-7.43-6.11a8.54,8.54,0,0,1,2.21-4.63c1.59-2,3.89-1.89,5.7-2.14" style="fill:#fff"></path> <path d="M206.76,55.4c.14,2.13.29,4.27.41,6.41.06,1-.16,1.21-1.13,1.31-2,.22-1.91.22-1.89-1.78,0-3.94,0-7.88,0-11.82,0-1.28.09-1.45,1.06-1.52,1.35-.08,1.31-.08,1.38,1.31.09,2,.25,4,.38,6.07l-.23,0" style="fill:#fff"></path> <path d="M205.39,15.14c.12,1.91.27,3.67.34,5.43q.15,4.55.22,9.09c0,.32-.14.87-.34.93a5.49,5.49,0,0,1-1.68.15c-.07,0-.2-.33-.2-.51,0-.74,0-1.48,0-2.22,0-.56-.16-1.12-.18-1.68-.12-3.28-.24-6.57-.3-9.85a1.33,1.33,0,0,1,.65-.92,6.2,6.2,0,0,1,1.48-.42" style="fill:#fff"></path> <path d="M205.84,35.37c.23,3.51.46,7,.66,10.53,0,.35-.14,1-.35,1a5.63,5.63,0,0,1-1.75.16c-.08,0-.21-.32-.23-.5,0-.37,0-.74,0-1.11Q204,40.21,203.8,35c0-.8-.06-1.6,0-2.4,0-1.17,1-.74,1.63-.88s.59.43.6.85c0,.94,0,1.88.05,2.83h-.21" style="fill:#fff"></path> <path d="M207.33,64.1c.1,1.63.24,3.16.26,4.69,0,.26-.5.65-.84.76a6.18,6.18,0,0,1-1.77.21c-.19,0-.55-.26-.56-.43-.12-1.45-.22-2.9-.23-4.36,0-.23.41-.63.68-.68.77-.13,1.57-.13,2.46-.19" style="fill:#fff"></path> <path d="M156.11,113.61c.62,4.86,1.25,9.72,1.85,14.58a5,5,0,0,1-.15,1.19c-.36-.07-.73-.12-1.08-.21l-7.83-2c-1.52-.39-3-.77-4.56-1.12-1.25-.29-1.58,0-1.49,1.28.12,1.75.34,3.51.33,5.26,0,2-.78,3.11-2.16,3.52-2.29.69-4.91.08-5.91-1.42a2.66,2.66,0,0,1-.39-1.21c-.3-2.61-.63-5.21-.8-7.83-.07-1-.49-1.54-1.4-1.69-1.93-.33-3.87-.62-5.81-.9a1.3,1.3,0,0,0-1.61,1,5.72,5.72,0,0,1-3.32,3.3,21.73,21.73,0,0,1-4.65,1.61c-4.35.62-9.95-1.18-11.61-6.26a7.66,7.66,0,0,1,.9-6.61,25.46,25.46,0,0,1,1.61-2.59,5.25,5.25,0,0,1,1.41-1.19,21,21,0,0,0,2.23-1.26c1.43-1.18,2.89-.6,4.35-.22a7.93,7.93,0,0,1,1.75.68,6.13,6.13,0,0,0,5.72-.18c2.06-1,4.16-1.81,6.21-2.78,2.24-1,2.14-1.08,2.05-3.64a22.09,22.09,0,0,1,.26-5.21,6.38,6.38,0,0,1,1.78-2.79,2.07,2.07,0,0,1,1.76-.18,5,5,0,0,1,3.28,3.37,29.59,29.59,0,0,1,.73,3.2c.15.82.56,1,1.22.64,3.38-2,6.76-3.94,10.08-6,.77-.47,1.2-1.45,2.37-.8a2.3,2.3,0,0,1,1.3,1.92c.25,2.46.57,4.91.87,7.36s.61,4.82.92,7.23l-.21,0m-3.91-13.4c-.67.33-1.21.55-1.71.83-3,1.63-5.94,3.32-9,4.89a2.2,2.2,0,0,0-1.33,2.63c.68,4.38,1.33,8.76,1.87,13.15.2,1.61.44,2.7,2.44,3,3.17.4,6.29,1.19,9.42,1.83.84.17,1.18-.08,1.06-1-.15-1.12-.23-2.26-.34-3.39-.5-4.83-1-9.67-1.5-14.5-.27-2.41-.61-4.8-1-7.43M115,127.79c3.91-.84,5.53-2.31,6.44-6.15a6.5,6.5,0,0,0-.65-5.19c-2.32-3.73-2.22-3.89-6.6-3a7.61,7.61,0,0,0-5.61,4c-1.57,2.91-1,5.67.75,8.17,1.36,1.9,3.54,2.27,5.67,2.25M135.89,98.7a2.83,2.83,0,0,0-1.81,2.63c.06,2.93.19,5.86.44,8.77.2,2.34.68,4.65.94,7,.61,5.44,1.13,10.9,1.75,16.34.15,1.31,1.21,1.74,2.24.87a3.35,3.35,0,0,0,1.16-1.92,18,18,0,0,0,0-4.21q-1.54-12.36-3.2-24.7a10.92,10.92,0,0,0-1.49-4.76m-3.44,11.61c-.9.27-1.58.42-2.22.66q-3.21,1.16-6.39,2.37c-.57.22-1.25.61-.56,1.26,1.72,1.63,2.21,3.72,2.5,5.93a1.15,1.15,0,0,0,.61.83c1.88.36,3.78.64,5.67.92,1.08.15,1.52-.35,1.42-1.43-.22-2.34-.38-4.69-.59-7-.1-1.12-.28-2.23-.44-3.51"></path> <path d="M152.2,100.21c.34,2.63.68,5,1,7.43.52,4.83,1,9.67,1.5,14.5.11,1.13.19,2.27.34,3.39.12.89-.22,1.14-1.06,1-3.13-.64-6.25-1.43-9.42-1.83-2-.26-2.24-1.35-2.44-3-.54-4.39-1.19-8.77-1.87-13.15a2.2,2.2,0,0,1,1.33-2.63c3-1.57,6-3.26,9-4.89.5-.28,1-.5,1.71-.83" style="fill:#fff"></path> <path d="M115,127.79c-2.13,0-4.32-.35-5.67-2.25-1.78-2.5-2.32-5.26-.75-8.17a7.59,7.59,0,0,1,5.61-4c4.38-.86,4.28-.7,6.6,3a6.5,6.5,0,0,1,.65,5.19c-.91,3.84-2.53,5.31-6.44,6.15" style="fill:#fff"></path> <path d="M135.89,98.7a10.92,10.92,0,0,1,1.49,4.76q1.63,12.35,3.2,24.7a18,18,0,0,1,0,4.21,3.35,3.35,0,0,1-1.16,1.92c-1,.87-2.09.44-2.24-.87-.62-5.44-1.14-10.89-1.75-16.34-.26-2.33-.74-4.64-.94-7-.25-2.91-.38-5.84-.44-8.77a2.83,2.83,0,0,1,1.81-2.63" style="fill:#fff"></path> <path d="M132.45,110.31c.16,1.28.34,2.39.44,3.51.21,2.34.37,4.69.59,7,.1,1.08-.34,1.58-1.42,1.43-1.89-.28-3.79-.56-5.67-.92a1.15,1.15,0,0,1-.61-.83c-.29-2.21-.78-4.3-2.5-5.93-.69-.65,0-1,.56-1.26q3.18-1.22,6.39-2.37c.64-.24,1.32-.39,2.22-.66" style="fill:#fff"></path> <path d="M261.68,101.82c-.18-2.42-.35-4.85-.54-7.27s-.37-4.92-.61-7.38a2.27,2.27,0,0,1,.89-2.14c1-.87,1.63,0,2.47.31,3.67,1.36,7.38,2.61,11.08,3.87.73.25,1.09,0,1.07-.86a32.65,32.65,0,0,1,.08-3.28,5,5,0,0,1,2.55-4,2,2,0,0,1,1.75-.17,6.39,6.39,0,0,1,2.31,2.37A22.24,22.24,0,0,1,284,88.37c.41,2.52.33,2.57,2.73,3.16,2.2.54,4.43,1,6.64,1.48A6.14,6.14,0,0,0,299,92a8.47,8.47,0,0,1,1.58-1c1.36-.66,2.67-1.52,4.31-.65a23.79,23.79,0,0,0,2.43.79,5,5,0,0,1,1.62.88,27.41,27.41,0,0,1,2.1,2.21,7.71,7.71,0,0,1,2.2,6.31c-.62,5.3-5.75,8.19-10.13,8.45a21.45,21.45,0,0,1-4.87-.66,5.67,5.67,0,0,1-3.92-2.57,1.3,1.3,0,0,0-1.77-.61c-1.84.66-3.69,1.33-5.51,2a1.57,1.57,0,0,0-1,1.94c.34,2.6.54,5.22.77,7.83a2.85,2.85,0,0,1-.14,1.27c-.68,1.67-3.13,2.79-5.51,2.57-1.43-.13-2.41-1.06-2.82-3-.35-1.72-.49-3.48-.72-5.22-.17-1.27-.55-1.5-1.72-1-1.42.65-2.83,1.33-4.24,2-2.43,1.17-4.85,2.36-7.27,3.54-.33.16-.68.28-1,.42a5,5,0,0,1-.39-1.14c-.38-4.88-.73-9.76-1.09-14.65l-.21,0m1.92-6.46c.45,4.84.95,9.67,1.42,14.51.12,1.13.27,2.25.34,3.39.07.89.45,1.07,1.24.74,2.94-1.26,5.84-2.65,8.86-3.68,1.91-.65,1.93-1.77,1.8-3.38-.35-4.41-.58-8.84-.79-13.26a2.19,2.19,0,0,0-1.83-2.31c-3.26-.94-6.5-2-9.75-3-.55-.17-1.12-.29-1.84-.47.19,2.64.33,5.06.55,7.47m46.55,8.79c1.25-2.81,1.23-5.62-.89-8.15A7.62,7.62,0,0,0,303,93.24c-4.46,0-4.33.17-5.86,4.29a6.46,6.46,0,0,0,.4,5.22c1.65,3.57,3.53,4.69,7.53,4.74,2.09-.41,4.16-1.2,5.11-3.34m-31.93-16q.86,12.42,1.79,24.84a17.67,17.67,0,0,0,.81,4.13,3.37,3.37,0,0,0,1.52,1.65c1.18.64,2.14,0,2-1.3-.48-5.46-1.05-10.9-1.54-16.36-.21-2.34-.2-4.7-.47-7-.33-2.9-.8-5.8-1.32-8.68a2.85,2.85,0,0,0-2.3-2.22,11,11,0,0,0-.51,5m6.47,9.26c.26,2.33.57,4.66.82,7,.12,1.08.65,1.48,1.67,1.11,1.81-.64,3.61-1.3,5.38-2a1.16,1.16,0,0,0,.43-.94c-.15-2.23-.09-4.37,1.27-6.31.54-.77-.2-1-.8-1.12-2.24-.37-4.49-.72-6.73-1-.68-.1-1.37-.12-2.31-.2.1,1.29.15,2.41.27,3.53"></path> <path d="M263.05,87.89c.19,2.64.33,5.06.55,7.47.45,4.84.95,9.67,1.42,14.51.12,1.13.27,2.25.34,3.39.07.89.45,1.07,1.24.74,2.94-1.26,5.84-2.65,8.86-3.68,1.91-.65,1.93-1.77,1.8-3.38-.35-4.41-.58-8.84-.79-13.26a2.19,2.19,0,0,0-1.83-2.31c-3.26-.94-6.5-2-9.75-3-.55-.17-1.12-.29-1.84-.47" style="fill:#fff"></path> <path d="M305,107.49c2.09-.41,4.16-1.2,5.11-3.34,1.25-2.81,1.23-5.62-.89-8.15A7.59,7.59,0,0,0,303,93.25c-4.46,0-4.33.16-5.86,4.28a6.46,6.46,0,0,0,.4,5.22c1.65,3.57,3.53,4.69,7.53,4.74" style="fill:#fff"></path> <path d="M278.73,83.15a11,11,0,0,0-.51,5q.86,12.42,1.79,24.84a17.67,17.67,0,0,0,.81,4.13,3.33,3.33,0,0,0,1.52,1.65c1.18.64,2.14,0,2-1.3-.48-5.46-1.05-10.9-1.54-16.36-.21-2.34-.2-4.7-.47-7-.33-2.9-.8-5.8-1.32-8.68a2.85,2.85,0,0,0-2.3-2.22" style="fill:#fff"></path> <path d="M284.42,93.85c.1,1.29.15,2.41.27,3.53.25,2.33.56,4.66.82,7,.12,1.08.65,1.48,1.67,1.11,1.8-.64,3.61-1.3,5.38-2a1.16,1.16,0,0,0,.43-.94c-.15-2.23-.09-4.37,1.27-6.31.54-.77-.2-1-.8-1.12-2.24-.37-4.49-.72-6.73-1-.68-.1-1.37-.12-2.31-.2" style="fill:#fff"></path> <path d="M209.52,131.43c-3.85.36-10.71,1-17.57,1.63-5.92.51-11.83,1.09-17.75,1.38a84.78,84.78,0,0,1-9.94-.37,6.39,6.39,0,0,1-6-4.21,31.67,31.67,0,0,1-2.45-8.18c-.68-5.64-1.71-11.24-2.39-16.87-.44-3.59-.59-7.23-.69-10.84-.07-2.48.8-4.53,3.51-5.25,1.69-.46,3.41-.84,5.07-1.39,8.2-2.73,16.8-2,25.19-2.83,14.86-1.57,29.78-2.58,44.68-3.74,8-.62,16-1.07,23.94-1.59,2.71-.18,6.54,2.87,7.27,6.07a112.52,112.52,0,0,1,2.83,31.46c-.2,3.44-2.34,5.68-5.55,6.84a88.88,88.88,0,0,1-19.24,4.33c-9.28,1.18-18.59,2.16-30.9,3.56m1.88-46.87v-.08q-17.76,1.35-35.51,2.72c-2.71.21-5.42.44-8.12.75a5.53,5.53,0,0,0-1.72.75,16.81,16.81,0,0,1-2.16,1.17c-2.33.78-4.74,1.35-7,2.25a3.19,3.19,0,0,0-1.6,2.07A15.2,15.2,0,0,0,155,99c1.08,8.78,2.18,17.56,3.51,26.31.6,3.93,2.51,5.61,6,6.2a10.71,10.71,0,0,0,2,.13c4.56-.1,9.15-.06,13.7-.39,8.58-.61,17.16-1.28,25.71-2.2,12.2-1.31,24.39-2.74,36.55-4.37a64.45,64.45,0,0,0,16.89-4.31,6.26,6.26,0,0,0,4.15-5.89,110.54,110.54,0,0,0-2.34-27.57c-.81-4.06-3.51-5.29-6.8-5.09L211.4,84.56"></path> <path d="M211.4,84.56q21.47-1.38,42.93-2.74c3.29-.21,6,1,6.8,5.09a110.46,110.46,0,0,1,2.34,27.57,6.28,6.28,0,0,1-4.15,5.89,64.83,64.83,0,0,1-16.89,4.3c-12.16,1.63-24.35,3.06-36.55,4.37-8.55.92-17.13,1.59-25.71,2.2-4.55.33-9.14.29-13.7.39a9.89,9.89,0,0,1-2-.13c-3.47-.59-5.38-2.27-6-6.2C157.2,116.55,156.1,107.77,155,99a15.2,15.2,0,0,1,.25-4.8,3.19,3.19,0,0,1,1.6-2.07c2.28-.9,4.69-1.47,7-2.25a16.81,16.81,0,0,0,2.16-1.17,5.77,5.77,0,0,1,1.72-.75c2.7-.31,5.41-.54,8.12-.75q17.75-1.38,35.51-2.72v.08m7.22,31.72c6.11-.61,14.81-1.52,23.53-2.35,4.56-.43,9.13-.9,13.35-2.81a5.74,5.74,0,0,0,2.82-2.48,17,17,0,0,0,1-10.62c-.73-3.32-2.37-5.8-5.64-7-1.38-.51-3-.58-3.89-2a1.82,1.82,0,0,0-1.2-.54,29.12,29.12,0,0,0-5.38-.63c-15.22.69-30.44,1.48-45.65,2.24-2.11.1-4.23.4-6.32.3-7.12-.35-14.16,0-21,2.23A5.59,5.59,0,0,0,166.53,96a30.22,30.22,0,0,0-1.16,17.2,4.92,4.92,0,0,0,2.71,3.62,15.76,15.76,0,0,0,4.88,1.41,73.36,73.36,0,0,0,9.94.28c11-.6,22.08-1.38,35.72-2.25" style="fill:#fff"></path> <path d="M218.62,116.28c-13.64.87-24.68,1.65-35.72,2.25a73.36,73.36,0,0,1-9.94-.28,15.76,15.76,0,0,1-4.88-1.41,4.92,4.92,0,0,1-2.71-3.62A30.26,30.26,0,0,1,166.53,96a5.6,5.6,0,0,1,3.76-3.43c6.83-2.28,13.87-2.58,21-2.23,2.09.1,4.21-.2,6.32-.3,15.21-.77,30.43-1.55,45.66-2.24a29.12,29.12,0,0,1,5.37.63,1.82,1.82,0,0,1,1.2.54c.93,1.44,2.51,1.51,3.89,2,3.27,1.22,4.91,3.7,5.64,7a17,17,0,0,1-1,10.62,5.74,5.74,0,0,1-2.82,2.48c-4.22,1.91-8.79,2.38-13.35,2.81-8.72.83-17.42,1.74-23.53,2.35m-4.53-1.41c7.81-.78,15.63-1.48,23.43-2.37,4-.46,8.06-1.15,12-1.94a6.68,6.68,0,0,0,5.09-3.84c1.69-3.67,1.62-7.42.83-11.22A4.51,4.51,0,0,0,252.24,92a40.49,40.49,0,0,0-12.51-1.59,279.07,279.07,0,0,0-32.68,2A144.59,144.59,0,0,1,186,93.65c-4.94-.14-9.93,1.29-14.87,2.17-.61.1-1.34,1.06-1.52,1.76a31,31,0,0,0-.6,13.75c.39,2.13,1.49,3.9,3.77,4.46a26.31,26.31,0,0,0,5.46,1c12,.37,23.91-1,35.85-1.9"></path> <path d="M214.09,114.87c-11.94.9-23.85,2.27-35.85,1.89a25.65,25.65,0,0,1-5.46-1c-2.27-.56-3.38-2.33-3.77-4.46a31,31,0,0,1,.6-13.75c.18-.7.91-1.66,1.52-1.76,4.94-.88,9.93-2.31,14.87-2.17a144.59,144.59,0,0,0,21.05-1.26,279.07,279.07,0,0,1,32.68-2A40.49,40.49,0,0,1,252.24,92a4.51,4.51,0,0,1,3.24,3.47c.79,3.8.86,7.55-.83,11.22a6.7,6.7,0,0,1-5.09,3.84c-4,.79-8,1.48-12,1.94-7.8.89-15.62,1.59-23.43,2.37m-32.52-4.43,1.9-.41c2.87-.61,3.14-2.65,2.87-5.11-.21-2-2.37-3.26-4.54-2.87a21.73,21.73,0,0,0-3.2.81,2.74,2.74,0,0,0-1.24,1,3.93,3.93,0,0,0,.06,4.66,4.19,4.19,0,0,0,4.15,1.92m60.61-4.52a5.2,5.2,0,0,0,5.08-3.61c.56-2.1-.53-4.5-2.35-4.42s-3.64,1-5.46,1.53c0,0,0,.08-.09.12a4.08,4.08,0,0,0-.62,4.61c.78,1.64,2.28,1.56,3.44,1.77" style="fill:#afafaf"></path> <path d="M181.57,110.44a4.19,4.19,0,0,1-4.15-1.92,3.93,3.93,0,0,1-.06-4.66,2.74,2.74,0,0,1,1.24-1,21.73,21.73,0,0,1,3.2-.81c2.18-.39,4.33.87,4.54,2.87.27,2.46,0,4.5-2.87,5.12l-1.9.4m-1.36-2.22c1.78-.44,3.42-.56,4.12-2.27.53-1.3,0-2-1.32-2.12-1.74-.18-2.84.79-3.76,2a2.09,2.09,0,0,0-.44,1.72c.19.42,1,.52,1.4.68"></path> <path d="M242.18,105.92c-1.16-.21-2.66-.13-3.44-1.77a4.08,4.08,0,0,1,.62-4.61s0-.1.09-.12c1.82-.54,3.62-1.44,5.46-1.53s2.91,2.32,2.35,4.42a5.2,5.2,0,0,1-5.08,3.61M240,103a4.84,4.84,0,0,0,5.32-1.06,1.84,1.84,0,0,0,.48-1.43c-.06-.32-.71-.63-1.15-.74-2-.48-4,.86-4.65,3.23"></path> <path d="M180.21,108.22c-.36-.16-1.21-.26-1.4-.68a2.09,2.09,0,0,1,.44-1.72c.92-1.2,2-2.17,3.76-2,1.34.15,1.85.82,1.32,2.12-.7,1.71-2.34,1.83-4.12,2.27" style="fill:#fff"></path> <path d="M240,103c.67-2.37,2.67-3.71,4.65-3.23.44.11,1.09.42,1.15.74a1.84,1.84,0,0,1-.48,1.43A4.84,4.84,0,0,1,240,103" style="fill:#fff"></path> <path d="M250.93,262c-1.28,9.27-1.85,17.49-5.38,25a75.08,75.08,0,0,1-8.87,14.32,73.45,73.45,0,0,1-11.21,11c-.71.6-1.15,1.5-1.83,2.14a9.22,9.22,0,0,1-2.25,1.69c-4.38,2.15-8.7,4.44-13.22,6.25A53,53,0,0,1,197,325.67a82.61,82.61,0,0,1-14.89,1.16,67.19,67.19,0,0,1-21-4.4,61.14,61.14,0,0,1-25.88-18.21c-6.65-7.77-10-17-11.25-27.11-1-7.88.87-15.34,3.74-22.56,1.66-4.19,3.6-8.28,5.67-12.29,4.2-8.14,10.22-14.77,17.21-20.65A88.85,88.85,0,0,1,169,210.2a76.28,76.28,0,0,1,10.05-4.36,57.43,57.43,0,0,1,9.37-1.79c2.51-.38,5.07-.48,7.6-.79,1-.13,1.92-.55,2.9-.72a6.29,6.29,0,0,1,2.47-.14c2.41.56,4.76,1.43,7.19,1.93a47,47,0,0,1,23,11.72c10,9.29,16.47,20.66,18.67,34.2.69,4.22.52,8.57.68,11.72m-43.29,2c.39-4-.69-7.17-3.62-9.51-1.19-1-2.65-1.58-3.82-2.56a13.74,13.74,0,0,0-5.27-2.82,61.2,61.2,0,0,1-6.56-2.39,4.16,4.16,0,0,0-3.48.09c-4.33,1.82-7.52,5.14-10.95,8.11-3.84,3.33-6.5,7.5-7.05,12.65-.4,3.82.23,7.34,3.49,10.07a26,26,0,0,0,8.8,5.2,17.11,17.11,0,0,0,9.87.58c6.17-1.66,10.88-5.43,14.85-10.39,2.26-2.82,3.69-5.78,3.74-9m-6.34,16.9c-1.21.53-2.28.9-3.25,1.45-.73.42-1.26,1.17-2,1.58-1.42.8-1.62,1.95-1.29,3.38.56,2.43,1.11,4.85,1.59,7.3.7,3.58,1.23,7.2,2,10.77.46,2.09,1.27,2.47,3.39,1.9,3.88-1,7.11-3.35,10.1-5.86a78.62,78.62,0,0,0,6.74-7.14c1.67-1.8,1.37-3.15-.79-4.34-3.34-1.84-6.61-3.81-9.94-5.66-2.12-1.17-4.3-2.22-6.57-3.38m8.4-23.37c1-.11,1.59-.14,2.16-.25,5.12-.91,10.24-1.85,15.36-2.75,1.56-.27,2.12-.92,1.9-2.48-1-7.09-4.4-13.12-8.49-18.81-1.13-1.58-2.41-1.51-3.66,0q-4.35,5.19-8.67,10.4c-1.45,1.76-2.88,3.54-4.26,5.36-1.23,1.61-1,2.3.46,3.61,1.22,1.08,2.22,2.39,3.39,3.54a16.42,16.42,0,0,0,1.81,1.39m-24.5,35.37h.18c0-1.06,0-2.12-.07-3.18-.13-2.26-.83-3.06-3-3.64a24.14,24.14,0,0,1-3.8-1.13,2.46,2.46,0,0,0-3.34.8c-3.24,4-6.51,8-9.73,12-1.12,1.4-.8,2.8.76,3.72.36.22.73.43,1.08.67a42.58,42.58,0,0,0,15.68,6.3c2.16.41,2.65,0,2.62-2.15-.06-4.46-.22-8.9-.34-13.36m5.86-62.18h-.17c-.12,2.34-.34,4.67-.34,7a18.29,18.29,0,0,0,.53,4.56,3.4,3.4,0,0,0,1.65,2,4,4,0,0,0,5.47-1.34c3.91-5.16,7.75-10.36,11.6-15.57a2,2,0,0,0-.53-3.26,8.36,8.36,0,0,0-2.52-1.29c-3.22-.86-6.46-1.66-9.72-2.34a12.3,12.3,0,0,0-3.48,0,2.1,2.1,0,0,0-2.08,2.32c-.1,2.66-.27,5.31-.41,8m-10.8,13.52c0-.21-.1-.68-.21-1.14-1-4.17-2-8.34-3-12.52-.38-1.6-.59-3.24-1-4.82a1.86,1.86,0,0,0-2.7-1.42,14.42,14.42,0,0,0-3.33,1.47c-3.45,2.43-6.86,4.94-10.2,7.52-2,1.56-1.72,2.93.55,4.22,2,1.12,3.84,2.44,5.75,3.69,3.1,2,6.14,4.16,9.3,6.11,1.76,1.08,4.76-.78,4.84-3.11m-34.8,15.68c0,.42,0,.85-.07,1.27-.24,2.37.46,3.15,2.85,2.93,4.23-.39,8.44-1.13,12.67-1.23,3.52-.07,5.27-1.76,6.38-4.78a2.22,2.22,0,0,0-.75-2.93,88.33,88.33,0,0,0-14.68-8.51,2.25,2.25,0,0,0-3.32,1.13c-1.57,3.89-3,7.84-3.08,12.12m17.9,12.89c-.22,0-.43,0-.64,0-4.41.61-8.83,1.15-13.22,1.9-.56.1-1.21,1.22-1.33,2a4,4,0,0,0,.63,2.25q2.63,5.16,5.38,10.28a15.14,15.14,0,0,0,1.77,2.63,1.9,1.9,0,0,0,3.14.09c2.88-3.78,5.81-7.54,8.5-11.46,1.61-2.33-1.38-7.52-4.23-7.68m53-7.58,0,.33c-1.38,0-2.76,0-4.13,0a2.61,2.61,0,0,0-2.86,2.57,18.71,18.71,0,0,1-.65,2.78A2.21,2.21,0,0,0,210,274c4.44,2.25,8.9,4.5,13.15,7.09,2.11,1.28,3.33.34,3.82-1.41,1-3.72,1.8-7.52,2.56-11.31.37-1.86-.33-2.5-2.21-2.58-3.65-.16-7.3-.38-11-.57m28.57-16.44a2.09,2.09,0,0,0-.06-.59c-.67-2.45-1.29-4.92-2.07-7.33-.2-.59-.94-1-1.43-1.48a5.94,5.94,0,0,0-1,1.72c-.68,4-1.15,8.09-1.92,12.1a56.07,56.07,0,0,1-2,7c-.87,2.61-2,5.14-2.75,7.79-.87,3.11-1.46,6.3-2.11,9.47a18,18,0,0,0-.13,2.66l2.5-1.58s.06-.09.09-.13c1.88-2.82,3.9-5.57,5.63-8.49a32.62,32.62,0,0,0,4.06-11.15c.53-3.05-.84-6.33,1.15-9.18.07-.11,0-.31,0-.82m-56-17.16.33,0c.15-2.81.32-5.62.45-8.42.08-1.73-.76-2.87-2.37-2.67a67.08,67.08,0,0,0-8.05,1.62,2,2,0,0,0-1.39,2.53c1.13,5.07,2.17,10.16,3.43,15.2,1.06,4.24,1.21,4.21,5.43,3.36a1.75,1.75,0,0,0,1.64-1.79q.25-4.94.53-9.85M244.73,265h-.52c-.34.65-.7,1.28-1,1.94s-.54,1.39-.91,2a86,86,0,0,1-17.12,21.94,29.74,29.74,0,0,0-3.58,4.24,1.87,1.87,0,0,0,.07,1.58c.08.18,1,.2,1.35,0,2.21-1.14,4.4-2.35,6.57-3.57a37.09,37.09,0,0,0,10.6-9.27c3.95-4.93,4.36-11,4.95-17a6.66,6.66,0,0,0-.4-1.91m-31.56-54.08a7.18,7.18,0,0,0,.48.75c3.59,4.27,6,9.22,8.39,14.21,1.08,2.3,2,4.67,3.17,6.92s2.42,4.11,3.7,6.12a8.08,8.08,0,0,0,1.24,1.24c.37-.65,1.11-1.34,1-1.95-.63-6.17-1.4-12.37-4.35-18-1.52-2.87-3.14-5.82-6.34-7.35a22.48,22.48,0,0,1-2.71-1.61c-1.71-1.15-3.23-1.33-4.63-.38m5.17,14c-.14-1.25,0-2.09-.33-2.64-2.21-3.71-3.78-7.84-7.16-10.76-2.82-2.43-5.51-5.08-9.53-5.32-2.54-.14-5.09-.18-7.62-.36a2.22,2.22,0,0,0-2.4,1.37c-.09.21,1,1.06,1.72,1.44,2.94,1.69,6,3.12,8.85,5,4.87,3.29,9.55,6.87,14.34,10.3a13.6,13.6,0,0,0,2.13,1m-31-7.35a2.62,2.62,0,0,0-2.5-2.1c-3.7-.22-7.4-.64-11.1-.72A26.14,26.14,0,0,0,153.51,223a7.8,7.8,0,0,0-1,1.93l.37.33c.49-.1,1-.19,1.48-.31,5.55-1.39,11.07-2.91,16.65-4.14,5.22-1.16,10.51-2,15.77-3a2.57,2.57,0,0,0,.59-.28m8.28,87.87a28.21,28.21,0,0,0-.27-3.52c-.85-4.75-1.72-9.5-2.74-14.21-.33-1.53-1.47-1.92-3.16-1.57a2.87,2.87,0,0,0-2.45,2.65c.08,1.86.19,3.72.34,5.57.34,4.33-.08,8.72,1.28,13a2.3,2.3,0,0,0,2.55,1.88c.58,0,1.16-.12,1.74-.15,2.21-.14,2.75-.74,2.71-3.61m43.23-66.81-.33-.06a5.23,5.23,0,0,1,0-.79c.85-5.85-2.44-10-5.88-14-.42-.5-1.4-.51-2.12-.75a6.54,6.54,0,0,0,0,1.92,71,71,0,0,1,2.61,17.14c.13,4.35.36,8.7.63,13.05,0,.57.57,1.1.88,1.65.45-.5,1.21-.95,1.32-1.52,1-5.53,2-11.08,2.94-16.62m-28.83,69.71c.83-.06,1.31-.08,1.78-.13,5.72-.68,10.91-2.85,16-5.35,4.44-2.16,7.31-5.65,9.45-9.89a8.38,8.38,0,0,0,.47-2.39,9,9,0,0,0-2.05.71c-4.54,2.91-9,6-13.59,8.8a9.91,9.91,0,0,1-6,1.91,3,3,0,0,0-1.77.58c-1.61,1.12-3.18,2.3-4.71,3.52a7,7,0,0,0-1.09,1.46l1.44.78m-45.44-82.16,0-.74a8.06,8.06,0,0,0-2.89-.23c-3.23,1-6.43,2.11-9.6,3.31-4.95,1.88-9,4.86-11.47,9.7a14.68,14.68,0,0,0-1.21,2,4.56,4.56,0,0,0,.22,1.79,6.22,6.22,0,0,0,1.44-.27c2.52-1.11,5-2.33,7.53-3.36a15,15,0,0,0,5-3c3.46-3.32,6.37-7.3,11-9.26m44.74,93.27c-1.08-2-2.64-1.68-4-1.58a29.34,29.34,0,0,1-11-1.59c-4.91-1.52-9.8-3.1-14.95-3.57-.57-.05-1.19.41-1.79.64a4.41,4.41,0,0,0,.71,1.44,27.36,27.36,0,0,0,15.06,7,43.66,43.66,0,0,0,10.39-.39c1.87-.23,3.64-1.27,5.56-2m-5.47-3.17c3.88-.45,8.1-.84,12.28-1.46a8.61,8.61,0,0,0,3.58-1.59,61.82,61.82,0,0,0,5.41-4.43,9.22,9.22,0,0,0,1.33-2,7.5,7.5,0,0,0-2.48.14,52,52,0,0,1-15.09,3.54c-1.89.17-3.88.85-5.65.47-2.79-.59-5.11.53-7.56,1.24a1.66,1.66,0,0,0-.92,1.29c0,.36.64.94,1.09,1,2.51.61,5.06,1.11,8,1.74m-47.51-78c-2-.08-4.35,2.31-4.53,4a1.92,1.92,0,0,0,1.16,2.18c2.33,1.13,4.65,2.31,6.94,3.54,3,1.62,6,3.35,9,4.95a3.18,3.18,0,0,0,4.07-1.52,2.26,2.26,0,0,0-1-2.9c-4.11-2.88-8.22-5.78-12.38-8.6a27.18,27.18,0,0,0-3.28-1.68m10.29,80.78c.11-.17.21-.34.31-.51-.39-.73-.75-1.48-1.18-2.18-1.43-2.35-2.9-4.69-4.34-7-2.27-3.74-3.73-8-7.28-10.92-.63-.52-1.12-1.62-2-.91a2.63,2.63,0,0,0-.65,2.18c.69,3.8,1.4,7.61,2.39,11.34a5.85,5.85,0,0,0,2.29,3.24c2.74,1.69,5.69,3,8.59,4.47a6.8,6.8,0,0,0,1.89.33m31.8-72.87c.83.89,1.43,2,2.3,2.28.63.18,1.8-.62,2.39-1.28,2.67-3,5.21-6.13,7.8-9.21,1.58-1.86,3.23-3.67,4.69-5.61.58-.78,1.33-2.33,1-2.73a9,9,0,0,0-3.63-2.78c-1.31-.5-1.68,1.13-2.31,2-3.35,4.51-6.7,9-10,13.56-.8,1.09-1.39,2.32-2.25,3.79M172.07,212l.25.66c1,.05,2,.18,2.94.14a47.17,47.17,0,0,1,15.58,2c3.25,1,6.47,2.06,9.72,3a4.31,4.31,0,0,0,1.61-.15,9.3,9.3,0,0,0-.43-1.91c-.15-.33-.64-.53-1-.75-2.05-1.21-4.13-2.38-6.17-3.6a35.14,35.14,0,0,0-10.26-3.75,3,3,0,0,0-1.42-.06c-2.74.78-5.5,1.52-8.17,2.48a11.41,11.41,0,0,0-2.65,1.93m13.17,111.15c.27-1.44-.48-1.91-1.4-2.37a43.14,43.14,0,0,1-9.79-6.91c-2.69-2.43-5-5.36-8.63-6.61a6.84,6.84,0,0,0-2-.08,6,6,0,0,0,.17,2.15,39.92,39.92,0,0,0,2.35,3.76c3.5,5.33,7.7,9.6,14.64,9.82,1.52.05,3,.16,4.64.24m-20.78-55.45c.15-2.2-.81-3.07-3-2.86-3.21.31-6.43.54-9.64.79-1.27.11-2.55.14-3.8.31-1.42.2-2.48,1.3-2.29,2.39a20.6,20.6,0,0,0,.91,3.36,2.28,2.28,0,0,0,2.92,1.52c4-.78,8-1.5,12-2.29,2.35-.47,2.72-.93,2.87-3.22M214.87,264c4.38-.11,8.42-.27,12.46-.3a2.36,2.36,0,0,0,2.52-2.12c.85-3.38-.4-5-3.79-4.54-4.73.62-9.44,1.42-14.16,2.17-1.21.2-2.11.81-2,2.21s.63,2.35,2.17,2.43l2.84.15m-7.39,11.59a3.23,3.23,0,0,0-3.66,2.58c-.49,1.58.83,1.73,1.69,2.2,4.41,2.44,8.81,4.88,13.26,7.23a5.5,5.5,0,0,0,3.21.91c.74-.15,1.53-1.44,1.73-2.34a2.69,2.69,0,0,0-1.1-2.21c-3.79-2.33-7.67-4.52-11.56-6.69-1.28-.72-2.67-1.26-3.57-1.68m-68-8.87c-.66,1-1.17,1.81-1.71,2.59-3.37,4.85-5.65,10.11-5.5,16.12a19.39,19.39,0,0,0,1.25,5.33c.15.47,1,.72,1.54,1.07a4.91,4.91,0,0,0,.77-1.58c.42-5.91,2.63-11.25,5.17-16.47,1.1-2.25,0-4.23-.42-6.3-.06-.28-.65-.46-1.1-.76m-1.82,24.85a16.15,16.15,0,0,0,.17,3.33,36.24,36.24,0,0,0,1.78,5.33c.16.39.9.55,1.38.82a6.37,6.37,0,0,0,.72-1.49c.95-4.88,1.86-9.77,2.77-14.65a3.86,3.86,0,0,0,.12-1.57,35,35,0,0,0-1.39-4.39,1.67,1.67,0,0,0-1.28-.69,1.46,1.46,0,0,0-1,.78,30.33,30.33,0,0,0-3.27,12.53m6,6.28a30.73,30.73,0,0,1,.2,3.79c-.33,4.1,2.52,6,5.37,7.9a1.38,1.38,0,0,0,1.28,0,1.52,1.52,0,0,0,.45-1.23c-.55-4.46-1.12-8.92-1.78-13.36a31.43,31.43,0,0,0-1.21-5.07c-.14-.44-.92-.79-1.47-.92-.25-.06-.87.45-.95.79-.71,2.83-1.34,5.67-1.89,8.09M129.6,274.34a10.86,10.86,0,0,0,0,2.06c.08.38.53.68.81,1,.29-.26.68-.46.86-.79,2.32-4.22,4.56-8.48,6.93-12.67a19.82,19.82,0,0,1,2.16-2.46,6.42,6.42,0,0,0,1.1-1.84,21.77,21.77,0,0,0,.83-3.55,11.39,11.39,0,0,0-.11-2.25c-.71.32-1.63.47-2.11,1-1.75,2-3.37,4.06-5,6.11a25.91,25.91,0,0,0-5.47,13.36m33.11,23.42a7.94,7.94,0,0,0,1.49-1.18c2.93-3.51,5.8-7.06,8.7-10.58,1.69-2.06.91-4.51-1.73-5.13a2,2,0,0,0-1.65.41c-3.13,4.21-6.22,8.47-9.23,12.76-1.08,1.54.12,3.65,2.42,3.72m-29.58-39.39.71.2c.9-1.08,1.77-2.19,2.71-3.24,2.41-2.69,4.12-6.11,7.82-7.47a2.83,2.83,0,0,0,1.18-1.05,42,42,0,0,0,2.51-4.05,6.46,6.46,0,0,0,.33-2,8,8,0,0,0-2.08.08c-3,.93-5,3.22-6.77,5.58-2.27,3-4.26,6.29-6.24,9.53-.37.62-.13,1.61-.17,2.43"></path> <path d="M207.64,264c0,3.25-1.48,6.21-3.74,9-4,5-8.68,8.73-14.85,10.39a17.11,17.11,0,0,1-9.87-.58,26,26,0,0,1-8.8-5.2c-3.26-2.73-3.89-6.25-3.49-10.07a19.28,19.28,0,0,1,7.05-12.65c3.43-3,6.62-6.29,10.95-8.11a4.16,4.16,0,0,1,3.48-.09,61.2,61.2,0,0,0,6.56,2.39A13.74,13.74,0,0,1,200.2,252c1.16,1,2.63,1.6,3.82,2.56,2.93,2.34,4,5.48,3.62,9.51m-20.79,14.51a15,15,0,0,0,2.84,0,23.52,23.52,0,0,0,7.53-2.84c4.83-2.79,6.35-7.25,6.16-12.24-.21-5.63-3.72-8.83-9.24-10.63-1.91-.62-3.79-1.32-5.72-1.87a8.12,8.12,0,0,0-3-.4c-4.71.44-11.21,6.13-12.52,10.68a11.34,11.34,0,0,0,1.27,9.46c2.91,4.75,7,7.59,12.64,7.87" style="fill:#fff"></path> <path d="M244.89,248.81c0,.51,0,.71,0,.82-2,2.85-.62,6.13-1.15,9.18A32.62,32.62,0,0,1,239.63,270c-1.73,2.92-3.75,5.67-5.63,8.49,0,0-.05.1-.09.13l-2.5,1.58a18,18,0,0,1,.13-2.66c.65-3.17,1.24-6.36,2.11-9.47.74-2.65,1.88-5.18,2.75-7.79a56.07,56.07,0,0,0,2-7c.77-4,1.24-8.07,1.92-12.1a5.94,5.94,0,0,1,1-1.72c.49.49,1.23.89,1.42,1.48.79,2.41,1.41,4.88,2.08,7.33a2.09,2.09,0,0,1,.06.59" style="fill:#fff"></path> <path d="M188.87,231.65q-.27,4.92-.53,9.85a1.76,1.76,0,0,1-1.64,1.79c-4.22.85-4.37.88-5.43-3.36-1.26-5-2.3-10.13-3.43-15.2a2,2,0,0,1,1.39-2.53,67.08,67.08,0,0,1,8.05-1.62c1.61-.2,2.45.94,2.37,2.67-.13,2.8-.3,5.61-.45,8.42l-.33,0" style="fill:#fff"></path> <path d="M244.73,265a6.66,6.66,0,0,1,.4,1.91c-.59,6-1,12-4.95,17a37,37,0,0,1-10.61,9.27c-2.16,1.22-4.35,2.43-6.56,3.57-.38.19-1.27.17-1.35,0a1.84,1.84,0,0,1-.07-1.58,29.2,29.2,0,0,1,3.58-4.24A86.2,86.2,0,0,0,242.29,269c.37-.64.59-1.36.91-2s.67-1.29,1-1.94h.52" style="fill:#fff"></path> <path d="M213.17,210.92c1.4-.95,2.92-.77,4.63.38a23.28,23.28,0,0,0,2.71,1.61c3.2,1.53,4.82,4.48,6.34,7.35,3,5.58,3.72,11.78,4.35,18,.06.61-.68,1.3-1,1.95a7.72,7.72,0,0,1-1.25-1.24c-1.28-2-2.59-4-3.69-6.12s-2.1-4.62-3.18-6.92c-2.36-5-4.8-9.94-8.38-14.21a5.76,5.76,0,0,1-.49-.75" style="fill:#fff"></path> <path d="M218.34,224.91a14.61,14.61,0,0,1-2.13-1c-4.79-3.43-9.47-7-14.35-10.3-2.79-1.89-5.9-3.32-8.84-5-.67-.38-1.81-1.23-1.72-1.44a2.22,2.22,0,0,1,2.4-1.37c2.53.18,5.08.22,7.61.36,4,.24,6.72,2.89,9.54,5.32,3.38,2.92,5,7.05,7.16,10.76.33.55.19,1.39.33,2.64" style="fill:#fff"></path> <path d="M187.38,217.56a2.57,2.57,0,0,1-.59.28c-5.26,1-10.55,1.84-15.77,3-5.58,1.23-11.1,2.75-16.65,4.14-.49.12-1,.21-1.48.31l-.37-.33a7.8,7.8,0,0,1,1-1.93,26.14,26.14,0,0,1,20.27-8.29c3.7.08,7.4.49,11.1.72a2.62,2.62,0,0,1,2.5,2.1" style="fill:#fff"></path> <path d="M195.66,305.43c0,2.87-.5,3.47-2.71,3.61-.58,0-1.16.12-1.74.15a2.3,2.3,0,0,1-2.55-1.88c-1.36-4.24-.94-8.63-1.28-13-.15-1.85-.26-3.71-.33-5.57a2.85,2.85,0,0,1,2.44-2.65c1.69-.35,2.83,0,3.16,1.57,1,4.71,1.89,9.46,2.74,14.21a28.21,28.21,0,0,1,.27,3.52" style="fill:#fff"></path> <path d="M238.89,238.62c-1,5.54-1.9,11.09-2.94,16.62-.11.57-.87,1-1.32,1.52-.31-.55-.85-1.08-.88-1.65-.27-4.35-.5-8.7-.63-13.05a71,71,0,0,0-2.61-17.14,6.54,6.54,0,0,1,0-1.92c.72.23,1.7.25,2.12.75,3.44,4,6.73,8.16,5.88,14a4.28,4.28,0,0,0,0,.8l.33.06" style="fill:#fff"></path> <path d="M210.06,308.33l-1.44-.79a7.24,7.24,0,0,1,1.09-1.45q2.29-1.84,4.71-3.52a3,3,0,0,1,1.77-.58,9.91,9.91,0,0,0,6-1.91c4.58-2.86,9.05-5.89,13.59-8.8a9,9,0,0,1,2.05-.71,8.82,8.82,0,0,1-.47,2.39c-2.14,4.24-5,7.73-9.45,9.89-5.13,2.5-10.32,4.67-16,5.35-.47.05-1,.07-1.78.13" style="fill:#fff"></path> <path d="M164.62,226.17c-4.64,2-7.55,5.94-11,9.26a15,15,0,0,1-5,3c-2.54,1-5,2.25-7.53,3.35a5.74,5.74,0,0,1-1.44.28,4.56,4.56,0,0,1-.22-1.79,14.68,14.68,0,0,1,1.21-2c2.47-4.84,6.52-7.82,11.47-9.7,3.17-1.2,6.37-2.33,9.6-3.31a8.06,8.06,0,0,1,2.89.23l0,.74" style="fill:#fff"></path> <path d="M209.36,319.44c-1.92.71-3.69,1.75-5.56,2a43.66,43.66,0,0,1-10.39.39,27.36,27.36,0,0,1-15.06-7,4.41,4.41,0,0,1-.71-1.44c.6-.23,1.22-.69,1.79-.64,5.15.47,10,2.05,14.95,3.57a29.31,29.31,0,0,0,11,1.59c1.37-.11,2.93-.41,4,1.58" style="fill:#fff"></path> <path d="M203.89,316.26c-2.95-.62-5.5-1.12-8-1.73-.45-.11-1.09-.69-1.09-1a1.65,1.65,0,0,1,.92-1.29c2.45-.71,4.77-1.83,7.56-1.24,1.77.38,3.76-.3,5.65-.47A51.81,51.81,0,0,0,224,306.94a7.86,7.86,0,0,1,2.49-.15,9,9,0,0,1-1.33,2,63.68,63.68,0,0,1-5.41,4.43,8.74,8.74,0,0,1-3.58,1.59c-4.18.62-8.4,1-12.28,1.45" style="fill:#fff"></path> <path d="M156.38,238.31a27.18,27.18,0,0,1,3.28,1.68c4.16,2.82,8.27,5.72,12.38,8.6a2.26,2.26,0,0,1,1,2.9A3.18,3.18,0,0,1,169,253c-3-1.6-6-3.33-9-4.95-2.29-1.23-4.61-2.41-6.94-3.54a1.92,1.92,0,0,1-1.16-2.18c.18-1.72,2.48-4.11,4.53-4" style="fill:#fff"></path> <path d="M166.67,319.09a6.8,6.8,0,0,1-1.89-.33c-2.9-1.42-5.85-2.78-8.59-4.47a5.85,5.85,0,0,1-2.29-3.24c-1-3.73-1.7-7.54-2.39-11.34a2.66,2.66,0,0,1,.65-2.18c.9-.72,1.39.39,2,.91,3.55,2.91,5,7.18,7.28,10.92,1.44,2.35,2.91,4.69,4.34,7,.43.7.79,1.45,1.18,2.18-.1.17-.2.34-.31.51" style="fill:#fff"></path> <path d="M198.47,246.22c.86-1.47,1.45-2.7,2.25-3.79,3.3-4.54,6.65-9.05,10-13.56.63-.85,1-2.49,2.3-2a8.94,8.94,0,0,1,3.64,2.78c.32.4-.43,2-1,2.72-1.46,2-3.12,3.75-4.69,5.62-2.59,3.08-5.14,6.19-7.8,9.2-.59.67-1.76,1.47-2.39,1.29-.87-.26-1.47-1.4-2.3-2.28" style="fill:#fff"></path> <path d="M172.07,212a11.41,11.41,0,0,1,2.65-1.93c2.67-1,5.43-1.7,8.17-2.48a3,3,0,0,1,1.42.06,35.14,35.14,0,0,1,10.26,3.75c2,1.22,4.12,2.39,6.17,3.6.36.21.85.42,1,.75a9.3,9.3,0,0,1,.43,1.91,4.53,4.53,0,0,1-1.61.15c-3.25-1-6.47-2.07-9.72-3a47.17,47.17,0,0,0-15.58-2c-1,0-2-.09-2.94-.14Z" style="fill:#fff"></path> <path d="M185.24,323.19c-1.6-.08-3.12-.19-4.64-.24-6.94-.22-11.14-4.49-14.64-9.82a39.92,39.92,0,0,1-2.35-3.76,6,6,0,0,1-.17-2.15,6.84,6.84,0,0,1,2,.08c3.59,1.25,5.94,4.18,8.63,6.61a43.14,43.14,0,0,0,9.79,6.91c.92.46,1.67.93,1.4,2.37" style="fill:#fff"></path> <path d="M164.46,267.74c-.15,2.29-.52,2.75-2.87,3.22-4,.79-8,1.51-12,2.29a2.28,2.28,0,0,1-2.92-1.52,20.6,20.6,0,0,1-.91-3.36c-.19-1.09.87-2.19,2.29-2.39,1.25-.17,2.53-.21,3.8-.31,3.21-.26,6.43-.48,9.64-.79,2.17-.21,3.13.66,3,2.86" style="fill:#fff"></path> <path d="M214.87,264,212,263.8c-1.54-.08-2.1-1.06-2.17-2.43s.83-2,2-2.21c4.72-.75,9.43-1.55,14.16-2.17,3.39-.44,4.64,1.16,3.79,4.54a2.37,2.37,0,0,1-2.53,2.12c-4,0-8.07.19-12.45.3" style="fill:#fff"></path> <path d="M207.48,275.54c.9.42,2.29,1,3.57,1.68,3.89,2.17,7.76,4.36,11.56,6.69a2.69,2.69,0,0,1,1.1,2.21c-.2.9-1,2.19-1.73,2.34a5.48,5.48,0,0,1-3.21-.91c-4.45-2.35-8.85-4.79-13.26-7.23-.86-.47-2.18-.62-1.69-2.2a3.23,3.23,0,0,1,3.66-2.58" style="fill:#fff"></path> <path d="M139.51,266.67c.45.3,1,.48,1.1.76.39,2.07,1.52,4.05.42,6.3-2.54,5.22-4.75,10.56-5.17,16.47a4.91,4.91,0,0,1-.77,1.58c-.53-.35-1.39-.6-1.54-1.07a19.39,19.39,0,0,1-1.25-5.33c-.15-6,2.13-11.27,5.5-16.12.54-.78,1-1.59,1.71-2.59" style="fill:#fff"></path> <path d="M137.69,291.52A30.33,30.33,0,0,1,141,279a1.46,1.46,0,0,1,1-.78,1.67,1.67,0,0,1,1.28.69,35,35,0,0,1,1.39,4.39,3.86,3.86,0,0,1-.12,1.57c-.91,4.88-1.82,9.77-2.77,14.65A6.37,6.37,0,0,1,141,301c-.48-.27-1.22-.43-1.38-.82a36.24,36.24,0,0,1-1.78-5.33,16.15,16.15,0,0,1-.17-3.33" style="fill:#fff"></path> <path d="M143.72,297.8c.55-2.42,1.18-5.26,1.89-8.09.08-.34.7-.85.95-.79.55.13,1.33.48,1.47.92a31.43,31.43,0,0,1,1.21,5.07c.66,4.44,1.23,8.9,1.78,13.36a1.52,1.52,0,0,1-.45,1.23,1.38,1.38,0,0,1-1.28,0c-2.85-1.89-5.7-3.8-5.37-7.9a30.73,30.73,0,0,0-.2-3.79" style="fill:#fff"></path> <path d="M129.6,274.34A25.91,25.91,0,0,1,135.07,261c1.67-2.05,3.29-4.15,5-6.12a6.35,6.35,0,0,1,2.11-1,11.33,11.33,0,0,1,.11,2.24,21.89,21.89,0,0,1-.83,3.56,6.42,6.42,0,0,1-1.1,1.84,19.82,19.82,0,0,0-2.16,2.46c-2.37,4.19-4.61,8.45-6.93,12.67-.18.33-.57.53-.86.79-.28-.34-.73-.64-.81-1a10.86,10.86,0,0,1,0-2.06" style="fill:#fff"></path> <path d="M162.71,297.76c-2.3-.07-3.5-2.18-2.42-3.72,3-4.29,6.1-8.55,9.23-12.76a2,2,0,0,1,1.65-.41c2.64.62,3.42,3.07,1.73,5.13-2.9,3.52-5.77,7.07-8.7,10.58a7.94,7.94,0,0,1-1.49,1.18" style="fill:#fff"></path> <path d="M133.13,258.37c0-.82-.2-1.81.17-2.43,2-3.24,4-6.49,6.24-9.53,1.77-2.36,3.77-4.65,6.77-5.58a8,8,0,0,1,2.08-.08,6.46,6.46,0,0,1-.33,2,42,42,0,0,1-2.51,4.05,2.83,2.83,0,0,1-1.18,1.05c-3.7,1.36-5.41,4.78-7.82,7.47-.94,1-1.81,2.16-2.71,3.24l-.71-.2" style="fill:#fff"></path> <path d="M186.85,278.53c-5.68-.28-9.73-3.12-12.64-7.87A11.31,11.31,0,0,1,173,261.2c1.3-4.55,7.8-10.24,12.51-10.68a7.91,7.91,0,0,1,3,.4c1.93.55,3.81,1.25,5.72,1.87,5.52,1.8,9,5,9.24,10.63.19,5-1.33,9.45-6.16,12.24a23.52,23.52,0,0,1-7.53,2.84,15,15,0,0,1-2.84,0m-.29-2.15c1.64-.37,3.32-.61,4.92-1.13,5.17-1.68,8.59-4.95,9.69-10.51,1-5.08-1.95-8.38-6.22-9.24-3.2-.65-6.55-.59-9.77-1.18A5.72,5.72,0,0,0,179.7,256a12.71,12.71,0,0,0-2.27,2.66c-1.44,2.57-3.19,5.06-2.75,8.28.79,5.92,6,9,11.88,9.41"></path> <path d="M186.56,276.38c-5.9-.43-11.09-3.49-11.88-9.41-.44-3.22,1.31-5.71,2.75-8.28A12.71,12.71,0,0,1,179.7,256a5.72,5.72,0,0,1,5.48-1.71c3.22.59,6.57.53,9.77,1.18,4.27.86,7.23,4.16,6.22,9.24-1.1,5.56-4.52,8.83-9.69,10.51-1.6.52-3.28.76-4.92,1.13m2.29-6.27c.27,0,.53,0,.79,0a3.78,3.78,0,0,0,3.51-2,4.43,4.43,0,0,0-.72-5.29,3.37,3.37,0,0,0-4.05-.86,30.86,30.86,0,0,0-3.67,1.47,2.09,2.09,0,0,0-1.14,2.65,5.64,5.64,0,0,0,5.28,4" style="fill:#fff"></path> <path d="M188.85,270.11a5.64,5.64,0,0,1-5.28-4,2.09,2.09,0,0,1,1.14-2.65,30.86,30.86,0,0,1,3.67-1.47,3.37,3.37,0,0,1,4.05.86,4.43,4.43,0,0,1,.72,5.29,3.78,3.78,0,0,1-3.5,2c-.27,0-.53,0-.8,0m-1.62-2.56a2.6,2.6,0,0,0,3.1-.7,2,2,0,0,0,.26-1.66c-.06-.25-.85-.5-1.27-.46-1.74.19-2.18.82-2.09,2.82"></path> <path d="M187.23,267.55c-.09-2,.35-2.63,2.09-2.82.42,0,1.21.21,1.27.46a2,2,0,0,1-.26,1.66,2.6,2.6,0,0,1-3.1.7" style="fill:#fff"></path> <path d="M184.54,154.88c.32-5,.64-10.09,1-15.13,0-.39.21-1,.45-1.09s.82.19,1.2.38c.85.42,1.66.94,2.53,1.32,4,1.77,8.08,3.5,12.13,5.23a3,3,0,0,0,2.94-.05,4.84,4.84,0,0,1,5.21.06,2.5,2.5,0,0,0,2,.25,56.1,56.1,0,0,0,10.09-3.44q2.41-1,4.86-2c.69-.28,1.26,0,1.28.62a30.07,30.07,0,0,0,1.44,6.71c1.07,4.12,2.05,8.27,3.06,12.4.17.67.36,1.34.52,2s-.05,1-.72.73a17,17,0,0,1-2.59-1,82.64,82.64,0,0,0-10.35-4.51c-2.35-.83-4.62-1.9-6.91-2.9a1.89,1.89,0,0,0-1.61-.08,7.42,7.42,0,0,1-6.65-.18,17.76,17.76,0,0,1-1.6-1.32,1.45,1.45,0,0,0-.92-.32c-4.85.88-9.69,1.8-14.52,2.73-.4.07-.76.36-1.15.42a5.3,5.3,0,0,1-1.64,0c-.16,0-.25-.49-.37-.75l.33,0m36.22-7.47h-.06c.1,2.94.2,5.88.27,8.82a1.29,1.29,0,0,0,.95,1.24c2.9,1.26,5.79,2.57,8.69,3.84a1,1,0,0,0,.76,0c.14-.08.2-.46.15-.68-.41-1.94-.8-3.89-1.29-5.82-1.07-4.22-2.21-8.44-3.29-12.66-.14-.54-.4-.61-.84-.44-1.65.67-3.3,1.32-4.93,2a.92.92,0,0,0-.42.7c0,1,0,2,0,2.94m-28.31-1.29c.29-.06.43-.13.53-.1a9.73,9.73,0,0,1,1.19.52c.06,0,0,.27.05.41l-1-.07-.07,0c-.46-.16-.67.1-.66.49,0,1.75.07,3.51.11,5.26,0,.44.27.58.68.5s1-.21,1.52-.3c2.14-.36,4.28-.68,6.41-1.08a1.2,1.2,0,0,0,.82-.64c.38-1.22.64-2.48,1-3.72.13-.43.12-.66-.39-.78a9.56,9.56,0,0,1-1.53-.53c-2.55-1.05-5.11-2.1-7.65-3.18-.46-.19-.88-.23-.93.36-.07.93,0,1.88,0,2.89m27,1h0c0-.61,0-1.23-.05-1.85s-.25-.68-.76-.52c-2,.63-4.08,1.24-6.11,1.88-.52.16-.79.4-.42,1a4.78,4.78,0,0,1,.29,4.79,3.26,3.26,0,0,0-.15.44c-.14.41,0,.63.4.82,1.88.78,3.73,1.62,5.6,2.42,1.13.48,1.27.36,1.25-.87,0-2.71,0-5.41-.06-8.12M186,154.56c1.37-.28,2.6-.6,3.84-.76s1.25-.2,1.14-1.32v-.16c0-3.17,0-6.34,0-9.51a1.28,1.28,0,0,0-.82-1.34c-.63-.28-1.26-.59-1.89-.89-1.5-.73-1.55-.54-1.66,1-.28,4.07-.48,8.14-.7,12.22a4.16,4.16,0,0,0,0,.74m21.63-1.07c.91.28,1.44-.32,1.93-1.1a4.26,4.26,0,0,0-.13-5,1.38,1.38,0,0,0-1.93-.26,4.83,4.83,0,0,0-2.22,3.47c-.29,2.47.2,2.72,2.35,2.87"></path> <path d="M220.76,147.41c0-1,0-2,0-2.94a.92.92,0,0,1,.42-.7c1.63-.71,3.28-1.36,4.93-2,.44-.17.7-.1.84.44,1.08,4.22,2.22,8.44,3.29,12.66.49,1.93.88,3.88,1.29,5.82,0,.22,0,.6-.15.68a1,1,0,0,1-.76,0c-2.9-1.27-5.79-2.58-8.69-3.84a1.29,1.29,0,0,1-.95-1.24c-.07-2.94-.17-5.88-.27-8.82h.06m2.62,8.42-.72.64c.39.27.76.55,1.16.78,0,0,.36-.3.34-.33a12.51,12.51,0,0,0-.78-1.09m-.6-5.59-.59.7a11.91,11.91,0,0,0,1,.72s.33-.25.31-.28c-.19-.34-.42-.66-.75-1.14m-.93-5.49,1.27.61c0-.18.09-.41,0-.54-.27-.47-.65-.72-1.29-.07" style="fill:#fff"></path> <path d="M192.45,146.12c0-1,0-2,0-2.89.05-.59.47-.55.93-.36,2.54,1.08,5.1,2.13,7.65,3.18a10.7,10.7,0,0,0,1.53.54c.51.11.52.34.4.77-.35,1.24-.61,2.5-1,3.72a1.2,1.2,0,0,1-.82.64c-2.13.4-4.27.72-6.41,1.08-.51.09-1,.2-1.52.3s-.66-.06-.68-.5c0-1.75-.09-3.51-.11-5.26,0-.39.2-.65.66-.49l.07,0,1,.07c0-.14,0-.37-.05-.41A9.73,9.73,0,0,0,193,146c-.1,0-.24,0-.53.1m1.74,3.73-.7.59c.36.26.72.53,1.1.75,0,0,.35-.25.34-.27-.2-.33-.44-.65-.74-1.07" style="fill:#fff"></path> <path d="M219.47,147.08c0,2.71,0,5.41.07,8.12,0,1.23-.12,1.35-1.25.87-1.87-.8-3.72-1.64-5.6-2.42-.44-.19-.54-.41-.4-.82a3.26,3.26,0,0,1,.15-.44,4.78,4.78,0,0,0-.29-4.79c-.37-.61-.1-.85.42-1,2-.64,4.08-1.25,6.11-1.88.51-.16.74,0,.76.52s0,1.24.05,1.85h0m-.37,6.78.08-.25a7.34,7.34,0,0,0-1.08-.8c-.13-.06-.42.22-.64.35a10.9,10.9,0,0,0,1.08.85c.11.07.37-.09.56-.15m-.91-5.91c0-.95-.51-1.48-1.11-1.21-.13.06-.23.55-.19.58a12.15,12.15,0,0,0,1.3.63" style="fill:#fff"></path> <path d="M186,154.56a4.16,4.16,0,0,1,0-.74c.22-4.08.42-8.15.7-12.22.11-1.56.16-1.75,1.66-1,.63.3,1.26.61,1.89.89a1.28,1.28,0,0,1,.82,1.34c0,3.17,0,6.34,0,9.51v.16c.11,1.12,0,1.16-1.14,1.32s-2.47.48-3.84.76m3-11.44-.59.62a11.58,11.58,0,0,0,1.06.65c.06,0,.26-.22.39-.34l-.86-.93m.89,6.52.52-.35a4,4,0,0,0-.81-.78c-.13-.07-.44.19-.67.3l1,.83m.1,3.51a4.66,4.66,0,0,0-1-.75c-.15-.05-.42.24-.64.38a9.8,9.8,0,0,0,1,.62c.11,0,.32-.11.71-.25" style="fill:#fff"></path> <path d="M207.67,153.49c-2.15-.15-2.64-.4-2.35-2.87a4.83,4.83,0,0,1,2.22-3.47,1.38,1.38,0,0,1,1.93.26,4.26,4.26,0,0,1,.13,5c-.49.78-1,1.38-1.93,1.1" style="fill:#fff"></path> <path d="M223.38,155.83a12.51,12.51,0,0,1,.78,1.09s-.3.36-.34.33c-.4-.23-.77-.51-1.16-.78l.72-.64"></path> <path d="M222.78,150.24c.33.48.56.8.75,1.14,0,0-.28.31-.32.28-.35-.21-.68-.47-1-.72l.59-.7"></path> <path d="M221.85,144.75c.64-.65,1-.4,1.29.07.07.13,0,.36,0,.54l-1.27-.61"></path> <path d="M194.19,149.85c.3.42.54.74.74,1.07,0,0-.29.3-.34.27-.38-.22-.74-.49-1.1-.75l.7-.59"></path> <path d="M219.1,153.86c-.19.06-.45.22-.56.15a10.9,10.9,0,0,1-1.08-.85c.22-.13.51-.41.64-.35a7.34,7.34,0,0,1,1.08.8l-.08.25"></path> <path d="M218.19,148a12.15,12.15,0,0,1-1.3-.63s.06-.52.19-.58c.6-.27,1.14.26,1.11,1.21"></path> <path d="M189.06,143.12l.86.93c-.13.12-.33.37-.39.34a11.58,11.58,0,0,1-1.06-.65l.59-.62"></path> <path d="M190,149.64l-1-.83c.23-.11.54-.37.67-.3a4,4,0,0,1,.81.78l-.52.35"></path> <path d="M190.05,153.15c-.39.14-.6.3-.71.25a9.8,9.8,0,0,1-1-.62c.22-.14.49-.43.64-.38a4.66,4.66,0,0,1,1,.75"></path> <path d="M90.17,114.77,97.61,146l3.1,13.75A25.59,25.59,0,0,1,99,162c-4,4-9.61,8.57-16.4,11.15s-14,2.87-19.66,2.57a24.59,24.59,0,0,1-2.76-.52l-6.82-12.33-15.21-28.3Z" style="fill:#9c9b9b"></path> <g style="clip-path:url(#clip-path)"> <path d="M77.28,119.67C84,129.37,87,142.92,84.44,157a54.66,54.66,0,0,1-6.37,17.51,53.47,53.47,0,0,1-15.14,1.18,27.07,27.07,0,0,1-2.76-.52l-6.82-12.34L38.13,134.56Z" style="fill:#fff"></path> </g> <path d="M90.26,115c1.3,3.43-.34,7.66-4.62,11.9-4,4-10,7.59-16.77,10.17a52.14,52.14,0,0,1-16.48,3.56c-1,0-1.91,0-2.81,0a24.38,24.38,0,0,1-4.7-.7c-3.42-.93-5.73-2.68-6.66-5.13-1.31-3.44.33-7.67,4.62-11.9,4-4,10-7.6,16.77-10.18s13.63-3.84,19.28-3.54c6,.31,10.06,2.38,11.37,5.83" style="fill:#fff"></path> <path d="M89,115.47c2.3,6-6.93,15.18-20.63,20.39s-26.67,4.53-29-1.52,6.93-15.19,20.63-20.4,26.67-4.53,29,1.53" style="fill:#9ea3a3"></path> <path d="M89.31,118.44c-.9,5.79-9.3,13-20.9,17.42s-22.68,4.6-27.2.88c.9-5.79,9.3-13,20.9-17.43s22.68-4.6,27.2-.87" style="fill:#652d10"></path> <path d="M89.31,118.44c-.46,3-2.91,6.34-6.77,9.5,0,0,0-.06,0-.08-5.07-5.09-16.65-5.87-28.39-1.4a43.94,43.94,0,0,0-11.23,6.18c3.15-4.81,10.21-9.91,19.19-13.33,11.6-4.41,22.68-4.6,27.2-.87" style="fill:#652d10"></path> <path d="M82.54,127.86s0,.06,0,.08a51.38,51.38,0,0,1-14.13,7.93c-11.6,4.41-22.68,4.59-27.2.87a10.74,10.74,0,0,1,1.71-4.1,43.94,43.94,0,0,1,11.23-6.18c11.74-4.47,23.32-3.69,28.39,1.4" style="fill:#925f36"></path> <g style="clip-path:url(#clip-path-2)"> <path d="M48.21,143.84l.07.16L62.2,173.1a10.57,10.57,0,0,0,1.81.08,11,11,0,0,0,2.06-.2l-9.18-29.43a27.94,27.94,0,0,1-4.24.84,19.13,19.13,0,0,1-4.44-.55" style="fill:#fff"></path> </g> <path d="M32,107.51s5.67,8.54-3.36,14.31S7.43,100.65,26.07,97.67s33.42,36.26,33.42,36.26" style="fill:none;stroke:#45ab34;stroke-linecap:round;stroke-linejoin:round;stroke-width:5px"></path> <path d="M7.33,92.63s5.72-2.26,10.65-.78,6.2,3.08,8.41,6.39c0,0-.6-6.08-4.17-8.63s-7.5-1.38-9.4-.63a32.05,32.05,0,0,0-5.49,3.65" style="fill:#45ab34"></path> <path d="M7.33,92.63a7.91,7.91,0,0,1,2.57.64c1.4.6,5.53,3.27,7.19,3.93s3.4,1.55,9.3,1c-2.21-3.31-3.49-4.92-8.41-6.39s-10.65.78-10.65.78" style="fill:#067132"></path> <path d="M0,111.56s2.48-5.63,7-8,6.58-2.16,10.48-1.36c0,0-4.7-3.91-9-3.22s-6.31,4.29-7.14,6.15A32.53,32.53,0,0,0,0,111.56" style="fill:#45ab34"></path> <path d="M0,111.56a7.72,7.72,0,0,1,2.27-1.36c1.42-.55,6.24-1.55,7.89-2.25s3.51-1.28,7.35-5.79c-3.9-.8-5.94-1-10.48,1.36s-7,8-7,8" style="fill:#067132"></path> <path d="M11.3,127.7s-2.65-5.55-1.51-10.57,2.66-6.4,5.81-8.83c0,0-6,1-8.33,4.75s-.86,7.58,0,9.42a32.45,32.45,0,0,0,4,5.23" style="fill:#45ab34"></path> <path d="M11.3,127.7a8,8,0,0,1,.46-2.61c.5-1.44,2.88-5.74,3.43-7.44s1.32-3.5.41-9.35c-3.15,2.43-4.67,3.81-5.81,8.83S11.3,127.7,11.3,127.7" style="fill:#067132"></path> <path d="M25.78,129.59s-4.56-1.54-6.75-4.92-2.13-5-1.78-8.07c0,0-2.72,3.93-1.88,7.26s3.78,4.62,5.28,5.13a25.55,25.55,0,0,0,5.13.6" style="fill:#45ab34"></path> <path d="M25.78,129.59a6,6,0,0,1-1.21-1.68c-.53-1.07-1.65-4.74-2.3-6s-1.24-2.65-5-5.33c-.35,3.1-.41,4.7,1.78,8.07s6.75,4.92,6.75,4.92" style="fill:#067132"></path> <path d="M72.64,62.06s-7,4.75-7.15,18.14,8,49.37,8,49.37" style="fill:none;stroke:#45ab34;stroke-linecap:round;stroke-linejoin:round;stroke-width:5px"></path> <path d="M93.37,65.46S88.18,60.05,82,59.19s-8.43.27-12.56,2.81c0,0,3.74-6.43,9-7.44s9,2.28,10.73,4.06,4.24,6.84,4.24,6.84" style="fill:#45ab34"></path> <path d="M93.37,65.46a9.42,9.42,0,0,0-3.17-.6c-1.86,0-7.79.82-10,.71s-4.56,0-10.83-3.57c4.13-2.54,6.35-3.68,12.56-2.81s11.4,6.27,11.4,6.27" style="fill:#067132"></path> <path d="M90.06,79.28S84.87,73.87,78.67,73s-8.44.27-12.57,2.81c0,0,3.75-6.43,9-7.44s9,2.28,10.73,4.06,4.23,6.84,4.23,6.84" style="fill:#45ab34"></path> <path d="M90.06,79.28a9.48,9.48,0,0,0-3.17-.61c-1.85,0-7.78.82-10,.72s-4.55,0-10.83-3.57c4.13-2.54,6.36-3.68,12.57-2.81s11.39,6.27,11.39,6.27" style="fill:#067132"></path> <path d="M84.87,92s-4.33-4.51-9.5-5.23-7,.22-10.48,2.34c0,0,3.13-5.36,7.5-6.2s7.51,1.9,9,3.39A32.68,32.68,0,0,1,84.87,92" style="fill:#45ab34"></path> <path d="M84.87,92a7.91,7.91,0,0,0-2.65-.51c-1.54,0-6.48.69-8.3.6s-3.8,0-9-3C68.34,87,70.19,86,75.37,86.76S84.87,92,84.87,92" style="fill:#067132"></path> <line x1="33.5" y1="59.01" x2="65.35" y2="129.69" style="fill:none;stroke:#45ab34;stroke-linecap:round;stroke-linejoin:round;stroke-width:5px"></line> <path d="M9.66,56.29s6.55-3.64,12.74-2.63,8,2.75,11.17,6.4c0,0-1.68-7.26-6.39-9.77s-9.29-.48-11.46.72-6.06,5.28-6.06,5.28" style="fill:#45ab34"></path> <path d="M9.66,56.29a9.65,9.65,0,0,1,3.21.36c1.78.51,7.19,3.08,9.3,3.62s4.36,1.34,11.4-.21c-3.2-3.65-5-5.39-11.17-6.4S9.66,56.29,9.66,56.29" style="fill:#067132"></path> <path d="M16.26,69.6s7-2.76,13-1,7.55,3.75,10.25,7.78c0,0-.73-7.41-5.08-10.51S25.26,64.23,23,65.14s-6.69,4.46-6.69,4.46" style="fill:#45ab34"></path> <path d="M16.26,69.6a9.51,9.51,0,0,1,3.13.77c1.71.73,6.73,4,8.76,4.79s4.15,1.89,11.33,1.26c-2.7-4-4.25-6-10.25-7.78s-13,1-13,1" style="fill:#067132"></path> <path d="M23.19,86.16s7-2.76,13-1S43.71,89,46.41,93c0,0-.73-7.41-5.08-10.51s-9.14-1.68-11.45-.77-6.69,4.46-6.69,4.46" style="fill:#45ab34"></path> <path d="M23.19,86.16a9.51,9.51,0,0,1,3.13.77c1.71.73,6.73,4,8.76,4.79S39.23,93.61,46.41,93c-2.7-4-4.25-6-10.25-7.78s-13,1-13,1" style="fill:#067132"></path> <path d="M47.66,40S40.5,42.24,37,47.41s-3.5,7.67-3.07,12.5c0,0-4.09-6.22-2.66-11.37s6.05-7,8.42-7.8,8-.74,8-.74" style="fill:#45ab34"></path> <path d="M47.66,40a9.3,9.3,0,0,0-2,2.57c-.86,1.64-2.73,7.33-3.79,9.23s-2,4.08-8,8.11c-.43-4.83-.46-7.32,3.07-12.5S47.66,40,47.66,40" style="fill:#067132"></path> <path d="M52.78,53.14s-6.69,3.39-9.32,9.08-2.19,8.15-1,12.84c0,0-5.07-5.45-4.51-10.77s4.79-8,7-9.09,7.78-2.06,7.78-2.06" style="fill:#45ab34"></path> <path d="M52.78,53.14A9.3,9.3,0,0,0,51.28,56c-.58,1.76-1.48,7.68-2.21,9.73s-1.33,4.36-6.56,9.33c-1.24-4.69-1.68-7.15,1-12.84s9.32-9.08,9.32-9.08" style="fill:#067132"></path> <path d="M60.59,69.3s-6.68,3.39-9.31,9.08-2.19,8.15-1,12.84c0,0-5.07-5.45-4.51-10.77s4.8-8,7-9.09,7.77-2.06,7.77-2.06" style="fill:#45ab34"></path> <path d="M60.59,69.3a9.56,9.56,0,0,0-1.5,2.86c-.58,1.76-1.47,7.68-2.21,9.73s-1.33,4.36-6.56,9.33c-1.23-4.69-1.67-7.15,1-12.84s9.31-9.08,9.31-9.08" style="fill:#067132"></path> <path d="M32.71,100s6-2.38,11.19-.83,6.52,3.24,8.84,6.72c0,0-.62-6.39-4.38-9.07s-7.88-1.45-9.87-.66S32.71,100,32.71,100" style="fill:#45ab34"></path> <path d="M32.71,100a8.17,8.17,0,0,1,2.71.66c1.47.63,5.8,3.44,7.55,4.13s3.58,1.64,9.77,1.1c-2.32-3.48-3.66-5.17-8.84-6.72s-11.19.83-11.19.83" style="fill:#067132"></path> <path d="M65,85.42s-5.76,2.93-8,7.83-1.89,7-.82,11.08c0,0-4.38-4.71-3.89-9.29s4.14-6.87,6-7.84S65,85.42,65,85.42" style="fill:#45ab34"></path> <path d="M65,85.42a8.07,8.07,0,0,0-1.29,2.46c-.5,1.53-1.27,6.63-1.91,8.4s-1.14,3.76-5.65,8c-1.07-4-1.45-6.17.82-11.08s8-7.83,8-7.83" style="fill:#067132"></path> <path d="M80.34,127.18c.64,1.63-4.85,5.32-12.26,8.25s-13.94,4-14.58,2.35,4.84-5.32,12.25-8.25,14-4,14.59-2.35" style="fill:#925f36"></path> <path d="M94.33,169.22c.78-1,1.61-2,2.43-3.05.21-.26.44-.5.69-.79.17.16.25.2.26.26a6.39,6.39,0,0,1-.11,3.87c.3-.06.61-.13.91-.21a.66.66,0,0,1,0-.14,15,15,0,0,0-2-9.3c-1.59-2.64-3.52-4.93-7-5a3.55,3.55,0,0,0-3.32,1.72,6.84,6.84,0,0,0-.85,4.09,4.48,4.48,0,0,0,1.7,3.66c1.26,1,2.6,1.81,3.87,2.76a8.5,8.5,0,0,1,1.75,1.69,3.06,3.06,0,0,1,.38,1.32c.43,0,.86-.06,1.29-.1a1,1,0,0,1,.07-.76"></path> <path d="M96.23,161.37c1.1,2.42,1.16,1.59-.15,3.86-.47.82-.87,1.73-1.84,2.09a1.05,1.05,0,0,1-.89-.08A16,16,0,0,1,92,165.79a15.71,15.71,0,0,0,3-4.43c.12-.26.42-.44.64-.65a2.62,2.62,0,0,1,.59.66" style="fill:#fff"></path> <path d="M87.36,162.73A2.75,2.75,0,0,1,86,160a3.56,3.56,0,0,1,1.22-2.78,13.92,13.92,0,0,1,1.31-.75c.81.06,1.56.09,2.31.17.48.05.76.24.48.82-.6,1.26-1.08,2.6-1.77,3.81a6.09,6.09,0,0,1-1.58,1.49.64.64,0,0,1-.58-.06" style="fill:#fff"></path> <path d="M89.1,163.65a10,10,0,0,0,2.27-3.89c.27-.62.59-1.23.92-1.82.21-.39.5-.43.9-.15,1.62,1.15,1.81,1.54.85,3.27a14.58,14.58,0,0,1-2.36,3.11c-.94,1-1.72.74-2.58-.52" style="fill:#fff"></path> <path d="M334.41,96.32s-3.5-2.93-4.74-1.35,1.41,8.6,1.41,8.6" style="fill:none;stroke:#000;stroke-linecap:round;stroke-miterlimit:10;stroke-width:1.2610000371932983px"></path> <path d="M327.26,108.22s-8.54-3.39-10.54-1a3.93,3.93,0,0,0-.56,2.78" style="fill:none;stroke:#000;stroke-linecap:round;stroke-miterlimit:10;stroke-width:1.2610000371932983px"></path> <path d="M324.67,125.15s1.68-2.55,3.2-3.13a9.73,9.73,0,0,1,3.57-.42" style="fill:none;stroke:#000;stroke-linecap:round;stroke-miterlimit:10;stroke-width:1.2610000371932983px"></path> <path d="M332.65,138.62s-.3-2.91.82-4.6a10,10,0,0,1,3.78-2.84" style="fill:none;stroke:#000;stroke-linecap:round;stroke-miterlimit:10;stroke-width:1.2610000371932983px"></path> <path d="M352.09,145.56s-2.76-.78-3.12-2.25.37-4.73.37-4.73" style="fill:none;stroke:#000;stroke-linecap:round;stroke-miterlimit:10;stroke-width:1.2610000371932983px"></path> <path d="M372.31,126.05a5.17,5.17,0,0,0-3-2.64" style="fill:none;stroke:#000;stroke-linecap:round;stroke-miterlimit:10;stroke-width:1.2610000371932983px"></path> <path d="M327.09,106.87c-1.76,3.68.38,8.36,4.78,10.46s9.39.82,11.14-2.86-.38-8.37-4.78-10.47-9.39-.82-11.14,2.87" style="fill:#131313"></path> <path d="M331.87,117.33a6.82,6.82,0,0,0,1.31.51,8.64,8.64,0,0,1-4-11.3,8.34,8.34,0,0,1,3-3.36,6.83,6.83,0,0,0-5.07,3.67c-1.75,3.69.38,8.37,4.79,10.48"></path> <path d="M334.69,107.85c-6.38,7.43-4.47,19.53,4.25,27s21,7.54,27.35.11,4.47-19.53-4.25-27-21-7.54-27.35-.11" style="fill:#e73438"></path> <path d="M338.94,134.86c8.73,7.48,21,7.54,27.33.13a12.62,12.62,0,0,0,1.45-2c-6.68,5.78-17.68,5.17-25.7-1.7s-10.25-17.57-5.7-25a12.3,12.3,0,0,0-1.63,1.6c-6.37,7.43-4.48,19.53,4.25,27" style="fill:#e30a13"></path> <path d="M335.74,106.78c2.45-.15,7.67.7,15.7,8a37.46,37.46,0,0,1,12.16,22.7,12.82,12.82,0,0,0,2.14-1.88c-.85-3.72-4.08-14.59-13.13-21.7-8.09-6.35-13.36-7.83-15.56-8.17a8,8,0,0,0-1.31,1.1"></path> <path d="M346.61,106.36a2.42,2.42,0,1,0,2.52-2.32,2.41,2.41,0,0,0-2.52,2.32"></path> <path d="M356.1,111a2.42,2.42,0,1,0,2.52-2.31A2.42,2.42,0,0,0,356.1,111"></path> <path d="M362,120.69a2.42,2.42,0,1,0,2.51-2.32,2.42,2.42,0,0,0-2.51,2.32"></path> <path d="M345.79,122.77a2.42,2.42,0,1,0,2.51-2.32,2.41,2.41,0,0,0-2.51,2.32"></path> <path d="M336.25,116.73a2.42,2.42,0,1,0,2.51-2.32,2.41,2.41,0,0,0-2.51,2.32"></path> <path d="M349.92,132.28a2.42,2.42,0,1,0,2.52-2.32,2.43,2.43,0,0,0-2.52,2.32"></path> </g> </g> </svg> 