<?xml version="1.0" encoding="UTF-8"?> <svg xmlns="http://www.w3.org/2000/svg" viewBox="0 0 381.25 299.4"> <title>Ресурс 5заряд</title> <g id="Слой_2" data-name="Слой 2"> <g id="Слой_1-2" data-name="Слой 1"> <path d="M155.26,255.32a5.92,5.92,0,0,1,1.32-.1,2.45,2.45,0,0,0,2.53-1.1c.4-.7.21-2.53-.48-3a2.17,2.17,0,0,0-1.76-.23,13.55,13.55,0,0,0-2.69,1.85,1,1,0,0,0,0,1.56,3.27,3.27,0,0,1,.47,1.09,6,6,0,0,0-1,.41,5,5,0,0,0-1.34,1,3.32,3.32,0,0,0-.5,1.37c-.36,1.71.4,2.7,2.18,2.85,1,.09,2,.15,3,.18a1.83,1.83,0,0,0,2.06-2c0-.14,0-.29,0-.43-.16-2.51-.43-2.86-3-3-.23,0-.46-.05-.68-.08,0-.15,0-.29-.05-.44" style="fill:#fff"></path> <path d="M151,270.29c0,.54,0,1,0,1.46a2.16,2.16,0,0,0,2.37,2.16c.85,0,1.69.09,2.54.16,1.42.14,2.1-.26,2.38-1.63s.66-2.74-.07-4a2.49,2.49,0,0,0-1.41-1.18,18.68,18.68,0,0,0-3.59-.22,2.05,2.05,0,0,0-2.07,1.78c-.09.51-.11,1-.16,1.5" style="fill:#fff"></path> <path d="M167.39,270.92a8.68,8.68,0,0,0-.35-1.82,1.69,1.69,0,0,0-1-1,27,27,0,0,0-4.31-.3,1.43,1.43,0,0,0-1,1c-.15,1.41-.79,2.76-.37,4.26.17.58.31,1,.89,1.12a17.15,17.15,0,0,0,3.26.32c1.92-.07,2.75-1.09,2.86-3.54" style="fill:#fff"></path> <path d="M153.15,280.9c.85-.06,1.7-.09,2.54-.18a1.88,1.88,0,0,0,1.89-2c0-.35.11-.7.15-1.05a2.12,2.12,0,0,0-2.31-2.56c-.81,0-1.62-.12-2.42-.11-1.29,0-1.89.64-2.05,2,0,.38-.11.77-.17,1.15-.28,1.79.48,3,2.37,2.77" style="fill:#fff"></path> <path d="M164.91,244.37a16.77,16.77,0,0,0,2.84-.55c1.28-.48,1.08-1.7,1-2.74a2,2,0,0,0-1.64-2c-1.07-.24-2.15-.39-3.23-.55a1.38,1.38,0,0,0-1.69,1.06,1.76,1.76,0,0,1-.09.2c-1.17,2.86-.36,4.13,2.81,4.54" style="fill:#fff"></path> <path d="M156.17,237.74c-2,0-2.81.54-3.17,2.31a2.17,2.17,0,0,0,1.56,2.82,13.75,13.75,0,0,0,3.45.41,1.78,1.78,0,0,0,1.85-1.88c.18-2.73-.73-3.63-3.69-3.66" style="fill:#fff"></path> <path d="M164,261.72c.43,0,.86.08,1.28.06,1.91-.12,2.35-.56,2.43-2.34a2.39,2.39,0,0,0-2.28-2.75,15.32,15.32,0,0,0-3.16-.21c-1.19.1-1.53.67-1.61,1.85-.19,2.67.77,3.3,3.34,3.39" style="fill:#fff"></path> <path d="M163.37,275.54l-.43,0a3,3,0,0,0-3,4.36,1.33,1.33,0,0,0,.33.52c.92.78,5.08.69,5.57-.32a6.85,6.85,0,0,0,.36-3.36c-.07-1-1.06-1.09-1.9-1.13l-.95,0h0" style="fill:#fff"></path> <path d="M155.75,266.72a13.13,13.13,0,0,0,2.35-.85,1.8,1.8,0,0,0,.54-2.53,3,3,0,0,0-1.84-1.13,17.66,17.66,0,0,0-3.26-.31,2,2,0,0,0-2.09,1.59,1.56,1.56,0,0,0,1,2.06c1,.4,2.1.75,3.33,1.17" style="fill:#fff"></path> <path d="M173.34,244.88c2.36,0,3.22-.49,3.49-2.64a2.62,2.62,0,0,0-2.33-2.53c-.35,0-.7,0-1.06,0-1.91,0-2.51.46-2.89,2.39a2.17,2.17,0,0,0,1.59,2.51c.44.12.9.18,1.2.24" style="fill:#fff"></path> <path d="M173.39,256.3c.74.06,1.67.13,2-.87a3.85,3.85,0,0,0-.35-3.74c-.4-.51-1.46-.55-2.23-.68a7.58,7.58,0,0,0-1.57.1,1.34,1.34,0,0,0-1.36,1.17c-.72,2.53,1.29,4.2,3.48,4" style="fill:#fff"></path> <path d="M179.89,263.12c2.35.15,3.54-1.33,2.71-3.46a2.12,2.12,0,0,0-1.22-1.13,6.67,6.67,0,0,0-2.88-.37c-1.25.22-1.8,1.52-1.67,3.15.08.9.88,1.58,2.1,1.76.32,0,.64,0,1,.05" style="fill:#fff"></path> <path d="M168.72,272c-.11,1-.12,1.88.8,2.31,1.23.59,2.55,1,3.84.19a1.51,1.51,0,0,0,.43-1.14,6.52,6.52,0,0,0-1.48-4.08,2.23,2.23,0,0,0-2-.56c-.56.17-1,1-1.31,1.61a5.86,5.86,0,0,0-.29,1.67" style="fill:#fff"></path> <path d="M167.31,265.24c.05-1.58-.54-2.26-2.08-2.39-.74-.06-1.49-.05-2.22-.18A1.77,1.77,0,0,0,160.7,264c-.43,1.24-.08,2.35,1.22,2.63a24.94,24.94,0,0,0,3.77.5c1,.07,1.59-.73,1.62-1.88" style="fill:#fff"></path> <path d="M177.53,254.37c-.13,1.81.79,2.52,3.51,2.73a2,2,0,0,0,2.05-2.18c0-2.39-.33-2.95-2.83-3.25-1.57-.19-2.81.46-2.73,2.7" style="fill:#fff"></path> <path d="M145.07,270.77a5.55,5.55,0,0,0,.47,1.83,2,2,0,0,0,3.76-.53,6.09,6.09,0,0,0,0-4.25c-.35-.75-.8-1.41-1.61-1.17a3.24,3.24,0,0,0-1.76,1.31,12.19,12.19,0,0,0-.87,2.81" style="fill:#fff"></path> <path d="M187.39,252.75c-1.73-.09-1.93.05-2.27,1.77a9,9,0,0,0-.13,1.16,1.88,1.88,0,0,0,2.07,2.11,4.79,4.79,0,0,1,1.37,0c1,.33,1.57-.15,1.78-1.06a5.33,5.33,0,0,0,.22-2.18,2.58,2.58,0,0,0-1.18-1.45,5.81,5.81,0,0,0-1.86-.4" style="fill:#fff"></path> <path d="M192.92,276c1.72.15,2.23-.22,2.52-1.92.12-.74.43-1.44,0-2.23a2.34,2.34,0,0,0-2.53-1.44,2.58,2.58,0,0,0-2.06,2c-.08.38-.14.77-.19,1.15-.19,1.53.51,2.28,2.28,2.43" style="fill:#fff"></path> <path d="M189.85,261.39c0-1.91-.06-2-1.93-2.28a6.27,6.27,0,0,0-1.37-.08c-1.3.08-1.82.57-2,1.77-.22,1.82.07,2.42,1.44,2.85a4.89,4.89,0,0,0,1.14.22c2.16.14,2.68-.35,2.69-2.48" style="fill:#fff"></path> <path d="M181.53,240.59c-2.37-.54-3.31,1.84-2.77,3.64a1.08,1.08,0,0,0,.13.29c.31.48,3.24,1.22,3.89,1A2.41,2.41,0,0,0,184,242.7c-.29-1.73-.57-2-2.44-2.11" style="fill:#fff"></path> <path d="M188.83,246.1c1,.07,2.06.1,2.57-1.13.87-2.06-.05-3.56-2.31-3.55-1,0-2.09-.18-2.69,1.14a2.33,2.33,0,0,0,2,3.52l.43,0" style="fill:#fff"></path> <path d="M173.47,278.74c.13-2.28-1.21-3.38-3.46-2.83a1.57,1.57,0,0,0-.3.12c-.93.44-1.55,2.19-1.28,3.6.13.63,1.26,1.33,2.23,1.35.21,0,.42,0,.63-.05,2.07-.12,2.07-.12,2.18-2.19" style="fill:#fff"></path> <path d="M193,250.27c0,1.58,1.07,2.51,2.95,2.49,1.57,0,2.12-1.07,2.21-2.66a2.13,2.13,0,0,0-2.06-2.44c-2.29,0-3.08.67-3.1,2.61" style="fill:#fff"></path> <path d="M175.76,248.53a2.55,2.55,0,0,0,0-.4c0-1.66-.33-2-2-2.24-.42,0-.84,0-1.26,0-2.3-.14-2.39.89-2.47,3a1.27,1.27,0,0,0,.84.9A26.27,26.27,0,0,0,175,250c.81,0,.94-.74.8-1.47" style="fill:#fff"></path> <path d="M188.06,251.77c1.84.06,2.94-.6,2.89-1.66-.09-1.8-.08-2.84-2.23-3-1.95-.15-2.87.36-3.31,1.94a1.44,1.44,0,0,0,.86,2c.72.28,1.42.59,1.79.74" style="fill:#fff"></path> <path d="M139.31,278.21v1.06c0,1.15.33,1.57,1.3,1.66a1.77,1.77,0,0,0,2.08-1.4c.18-1.08.3-2.16.47-3.24a1.36,1.36,0,0,0-.93-1.67c-1.24-.41-2.3-.15-2.58.7a22.21,22.21,0,0,0-.53,2.86l.19,0" style="fill:#fff"></path> <path d="M178.53,268.75a18.6,18.6,0,0,1,1.93-.45c1.49-.23,1.88-.6,1.88-1.91s-.54-1.88-1.91-2l-1.26-.15a2.08,2.08,0,0,0-2.66,2,1.43,1.43,0,0,0,1.06,1.79,4.3,4.3,0,0,1,1,.8Z" style="fill:#fff"></path> <path d="M148.53,278.22c.05-.29.14-.74.22-1.19a1.76,1.76,0,0,0-1.42-2.29,2.13,2.13,0,0,0-2.31,1.58,12.83,12.83,0,0,0-.16,2.63c0,1.22.66,1.87,1.69,1.85a1.91,1.91,0,0,0,2-2c0-.14,0-.28,0-.59" style="fill:#fff"></path> <path d="M181.09,246.51c-2.09-.16-3,.39-3.22,1.87-.14,1.11.2,1.71,1.29,2a7.25,7.25,0,0,0,2.31.24c.64-.06,1.79-.39,1.8-.63a8.68,8.68,0,0,0-.51-3.15c-.1-.27-1.09-.21-1.67-.3" style="fill:#fff"></path> <path d="M149.22,242.28c1.29,0,2.15-.91,2.2-2.43.06-2.26-.54-2.32-2.35-2.65-1.24-.23-2.22,1-2.27,2.48a2.37,2.37,0,0,0,2.42,2.6" style="fill:#fff"></path> <path d="M163.6,244.67a4.65,4.65,0,0,0-1.45.7c-.14.14.11.88.37,1.19a14,14,0,0,0,1.72,1.53c.29.24.68.38,1,.65a1.88,1.88,0,0,0,2.35.26c.81-.43.8-1.2.7-1.95a1.84,1.84,0,0,0-1.53-1.8c-1-.17-2-.27-3.06-.4l-.06-.18" style="fill:#fff"></path> <path d="M178.21,277.09c-1.86-.16-2.7.38-2.8,1.8s.76,2.25,2.46,2.43,2.71-.53,2.85-2c.16-1.69-.26-2.07-2.51-2.26" style="fill:#fff"></path> <path d="M183.1,279.68c0,1.27.28,1.58,1.54,1.73a2.34,2.34,0,0,0,1.05,0c.66-.22,1.55-.4,1.86-.9a2.82,2.82,0,0,0,0-3.09,1.12,1.12,0,0,0-.71-.37,7.59,7.59,0,0,0-1.17,0c-2,0-2.59.66-2.55,2.63" style="fill:#fff"></path> <path d="M196.1,242.15a2.32,2.32,0,0,0-2.46,2.26c0,1.42,1,2.22,3,2.33.91.06,1.95-1.08,2-2.23.12-1.47-.74-2.27-2.53-2.36" style="fill:#fff"></path> <path d="M150.27,251.09c.08-1.29-.62-1.93-2.25-2-1.25-.08-2.1.91-2.2,2.58,0,.83,1.15,2.58,1.79,2.61,1.48.06,2.52-1.17,2.66-3.15" style="fill:#fff"></path> <path d="M140.36,257.37c-.09,1.51.4,2.38,1.47,2.8a1.66,1.66,0,0,0,2.09-.55,2.59,2.59,0,0,0,.47-1.36,12,12,0,0,0-.23-2.3c-.16-.83-.85-.94-1.54-1a1.69,1.69,0,0,0-1.9,1,8.11,8.11,0,0,0-.36,1.38" style="fill:#fff"></path> <path d="M197.85,273.88c.05,2,.67,2.61,2.55,2.56a2.08,2.08,0,0,0,1.75-2.12c0-1.83-.94-2.86-2.46-2.79a2.05,2.05,0,0,0-1.84,2.35" style="fill:#fff"></path> <path d="M194.78,279.33c.29-1.49-.4-2-2.11-2.17a2.19,2.19,0,0,0-2.27,2.15c-.08,1.65.36,2.32,1.56,2.35,1.95,0,2.92-.4,2.82-2.33" style="fill:#fff"></path> <path d="M146.26,245.65a2.29,2.29,0,0,0,2.36,2.44,1.91,1.91,0,0,0,2-1.5c.09-2.16-.54-3.19-2-3.25a2.3,2.3,0,0,0-2.36,2.31" style="fill:#fff"></path> <path d="M155.38,243.94c-1.37-.11-2.45.28-2.92,1.62a2.2,2.2,0,0,0,0,1.58,1.38,1.38,0,0,0,1.29.4,43.85,43.85,0,0,0,4.39-1.92c.62-.3.42-.79-.16-1-.86-.28-1.76-.48-2.64-.71" style="fill:#fff"></path> <path d="M187.54,265c-.76.06-1.22.12-1.67.11-1.09,0-1.53.48-1.66,1.59a1.75,1.75,0,0,0,1.3,2.08,2.11,2.11,0,0,0,2.72-.77,3.87,3.87,0,0,0,.42-2.35c0-.29-.85-.52-1.11-.66" style="fill:#fff"></path> <path d="M200.47,265.9a2.55,2.55,0,0,0-2.53,2c-.13,1,1.3,2.26,2.69,2.42a1.78,1.78,0,0,0,1.81-1.56,3.8,3.8,0,0,0-.53-1.88c-.31-.46-.95-.69-1.44-1" style="fill:#fff"></path> <path d="M194.58,253.32a6,6,0,0,0-1.52,1,2.67,2.67,0,0,0-.49,2.8,1.56,1.56,0,0,0,2.31.44,5.51,5.51,0,0,0,1.36-1c.39-.45,1-1.32.87-1.5a7,7,0,0,0-1.85-1.4c-.13-.08-.35,0-.52,0s-.11-.18-.16-.27" style="fill:#fff"></path> <path d="M163.34,255.74a4.26,4.26,0,0,0,.95-.05,1.21,1.21,0,0,0,.67-2.16c-.52-.57-1.14-1-1.69-1.58a1.3,1.3,0,0,0-1.72-.27,1.75,1.75,0,0,0-1,1.76,2.73,2.73,0,0,0,2.74,2.3" style="fill:#fff"></path> <path d="M140.62,251.12a1.83,1.83,0,0,0,1.2,2,5.57,5.57,0,0,0,2.11,0c.09,0,.24-.12.24-.18a13.15,13.15,0,0,0,0-3.26c-.18-.81-1.1-1-2-.83a2.34,2.34,0,0,0-1.58,2.32" style="fill:#fff"></path> <path d="M199.15,277.66c-1.18-.05-2.05,1-2.07,2.69,0,.94.78,1.18,1.54,1.24,1.94.14,3-.59,3.07-2.07.06-1.1-.78-1.5-2.54-1.86" style="fill:#fff"></path> <path d="M193.94,269.64c1,.08,1.86-.28,2-1.18a4,4,0,0,0-.44-2.58c-.46-.71-1.42-.41-2.11.05a2.21,2.21,0,0,0-.73.76c-.3.59-.88,1.41-.68,1.8.31.61,1.17.95,1.8,1.4l.15-.25" style="fill:#fff"></path> <path d="M141.6,239.38a7.94,7.94,0,0,0,1.43,1.77c.3.22,1.19-.05,1.61-.37a1.8,1.8,0,0,0,.54-2.09c-.47-1.78-1.06-2.34-2.25-1.84-.92.4-1.16,1.26-1.33,2.53" style="fill:#fff"></path> <path d="M202.47,262.83c-.06-1.56-.63-2.27-1.77-2.23a3.07,3.07,0,0,0-2.1,2.4c0,.85,1.24,1.69,2.4,1.64s1.53-.54,1.47-1.81" style="fill:#fff"></path> <path d="M144.78,245.43c.08-1.68-.56-2.57-1.9-2.64-.73,0-1.52,1.06-1.57,2.21,0,1,.92,2.27,1.7,2.26a1.85,1.85,0,0,0,1.77-1.83" style="fill:#fff"></path> <path d="M175.32,260.18a17.58,17.58,0,0,0-.49-1.93c-.33-.92-1.11-1-1.93-.83s-.89.78-.8,1.4a7.59,7.59,0,0,0,.63,2.53c.22.4,1,.58,1.61.62.23,0,.56-.56.75-.92a2.55,2.55,0,0,0,.11-.84l.12,0" style="fill:#fff"></path> <path d="M200.67,244.86c0,1.17.64,2.18,1.5,2.23a2.06,2.06,0,0,0,1.83-2c.07-1.24-.58-2.4-1.35-2.41a2.08,2.08,0,0,0-2,2.18" style="fill:#fff"></path> <path d="M199.94,251.24a1.69,1.69,0,0,0,1.75,1.8c.74,0,1.51-.93,1.58-1.95.08-1.3-.51-2.22-1.49-2.29-1.14-.08-1.76.75-1.84,2.44" style="fill:#fff"></path> <path d="M140.16,263.52c.71.92,1.46,1.86,2.86,1.22a1.41,1.41,0,0,0,.83-1.84c-.25-.62-.82-1.48-1.33-1.55-1.36-.19-2.08.77-2.36,2.17" style="fill:#fff"></path> <path d="M178.56,268.77c-1.37.56-1.61,1.57-.41,2.47a4.39,4.39,0,0,0,2.25.66c.61,0,1.44-.32,1.23-1.1a3,3,0,0,0-1.31-1.43,7.8,7.8,0,0,0-1.78-.62l0,0" style="fill:#fff"></path> <path d="M202.86,257.66c-.22-.2-.55-.72-1-.78-.76-.11-1.62.17-1.61,1.09,0,.39.66,1,1.11,1.12.68.15,1.29-.25,1.45-1.43" style="fill:#fff"></path> <path d="M146.9,255.17A5.49,5.49,0,0,0,146,257c0,.36.69.79,1.07,1.18a5.69,5.69,0,0,0,.8-1.57c.07-.44-.29-.94-.47-1.42l-.52,0" style="fill:#fff"></path> <path d="M168.77,265.8c.63.64,1,1.21,1.47,1.4.23.09.94-.46,1.08-.85.22-.6-.64-1.74-1.1-1.59a7.14,7.14,0,0,0-1.45,1" style="fill:#fff"></path> <path d="M186.86,276.18a10,10,0,0,0,1.42-1.45c.06-.09-.72-1-.82-.91a10.55,10.55,0,0,0-1.59,1.18c.26.31.53.62,1,1.18" style="fill:#fff"></path> <path d="M149,263.19c-.47.56-.87.86-1,1.22,0,.19.56.77.72.71a1.93,1.93,0,0,0,1-.83c.07-.11-.37-.55-.77-1.1" style="fill:#fff"></path> <path d="M189.63,125q24,1.13,48,2.24c3.11.14,6.53-1,8.72,2.46.21.33.88.37,1.34.54,3.76,1.37,3.72,1.64,3.12,5.59-1,6.88-2.12,13.78-2.6,20.71-.73,10.68-.85,21.4-1.45,32.1-1.32,23.73-2.85,47.46-4.17,71.19-.57,10.37-.76,20.76-1.3,31.13-.2,3.72-3.24,6.1-7.12,6.19-10.6.24-21.2.53-31.81.75q-24.43.52-48.87,1c-10.09.18-20.24-.3-30.27.53-6.6.55-7.91-3.53-7-8.25a32.57,32.57,0,0,0,.9-6.09c0-16.29-.56-32.61,0-48.88.86-23.17,2.26-46.32,4-69.43,1-12.8,3.14-25.51,5-38.23.75-5.24,3.42-7,8.73-6.36,2,.22,3.9.43,5.86.52q24.43,1.19,48.86,2.31h0m49.15,27.33c.21-4.22.73-8.41,1.08-12.62.29-3.57,0-3.95-3.54-4.07-11-.36-22-.53-32.94-1.07-21.18-1-42.35-2.28-63.53-3.42-4.35-.24-4.81-.15-5.37,4.25-1.8,14.31-3.59,28.63-4.91,43-1.49,16.33-2.43,32.7-3.7,49-.43,5.56-1,11-.42,16.69.6,6.41-.19,12.94-.23,19.42a77.77,77.77,0,0,0,.47,10.58c.23,1.76,1.55,3.36,2.13,5.12a10.92,10.92,0,0,1,.59,4c-.12,2.6.54,4.19,3.53,4.07,8.33-.33,16.65-.67,25-.86,9.61-.22,19.23-.28,28.85-.41,14.53-.19,29.06-.42,43.58-.52,2.47,0,2.36-1.57,2.44-3.12.48-10.3.91-20.6,1.39-30.91q.94-20.44,1.92-40.9l.92,0c.91-19.42,1.79-38.85,2.76-58.27"></path> <path d="M236,210.55c.91-19.42,1.79-38.85,2.76-58.27.21-4.22.73-8.41,1.08-12.62.29-3.57,0-3.95-3.54-4.07-11-.36-22-.53-32.94-1.07-21.18-1-42.35-2.28-63.53-3.42-4.35-.24-4.81-.15-5.37,4.25-1.8,14.31-3.59,28.63-4.91,43-1.49,16.33-2.43,32.7-3.7,49-.43,5.56-1,11-.42,16.69.61,6.41-.19,12.94-.23,19.42a77.77,77.77,0,0,0,.47,10.58c.23,1.76,1.55,3.36,2.13,5.12a10.92,10.92,0,0,1,.59,4c-.12,2.6.54,4.19,3.53,4.07,8.33-.33,16.65-.67,25-.86,9.61-.22,19.23-.28,28.85-.41,14.53-.19,29.06-.42,43.58-.52,2.47,0,2.36-1.56,2.44-3.12.48-10.3.91-20.6,1.39-30.91q.94-20.44,1.92-40.9l.92,0" style="fill:#fff"></path> <path d="M145.91,274.42c-.34,1.75,0,2.37,1.82,2.47a20.37,20.37,0,0,0,3.46-.39c2.92-.34,5.83-.75,8.75-1,5.12-.43,10.25-.77,15.38-1.09,1.55-.1,3.1,0,4.65,0,5.32-.15,10.64-.33,16-.49,2.58-.07,5.16-.16,7.74-.17,1.15,0,2.31.16,3.46.23a3.35,3.35,0,0,0,1.27-.06c2.35-.91,4.34-.16,6.26,1.19,1.29.91,2.37.2,2.67-1.33.92-4.62-.13-9.2-.12-13.79,0-4.38-.4-8.77-.52-13.15-.07-2.72.1-5.44.09-8.16,0-2.3-.07-4.61-.16-6.91-.1-2.49-.88-3-3.27-2.35-3.82,1-7.63.79-11.47.74-3,0-6.09-.08-9.13-.17-1.33,0-2.66-.22-4-.3-1.87-.11-3.73-.17-5.6-.28-1.41-.08-2.82-.23-4.23-.26-1.23,0-2.47.13-3.71.1-3.18-.08-6.37-.21-9.55-.32-2-.06-4-.17-6-.18-2.32,0-4.65.13-7,0a2.44,2.44,0,0,1-1.43-.76l-4.05,1.83c0,.21,0,.43,0,.68-.18,3.21-.43,6.43-.52,9.64-.07,2.8,0,5.61.06,8.41,0,4.32.07,8.65,0,13,0,1.51-.33,3-.42,4.54-.15,2.57-.23,5.15-.35,7.73a4.6,4.6,0,0,1-.05.64M211.2,254c-1.15.14-2.45-.62-2.51-1.46a3.09,3.09,0,0,1,1.93-2.54c1.14-.12,1.75.55,1.92,2.1.14,1.26-.22,1.77-1.34,1.9m0-5.56c-.46-.07-1.15-.65-1.18-1-.07-.91.76-1.25,1.52-1.19.41,0,.77.53,1,.7-.09,1.19-.66,1.64-1.35,1.53m-2-7.73c0-1.69.53-2.56,1.67-2.56,1,0,1.63.88,1.64,2.18,0,1-.71,2-1.45,2.05a1.68,1.68,0,0,1-1.86-1.67m3.63-6.41a2.07,2.07,0,0,1-1.69,2.12c-.86,0-1.6-1-1.64-2.12a2.06,2.06,0,0,1,1.82-2.31c.77,0,1.49,1.06,1.51,2.31m.06,23.75a1.8,1.8,0,0,1-1.71,1.69c-1.39-.06-2.91-1.25-2.84-2.23a2.54,2.54,0,0,1,2.38-2.21,4.92,4.92,0,0,1,1.51.92,3.82,3.82,0,0,1,.66,1.83m-1.52,7.77c-1.87.18-2.54-.4-2.72-2.38a2.05,2.05,0,0,1,1.68-2.47c1.51-.18,2.48.79,2.64,2.61a2.07,2.07,0,0,1-1.6,2.24m-1.17,1.3c1.78.24,2.65.58,2.67,1.68,0,1.48-1,2.29-2.92,2.28-.77,0-1.57-.2-1.62-1.13-.1-1.67.7-2.8,1.87-2.83m-15.64-9.94c0-1.11.46-1.63,1.54-1.69.46,0,.91-.12,1.67-.23.26.13,1.1.3,1.14.58a3.89,3.89,0,0,1-.25,2.38,2.12,2.12,0,0,1-2.66.95,1.74,1.74,0,0,1-1.44-2m12.88-23.09a2.4,2.4,0,0,1-1.89,2.36c-2,0-3.06-.7-3.1-2.13a2.32,2.32,0,0,1,2.3-2.42c1.79,0,2.7.71,2.69,2.19m-2.13,8.41c-1.88.15-3-.71-3.11-2.29-.12-1.93.63-2.65,2.91-2.81a2.13,2.13,0,0,1,2.23,2.29c0,1.59-.46,2.68-2,2.81m.55,3.73a5.47,5.47,0,0,1-1.28,1.11,1.57,1.57,0,0,1-2.34-.29,2.65,2.65,0,0,1,.3-2.82,6.44,6.44,0,0,1,1.45-1.08l.18.26c.17,0,.39-.08.52,0a7.06,7.06,0,0,1,1.94,1.26c.15.18-.4,1.09-.77,1.56m.53,11.93c-.09.91-1,1.33-1.93,1.32l-.13.26c-.66-.41-1.54-.69-1.89-1.28-.22-.37.29-1.23.56-1.84a2.18,2.18,0,0,1,.67-.81c.66-.5,1.59-.87,2.1-.19a3.92,3.92,0,0,1,.62,2.54m-4.8,11.2a2.18,2.18,0,0,1,2.12-2.29c1.72,0,2.44.51,2.25,2,.23,1.91-.7,2.43-2.65,2.51-1.21.05-1.69-.59-1.72-2.24m-.15-5.7c0-.38.06-.77.11-1.16a2.6,2.6,0,0,1,1.92-2.15,2.35,2.35,0,0,1,2.63,1.26,3,3,0,0,1,.16,2.23c-.17,1.72-.65,2.13-2.38,2.09s-2.53-.73-2.44-2.27m-1.18-28.62c-.44,1.26-1.44,1.29-2.5,1.3h-.42a2.34,2.34,0,0,1-2.24-3.38c.51-1.35,1.6-1.25,2.6-1.32,2.26-.16,3.28,1.27,2.56,3.39m-2.88,7c-.38-.13-1.1-.39-1.83-.62a1.43,1.43,0,0,1-1-1.92c.33-1.61,1.22-2.18,3.17-2.16,2.16,0,2.22,1,2.43,2.84.12,1.06-.93,1.8-2.77,1.86m2.48,4.85c-.14.93-.63,1.44-1.7,1.18a4.88,4.88,0,0,0-1.37,0,1.87,1.87,0,0,1-2.2-2,7.64,7.64,0,0,1,0-1.17c.22-1.74.41-1.89,2.14-1.92a5.7,5.7,0,0,1,1.88.27,2.6,2.6,0,0,1,1.28,1.36,5.14,5.14,0,0,1-.08,2.2m-2.55,7.28a5,5,0,0,1-1.16-.14c-1.39-.34-1.72-.91-1.63-2.74.07-1.22.56-1.74,1.85-1.91a6.36,6.36,0,0,1,1.38,0c1.87.14,1.95.23,2.07,2.15.14,2.12-.35,2.64-2.51,2.65M199.2,265a10.93,10.93,0,0,1-1.32,1.54l-1.08-1.11a10.67,10.67,0,0,1,1.51-1.28c.1-.06.94.75.89.85m-2.47,2.49a6.48,6.48,0,0,1,1.16-.05,1.15,1.15,0,0,1,.74.32,2.82,2.82,0,0,1,.23,3.09c-.28.52-1.15.75-1.8,1a2.45,2.45,0,0,1-1.05.05c-1.26-.08-1.54-.36-1.65-1.63-.17-2,.42-2.66,2.37-2.8m-11.81-27.78c.19.72.1,1.44-.69,1.52a26.45,26.45,0,0,1-4.08,0,1.27,1.27,0,0,1-.9-.84c-.06-2.09,0-3.12,2.26-3.14.42,0,.85-.1,1.26-.07,1.68.11,2,.43,2.14,2.09a2.74,2.74,0,0,1,0,.4m5.18-2.38c.58.05,1.57-.07,1.68.19a8.57,8.57,0,0,1,.73,3.11c0,.24-1.11.65-1.75.74a7.23,7.23,0,0,1-2.32-.07c-1.11-.19-1.49-.77-1.43-1.88.09-1.49,1-2.1,3.09-2.09m-.48,5.2c2.52.14,2.85.68,3,3.06a1.94,1.94,0,0,1-1.9,2.31c-2.73,0-3.69-.67-3.68-2.48-.24-2.24.95-3,2.53-2.89m2.1-6.31c-.63.27-3.61-.27-3.95-.72a1.51,1.51,0,0,1-.15-.28c-.66-1.76.11-4.2,2.51-3.82,1.88,0,2.17.23,2.59,1.94a2.41,2.41,0,0,1-1,2.88M190,253.94c-.32,0-.64,0-.95,0-1.24-.1-2.09-.72-2.22-1.61-.25-1.62.22-3,1.45-3.26a6.52,6.52,0,0,1,2.9.18,2.15,2.15,0,0,1,1.29,1c1,2.07-.11,3.62-2.47,3.63m1.1,8.73a4.41,4.41,0,0,1-2.29-.5c-1.25-.82-1.08-1.85.25-2.5a4.06,4.06,0,0,0-1-.72,1.44,1.44,0,0,1-1.18-1.72,2.08,2.08,0,0,1,2.51-2.16l1.27.06c1.39.07,1.95.6,2,1.91s-.28,1.71-1.75,2c-.64.14-1.26.39-1.88.59a7.19,7.19,0,0,1,1.82.5,2.93,2.93,0,0,1,1.4,1.33c.26.76-.54,1.17-1.16,1.18m-4.5,7.31c0-1.42.81-2,2.68-2,2.25,0,2.7.38,2.65,2.09,0,1.43-1,2.21-2.7,2.15s-2.63-.85-2.63-2.26m-1.07-36.65c-.12,2.16-.95,2.71-3.3,2.86-.31,0-.77-.07-1.22-.15a2.18,2.18,0,0,1-1.75-2.4c.25-1.95.81-2.48,2.72-2.58.35,0,.7-.09,1.06-.1a2.62,2.62,0,0,1,2.49,2.37m-.51,13.25c-.29,1-1.23,1-2,1-2.17.33-4.3-1.2-3.76-3.77a1.36,1.36,0,0,1,1.29-1.26,7.59,7.59,0,0,1,1.55-.21c.79.08,1.84,0,2.27.53a3.83,3.83,0,0,1,.61,3.71m-.64,6.6c-.56,0-1.4-.13-1.64-.51a7.35,7.35,0,0,1-.8-2.49c-.13-.6-.08-1.25.7-1.45s1.59-.19,2,.7a17.4,17.4,0,0,1,.62,1.89l-.11,0a2.57,2.57,0,0,1-.06.84c-.17.38-.45,1-.69,1m.24,11.42a1.56,1.56,0,0,1-.36,1.17c-1.23.91-2.58.57-3.84.07-.95-.37-1-1.27-.95-2.25a5.46,5.46,0,0,1,.17-1.69c.26-.65.65-1.49,1.2-1.7a2.26,2.26,0,0,1,2,.42,6.58,6.58,0,0,1,1.76,4m-3.9,2.91a1.85,1.85,0,0,1,.29-.13c2.21-.7,3.62.3,3.65,2.59,0,2.07,0,2.07-2,2.33-.21,0-.42.08-.63.09a2.5,2.5,0,0,1-2.32-1.2c-.36-1.39.13-3.17,1-3.68m-1.63-10.14a6.71,6.71,0,0,1,1.38-1.13c.45-.18,1.38.9,1.2,1.51-.11.4-.78,1-1,.92-.5-.15-.89-.7-1.56-1.3M150,244.64a2.34,2.34,0,0,1,1.42-2.42c.83-.23,1.76-.1,2,.69a13.52,13.52,0,0,1,.24,3.26c0,.06-.14.18-.23.19a5.46,5.46,0,0,1-2.1.17,1.81,1.81,0,0,1-1.33-1.89m.27-6.15c0-1.14.68-2.3,1.42-2.31,1.34,0,2,.82,2.07,2.5a1.86,1.86,0,0,1-1.64,2c-.78.05-1.82-1.16-1.85-2.15m11.16-.2a2.49,2.49,0,0,1,2.8-1.81c.9.17,1.81.3,2.69.52.59.15.82.62.23,1a47.68,47.68,0,0,1-4.26,2.21,1.41,1.41,0,0,1-1.31-.31,2.19,2.19,0,0,1-.15-1.58m7.1-4.66a1.79,1.79,0,0,1-1.72,2,13.9,13.9,0,0,1-3.47-.19,2.17,2.17,0,0,1-1.75-2.7c.25-1.79,1-2.39,3-2.52,3-.18,3.93.67,3.93,3.39m.12,12.75a2.46,2.46,0,0,1-2.45,1.27,6,6,0,0,0-1.31.19c0,.14,0,.29.08.43.22,0,.45,0,.68,0,2.59-.05,2.88.28,3.21,2.78,0,.14,0,.28,0,.42a1.83,1.83,0,0,1-1.92,2.11c-1,0-2,0-3,0-1.79,0-2.61-1-2.37-2.7a3.26,3.26,0,0,1,.41-1.4,5,5,0,0,1,1.27-1.1,6.91,6.91,0,0,1,1-.47,3.43,3.43,0,0,0-.55-1.06.94.94,0,0,1-.11-1.55,13.06,13.06,0,0,1,2.56-2,2.16,2.16,0,0,1,1.77.11c.72.39,1,2.2.68,2.93m7.91-10.86a16.81,16.81,0,0,1-2.79.74c-3.19-.19-4.09-1.41-3.11-4.34a.8.8,0,0,0,.07-.2,1.37,1.37,0,0,1,1.62-1.17c1.09.07,2.18.16,3.26.32a2,2,0,0,1,1.77,1.85c.15,1,.44,2.23-.82,2.8m-6.08,14.95c0-1.18.3-1.77,1.48-1.94a14.6,14.6,0,0,1,3.17,0,2.37,2.37,0,0,1,2.46,2.58c0,1.79-.37,2.25-2.27,2.5-.42.05-.85,0-1.27,0-2.58.09-3.58-.48-3.57-3.16m.43,5.65a1.76,1.76,0,0,1,2.21-1.47c.73.07,1.48,0,2.22,0,1.56,0,2.19.65,2.25,2.24,0,1.14-.53,2-1.5,2a25.31,25.31,0,0,1-3.79-.25c-1.32-.19-1.74-1.27-1.39-2.54m3.45-15.53c-.3-.24-.69-.35-1-.58a13,13,0,0,1-1.81-1.4c-.29-.29-.59-1-.45-1.17a4.58,4.58,0,0,1,1.39-.79c0,.06,0,.11.07.17,1,.06,2.06.09,3.08.19a1.83,1.83,0,0,1,1.65,1.7c.16.74.22,1.51-.56,2a1.86,1.86,0,0,1-2.36-.11m3.69,22c.06,2.46-.7,3.53-2.61,3.74a18,18,0,0,1-3.27-.11c-.59,0-.76-.48-1-1.05-.52-1.46,0-2.86.08-4.28a1.42,1.42,0,0,1,.94-1,26,26,0,0,1,4.32,0,1.65,1.65,0,0,1,1,.94,9.32,9.32,0,0,1,.47,1.78m-4.12,4.9h.42l1,0c.84,0,1.83,0,2,1a7,7,0,0,1-.13,3.38c-.42,1-4.57,1.41-5.54.7a1.31,1.31,0,0,1-.36-.5,3,3,0,0,1,2.68-4.55m-3-23.69a1.31,1.31,0,0,1,1.74.15c.58.51,1.24.93,1.8,1.46a1.21,1.21,0,0,1-.53,2.2,4.74,4.74,0,0,1-.94.12,2.73,2.73,0,0,1-2.89-2.11,1.75,1.75,0,0,1,.82-1.82m-2.47,14.39a12.73,12.73,0,0,1-2.29,1c-1.25-.34-2.33-.61-3.39-.94a1.56,1.56,0,0,1-1.12-2,2,2,0,0,1,2-1.73,17.91,17.91,0,0,1,3.28.09,2.94,2.94,0,0,1,1.91,1,1.79,1.79,0,0,1-.37,2.55M162,270.9c0-.38.07-.77.09-1.16a1.89,1.89,0,0,1,1.91-2.09c.8-.07,1.62,0,2.43-.06a2.12,2.12,0,0,1,2.47,2.4c0,.35-.07.7-.08,1.06a1.87,1.87,0,0,1-1.74,2.1c-.84.15-1.68.24-2.52.36-1.88.37-2.72-.81-2.56-2.61m-.32-7.83c0-.46,0-1,.05-1.52a2.06,2.06,0,0,1,1.95-1.91,18.73,18.73,0,0,1,3.59,0,2.48,2.48,0,0,1,1.49,1.07c.82,1.24.53,2.67.35,4s-.84,1.82-2.27,1.79c-.85,0-1.69,0-2.54,0a2.15,2.15,0,0,1-2.51-2c-.08-.45-.07-.92-.11-1.45M160,232.67c.06,1.51-.73,2.52-2,2.57a2.38,2.38,0,0,1-2.6-2.43c0-1.53.85-2.77,2.11-2.63,1.82.21,2.43.23,2.51,2.49m-2.55,3.67c1.43,0,2.13.95,2.19,3.1a1.92,1.92,0,0,1-1.87,1.64,2.38,2.38,0,0,1-.32-4.74m-1.35,33.14a2.12,2.12,0,0,1,2.2-1.72,1.75,1.75,0,0,1,1.57,2.18c0,.45-.11.91-.14,1.21s.06.44.07.58a1.93,1.93,0,0,1-1.87,2.13c-1,.08-1.7-.52-1.81-1.74a12.94,12.94,0,0,1,0-2.64m-.33-5.53a12.76,12.76,0,0,1,.68-2.86,3.2,3.2,0,0,1,1.66-1.43c.8-.3,1.29.33,1.69,1a6.1,6.1,0,0,1,.28,4.24,2,2,0,0,1-3.71.79,5.9,5.9,0,0,1-.6-1.79m4.21-6.79a2,2,0,0,1-.93.9c-.17.07-.81-.47-.78-.66.06-.37.44-.69.87-1.28.44.52.91.93.84,1M157,251.27c-.41-.37-1.15-.74-1.14-1.11a5.38,5.38,0,0,1,.75-1.9h.52c.21.47.6,1,.56,1.39a5.17,5.17,0,0,1-.69,1.62m-1.71-6.47c0-1.67.77-2.72,2-2.72,1.64,0,2.38.58,2.38,1.88,0,2-.95,3.29-2.43,3.32-.65,0-2-1.65-2-2.48m-1.91-10.74c-.4.34-1.27.68-1.59.48a7.83,7.83,0,0,1-1.54-1.67c.08-1.28.26-2.16,1.15-2.62,1.15-.58,1.78-.06,2.38,1.68a1.84,1.84,0,0,1-.4,2.13m.94,17.46a2.53,2.53,0,0,1-.39,1.38,1.66,1.66,0,0,1-2,.69c-1.09-.34-1.64-1.18-1.66-2.69a9.07,9.07,0,0,1,.27-1.41,1.69,1.69,0,0,1,1.82-1.16c.7,0,1.4.09,1.6.91a11.71,11.71,0,0,1,.4,2.28m-.93,6.55c-1.36.74-2.16-.15-2.94-1,.18-1.41.84-2.42,2.2-2.33.53,0,1.15.86,1.44,1.46a1.41,1.41,0,0,1-.7,1.89m-3,13.67a21.16,21.16,0,0,1,.34-2.88c.22-.87,1.26-1.2,2.53-.88a1.35,1.35,0,0,1,1,1.6c-.1,1.09-.14,2.18-.24,3.27a1.78,1.78,0,0,1-2,1.54c-1,0-1.35-.43-1.42-1.57,0-.35,0-.71-.07-1.06l-.19,0"></path> <path d="M141.9,166.12a18.5,18.5,0,0,1,3.52-8.31,26.45,26.45,0,0,1,8-6.93,46.75,46.75,0,0,1,12.79-5,61.94,61.94,0,0,1,15.42-1.36,49.55,49.55,0,0,1,15.14,2.68A37.72,37.72,0,0,1,209.38,154c2.65,2.24,5.52,4.29,7.8,6.87A29.64,29.64,0,0,1,225,178.08a24.37,24.37,0,0,1-.3,7.08,28.37,28.37,0,0,1-3.72,9c-1.75,2.87-3.85,5.52-5.87,8.21a16,16,0,0,1-2.6,2.78,46.31,46.31,0,0,1-4.68,3.46,60.72,60.72,0,0,1-6.35,3.66,49.5,49.5,0,0,1-11.82,4.12,52.86,52.86,0,0,1-6.56,1.11,58.42,58.42,0,0,1-8.47-.13,33.37,33.37,0,0,1-17.92-6.85,35.36,35.36,0,0,1-8.63-9.22c-4.11-6.69-7.08-13.78-6.89-21.87.05-2.19-.1-4.38-.17-6.8.29-2,.58-4.3.93-6.55M193,206.33a26,26,0,0,0,8.56-3.62,34.89,34.89,0,0,0,9.12-9.21,19.25,19.25,0,0,0,3.22-7.08,19.45,19.45,0,0,0-.5-9.12,27.94,27.94,0,0,0-7-12.76,34.75,34.75,0,0,0-11.42-7.9,39.69,39.69,0,0,0-15.09-3.55,40.25,40.25,0,0,0-16,3.34,16.53,16.53,0,0,0-6.48,4.51,21,21,0,0,0-4.24,8.26c-.44,1.67-1.13,3.29-1.48,5a20.94,20.94,0,0,0-.37,4.33c0,2.77.06,5.55.24,8.31.23,3.43,2,6.12,4.44,8.42,1.55,1.46,3.15,2.87,4.78,4.23a30,30,0,0,0,9.14,5A48.69,48.69,0,0,0,184,207.32c2.62.39,5.78-.28,9-1" style="fill:#fff"></path> <path d="M183.14,144.6a50.25,50.25,0,0,1,13.62,2.63A37.72,37.72,0,0,1,209.38,154c2.65,2.24,5.52,4.29,7.79,6.87a29.52,29.52,0,0,1,7.77,17.17,24,24,0,0,1-.29,7.08,28.37,28.37,0,0,1-3.72,9c-1.75,2.87-3.85,5.52-5.87,8.21a16.45,16.45,0,0,1-2.61,2.79,46.49,46.49,0,0,1-4.67,3.45,59,59,0,0,1-6.35,3.66,49.5,49.5,0,0,1-11.82,4.12,52.86,52.86,0,0,1-6.56,1.11,57.93,57.93,0,0,1-6,0c-.82,0-1.63-.1-2.43-.17a33.37,33.37,0,0,1-17.92-6.85,35.2,35.2,0,0,1-8.63-9.22c-4.11-6.69-7.09-13.78-6.89-21.87.05-2.19-.11-4.38-.17-6.8.29-2,.58-4.3.93-6.55a18.5,18.5,0,0,1,3.52-8.31,26.45,26.45,0,0,1,8-6.93,46.75,46.75,0,0,1,12.79-5,61.9,61.9,0,0,1,15.42-1.36c.51,0,1,0,1.52,0m1.92,62.82a31.78,31.78,0,0,0,7.91-1.09,26,26,0,0,0,8.56-3.62,34.89,34.89,0,0,0,9.12-9.21,19.25,19.25,0,0,0,3.22-7.08,19.45,19.45,0,0,0-.5-9.12,27.94,27.94,0,0,0-7-12.76,34.75,34.75,0,0,0-11.42-7.9A40.9,40.9,0,0,0,181,153.12l-1.14,0a40.25,40.25,0,0,0-16,3.34,16.53,16.53,0,0,0-6.48,4.51,21,21,0,0,0-4.24,8.26c-.44,1.68-1.13,3.29-1.48,5a20.94,20.94,0,0,0-.37,4.33c0,2.77.06,5.55.24,8.31.23,3.43,2,6.12,4.44,8.42,1.54,1.46,3.14,2.87,4.78,4.23a30,30,0,0,0,9.14,5A48.69,48.69,0,0,0,184,207.32c.35.05.7.08,1.07.1m-1.78-65.84-1.62-.05A65.36,65.36,0,0,0,165.49,143a49.65,49.65,0,0,0-13.61,5.3A29.51,29.51,0,0,0,143,156a21.47,21.47,0,0,0-4.08,9.65c-.25,1.6-.47,3.18-.68,4.71-.09.64-.17,1.28-.26,1.89l0,.25v.25c0,.8.05,1.57.08,2.31.06,1.52.12,2.95.09,4.34-.18,7.61,2.15,15.08,7.34,23.53a38.18,38.18,0,0,0,9.34,10,36.48,36.48,0,0,0,19.5,7.47c.84.08,1.71.14,2.56.18a58.9,58.9,0,0,0,6.37,0,35,35,0,0,0,5.27-.82l1.67-.33A53.18,53.18,0,0,0,202.72,215a60,60,0,0,0,6.68-3.85,49.42,49.42,0,0,0,5-3.67,19.9,19.9,0,0,0,3.09-3.29l1.06-1.41c1.69-2.24,3.44-4.55,5-7a31,31,0,0,0,4.11-10,27.18,27.18,0,0,0,.34-8,32.66,32.66,0,0,0-8.51-18.89,48.52,48.52,0,0,0-6-5.45c-.73-.59-1.43-1.15-2.11-1.72a40.43,40.43,0,0,0-13.61-7.38,53.54,53.54,0,0,0-14.44-2.78l-.15,3Zm1.92,62.82a5.79,5.79,0,0,1-.76-.07l-.13,0h-.14a45.5,45.5,0,0,1-13.26-2.63,27.12,27.12,0,0,1-8.26-4.51c-1.7-1.43-3.22-2.77-4.63-4.12-2.24-2.12-3.36-4.16-3.51-6.42s-.22-4.91-.23-8.11a17.49,17.49,0,0,1,.3-3.71,23.7,23.7,0,0,1,.75-2.55c.24-.72.49-1.48.7-2.27a17.83,17.83,0,0,1,3.63-7.09,13.31,13.31,0,0,1,5.33-3.67,37.27,37.27,0,0,1,14.86-3.11c.34,0,.69,0,1,0a37.71,37.71,0,0,1,12.92,3.28,31.8,31.8,0,0,1,10.42,7.22,24.94,24.94,0,0,1,6.22,11.41,16.34,16.34,0,0,1,.48,7.72,16.16,16.16,0,0,1-2.73,6,31.47,31.47,0,0,1-8.32,8.43,22.55,22.55,0,0,1-7.57,3.2,29.34,29.34,0,0,1-7.1,1"></path> <path d="M169.86,204.5a30,30,0,0,1-9.14-5q-2.46-2-4.78-4.23c-2.42-2.3-4.21-5-4.44-8.42-.18-2.76-.23-5.54-.24-8.31a20.94,20.94,0,0,1,.37-4.33c.35-1.69,1-3.31,1.48-5a21,21,0,0,1,4.24-8.26,16.53,16.53,0,0,1,6.48-4.51,40.25,40.25,0,0,1,16-3.34A39.69,39.69,0,0,1,195,156.64a34.75,34.75,0,0,1,11.42,7.9,27.94,27.94,0,0,1,7,12.76,19.45,19.45,0,0,1,.5,9.12,19.25,19.25,0,0,1-3.22,7.08,34.89,34.89,0,0,1-9.12,9.21,26,26,0,0,1-8.56,3.62c-3.2.71-6.36,1.38-9,1a48.69,48.69,0,0,1-14.13-2.82M154.63,170c-.35.75-.62,1.53-.89,2.3-.22.62-.07,1,.66,1.2a49.65,49.65,0,0,1,4.78,1.45c.41.15.63.83.94,1.27a5.37,5.37,0,0,1-1.12.51c-1.72.34-3.3-.3-4.88-.83-.28-.1-.56-.17-.88-.26a10,10,0,0,0-.21,4.5c.17,1.67.39,3.33.64,5,.16,1,.52,1.23,1.52,1.11,1.36-.16,2.72-.31,4.07-.51a.9.9,0,0,1,1.17.84c.08.73-.44.74-1,.81-1.35.16-2.7.41-4,.67-.89.17-.56.83-.35,1.29a15.86,15.86,0,0,0,3.56,5.36c1.66,1.48,3.35,2.92,5,4.38.64.56,1.09.52,1.72-.19a14,14,0,0,1,5.35-3.38,14.67,14.67,0,0,1,2.07-.66c.72-.18.8-.71.75-1.27-.12-1.33-.22-2.67-.46-4-.6-3.32-1.33-6.62-1.91-10-.76-4.31-1.43-8.64-2.14-13-.1-.63-.15-1.27-.21-1.9a1,1,0,0,1,.89-1.18,1.51,1.51,0,0,1,1.13.67,199,199,0,0,1,9,18.22c1.51,3.52,3,7.05,4.57,10.56a2.13,2.13,0,0,0,1.12,1.07,17,17,0,0,1,7.2,4.5,50.55,50.55,0,0,1,3.55,4.16.78.78,0,0,0,1.14.27,28.65,28.65,0,0,0,9.28-7.13c1-1.11,1.87-2.31,2.76-3.49.58-.78.4-1.23-.55-1.39s-1.64-.18-2.46-.26a6.69,6.69,0,0,1-.9-.08c-.52-.12-1.12-.29-.93-1a1.12,1.12,0,0,1,1.39-.88c1.44.26,2.88.48,4.32.76.64.13.9-.09,1.13-.7a15.22,15.22,0,0,0,.85-8c-.25-1.49-.64-1.81-2.14-1.45s-2.82.65-4.25.89a1.06,1.06,0,0,1-.87-.5,13.83,13.83,0,0,1-.51-2c-.14-.63.09-.86.76-.85,1.61,0,3.23,0,4.83-.12,1-.05,1.08-.28.78-1.14a30.75,30.75,0,0,0-5.8-9.65c-.56-.66-1-.76-1.62-.06-.73.89-1.47,1.76-2.21,2.65-.1.11-.16.27-.28.36-.52.37-1,1-1.58,1-.78,0-.74-.88-.92-1.48-.46-1.54-.45-1.52.87-2.65a11.87,11.87,0,0,0,1.12-1.31,2.41,2.41,0,0,1,.41-.37c1.1-.78,1.13-.81.08-1.68a33.64,33.64,0,0,0-8.79-5.15c-1.12-.47-1.19-.42-1.54.7-.39,1.28-.72,2.57-1,3.87s-.72,1.45-1.68.7c-2.19-1.69-2.19-1.69-1.15-4.47.17-.46.4-.89.58-1.34s.13-1.05-.54-1.18a42.12,42.12,0,0,0-5.83-1,26.92,26.92,0,0,0-4.68.61c-2,.24-2,.23-1.4,2.15.35,1.2.78,2.37,1.15,3.57s-.14,1.77-1.37,1.63l-.09,0c-1.19,0-2-.37-2.21-1.81a23.37,23.37,0,0,0-1.08-3.86c-.25-.8-.78-1-1.56-.7-2.06.79-4.18,1.48-6.19,2.38a13.44,13.44,0,0,0-2.81,2c-.6.49-1.07,1.16-1.64,1.71s-.59,1,0,1.53l3,2.67c.38.34,1.06.57.43,1.27s-1.33.86-1.93.28c-1-.92-1.93-1.85-2.91-2.77a5.21,5.21,0,0,0-.59-.38c-.86,1.75-1.7,3.42-2.49,5.11m38.76,32.44a21.21,21.21,0,0,0-7.51-6.11,15.7,15.7,0,0,0-7.36-1,20.14,20.14,0,0,0-10.19,3.21,6.64,6.64,0,0,0-1.38,1.32c-.57.7-.5,1,.34,1.38,2.31.93,4.6,1.94,7,2.64a43.37,43.37,0,0,0,13.65,1.56,31.22,31.22,0,0,0,5-.91l1.46-.32a11.58,11.58,0,0,0-1-1.75m-22-32.66a4.85,4.85,0,0,0,0,.93c.46,2.54.92,5.09,1.42,7.62.62,3.2,1.26,6.39,1.89,9.59.32,1.61.64,3.22.93,4.84.16.86.53,1.21,1.5,1.1,1.56-.18,3.15-.15,4.73-.21.17,0,.35-.05.71-.09-3.68-8-6.61-16.25-11.15-23.78"></path> <path d="M157.12,164.89c-.86,1.75-1.7,3.42-2.49,5.11-.35.75-.62,1.53-.89,2.3-.22.62-.07,1,.66,1.2a49.65,49.65,0,0,1,4.78,1.45c.41.15.63.83.94,1.27a5.37,5.37,0,0,1-1.12.51c-1.72.34-3.3-.3-4.88-.83-.28-.1-.56-.17-.88-.26a10,10,0,0,0-.21,4.5c.17,1.67.39,3.33.64,5,.16,1,.52,1.23,1.52,1.11,1.36-.16,2.72-.31,4.08-.51a.89.89,0,0,1,1.16.84c.08.73-.44.74-1,.81-1.35.16-2.7.41-4,.67-.89.17-.56.83-.35,1.29a16,16,0,0,0,3.56,5.37c1.66,1.47,3.35,2.91,5,4.37.64.56,1.09.52,1.72-.19a13.88,13.88,0,0,1,5.35-3.37,13.51,13.51,0,0,1,2.07-.67c.72-.18.8-.71.75-1.27-.12-1.33-.22-2.67-.46-4-.6-3.32-1.33-6.62-1.91-10-.76-4.31-1.43-8.64-2.14-13-.1-.63-.15-1.27-.21-1.9a1,1,0,0,1,.89-1.18,1.51,1.51,0,0,1,1.13.67,199,199,0,0,1,9,18.22c1.51,3.52,3,7.05,4.57,10.56a2.13,2.13,0,0,0,1.12,1.07,17,17,0,0,1,7.2,4.5,50.55,50.55,0,0,1,3.55,4.16.78.78,0,0,0,1.14.27,28.65,28.65,0,0,0,9.28-7.13c1-1.11,1.87-2.31,2.76-3.49.58-.78.4-1.23-.55-1.39s-1.64-.18-2.46-.26a6.69,6.69,0,0,1-.9-.08c-.52-.12-1.12-.29-.93-1a1.12,1.12,0,0,1,1.39-.88c1.44.26,2.88.48,4.32.76.64.13.9-.09,1.13-.7a15.22,15.22,0,0,0,.85-8c-.25-1.49-.64-1.81-2.14-1.45s-2.82.65-4.25.89a1.06,1.06,0,0,1-.87-.5,13.83,13.83,0,0,1-.51-2c-.14-.63.09-.86.76-.85,1.61,0,3.23,0,4.83-.12,1-.05,1.08-.28.78-1.14a30.75,30.75,0,0,0-5.8-9.65c-.56-.66-1-.76-1.62-.06-.73.89-1.47,1.76-2.21,2.65-.1.11-.16.27-.28.36-.52.37-1,1-1.58,1-.78,0-.74-.88-.92-1.48-.46-1.54-.45-1.52.87-2.64a13,13,0,0,0,1.12-1.32,2.41,2.41,0,0,1,.41-.37c1.1-.78,1.13-.81.08-1.68a33.64,33.64,0,0,0-8.79-5.15c-1.12-.47-1.19-.42-1.54.7-.39,1.28-.72,2.57-1,3.87s-.72,1.45-1.68.7c-2.19-1.69-2.19-1.69-1.15-4.47.17-.46.4-.89.58-1.34s.13-1.05-.54-1.18a42.12,42.12,0,0,0-5.83-1,26.92,26.92,0,0,0-4.68.61c-2,.24-2,.23-1.4,2.15.35,1.2.78,2.37,1.15,3.57s-.14,1.77-1.37,1.63l-.09,0c-1.19,0-2-.37-2.21-1.81a23.37,23.37,0,0,0-1.08-3.86c-.25-.8-.78-1-1.56-.7-2.06.79-4.18,1.48-6.19,2.39a13,13,0,0,0-2.81,2c-.6.49-1.07,1.16-1.64,1.71s-.59,1,0,1.53l3,2.67c.38.34,1.06.57.43,1.27s-1.33.86-1.93.28c-1-.92-1.93-1.85-2.91-2.77a5.21,5.21,0,0,0-.59-.38" style="fill:#fff"></path> <path d="M194.4,204.19a11.58,11.58,0,0,0-1-1.75,21.21,21.21,0,0,0-7.51-6.11,15.8,15.8,0,0,0-7.35-1,20.15,20.15,0,0,0-10.2,3.21,6.64,6.64,0,0,0-1.38,1.32c-.57.7-.5,1,.34,1.38,2.31.93,4.61,1.94,7,2.64a43.37,43.37,0,0,0,13.65,1.56,31.22,31.22,0,0,0,5-.91l1.46-.32" style="fill:#fff"></path> <path d="M182.49,193.56c-3.68-8-6.61-16.25-11.15-23.78a4.85,4.85,0,0,0,0,.93c.46,2.55.92,5.09,1.42,7.63.62,3.19,1.26,6.38,1.89,9.58.32,1.61.64,3.22.93,4.84.16.86.53,1.21,1.5,1.1,1.56-.18,3.15-.15,4.73-.21.17,0,.35-.05.71-.09" style="fill:#626260"></path> <path d="M225.82,101.6a14.87,14.87,0,0,0-.85-1.78c-1.34-2.17-2.7-4.33-4.1-6.46-.72-1.09-1.13-2.23.1-3.07s1.83.45,2.36,1.28q2.58,4.08,5.06,8.22a2.71,2.71,0,0,0,2.68,1.54,26,26,0,0,1,4.49.19c1.35.16,1.83-.41,1.81-1.65-.05-2.15-.08-4.31-.16-6.47,0-1.28-.2-2.55-.24-3.82,0-.93.11-1.88,1.35-1.87s1.16.93,1.23,1.79c.13,1.6.31,3.2.45,4.8a32.25,32.25,0,0,1,.37,5.61c-.14,1.65.4,2.34,1.86,2.73s3.08.65,3.69,2.46c0,.15,1.34.2,1.54-.08a66.23,66.23,0,0,0,4.4-6.63c.78-1.42,1.58-1.32,2.63-.63,1.49,1,.31,2-.14,2.84-1,1.92-2.13,3.76-3.17,5.65a2,2,0,0,0,.48,2.67c2.34,2.41,4.63,4.88,6.81,7.44a2.28,2.28,0,0,0,2.59,1,20.53,20.53,0,0,0,3.58-1.61,1.76,1.76,0,0,1,2.33,2.64,22.57,22.57,0,0,1-4.31,2.3c-1.1.45-1.45.83-1,2.06a22.56,22.56,0,0,1,1.8,9.07c-.37,8.43-4,15.07-11.59,18.85-10.47,5.21-21.18,4.46-31.74,0a15.16,15.16,0,0,1-4-2.6c-9.79-8.56-13.65-27-3-38.68.81-.88.69-1.45-.07-2.22-2-2-3.93-4.08-5.87-6.14a3.15,3.15,0,0,1-.92-1.33c-.12-.58-.07-1.65.23-1.77a4.06,4.06,0,0,1,2.19,0c.29.06.5.56.76.84,2.34,2.51,4.69,5,6.85,7.31l9.52-4.42m25.7,45.49c5.53-3.1,9.82-11,8.38-18.77a27.4,27.4,0,0,0-9.84-16.69,47.77,47.77,0,0,0-8.26-5,11.54,11.54,0,0,0-8.75-.7c-1.76.51-3.37.77-4.9-.78-.48-.49-1.75-.46-2.59-.29-3.65.75-6.48,3-9.25,5.34-4.83,4.09-6.12,9.74-6.2,15.57a28.67,28.67,0,0,0,4.2,15c3.22,5.46,8.29,8.13,14.23,9.54.7.16,1.41.28,2.12.43a31.47,31.47,0,0,0,20.86-3.73"></path> <path d="M228.54,150.39c-5.94-1.41-11-4.08-14.23-9.54a28.67,28.67,0,0,1-4.2-15c.08-5.83,1.37-11.48,6.2-15.57,2.77-2.34,5.6-4.59,9.25-5.34.84-.17,2.11-.2,2.59.29,1.53,1.55,3.14,1.29,4.9.78a11.54,11.54,0,0,1,8.75.7,47.77,47.77,0,0,1,8.26,5,27.4,27.4,0,0,1,9.84,16.69c1.44,7.78-2.85,15.67-8.38,18.77a31.47,31.47,0,0,1-20.86,3.73c-.71-.15-1.42-.27-2.12-.43m4.17-30.3c-2.62,1.72-2.9,3.27-1.13,5.86a15.76,15.76,0,0,0,4,4.43c2.2,1.4,4.77.2,5.87-2.22a6,6,0,0,0-4.55-8.81l-.12-.44c-1.38.37-3,.43-4.11,1.18" style="fill:#fff"></path> <path d="M236.94,119.35a6,6,0,0,1,4.55,8.81c-1.11,2.42-3.67,3.62-5.87,2.22a15.76,15.76,0,0,1-4-4.43c-1.77-2.59-1.49-4.15,1.13-5.86,1.13-.75,2.73-.81,4.11-1.18l.12.44m-.23,7.54a2.59,2.59,0,0,0,1.63-1.28c.4-.8-1-2.7-1.94-2.69a4,4,0,0,0-1.48.6c-.27,1.62.81,3.49,1.79,3.37"></path> <path d="M234.92,123.52c-.27,1.62.81,3.49,1.79,3.37a2.59,2.59,0,0,0,1.63-1.28c.4-.8-1-2.7-1.94-2.69a4,4,0,0,0-1.48.6" style="fill:#fff"></path> <path d="M113.27,110.17a29.6,29.6,0,0,1,5.48-8,12.54,12.54,0,0,1,5.8-3.84,38.7,38.7,0,0,1,5.08-.82,27.12,27.12,0,0,1,11.91.9,34.39,34.39,0,0,1,18.9,13.86A17.78,17.78,0,0,1,163,127.43a23.54,23.54,0,0,1-5,9.16,31.35,31.35,0,0,1-6.8,6,26.42,26.42,0,0,1-11,3.93c-7.91,1.12-15.27-.26-21.68-5.29a17.35,17.35,0,0,1-5.34-6.54c-1.71-3.87-2-8-2.1-12.57.29-3.77.56-8,2.26-11.91m.47,19.59A19,19,0,0,0,125,143.37a22.65,22.65,0,0,0,14.48,1.7,28.78,28.78,0,0,0,10-4,30.06,30.06,0,0,0,8.87-8.78A18.12,18.12,0,0,0,157,110.47a34.65,34.65,0,0,0-16-10.72,26,26,0,0,0-9-1.3,31.64,31.64,0,0,0-5.67.72,12.08,12.08,0,0,0-5.64,3.38c-3,3-5.58,6.4-6.57,10.67-.54,2.3-.81,4.67-1.2,7a45.9,45.9,0,0,0,.87,9.52"></path> <path d="M114.07,113.22c1-4.27,3.51-7.64,6.56-10.67a12.16,12.16,0,0,1,5.65-3.38,31.64,31.64,0,0,1,5.67-.72,26,26,0,0,1,9,1.3,34.73,34.73,0,0,1,16,10.72,18.12,18.12,0,0,1,1.28,21.85,30.06,30.06,0,0,1-8.87,8.78,28.78,28.78,0,0,1-10,4,22.65,22.65,0,0,1-14.48-1.7,19,19,0,0,1-11.24-13.61,45.9,45.9,0,0,1-.87-9.52c.39-2.35.66-4.72,1.2-7m16.63-1.5a2.3,2.3,0,0,1-.87.29c-3.34.6-5.17,2.84-6.2,5.83a10.92,10.92,0,0,0-.77,4c.25,5.11,3.11,8.39,7.56,10.66a13.84,13.84,0,0,0,11.12.69,10.3,10.3,0,0,0,2.47-1.55c2.12-1.48,3-3.74,3.73-6.1a11.06,11.06,0,0,0-1.9-10.48,8.25,8.25,0,0,0-4.19-3.21c-1.7-.54-3.4-1.06-4.35-1.35-2.83,0-4.84,0-6.6,1.27" style="fill:#fff"></path> <path d="M141.65,111.8a8.25,8.25,0,0,1,4.19,3.21,11.06,11.06,0,0,1,1.9,10.48c-.76,2.36-1.6,4.62-3.73,6.1a10.3,10.3,0,0,1-2.47,1.55,13.84,13.84,0,0,1-11.12-.69c-4.45-2.27-7.31-5.55-7.56-10.66a10.92,10.92,0,0,1,.77-4c1-3,2.86-5.23,6.2-5.83a2.3,2.3,0,0,0,.87-.29c1.76-1.22,3.77-1.24,6.6-1.27,1,.29,2.66.81,4.35,1.35M145,117a18.13,18.13,0,0,0-3.43-2.25.83.83,0,0,0-.8.15c-.82,1-1.61,1.94-2.34,3-.12.15,0,.58.15.8a13.41,13.41,0,0,0,1.19,1.64,1.16,1.16,0,0,0,.72.48c1.88,0,3.76-.08,5.64-.13.08,0,.16-.08.3-.15A5.37,5.37,0,0,0,145,117m-19.29,6.15c-.6,0-.65.42-.47.84.83,2,1.61,4,3.34,5.45,1.11.92,1.36.92,2.09-.3.14-.24.3-.47.44-.71.77-1.29,1.6-2.58.27-4a.69.69,0,0,1-.14-.34c-.06-1-.64-1.33-1.57-1.22l-4,.3M138,131.24a1.05,1.05,0,0,0,.89.54,7,7,0,0,0,4.39-2.49.86.86,0,0,0-.13-.84c-1.4-1.07-2.82-2.11-4.27-3.1-.55-.38-1.61.45-1.64,1.31.23,1.48.44,3.05.76,4.58m-10.25-16.79c-.75.23-.81.8-.17,1.21,1.62,1.06,3.28,2.08,5,3,.51.3,1.68-.64,1.64-1.26-.07-1-.21-1.91-.28-2.86a1.11,1.11,0,0,0-1.34-1.16l-.06-.28c-1.59.43-3.18.82-4.75,1.3m12.71,7.68c-.29,0-.79.21-.82.38-.06.41-.06,1,.19,1.25,1.48,1.16,3,2.23,4.58,3.29a.7.7,0,0,0,.66-.22,25.56,25.56,0,0,0,1.08-3c.42-1.55.26-1.71-1.24-1.73s-3,0-4.45.07m-9.84-.7a1,1,0,0,0,.75-.59,1,1,0,0,0-.32-.9c-1.47-.88-3-1.69-4.48-2.52-.52-.3-.86-.19-1,.4-.24.86-.58,1.7-.74,2.57s.13,1.27,1.13,1.3c1.57-.08,3.14-.13,4.7-.26M136,131c-.08-1-.2-2-.26-3-.05-.75-.47-1-1.15-1.07s-1.26-.24-1.62.6-.78,1.46-1.18,2.18c-.55,1-.48,1.42.56,1.9a23.2,23.2,0,0,0,2.35.8c1.39-.05,1.4-.05,1.3-1.37M135.89,117a1.62,1.62,0,0,0,.72.86c.1.07.51-.23.7-.43.75-.81,1.47-1.64,2.19-2.48.34-.4.3-.74-.16-1.07a3.49,3.49,0,0,0-3.48-.17c-.17.1-.23.38-.29.5a27.2,27.2,0,0,0,.32,2.79"></path> <path d="M146.44,120.54A5.37,5.37,0,0,0,145,117a18.13,18.13,0,0,0-3.43-2.25.83.83,0,0,0-.8.15c-.82,1-1.61,1.94-2.34,3-.12.15,0,.58.15.8a13.41,13.41,0,0,0,1.19,1.64,1.16,1.16,0,0,0,.72.48c1.88,0,3.76-.08,5.64-.13.08,0,.16-.08.3-.15" style="fill:#fff"></path> <path d="M129.68,122.89l-4,.3c-.6,0-.65.42-.47.84.83,2,1.61,4,3.34,5.45,1.11.92,1.36.92,2.09-.3.14-.24.3-.47.44-.71.77-1.29,1.6-2.58.27-4a.69.69,0,0,1-.14-.34c-.06-1-.64-1.33-1.57-1.22" style="fill:#fff"></path> <path d="M137.27,126.66c.23,1.48.44,3,.76,4.58a1.05,1.05,0,0,0,.89.54,7,7,0,0,0,4.39-2.49.86.86,0,0,0-.13-.84c-1.4-1.07-2.82-2.11-4.27-3.1-.55-.38-1.61.45-1.64,1.31" style="fill:#fff"></path> <path d="M132.53,113.15c-1.59.43-3.18.82-4.75,1.3-.76.23-.81.8-.17,1.21,1.62,1.06,3.28,2.08,5,3,.51.3,1.68-.64,1.64-1.26-.07-1-.21-1.91-.28-2.86a1.11,1.11,0,0,0-1.34-1.16l-.06-.28" style="fill:#fff"></path> <path d="M144.94,122.06c-1.55,0-3,0-4.45.07-.29,0-.79.21-.82.38-.06.41-.06,1,.19,1.25,1.48,1.16,3,2.23,4.58,3.29a.72.72,0,0,0,.66-.22,26.2,26.2,0,0,0,1.08-3c.42-1.55.26-1.71-1.24-1.73" style="fill:#fff"></path> <path d="M126,121.69c1.57-.08,3.14-.13,4.7-.26a.82.82,0,0,0,.44-1.49c-1.48-.88-3-1.69-4.49-2.52-.52-.3-.86-.19-1,.41-.24.85-.58,1.69-.74,2.56s.13,1.27,1.13,1.3" style="fill:#fff"></path> <path d="M134.71,132.4c1.39-.05,1.4-.06,1.3-1.37-.08-1-.2-2-.26-3-.05-.75-.47-1-1.15-1.07s-1.26-.24-1.62.6-.78,1.46-1.18,2.18c-.55,1-.48,1.42.56,1.9a23.2,23.2,0,0,0,2.35.8" style="fill:#fff"></path> <path d="M135.57,114.16a27.2,27.2,0,0,0,.32,2.79,1.57,1.57,0,0,0,.72.86c.1.07.51-.23.7-.43.75-.81,1.47-1.64,2.19-2.48.34-.4.3-.74-.16-1.07a3.49,3.49,0,0,0-3.48-.17c-.17.1-.23.38-.29.5" style="fill:#fff"></path> <path d="M313.3,240l-1.41,1.94c-1.93,2.72-2.34,2.48-5.81,1.69a11.81,11.81,0,0,1-1.11-.46c-2-.69-2.58-1.5-2.13-3.58s1-4.25,1.7-6.34c.92-2.87,1.9-5.72,3-8.53,1-2.58,2.26-5.07,3.31-7.64.77-1.87,1.45-3.78,2.06-5.71.5-1.56,2-2.74,3.26-2.23a5.49,5.49,0,0,1,2.23,1.74q2.58,3.34,4.92,6.87a3.19,3.19,0,0,1,.14,3.57c-2.14,4-4.05,8-6.15,12-1.21,2.28-2.62,4.46-3.94,6.69Z" style="fill:#fff"></path> <path d="M254.88,178.92a6.17,6.17,0,0,1,.36,1.55c0,2-.05,4.07-.27,6.08a69.85,69.85,0,0,1-1.15,7.19c-.41,1.9-1.63,2.49-3.5,2-3-.8-3.48-1.49-3.42-5.14.06-3.14.18-6.27.36-9.41.2-3.57,1.2-4.28,4.67-3.37.91.24,1.78.66,2.95,1.1" style="fill:#fff"></path> <path d="M265,182.88a4.16,4.16,0,0,1,1.55,4.59c-.61,2.53-1,5.11-1.57,7.65a6,6,0,0,1-1.16,2.85c-1.78,1.77-5.26.42-5.93-2-.54-2,.44-3.66.53-5.5.12-2.38.49-4.73.71-7.1a2.14,2.14,0,0,1,2.79-1.9,30.8,30.8,0,0,1,3.08,1.43" style="fill:#fff"></path> <path d="M294,206c1,1,2,2,2.93,3.06a1.73,1.73,0,0,1,0,2.1c-1.18,2.17-2.26,4.39-3.36,6.59a2.28,2.28,0,0,1-3.46,1.09,13.3,13.3,0,0,1-2.74-2.27c-1.24-1.38-.86-3.09-.49-4.68a48,48,0,0,1,1.58-5.34c.75-2,2.3-2.93,4.13-1.38.39.34.84.62,1.25.92L294,206" style="fill:#fff"></path> <path d="M279.46,197c2.36-.08,6,2.14,6.73,4.22a3.19,3.19,0,0,1,0,1.86c-.66,2.25-1.4,4.48-2.13,6.71a7.63,7.63,0,0,1-.57,1.31,1.66,1.66,0,0,1-2.6.75c-1.38-.94-2.63-2.07-3.95-3.1-1.13-.88-.59-3.7.1-5.24s1.13-3.21,1.71-4.81c.2-.59.48-1.16.71-1.7" style="fill:#fff"></path> <path d="M298.76,214.88c1.87-2.55,3.53-2.65,5.2-.85a21.74,21.74,0,0,0,2.1,2.28,1.6,1.6,0,0,1,.5,2.11c-.92,2.16-1.84,4.33-2.89,6.43-.86,1.7-1.6,1.88-3.27.93a18.13,18.13,0,0,1-3.14-2.18,2.64,2.64,0,0,1-.82-1.86,19.35,19.35,0,0,1,2.32-6.86" style="fill:#fff"></path> <path d="M268.92,203c-1.26-.45-1.29-1.49-1-2.82.37-1.82.44-3.7.8-5.52s.91-3.62,1.44-5.4a1.52,1.52,0,0,1,2.52-.42c1.24,1.13,2.94,1.94,3.31,3.8a4.68,4.68,0,0,1,0,2.14c-.71,2.38-1.48,4.75-2.34,7.09-.95,2.58-2.34,2.93-4.69,1.13" style="fill:#fff"></path> <path d="M302.37,245.19a22.13,22.13,0,0,0,9,3c1,.15,7.72-9.57,7.72-9.57,1.15-2.44,2.35-4.86,3.52-7.29.39-.82.8-1.63,1.18-2.45a2.26,2.26,0,0,1,1.31-1.28l3-5.49a6.63,6.63,0,0,1,.21-3.78,2.93,2.93,0,0,0-.36-2.3c-1-1.27-2.3-2.3-3.41-3.49-1.45-1.53-2.73-3.25-4.29-4.66a43.92,43.92,0,0,0-5.47-4.21c-1.18-.77-1.91-.45-2.45.86-.79,1.91-1.46,3.87-2.13,5.83-.72,2.12-1.47,2.89-3.09,2.61a6,6,0,0,1-2.39-1.22c-5.12-3.87-10.27-7.73-15.31-11.72-3.34-2.64-6.54-5.45-9.75-8.25-3-2.61-5.95-5.31-9.66-8.64-2.92-1.47-6.64-3.47-10.47-5.24a28.33,28.33,0,0,0-5.47-1.65c-1.9-.45-3.85-.66-5.77-1a4.52,4.52,0,0,0-5.52,4.34c0,3.34-.06,6.67-.09,10a32.43,32.43,0,0,0,0,4.41c.1.79.64,2,1.25,2.18,3.24,1.06,6.59,1.81,9.87,2.78a70.92,70.92,0,0,1,7.46,2.49,33.43,33.43,0,0,1,4.72,2.82c3.48,2.18,7,4.26,10.39,6.6,3.69,2.57,7.18,5.41,10.81,8.06,2.8,2,5.72,3.94,8.51,6a54.82,54.82,0,0,1,5.08,4.31,2.82,2.82,0,0,1,.72,2,8.3,8.3,0,0,1-.72,2.27c-.83,2.49-1.65,5-2.48,7.48a1.55,1.55,0,0,0,.77,2.1c1.14.65,2.22,1.4,3.32,2.13m-40.48-63.74a30.8,30.8,0,0,1,3.08,1.43,4.16,4.16,0,0,1,1.55,4.59c-.61,2.53-1,5.11-1.57,7.65a6,6,0,0,1-1.16,2.85c-1.78,1.77-5.26.42-5.93-2-.54-2,.44-3.66.53-5.5.12-2.37.49-4.73.71-7.1a2.13,2.13,0,0,1,2.79-1.9M296.94,209a1.72,1.72,0,0,1,.05,2.1c-1.18,2.16-2.26,4.39-3.36,6.59a2.28,2.28,0,0,1-3.46,1.09,13.3,13.3,0,0,1-2.74-2.27c-1.24-1.38-.87-3.09-.49-4.68a48,48,0,0,1,1.58-5.34c.75-2,2.3-2.93,4.13-1.38.39.34.83.62,1.25.92L294,206c1,1,2,2,2.92,3.06m7,5a21.74,21.74,0,0,0,2.1,2.28,1.6,1.6,0,0,1,.5,2.11c-.92,2.16-1.84,4.33-2.89,6.43-.86,1.7-1.6,1.88-3.27.93a18.18,18.18,0,0,1-3.14-2.19,2.6,2.6,0,0,1-.82-1.85,19.28,19.28,0,0,1,2.32-6.86c1.87-2.55,3.53-2.65,5.2-.85m-27-5.29c-1.13-.88-.59-3.7.1-5.24s1.13-3.21,1.71-4.81c.2-.59.48-1.16.71-1.7,2.36-.08,6,2.14,6.73,4.22a3.19,3.19,0,0,1,0,1.86c-.66,2.25-1.4,4.48-2.13,6.71a7.63,7.63,0,0,1-.57,1.31,1.66,1.66,0,0,1-2.6.75c-1.38-.94-2.63-2.07-3.95-3.1m-1-16.09a4.68,4.68,0,0,1,0,2.14c-.71,2.38-1.49,4.75-2.34,7.08-.95,2.59-2.34,2.94-4.69,1.14-1.26-.45-1.3-1.5-1-2.82.37-1.82.45-3.7.81-5.52s.91-3.62,1.44-5.4a1.52,1.52,0,0,1,2.52-.42c1.24,1.13,2.94,1.94,3.31,3.8m-25.65,3.09c-3-.79-3.48-1.49-3.42-5.14.06-3.14.18-6.27.36-9.41.2-3.57,1.2-4.28,4.67-3.37.91.24,1.78.66,2.95,1.1a6.17,6.17,0,0,1,.36,1.55c0,2-.05,4.07-.27,6.08a69.85,69.85,0,0,1-1.15,7.19c-.41,1.9-1.63,2.49-3.5,2m52.52,43.84c.46-2.14,1-4.25,1.7-6.34.92-2.87,1.9-5.72,3-8.53,1-2.58,2.26-5.07,3.31-7.64.77-1.87,1.45-3.78,2.06-5.71.5-1.56,2-2.74,3.26-2.23a5.49,5.49,0,0,1,2.23,1.74q2.58,3.34,4.92,6.87a3.19,3.19,0,0,1,.14,3.57c-2.14,4-4.05,8-6.15,12-1.21,2.28-2.62,4.46-3.95,6.69l-.05,0c-.47.65-.95,1.28-1.41,1.94-1.93,2.72-2.34,2.48-5.81,1.69a11.81,11.81,0,0,1-1.11-.46c-2-.69-2.58-1.5-2.13-3.58"></path> <path d="M41.83,200.66c-.54.59-1.18,1.17-1.71,1.75-2.25,2.41-2.06,4.1-1.18,7.22.09.34.4.88.53,1.22.73,1.8,1.55,2.89,3.49,2.2a38.61,38.61,0,0,0,5.44-2.45,45.33,45.33,0,0,0,7-4.66c2.18-1.77,4.31-3.66,6.45-5.49,1.56-1.34,3.39-2.83,4.94-4,1.27-1,2.17-2.43,1.54-3.78a3,3,0,0,0-1.87-1.5A52.45,52.45,0,0,1,60.11,188a2.26,2.26,0,0,0-2.86.37c-3,2.59-6.41,5-9.71,7.46-1.9,1.42-3.88,3.22-5.73,4.77,0,0,0,.06,0,.07" style="fill:#fff"></path> <path d="M111.69,188.19a5.07,5.07,0,0,0-.22,1.49,57.28,57.28,0,0,0,.87,5.85,51.61,51.61,0,0,0,1.87,6.91,3,3,0,0,0,3.78,1.87c2.81-.6,3.29-1.62,2.9-4.7-.33-2.65-.75-6.12-1.27-8.91-.61-3.17-1.81-4.07-5.05-3.48a28.69,28.69,0,0,0-2.88,1" style="fill:#fff"></path> <path d="M102.14,191.93a4.5,4.5,0,0,0-1.28,4.94,49.61,49.61,0,0,1,1.82,7.64c.1,1,.33,2.45,1.18,2.87,2.25,1.1,5.8-.84,6.39-3.07.48-1.8-.81-3.35-1-5.1-.31-2.25-1-4.55-1.35-6.82a2.3,2.3,0,0,0-2.8-1.82,9.34,9.34,0,0,0-2.91,1.36" style="fill:#fff"></path> <path d="M76,211a31.24,31.24,0,0,1-3.48-.59,1.57,1.57,0,0,0-1.64.93c-1.19,2-3,3.7-4.38,5.62-.89,1.26-.39,2.53,1.07,3.14a13.28,13.28,0,0,0,3.69,1A4.66,4.66,0,0,0,75.52,219a23.38,23.38,0,0,0,2.77-4.4c.89-1.73.66-2.57-1.1-3.16-.38-.13-.8-.16-1.17-.3,0,0,0-.11,0-.12" style="fill:#fff"></path> <path d="M88.78,209.53a9.39,9.39,0,0,0-5.94,2.5,5.2,5.2,0,0,0-1,1.28c-1.09,1.86-1.77,3.94-2.82,5.81a3.68,3.68,0,0,0-.49,1.14c-.18,1.1.3,1.78,1.59,1.75a16.18,16.18,0,0,0,5.52-1.22c1.78-.72,2.5-3,2.71-4.78s.4-3.15.46-4.82c0-.61,0-1.07,0-1.66" style="fill:#fff"></path> <path d="M66.8,211.22c1.38-2.11,1.71-3.94-.69-5.17-1-.51-1.9-.7-2.75-1.2a1.54,1.54,0,0,0-2.09.25c-1.75,1.62-3.71,3.21-5.32,4.85-1.31,1.33-1.36,2.19,0,3.54a12.38,12.38,0,0,0,3.35,2.33,2.9,2.9,0,0,0,2.16.08,17.81,17.81,0,0,0,5.38-4.68" style="fill:#fff"></path> <path d="M96.85,214.84a3.21,3.21,0,0,0,1.93-3.34c-.09-2.1.25-4.08-.08-6.09a28.59,28.59,0,0,0-1.08-5.86c-.39-1-1.32-1-2,.15-.91,1.53-2.65,3.15-3.26,5.09a6.46,6.46,0,0,0-.15,2.28c.19,2.7-.2,4.47,0,7.41s2.51,2.11,4.58.36" style="fill:#fff"></path> <path d="M40.37,217.33c.66,1.07,1.32.91,2.11.51,2.17-1.1,4.27-2.22,6.38-3.35a6.27,6.27,0,0,1,1.88-1,2.38,2.38,0,0,1,1.88.38,45.61,45.61,0,0,0,6,4c3.47,1.86,6.68,3.67,10.7,4.67a30.64,30.64,0,0,0,15.58.19c5.1-1.24,10.37-4,15-7.05,2.06-1.35,4.59-3.62,6.51-5a22.52,22.52,0,0,1,8.32-3.47c3.7-.83,6.32-1.09,9.79-2,.65-.18,1-1.22,1-2a29,29,0,0,0-.39-4.2c-.44-3.21-.55-6.3-1.11-9.59a5.45,5.45,0,0,0-5.92-4.46,46.47,46.47,0,0,0-5.73.72,23.92,23.92,0,0,0-5.25,1.53,37.82,37.82,0,0,0-9.59,6c-2.54,3.25-5.08,7.92-7.57,10.87s-4.72,5.17-8.34,5.72c-5.46.83-9.32-2.35-13.66-5.26-.6-.4-1.52-.93-1.73-1.85-.42-1.78.56-2.76,2-4s3.48-2.77,5-4c1-.86,1.29-1.7.41-2.57A29.24,29.24,0,0,0,69,188.43c-1.59-1-3.1-1.69-4.61-2.73-1.17-.8-2-1.82-3.19-2.63a2,2,0,0,0-1.82,0,3.49,3.49,0,0,1-2.7.35c-1.38,1.08-2.76,2.19-4.19,3.22a2.66,2.66,0,0,1-1.07,1.49c-.63.41-1.32.84-2,1.29-2,1.34-4.19,2.51-6.26,3.95s-8.13,7.36-8.31,8.93c-.61,5.19,1.07,8.06,3,11.69.8,1.47,1.85,2.26,2.52,3.33m67.48-24.94c.4,2.27,1,4.57,1.35,6.82.24,1.75,1.53,3.3,1,5.1-.59,2.23-4.14,4.17-6.39,3.07-.85-.42-1.08-1.86-1.19-2.87a48.71,48.71,0,0,0-1.81-7.64,4.5,4.5,0,0,1,1.28-4.94,9.34,9.34,0,0,1,2.91-1.36,2.3,2.3,0,0,1,2.8,1.82M76,211s0,.11,0,.12c.37.14.79.17,1.17.3,1.76.6,2,1.43,1.1,3.16a23.38,23.38,0,0,1-2.77,4.4,4.66,4.66,0,0,1-4.23,2.08,13.28,13.28,0,0,1-3.69-1c-1.46-.61-2-1.88-1.07-3.14,1.36-1.92,3.19-3.64,4.38-5.61a1.56,1.56,0,0,1,1.64-.94A31.24,31.24,0,0,0,76,211m-9.23.23a17.84,17.84,0,0,1-5.38,4.69,3,3,0,0,1-2.16-.09,12.38,12.38,0,0,1-3.35-2.33c-1.32-1.35-1.27-2.21,0-3.54,1.61-1.64,3.57-3.23,5.32-4.85a1.54,1.54,0,0,1,2.09-.25c.85.5,1.74.69,2.75,1.2,2.4,1.23,2.07,3.06.69,5.17M80.14,222c-1.29,0-1.77-.65-1.59-1.75a3.68,3.68,0,0,1,.49-1.14c1-1.87,1.73-4,2.82-5.81a5.41,5.41,0,0,1,1-1.28,9.44,9.44,0,0,1,6-2.5c0,.59.07,1.05,0,1.66-.06,1.67-.25,3.06-.46,4.82s-.93,4.06-2.71,4.78A16.18,16.18,0,0,1,80.14,222M95.63,199.7c.67-1.11,1.6-1.14,2-.15a28.59,28.59,0,0,1,1.08,5.86c.33,2,0,4,.08,6.09a3.21,3.21,0,0,1-1.93,3.34c-2.07,1.75-4.33,2.59-4.58-.35s.14-4.72,0-7.42a6.46,6.46,0,0,1,.15-2.28c.61-1.94,2.35-3.56,3.26-5.09m18.58,2.74a51.61,51.61,0,0,1-1.87-6.91,54.63,54.63,0,0,1-.87-5.85,5.07,5.07,0,0,1,.22-1.49,28.69,28.69,0,0,1,2.88-1c3.24-.59,4.44.31,5.05,3.49.52,2.78.94,6.25,1.27,8.9.39,3.08-.09,4.1-2.9,4.7a3,3,0,0,1-3.78-1.87m-74.74,8.41c-.13-.34-.44-.88-.53-1.22-.88-3.12-1.07-4.81,1.17-7.22.54-.58,1.18-1.16,1.72-1.75,0,0,0-.06,0-.07,1.85-1.55,3.83-3.35,5.73-4.77,3.3-2.45,6.7-4.87,9.71-7.46a2.25,2.25,0,0,1,2.86-.37,52.45,52.45,0,0,0,6.38,3.15,3,3,0,0,1,1.87,1.5c.63,1.35-.27,2.81-1.54,3.78-1.56,1.2-3.39,2.69-4.94,4-2.14,1.83-4.27,3.72-6.45,5.49a45,45,0,0,1-7,4.66A38,38,0,0,1,43,213.05c-1.94.69-2.76-.4-3.49-2.2"></path> <path d="M45.7,138c-1.2.88-2.52,1.9-3.84,2.74-2.7,1.7-5.51,3.38-8.25,5-.29.18-.68.25-.92.43s-.59.46-.57.73a3.42,3.42,0,0,0,1,2.35,20.33,20.33,0,0,1,5.46,10.49,10.11,10.11,0,0,1-.59,6,2.75,2.75,0,0,0-.14.88,2.41,2.41,0,0,1-1.7,2.27,11.64,11.64,0,0,0-6.24,5.67c-.19.38-.62.9-1,.91a21.66,21.66,0,0,1-4.72-.33,10.23,10.23,0,0,1-1.72-.58l-1.18,1c.45.18.9.39,1.36.56a17,17,0,0,0,5.12.86c.78,0,.9.11.8.85a12.62,12.62,0,0,0,1.49,8.22,13.76,13.76,0,0,1,.62,1.4A29.1,29.1,0,0,0,34,193.11a12.29,12.29,0,0,1,.81,1.18.73.73,0,0,1-.3,1.08,24.93,24.93,0,0,1-6.88,1.11,50.81,50.81,0,0,1-10.44-.43A22.19,22.19,0,0,1,9,193.25a8.14,8.14,0,0,1-1.92-1.92c-.24.36-.47.73-.71,1.1a9.41,9.41,0,0,0,2,2.22,16.65,16.65,0,0,0,6.37,2.7c4.51.88,9.07.8,13.55,1.19a16.75,16.75,0,0,0,7.44-1.29,1.9,1.9,0,0,1,2.12.39,10.49,10.49,0,0,0,1.65,1.4,1,1,0,0,0,1,.22,23,23,0,0,0,3.74-1.76,18.75,18.75,0,0,0,3.15-2.72A44.18,44.18,0,0,0,53.32,187a4.91,4.91,0,0,0,.61-2.9c-.16-2.68.15-6-.7-8.52a1.64,1.64,0,0,1,.13-1.06c1.77-3.61,3.71-7.32,4.58-11.19a20.36,20.36,0,0,0,.25-7.49A22.08,22.08,0,0,0,55,146.09a50.13,50.13,0,0,0-7.44-8.21c-.53-.51-1.18-.38-1.84.1m-7.43,34a24.88,24.88,0,0,1,2.5-.15,10.19,10.19,0,0,1,4.1,1,11.15,11.15,0,0,1,6,4.93,9.87,9.87,0,0,1,.94,3.72,7.9,7.9,0,0,1-1.43,5,19.25,19.25,0,0,1-5.34,5.12c-.49.36-.92.65-1.41,1-1.47,1-2.66.77-4-.35-.86-.71-1.7-1.51-2.52-2.28a5,5,0,0,1-.63-.9c-.18-.27-.33-.68-.57-.85a7.42,7.42,0,0,1-2.25-2.76,12.78,12.78,0,0,1-1.86-7A5.53,5.53,0,0,1,33,175.55a8.54,8.54,0,0,1,3.27-3,6,6,0,0,1,2-.56m10.66-30.88a79.1,79.1,0,0,1,5.39,6.22A15.28,15.28,0,0,1,57,154.37a21.66,21.66,0,0,1-.62,10.53c-.86,2.61-2.36,5.4-3.46,7.95-.33.78-.64.84-1.2.27-2-2-3.93-3.86-6.65-4.77a9.76,9.76,0,0,0-3.84-.28c-1.26.12-1.72-.21-1.47-1.48a16.63,16.63,0,0,0-.45-8.08,32.47,32.47,0,0,0-4.6-9.51c-.6-.88-.5-1.18.4-1.76,1.27-.82,2.77-1.6,4.1-2.38,0,0,0,.06,0,0,2.2-1.37,4.36-2.9,6.56-4.26,1.32-.81,2-.82,3.11.42"></path> <path d="M16,172.39c-2-1.9-3.72-4-5.55-6-.75-.82-1.22-1-2.18-.4a22.92,22.92,0,0,1-5.46,2.31c-.92.28-1.54.66-1.58,1.8a34.75,34.75,0,0,0,0,3.82,33.49,33.49,0,0,0,2,8.59c1,2.76,2.14,5.41,3.21,8.1.11.28.57.44.55.71s-.53.72-.65,1.1a10.29,10.29,0,0,1-.55-1,52.1,52.1,0,0,1-2.66-6.2,85.07,85.07,0,0,1-2.64-8.82,37.7,37.7,0,0,1-.52-6,15.58,15.58,0,0,1,0-1.93,1.16,1.16,0,0,1,.88-1.15c1.21-.44,2.48-.81,3.67-1.32A29.38,29.38,0,0,0,8,164.2c1.07-.65,1.51-.75,2.38.21,1.74,1.94,3.39,4,5.19,5.92a14.74,14.74,0,0,0,4.54,3.21c.76.36,1.56.73,2.33,1.07l-1.18,1A18.06,18.06,0,0,1,16,172.39"></path> <path d="M10.49,166.4c1.83,2,3.58,4.09,5.55,6a18.06,18.06,0,0,0,5.26,3.26A93.45,93.45,0,0,0,7.11,191.33c-.14-.28-.47-.42-.59-.71-1.11-2.69-2.22-5.34-3.22-8.1a33.09,33.09,0,0,1-2-8.59,34.75,34.75,0,0,1,0-3.82c0-1.14.66-1.52,1.58-1.79A23.37,23.37,0,0,0,8.31,166c1-.58,1.43-.41,2.18.4" style="fill:#fff"></path> <path d="M21.3,175.65c.45.18.9.39,1.36.56a17,17,0,0,0,5.12.86c.78,0,.9.11.81.85a12.55,12.55,0,0,0,1.48,8.22,11.86,11.86,0,0,1,.62,1.4A29.1,29.1,0,0,0,34,193.11a12.29,12.29,0,0,1,.81,1.18.73.73,0,0,1-.3,1.08,24.93,24.93,0,0,1-6.88,1.11,50.81,50.81,0,0,1-10.44-.43A22.19,22.19,0,0,1,9,193.25a8.14,8.14,0,0,1-1.92-1.92A93.07,93.07,0,0,1,21.3,175.65" style="fill:#fff"></path> <path d="M39.26,144.91c2.2-1.38,4.36-2.9,6.56-4.26,1.32-.81,2-.82,3.11.42a79.1,79.1,0,0,1,5.39,6.22A15.39,15.39,0,0,1,57,154.37a21.66,21.66,0,0,1-.62,10.53c-.86,2.61-2.36,5.4-3.46,7.95-.33.78-.64.84-1.2.27-2-2-3.93-3.86-6.65-4.77a9.76,9.76,0,0,0-3.84-.28c-1.26.12-1.72-.21-1.47-1.48a16.63,16.63,0,0,0-.45-8.08,32.47,32.47,0,0,0-4.6-9.51c-.6-.88-.5-1.18.39-1.76,1.28-.82,2.78-1.6,4.11-2.38,0,0,0,.06,0,0" style="fill:#fff"></path> <path d="M33.7,185.46a12.87,12.87,0,0,1-1.86-7A5.53,5.53,0,0,1,33,175.55a8.54,8.54,0,0,1,3.27-3,6,6,0,0,1,2-.56,24.88,24.88,0,0,1,2.5-.15,10.19,10.19,0,0,1,4.1,1,11.15,11.15,0,0,1,6,4.93,9.87,9.87,0,0,1,.94,3.72,7.9,7.9,0,0,1-1.43,5,19.25,19.25,0,0,1-5.34,5.12c-.49.36-.92.66-1.41,1-1.47,1-2.66.77-4-.35-.86-.71-1.7-1.51-2.52-2.28a5,5,0,0,1-.63-.9c-.18-.27-.33-.68-.57-.85a7.42,7.42,0,0,1-2.25-2.76" style="fill:#fff"></path> <path d="M319.84,280.29a21.72,21.72,0,0,1-4.3-8.76,37.46,37.46,0,0,1-1-11.89,43.78,43.78,0,0,1,1.63-8.37.67.67,0,0,1,1.08-.4,11.35,11.35,0,0,1,1.12,1,15.36,15.36,0,0,0,5.64,3.76,15,15,0,0,1,1.62.61,14.39,14.39,0,0,0,9.94.84c.84-.22,1-.11,1.1.79a15.54,15.54,0,0,0,1.65,5.65l.17.28c-5.21,6.09-10.81,12.16-16.55,18.22a8.3,8.3,0,0,1-2.11-1.69" style="fill:#fff"></path> <path d="M323.26,282.84c3.31.92,6.65,1.93,10,2.78A39.53,39.53,0,0,0,343.78,287c1.53,0,3.06-.25,4.58-.38a2,2,0,0,0,1.91-1.95,18.29,18.29,0,0,1,2.05-6.3c.62-1.1.35-1.62-.75-2.38-2.64-1.81-5.32-3.59-7.85-5.55a21.55,21.55,0,0,1-5.22-6.71c.4-.46.78-.92,1.17-1.38a37.15,37.15,0,0,0,2.16,3.62,15.62,15.62,0,0,0,4.39,4.73c2.55,1.77,5.13,3.47,7.72,5.18,1.28.84,1.3,1.24.55,2.61a24.67,24.67,0,0,0-1.76,4.05c-.47,1.37-.75,2.8-1.09,4.21a1.31,1.31,0,0,1-1.26,1.1c-.77.06-1.53.15-2.3.16a48.36,48.36,0,0,1-7.22,0A105.13,105.13,0,0,1,330.05,286a59.57,59.57,0,0,1-7.71-2.35A14,14,0,0,1,321,283c.34-.34.67-.69,1-1,.43.28.87.55,1.3.86"></path> <path d="M338.5,263.76a21.55,21.55,0,0,0,5.22,6.71c2.53,2,5.21,3.74,7.85,5.55,1.1.76,1.37,1.28.75,2.38a18.29,18.29,0,0,0-2.05,6.3,2,2,0,0,1-1.91,1.95c-1.52.13-3.05.34-4.58.38a39.53,39.53,0,0,1-10.49-1.41c-3.38-.85-6.72-1.85-10-2.78-.43-.31-.87-.58-1.31-.86,5.74-6.06,11.34-12.13,16.55-18.22" style="fill:#fff"></path> <path d="M314.28,247a2.68,2.68,0,0,1,.27,2.65,38.29,38.29,0,0,0-.28,24.64,16.92,16.92,0,0,0,4,6.83A10.62,10.62,0,0,0,321,283c.34-.34.67-.69,1-1a8.3,8.3,0,0,1-2.11-1.69,21.72,21.72,0,0,1-4.3-8.76,37.46,37.46,0,0,1-1-11.89,43.78,43.78,0,0,1,1.63-8.37.67.67,0,0,1,1.08-.4,11.35,11.35,0,0,1,1.12,1,15.36,15.36,0,0,0,5.64,3.76,15,15,0,0,1,1.62.61,14.39,14.39,0,0,0,9.94.84c.84-.22,1-.11,1.1.79a15.6,15.6,0,0,0,1.65,5.65l.17.28c.4-.46.78-.92,1.17-1.38-.11-.24-.23-.47-.32-.71a23.22,23.22,0,0,1-1-5.2c0-.35.55-1,1-1.17a11.61,11.61,0,0,0,5.93-7.51,2.59,2.59,0,0,1,2.49-2.11,2.45,2.45,0,0,0,1-.25,11.77,11.77,0,0,1,7.1-1.26,23.26,23.26,0,0,1,13.16,5.06,4.2,4.2,0,0,0,2.9.86c.28,0,.61-.42.81-.72a11.22,11.22,0,0,0,.38-1.07c1.64-3.23,3.24-6.48,4.94-9.68.84-1.56,1.84-3,2.78-4.55.52-.83.55-1.52-.12-2.06A63.64,63.64,0,0,0,370,224.53c-3.78-1.92-7.82-2.44-12-2.62a29.61,29.61,0,0,0-8.8.94,46.54,46.54,0,0,0-11.86,5.23,1.49,1.49,0,0,1-1.12.16,52.93,52.93,0,0,0-8.29-2.08,3.26,3.26,0,0,0-2.91.7,43.38,43.38,0,0,0-7.81,8,41.48,41.48,0,0,0-2.66,4.1c-.64,1.78-1.21,3.27-1.69,4.78a1.9,1.9,0,0,0,.17,1.23,12.39,12.39,0,0,0,1.19,2.06m24.8-17c-.7-.62-.71-1,.14-1.38,2.79-1.34,5.53-2.82,8.41-3.92a27.49,27.49,0,0,1,12.31-1.56c3.06.26,6.09.65,8.75,2.29s5.49,3.51,8.13,5.41c1.71,1.24,1.72,1.88.86,3.41-1.44,2.55-2.84,5.13-4.25,7.71l.07,0c-.77,1.61-1.5,3.24-2.31,4.83-.57,1.12-.93,1.23-2,.59a36.38,36.38,0,0,0-11.89-4.19,19,19,0,0,0-9.68.31c-1.45.5-2,.06-1.94-1.47a10.91,10.91,0,0,0-.74-4.34,20.35,20.35,0,0,0-5.83-7.73m-20,9.9c.36-.58.66-1.19,1-1.78,1.48-2.54,2.91-5.1,5.25-7,1.5-1.22,3.16-2.18,5.11-1.71a11.61,11.61,0,0,1,3.63,1.67,16.06,16.06,0,0,1,5.84,7.06c.67,1.5,1.53,2.92,1.53,4.64,0,1,.13,1.92.07,2.88a7.46,7.46,0,0,1-.45,2.3,9.62,9.62,0,0,1-3.24,4,6.84,6.84,0,0,1-3.36,1.57c-2.92.19-5.88.06-8.46-1.43a4.9,4.9,0,0,1-3.22-2.38c-.13-.29-.52-.46-.79-.7a4.72,4.72,0,0,1-.81-.8c-.69-1.05-1.32-2.14-2-3.2a4.45,4.45,0,0,1-.12-5.11"></path> <path d="M373.43,241.94c1.41-2.58,2.81-5.16,4.25-7.71.86-1.53.85-2.17-.86-3.41-2.64-1.9-5.36-3.71-8.13-5.41s-5.69-2-8.75-2.29a27.49,27.49,0,0,0-12.31,1.56c-2.88,1.1-5.62,2.58-8.41,3.92-.85.41-.84.76-.14,1.38a20.35,20.35,0,0,1,5.83,7.73,10.73,10.73,0,0,1,.73,4.34c-.05,1.53.5,2,1.95,1.47a19,19,0,0,1,9.68-.31,36.38,36.38,0,0,1,11.89,4.19c1.1.64,1.46.53,2-.59.81-1.59,1.54-3.22,2.31-4.83l-.07,0" style="fill:#fff"></path> <path d="M326,252.07c2.58,1.49,5.54,1.62,8.46,1.43a6.76,6.76,0,0,0,3.35-1.57,9.64,9.64,0,0,0,3.25-4,7.4,7.4,0,0,0,.45-2.3c.05-1-.07-1.92-.07-2.88,0-1.72-.87-3.14-1.54-4.64a16,16,0,0,0-5.83-7.06,11.61,11.61,0,0,0-3.63-1.67c-2-.47-3.61.49-5.11,1.71-2.34,1.89-3.77,4.45-5.25,7-.35.59-.65,1.2-1,1.79a4.44,4.44,0,0,0,.12,5.1c.67,1.06,1.3,2.15,2,3.2a4.72,4.72,0,0,0,.81.8c.27.24.66.41.79.7a4.9,4.9,0,0,0,3.22,2.38" style="fill:#fff"></path> <path d="M203.94,4.84h-5.35V4.43C198.59,2,196,0,192.85,0h-18c-3.16,0-5.74,2-5.74,4.43v.41H164c-4.82,0-8.75,3-8.75,6.75V81.31c0,3.72,3.93,6.75,8.75,6.75h39.91c4.82,0,8.74-3,8.74-6.75V11.59C212.68,7.86,208.76,4.84,203.94,4.84Zm3.53,76.47c0,1.5-1.58,2.72-3.53,2.72H164c-1.95,0-3.53-1.22-3.53-2.72V11.59c0-1.5,1.58-2.72,3.53-2.72h10.3V4.43a.48.48,0,0,1,.52-.4h18c.29,0,.53.18.53.4V8.87h10.56c1.95,0,3.53,1.22,3.53,2.72Z" style="fill:#45ab34"></path> <path d="M203.59,47.41h-39a1.18,1.18,0,0,0-1.27,1.07v14.4A1.18,1.18,0,0,0,164.64,64h39a1.18,1.18,0,0,0,1.27-1.07V48.48A1.18,1.18,0,0,0,203.59,47.41Z" style="fill:#45ab34"></path> <path d="M203.59,65.47h-39a1.18,1.18,0,0,0-1.27,1.07v14.4A1.18,1.18,0,0,0,164.64,82h39a1.18,1.18,0,0,0,1.27-1.07V66.54A1.18,1.18,0,0,0,203.59,65.47Z" style="fill:#45ab34"></path> </g> </g> </svg> 